G04 Layer_Physical_Order=4*
G04 Layer_Color=16711680*
%FSLAX44Y44*%
%MOMM*%
G71*
G01*
G75*
G04:AMPARAMS|DCode=10|XSize=1.4mm|YSize=1mm|CornerRadius=0.125mm|HoleSize=0mm|Usage=FLASHONLY|Rotation=180.000|XOffset=0mm|YOffset=0mm|HoleType=Round|Shape=RoundedRectangle|*
%AMROUNDEDRECTD10*
21,1,1.4000,0.7500,0,0,180.0*
21,1,1.1500,1.0000,0,0,180.0*
1,1,0.2500,-0.5750,0.3750*
1,1,0.2500,0.5750,0.3750*
1,1,0.2500,0.5750,-0.3750*
1,1,0.2500,-0.5750,-0.3750*
%
%ADD10ROUNDEDRECTD10*%
G04:AMPARAMS|DCode=11|XSize=1mm|YSize=0.9mm|CornerRadius=0.1125mm|HoleSize=0mm|Usage=FLASHONLY|Rotation=270.000|XOffset=0mm|YOffset=0mm|HoleType=Round|Shape=RoundedRectangle|*
%AMROUNDEDRECTD11*
21,1,1.0000,0.6750,0,0,270.0*
21,1,0.7750,0.9000,0,0,270.0*
1,1,0.2250,-0.3375,-0.3875*
1,1,0.2250,-0.3375,0.3875*
1,1,0.2250,0.3375,0.3875*
1,1,0.2250,0.3375,-0.3875*
%
%ADD11ROUNDEDRECTD11*%
G04:AMPARAMS|DCode=12|XSize=1mm|YSize=0.9mm|CornerRadius=0.1125mm|HoleSize=0mm|Usage=FLASHONLY|Rotation=0.000|XOffset=0mm|YOffset=0mm|HoleType=Round|Shape=RoundedRectangle|*
%AMROUNDEDRECTD12*
21,1,1.0000,0.6750,0,0,0.0*
21,1,0.7750,0.9000,0,0,0.0*
1,1,0.2250,0.3875,-0.3375*
1,1,0.2250,-0.3875,-0.3375*
1,1,0.2250,-0.3875,0.3375*
1,1,0.2250,0.3875,0.3375*
%
%ADD12ROUNDEDRECTD12*%
%ADD13R,1.0000X1.0000*%
G04:AMPARAMS|DCode=20|XSize=0.65mm|YSize=0.5mm|CornerRadius=0.05mm|HoleSize=0mm|Usage=FLASHONLY|Rotation=90.000|XOffset=0mm|YOffset=0mm|HoleType=Round|Shape=RoundedRectangle|*
%AMROUNDEDRECTD20*
21,1,0.6500,0.4000,0,0,90.0*
21,1,0.5500,0.5000,0,0,90.0*
1,1,0.1000,0.2000,0.2750*
1,1,0.1000,0.2000,-0.2750*
1,1,0.1000,-0.2000,-0.2750*
1,1,0.1000,-0.2000,0.2750*
%
%ADD20ROUNDEDRECTD20*%
G04:AMPARAMS|DCode=35|XSize=1.3mm|YSize=0.8mm|CornerRadius=0.1mm|HoleSize=0mm|Usage=FLASHONLY|Rotation=270.000|XOffset=0mm|YOffset=0mm|HoleType=Round|Shape=RoundedRectangle|*
%AMROUNDEDRECTD35*
21,1,1.3000,0.6000,0,0,270.0*
21,1,1.1000,0.8000,0,0,270.0*
1,1,0.2000,-0.3000,-0.5500*
1,1,0.2000,-0.3000,0.5500*
1,1,0.2000,0.3000,0.5500*
1,1,0.2000,0.3000,-0.5500*
%
%ADD35ROUNDEDRECTD35*%
%ADD41C,0.3000*%
%ADD42C,0.7500*%
%ADD43C,0.4000*%
%ADD44C,0.5000*%
%ADD45C,0.9000*%
%ADD46C,0.6000*%
%ADD48C,0.2000*%
%ADD51C,1.3500*%
%ADD52R,1.3500X1.3500*%
%ADD53C,1.5000*%
%ADD54R,1.5000X1.5000*%
%ADD55C,0.8000*%
%ADD56R,1.4000X1.4000*%
%ADD57C,1.4000*%
%ADD58C,3.5000*%
%ADD59C,0.9000*%
%ADD60C,1.0000*%
%ADD61C,0.7000*%
%ADD62R,1.4000X1.0000*%
%ADD63R,0.2500X0.7000*%
%ADD64R,2.3000X1.5000*%
G04:AMPARAMS|DCode=65|XSize=0.8mm|YSize=0.8mm|CornerRadius=0.1mm|HoleSize=0mm|Usage=FLASHONLY|Rotation=180.000|XOffset=0mm|YOffset=0mm|HoleType=Round|Shape=RoundedRectangle|*
%AMROUNDEDRECTD65*
21,1,0.8000,0.6000,0,0,180.0*
21,1,0.6000,0.8000,0,0,180.0*
1,1,0.2000,-0.3000,0.3000*
1,1,0.2000,0.3000,0.3000*
1,1,0.2000,0.3000,-0.3000*
1,1,0.2000,-0.3000,-0.3000*
%
%ADD65ROUNDEDRECTD65*%
%ADD66R,1.5000X2.0000*%
%ADD67R,2.0000X1.5000*%
%ADD68R,0.6000X1.0500*%
%ADD69R,1.1000X1.8000*%
G04:AMPARAMS|DCode=70|XSize=1.4mm|YSize=1mm|CornerRadius=0.125mm|HoleSize=0mm|Usage=FLASHONLY|Rotation=270.000|XOffset=0mm|YOffset=0mm|HoleType=Round|Shape=RoundedRectangle|*
%AMROUNDEDRECTD70*
21,1,1.4000,0.7500,0,0,270.0*
21,1,1.1500,1.0000,0,0,270.0*
1,1,0.2500,-0.3750,-0.5750*
1,1,0.2500,-0.3750,0.5750*
1,1,0.2500,0.3750,0.5750*
1,1,0.2500,0.3750,-0.5750*
%
%ADD70ROUNDEDRECTD70*%
G36*
X154000Y-10000D02*
Y-90000D01*
X176000Y-112000D01*
X218704D01*
X219259Y-112230D01*
X222000Y-112591D01*
X224741Y-112230D01*
X225296Y-112000D01*
X246550Y-112000D01*
X247176Y-113270D01*
X246449Y-114218D01*
X245693Y-116042D01*
X245435Y-118000D01*
X245693Y-119958D01*
X246449Y-121782D01*
X247651Y-123349D01*
Y-123651D01*
X246449Y-125218D01*
X245693Y-127042D01*
X245435Y-129000D01*
X245693Y-130958D01*
X246449Y-132782D01*
X247651Y-134349D01*
X249218Y-135551D01*
X251042Y-136307D01*
X253000Y-136565D01*
X254958Y-136307D01*
X256782Y-135551D01*
X258349Y-134349D01*
X259551Y-132782D01*
X260307Y-130958D01*
X260565Y-129000D01*
X260307Y-127042D01*
X259551Y-125218D01*
X258349Y-123651D01*
Y-123349D01*
X259551Y-121782D01*
X260307Y-119958D01*
X260565Y-118000D01*
X260307Y-116042D01*
X259551Y-114218D01*
X258824Y-113270D01*
X259450Y-112000D01*
X305000D01*
Y-263435D01*
X302000D01*
X301812Y-263460D01*
X294460D01*
Y-270812D01*
X294435Y-271000D01*
X294460Y-271188D01*
Y-278540D01*
X301812D01*
X302000Y-278565D01*
X305000D01*
Y-314716D01*
X303730Y-315147D01*
X303349Y-314651D01*
X301782Y-313449D01*
X299958Y-312693D01*
X298000Y-312435D01*
X296042Y-312693D01*
X294218Y-313449D01*
X292651Y-314651D01*
X291449Y-316218D01*
X290693Y-318042D01*
X290435Y-320000D01*
X290693Y-321958D01*
X291449Y-323782D01*
X292492Y-325142D01*
X292145Y-326412D01*
X285900D01*
X282588Y-323100D01*
Y-307848D01*
X283644Y-307142D01*
X284042Y-307307D01*
X286000Y-307565D01*
X287958Y-307307D01*
X289782Y-306551D01*
X291349Y-305349D01*
X292551Y-303782D01*
X293307Y-301958D01*
X293565Y-300000D01*
X293307Y-298042D01*
X292551Y-296218D01*
X291349Y-294651D01*
X289782Y-293449D01*
X287958Y-292693D01*
X286000Y-292435D01*
X284042Y-292693D01*
X283644Y-292858D01*
X282588Y-292152D01*
Y-290000D01*
X282239Y-288244D01*
X281244Y-286756D01*
X267244Y-272755D01*
X265755Y-271761D01*
X263999Y-271411D01*
X261932D01*
X261349Y-270650D01*
X259782Y-269448D01*
X257957Y-268692D01*
X256000Y-268435D01*
X254042Y-268692D01*
X252217Y-269448D01*
X250650Y-270650D01*
X249448Y-272217D01*
X248692Y-274042D01*
X248435Y-275999D01*
X248692Y-277957D01*
X249448Y-279782D01*
X250650Y-281348D01*
X252217Y-282551D01*
X254042Y-283306D01*
X256000Y-283564D01*
X257957Y-283306D01*
X259782Y-282551D01*
X261348Y-281348D01*
X262910Y-281399D01*
X273412Y-291901D01*
Y-298264D01*
X272239Y-298750D01*
X270244Y-296756D01*
X268756Y-295761D01*
X267000Y-295412D01*
X263933D01*
X263349Y-294651D01*
X261782Y-293449D01*
X259958Y-292693D01*
X258000Y-292435D01*
X256042Y-292693D01*
X254218Y-293449D01*
X252651Y-294651D01*
X251449Y-296218D01*
X250693Y-298042D01*
X250435Y-300000D01*
X250693Y-301958D01*
X251449Y-303782D01*
X252651Y-305349D01*
X254218Y-306551D01*
X256042Y-307307D01*
X258000Y-307565D01*
X259958Y-307307D01*
X261782Y-306551D01*
X263349Y-305349D01*
X263866Y-304676D01*
X265138Y-304626D01*
X266412Y-305900D01*
Y-323253D01*
X265142Y-323684D01*
X264349Y-322651D01*
X262782Y-321449D01*
X260958Y-320693D01*
X259000Y-320435D01*
X257042Y-320693D01*
X255218Y-321449D01*
X253651Y-322651D01*
X252449Y-324218D01*
X251693Y-326042D01*
X251435Y-328000D01*
X251693Y-329958D01*
X252449Y-331782D01*
X253651Y-333349D01*
X255218Y-334551D01*
X256349Y-335020D01*
Y-336394D01*
X256218Y-336449D01*
X254651Y-337651D01*
X253449Y-339218D01*
X252693Y-341042D01*
X252435Y-343000D01*
X252693Y-344958D01*
X253449Y-346782D01*
X253622Y-347007D01*
X252821Y-348051D01*
X251958Y-347693D01*
X250000Y-347435D01*
X248042Y-347693D01*
X246218Y-348449D01*
X244651Y-349651D01*
X243449Y-351218D01*
X242693Y-353042D01*
X242435Y-355000D01*
X242693Y-356958D01*
X243449Y-358782D01*
X244651Y-360349D01*
X246218Y-361551D01*
X248042Y-362307D01*
X250000Y-362565D01*
X251958Y-362307D01*
X253782Y-361551D01*
X255349Y-360349D01*
X256551Y-358782D01*
X257307Y-356958D01*
X257565Y-355000D01*
X257307Y-353042D01*
X256551Y-351218D01*
X256378Y-350993D01*
X257179Y-349949D01*
X258042Y-350307D01*
X260000Y-350565D01*
X261958Y-350307D01*
X263782Y-349551D01*
X265349Y-348349D01*
X266551Y-346782D01*
X267307Y-344958D01*
X267565Y-343000D01*
X267307Y-341042D01*
X266551Y-339218D01*
X265349Y-337651D01*
X263782Y-336449D01*
X262651Y-335980D01*
Y-334606D01*
X262782Y-334551D01*
X264349Y-333349D01*
X265142Y-332316D01*
X266412Y-332747D01*
Y-335000D01*
X266761Y-336756D01*
X267756Y-338244D01*
X275756Y-346244D01*
X277244Y-347239D01*
X279000Y-347588D01*
X295067D01*
X295651Y-348349D01*
X297218Y-349551D01*
X299042Y-350307D01*
X301000Y-350565D01*
X302958Y-350307D01*
X304782Y-349551D01*
X306349Y-348349D01*
X307083Y-347392D01*
X308624Y-347313D01*
X308651Y-347349D01*
X310218Y-348551D01*
X312042Y-349307D01*
X314000Y-349565D01*
X315958Y-349307D01*
X317782Y-348551D01*
X319349Y-347349D01*
X320551Y-345782D01*
X321307Y-343958D01*
X321565Y-342000D01*
X321307Y-340042D01*
X320551Y-338218D01*
X319824Y-337270D01*
X320450Y-336000D01*
X322435D01*
X322693Y-337958D01*
X323449Y-339782D01*
X324651Y-341349D01*
X326218Y-342551D01*
X328042Y-343307D01*
X330000Y-343565D01*
X331958Y-343307D01*
X333782Y-342551D01*
X335349Y-341349D01*
X336551Y-339782D01*
X337307Y-337958D01*
X337565Y-336000D01*
X367547D01*
X368675Y-337270D01*
X368406Y-340000D01*
X368782Y-343823D01*
X369897Y-347498D01*
X371708Y-350886D01*
X374145Y-353855D01*
X377114Y-356292D01*
X380502Y-358103D01*
X384177Y-359218D01*
X388000Y-359594D01*
X391823Y-359218D01*
X395499Y-358103D01*
X398886Y-356292D01*
X401855Y-353855D01*
X404292Y-350886D01*
X406103Y-347498D01*
X407218Y-343823D01*
X407594Y-340000D01*
X407326Y-337270D01*
X408453Y-336000D01*
X446000D01*
Y-354500D01*
Y-374500D01*
X461385D01*
X462125Y-375632D01*
X462120Y-375770D01*
X460225Y-377225D01*
X458702Y-379209D01*
X458618Y-379412D01*
X430000D01*
X428244Y-379761D01*
X428008Y-379919D01*
X422625D01*
X421016Y-380239D01*
X419877Y-381000D01*
X415123D01*
X413984Y-380239D01*
X412375Y-379919D01*
X405625D01*
X404016Y-380239D01*
X402651Y-381151D01*
X401739Y-382515D01*
X401419Y-384125D01*
Y-386092D01*
X393756Y-393756D01*
X392956Y-394953D01*
X391515Y-395239D01*
X390377Y-396000D01*
X384794D01*
X384305Y-395673D01*
X382875Y-395388D01*
X380770D01*
Y-403000D01*
Y-410612D01*
X382875D01*
X384305Y-410327D01*
X384795Y-410000D01*
X390088D01*
X390628Y-411104D01*
X390646Y-411158D01*
X389739Y-412515D01*
X389466Y-413888D01*
X388008Y-415008D01*
X386885Y-416470D01*
X386761Y-416771D01*
X386522Y-416878D01*
X385328Y-416911D01*
X384492Y-415821D01*
X383030Y-414699D01*
X381327Y-413994D01*
X379500Y-413753D01*
X377673Y-413994D01*
X375970Y-414699D01*
X374507Y-415821D01*
X373386Y-417284D01*
X372680Y-418986D01*
X372440Y-420814D01*
X372680Y-422641D01*
X373386Y-424344D01*
X374507Y-425806D01*
X375970Y-426928D01*
X377673Y-427634D01*
X379500Y-427874D01*
X381327Y-427634D01*
X383030Y-426928D01*
X384492Y-425806D01*
X385614Y-424344D01*
X385739Y-424043D01*
X385978Y-423936D01*
X387172Y-423903D01*
X388008Y-424992D01*
X389470Y-426114D01*
X391173Y-426820D01*
X393000Y-427060D01*
X394827Y-426820D01*
X396530Y-426114D01*
X396574Y-426081D01*
X400375D01*
X401984Y-425761D01*
X403123Y-425000D01*
X408705D01*
X409195Y-425327D01*
X410625Y-425612D01*
X412730D01*
Y-418000D01*
X414000D01*
Y-416730D01*
X421112D01*
Y-414125D01*
X420828Y-412695D01*
X420536Y-412258D01*
X420940Y-411451D01*
X421276Y-411081D01*
X427875D01*
X429484Y-410761D01*
X430849Y-409849D01*
X431761Y-408484D01*
X431939Y-407588D01*
X435000D01*
X436756Y-407239D01*
X438244Y-406244D01*
X438317Y-406171D01*
X438520Y-406255D01*
X441000Y-406582D01*
X443480Y-406255D01*
X445791Y-405298D01*
X447775Y-403775D01*
X449298Y-401791D01*
X450256Y-399480D01*
X450582Y-397000D01*
X450256Y-394520D01*
X449298Y-392209D01*
X447775Y-390224D01*
X447298Y-389858D01*
X447729Y-388588D01*
X458618D01*
X458702Y-388791D01*
X460225Y-390775D01*
X462209Y-392298D01*
X464520Y-393255D01*
X467000Y-393582D01*
X468730Y-393354D01*
X470000Y-394310D01*
Y-402489D01*
X468944Y-403194D01*
X468351Y-402948D01*
X467000Y-402771D01*
Y-412730D01*
Y-422689D01*
X468351Y-422512D01*
X468944Y-422266D01*
X470000Y-422971D01*
Y-439381D01*
X468730Y-439569D01*
X468103Y-437502D01*
X466292Y-434114D01*
X463855Y-431145D01*
X460886Y-428708D01*
X457498Y-426897D01*
X453823Y-425782D01*
X450000Y-425406D01*
X446177Y-425782D01*
X442502Y-426897D01*
X439114Y-428708D01*
X436145Y-431145D01*
X433708Y-434114D01*
X431897Y-437502D01*
X430782Y-441177D01*
X430406Y-445000D01*
X430782Y-448823D01*
X431897Y-452498D01*
X433708Y-455886D01*
X436145Y-458855D01*
X439114Y-461292D01*
X442502Y-463103D01*
X446177Y-464218D01*
X450000Y-464594D01*
X453823Y-464218D01*
X457498Y-463103D01*
X460886Y-461292D01*
X463855Y-458855D01*
X466292Y-455886D01*
X468103Y-452498D01*
X468730Y-450431D01*
X470000Y-450619D01*
Y-475000D01*
X10000Y-475000D01*
Y-455619D01*
X11270Y-455431D01*
X11897Y-457498D01*
X13708Y-460886D01*
X16145Y-463855D01*
X19114Y-466292D01*
X22502Y-468103D01*
X26177Y-469218D01*
X30000Y-469594D01*
X33823Y-469218D01*
X37498Y-468103D01*
X40886Y-466292D01*
X43855Y-463855D01*
X46292Y-460886D01*
X48103Y-457498D01*
X49218Y-453823D01*
X49594Y-450000D01*
X49218Y-446177D01*
X48103Y-442502D01*
X46292Y-439114D01*
X43855Y-436145D01*
X40886Y-433708D01*
X37498Y-431897D01*
X33823Y-430782D01*
X30000Y-430406D01*
X26177Y-430782D01*
X22502Y-431897D01*
X19114Y-433708D01*
X16145Y-436145D01*
X13708Y-439114D01*
X11897Y-442502D01*
X11270Y-444569D01*
X10000Y-444381D01*
X10000Y-35619D01*
X11270Y-35431D01*
X11897Y-37498D01*
X13708Y-40886D01*
X16145Y-43855D01*
X19114Y-46292D01*
X22502Y-48103D01*
X26177Y-49218D01*
X30000Y-49594D01*
X33823Y-49218D01*
X37498Y-48103D01*
X40886Y-46292D01*
X43855Y-43855D01*
X46292Y-40886D01*
X48103Y-37498D01*
X49218Y-33823D01*
X49594Y-30000D01*
X49218Y-26177D01*
X48103Y-22502D01*
X46292Y-19114D01*
X43855Y-16145D01*
X40886Y-13708D01*
X37498Y-11897D01*
X35431Y-11270D01*
X35619Y-10000D01*
X154000Y-10000D01*
D02*
G37*
G36*
X434000Y-51000D02*
X458000D01*
X467000Y-60000D01*
Y-63397D01*
X465730Y-63649D01*
X465551Y-63218D01*
X464349Y-61651D01*
X462782Y-60449D01*
X460958Y-59693D01*
X459000Y-59435D01*
X457042Y-59693D01*
X455218Y-60449D01*
X453651Y-61651D01*
X452449Y-63218D01*
X451693Y-65042D01*
X451435Y-67000D01*
X451693Y-68958D01*
X452449Y-70782D01*
X453651Y-72349D01*
X455218Y-73551D01*
X457042Y-74307D01*
X459000Y-74565D01*
X460958Y-74307D01*
X462782Y-73551D01*
X464349Y-72349D01*
X465551Y-70782D01*
X465730Y-70351D01*
X467000Y-70603D01*
Y-127209D01*
X465730Y-127629D01*
X464706Y-126294D01*
X463035Y-125012D01*
X461088Y-124206D01*
X459000Y-123931D01*
X456912Y-124206D01*
X454966Y-125012D01*
X453294Y-126294D01*
X452012Y-127965D01*
X451206Y-129912D01*
X450931Y-132000D01*
X451206Y-134088D01*
X452012Y-136034D01*
X453294Y-137706D01*
X454966Y-138988D01*
X456912Y-139794D01*
X459000Y-140069D01*
X461088Y-139794D01*
X463035Y-138988D01*
X464706Y-137706D01*
X465730Y-136371D01*
X467000Y-136791D01*
Y-275000D01*
Y-324885D01*
X400320D01*
X398886Y-323708D01*
X395499Y-321897D01*
X391823Y-320782D01*
X388000Y-320406D01*
X384177Y-320782D01*
X380502Y-321897D01*
X377114Y-323708D01*
X375680Y-324885D01*
X309966D01*
Y-279000D01*
X310000D01*
Y-278565D01*
X314000D01*
X315958Y-278307D01*
X317782Y-277551D01*
X319349Y-276349D01*
X320551Y-274782D01*
X321307Y-272958D01*
X321565Y-271000D01*
X321307Y-269042D01*
X320551Y-267218D01*
X319349Y-265651D01*
X317782Y-264449D01*
X315958Y-263693D01*
X314000Y-263435D01*
X310000D01*
Y-263000D01*
X309966D01*
Y-200000D01*
X340000Y-169966D01*
X340000Y-80000D01*
X357000D01*
X387000Y-30000D01*
X420000D01*
X434000Y-51000D01*
D02*
G37*
%LPC*%
G36*
X117375Y-14388D02*
X115270D01*
Y-20730D01*
X121112D01*
Y-18125D01*
X120827Y-16695D01*
X120017Y-15483D01*
X118805Y-14673D01*
X117375Y-14388D01*
D02*
G37*
G36*
X79000Y-67000D02*
X62000D01*
Y-71675D01*
X61170Y-72032D01*
X60730Y-72130D01*
X59408Y-71247D01*
X57750Y-70917D01*
X46250D01*
X44592Y-71247D01*
X43186Y-72186D01*
X42720Y-72882D01*
X37447D01*
X36484Y-72239D01*
X34875Y-71919D01*
X27125D01*
X25515Y-72239D01*
X24151Y-73151D01*
X23239Y-74516D01*
X22919Y-76125D01*
Y-82875D01*
X23239Y-84485D01*
X24151Y-85849D01*
X25000Y-86416D01*
Y-89584D01*
X24151Y-90151D01*
X23239Y-91516D01*
X22919Y-93125D01*
Y-99875D01*
X23239Y-101484D01*
X24151Y-102849D01*
X24192Y-102876D01*
Y-108838D01*
X23693Y-110042D01*
X23435Y-112000D01*
X23693Y-113958D01*
X24449Y-115782D01*
X25651Y-117349D01*
X27218Y-118551D01*
X29042Y-119307D01*
X31000Y-119565D01*
X32958Y-119307D01*
X34782Y-118551D01*
X36349Y-117349D01*
X37551Y-115782D01*
X38307Y-113958D01*
X38565Y-112000D01*
X38307Y-110042D01*
X37808Y-108838D01*
Y-102876D01*
X37849Y-102849D01*
X38761Y-101484D01*
X39081Y-99875D01*
Y-93125D01*
X38761Y-91516D01*
X37849Y-90151D01*
X37000Y-89584D01*
Y-86416D01*
X37849Y-85849D01*
X38338Y-85118D01*
X42720D01*
X43000Y-85536D01*
Y-91292D01*
X42680Y-91771D01*
X42386Y-93250D01*
Y-95730D01*
X52000D01*
X61614D01*
Y-93250D01*
X61367Y-92008D01*
X62008Y-91247D01*
X62332Y-91000D01*
X79000D01*
Y-67000D01*
D02*
G37*
G36*
X100375Y-13919D02*
X93625D01*
X92015Y-14239D01*
X90651Y-15151D01*
X89739Y-16516D01*
X89419Y-18125D01*
Y-25875D01*
X89739Y-27485D01*
X90163Y-28119D01*
X90500Y-29250D01*
X90500Y-29250D01*
X90500D01*
X90500Y-29250D01*
Y-45750D01*
X91912D01*
Y-46500D01*
X92261Y-48256D01*
X93256Y-49744D01*
X94756Y-51244D01*
X96244Y-52239D01*
X98000Y-52588D01*
X100000D01*
Y-67000D01*
X89000D01*
Y-91000D01*
X89000D01*
X89014Y-92098D01*
X88981Y-92262D01*
X87877Y-93000D01*
X82295D01*
X81805Y-92673D01*
X80375Y-92388D01*
X78270D01*
Y-100000D01*
X77000D01*
Y-101270D01*
X69888D01*
Y-103875D01*
X70172Y-105305D01*
X70982Y-106517D01*
X72195Y-107327D01*
X72322Y-107353D01*
Y-108647D01*
X72195Y-108673D01*
X70983Y-109483D01*
X70173Y-110695D01*
X69888Y-112125D01*
Y-114730D01*
X77000D01*
Y-116000D01*
X78270D01*
Y-123612D01*
X80375D01*
X81805Y-123327D01*
X82295Y-123000D01*
X87877D01*
X89016Y-123761D01*
X90625Y-124081D01*
X97375D01*
X98881Y-123781D01*
X98912Y-123794D01*
X101000Y-124069D01*
X102687Y-123847D01*
X102977Y-124116D01*
X102485Y-125370D01*
X102465Y-125386D01*
X102270D01*
Y-135000D01*
Y-144614D01*
X104750D01*
X106229Y-144320D01*
X106708Y-144000D01*
X112464D01*
X113592Y-144753D01*
X115250Y-145083D01*
X122750D01*
X124408Y-144753D01*
X125814Y-143814D01*
X126292Y-143099D01*
X126966Y-142988D01*
X128912Y-143794D01*
X131000Y-144069D01*
X133088Y-143794D01*
X135035Y-142988D01*
X136706Y-141706D01*
X137988Y-140035D01*
X138794Y-138088D01*
X139069Y-136000D01*
X138794Y-133912D01*
X137988Y-131966D01*
X136706Y-130294D01*
X136364Y-130032D01*
X136114Y-124039D01*
X136768Y-123061D01*
X137078Y-121500D01*
Y-110500D01*
X136768Y-108939D01*
X135884Y-107616D01*
X134561Y-106732D01*
X133000Y-106422D01*
X132352D01*
X118569Y-92638D01*
Y-91250D01*
X118297Y-89884D01*
X117523Y-88727D01*
X117500Y-88711D01*
Y-81289D01*
X117523Y-81273D01*
X118297Y-80116D01*
X118569Y-78750D01*
Y-76197D01*
X118608Y-76000D01*
X118569Y-75803D01*
Y-73250D01*
X118297Y-71884D01*
X117523Y-70727D01*
X116366Y-69953D01*
X115000Y-69681D01*
X112817D01*
X112000Y-68750D01*
Y-52588D01*
X120099D01*
X121756Y-54244D01*
X123244Y-55239D01*
X124126Y-55414D01*
X124239Y-55985D01*
X125000Y-57123D01*
Y-61877D01*
X124239Y-63015D01*
X123919Y-64625D01*
Y-71375D01*
X124239Y-72984D01*
X125151Y-74349D01*
X126516Y-75261D01*
X128125Y-75581D01*
X135875D01*
X137485Y-75261D01*
X138849Y-74349D01*
X139761Y-72984D01*
X140081Y-71375D01*
Y-64625D01*
X139761Y-63015D01*
X139000Y-61877D01*
Y-57123D01*
X139761Y-55985D01*
X140081Y-54375D01*
Y-47625D01*
X139761Y-46016D01*
X138849Y-44651D01*
X137485Y-43739D01*
X135875Y-43419D01*
X128125D01*
X126516Y-43739D01*
X125151Y-44651D01*
X125132Y-44680D01*
X123756Y-43761D01*
X122000Y-43412D01*
X121040D01*
Y-38770D01*
X115500D01*
Y-36230D01*
X121040D01*
Y-29710D01*
X120518D01*
X120159Y-28854D01*
X120069Y-28440D01*
X120827Y-27305D01*
X121112Y-25875D01*
Y-23270D01*
X114000D01*
Y-22000D01*
X112730D01*
Y-14388D01*
X110625D01*
X109195Y-14673D01*
X108705Y-15000D01*
X103123D01*
X101985Y-14239D01*
X100375Y-13919D01*
D02*
G37*
G36*
X75730Y-92388D02*
X73625D01*
X72195Y-92673D01*
X70982Y-93483D01*
X70172Y-94695D01*
X69888Y-96125D01*
Y-98730D01*
X75730D01*
Y-92388D01*
D02*
G37*
G36*
X61614Y-98270D02*
X53270D01*
Y-104614D01*
X57750D01*
X59229Y-104320D01*
X60482Y-103482D01*
X61320Y-102229D01*
X61614Y-100750D01*
Y-98270D01*
D02*
G37*
G36*
X50730D02*
X42386D01*
Y-100750D01*
X42680Y-102229D01*
X43518Y-103482D01*
X44771Y-104320D01*
X46250Y-104614D01*
X50730D01*
Y-98270D01*
D02*
G37*
G36*
X75730Y-117270D02*
X69888D01*
Y-119875D01*
X70173Y-121305D01*
X70983Y-122517D01*
X72195Y-123327D01*
X73625Y-123612D01*
X75730D01*
Y-117270D01*
D02*
G37*
G36*
X276000Y-114435D02*
X274042Y-114693D01*
X272218Y-115449D01*
X270651Y-116651D01*
X269449Y-118218D01*
X268693Y-120042D01*
X268435Y-122000D01*
X268693Y-123958D01*
X269449Y-125782D01*
X270651Y-127349D01*
X272218Y-128551D01*
X274042Y-129307D01*
X276000Y-129565D01*
X277958Y-129307D01*
X279782Y-128551D01*
X281349Y-127349D01*
X282551Y-125782D01*
X283307Y-123958D01*
X283565Y-122000D01*
X283307Y-120042D01*
X282551Y-118218D01*
X281349Y-116651D01*
X279782Y-115449D01*
X277958Y-114693D01*
X276000Y-114435D01*
D02*
G37*
G36*
X99730Y-125386D02*
X97250D01*
X95771Y-125680D01*
X94517Y-126518D01*
X93680Y-127771D01*
X93386Y-129250D01*
Y-133730D01*
X99730D01*
Y-125386D01*
D02*
G37*
G36*
Y-136270D02*
X93386D01*
Y-140750D01*
X93680Y-142229D01*
X94517Y-143482D01*
X95771Y-144320D01*
X97250Y-144614D01*
X99730D01*
Y-136270D01*
D02*
G37*
G36*
X126750Y-165694D02*
X125053Y-165917D01*
X123472Y-166572D01*
X122114Y-167614D01*
X121072Y-168972D01*
X121032Y-169069D01*
X119523Y-169394D01*
X118778Y-168822D01*
X117197Y-168167D01*
X115500Y-167944D01*
X113803Y-168167D01*
X112222Y-168822D01*
X110864Y-169864D01*
X109822Y-171222D01*
X109167Y-172803D01*
X108944Y-174500D01*
X109167Y-176197D01*
X109359Y-176660D01*
X108511Y-177930D01*
X105710D01*
Y-182700D01*
X109500D01*
Y-185240D01*
X105710D01*
Y-187960D01*
X104960D01*
Y-196730D01*
X119000D01*
X133040D01*
Y-187960D01*
X132790D01*
Y-185270D01*
X129000D01*
Y-182730D01*
X132790D01*
Y-177960D01*
X132072D01*
X131730Y-177425D01*
X131536Y-176690D01*
X132428Y-175528D01*
X133083Y-173947D01*
X133306Y-172250D01*
X133083Y-170553D01*
X132428Y-168972D01*
X131386Y-167614D01*
X130028Y-166572D01*
X128447Y-165917D01*
X126750Y-165694D01*
D02*
G37*
G36*
X287000Y-180435D02*
X285042Y-180693D01*
X283218Y-181449D01*
X281651Y-182651D01*
X280449Y-184218D01*
X279693Y-186042D01*
X279569Y-186986D01*
X278183Y-187786D01*
X277958Y-187693D01*
X276000Y-187435D01*
X274042Y-187693D01*
X273818Y-187786D01*
X272431Y-186986D01*
X272307Y-186042D01*
X271551Y-184218D01*
X270349Y-182651D01*
X268782Y-181449D01*
X266958Y-180693D01*
X265000Y-180435D01*
X263042Y-180693D01*
X261218Y-181449D01*
X259651Y-182651D01*
X258449Y-184218D01*
X257693Y-186042D01*
X257435Y-188000D01*
X257693Y-189958D01*
X258449Y-191782D01*
X259651Y-193349D01*
X261218Y-194551D01*
X263042Y-195307D01*
X265000Y-195565D01*
X266958Y-195307D01*
X267183Y-195214D01*
X268569Y-196014D01*
X268693Y-196958D01*
X269449Y-198782D01*
X270651Y-200349D01*
X272218Y-201551D01*
X274042Y-202307D01*
X276000Y-202565D01*
X277958Y-202307D01*
X279782Y-201551D01*
X281349Y-200349D01*
X282551Y-198782D01*
X283307Y-196958D01*
X283431Y-196014D01*
X284818Y-195214D01*
X285042Y-195307D01*
X287000Y-195565D01*
X288958Y-195307D01*
X290782Y-194551D01*
X292349Y-193349D01*
X293551Y-191782D01*
X294307Y-189958D01*
X294565Y-188000D01*
X294307Y-186042D01*
X293551Y-184218D01*
X292349Y-182651D01*
X290782Y-181449D01*
X288958Y-180693D01*
X287000Y-180435D01*
D02*
G37*
G36*
X148875Y-188888D02*
X146270D01*
Y-194730D01*
X152612D01*
Y-192625D01*
X152327Y-191195D01*
X151517Y-189982D01*
X150305Y-189172D01*
X148875Y-188888D01*
D02*
G37*
G36*
X143730D02*
X141125D01*
X139695Y-189172D01*
X138483Y-189982D01*
X137673Y-191195D01*
X137388Y-192625D01*
Y-194730D01*
X143730D01*
Y-188888D01*
D02*
G37*
G36*
X152612Y-197270D02*
X145000D01*
X137388D01*
Y-199375D01*
X137673Y-200805D01*
X138000Y-201295D01*
Y-206877D01*
X137643Y-207412D01*
X133250D01*
Y-205500D01*
X133040D01*
Y-199270D01*
X119000D01*
X104960D01*
Y-208040D01*
X105250D01*
Y-216103D01*
X104722Y-216322D01*
X103364Y-217364D01*
X102322Y-218722D01*
X101667Y-220303D01*
X101444Y-222000D01*
X101667Y-223696D01*
X101841Y-224116D01*
X100992Y-225386D01*
X98250D01*
X96771Y-225680D01*
X95518Y-226518D01*
X94680Y-227771D01*
X94386Y-229250D01*
Y-236750D01*
X94680Y-238229D01*
X95000Y-238708D01*
Y-244464D01*
X94247Y-245592D01*
X93917Y-247250D01*
Y-254750D01*
X94247Y-256408D01*
X95000Y-257536D01*
Y-264000D01*
X118392D01*
Y-268322D01*
X117151Y-269151D01*
X116239Y-270515D01*
X115919Y-272125D01*
Y-279875D01*
X116239Y-281485D01*
X117151Y-282849D01*
X118516Y-283761D01*
X120125Y-284081D01*
X126875D01*
X128484Y-283761D01*
X129623Y-283000D01*
X134377D01*
X135515Y-283761D01*
X137125Y-284081D01*
X143875D01*
X145485Y-283761D01*
X146849Y-282849D01*
X147678Y-281608D01*
X159000D01*
X161146Y-281181D01*
X162965Y-279965D01*
X166323Y-276608D01*
X167917D01*
Y-276750D01*
X168247Y-278408D01*
X169186Y-279814D01*
X170322Y-280573D01*
X170444Y-281590D01*
X170371Y-282004D01*
X170151Y-282151D01*
X169239Y-283515D01*
X168919Y-285125D01*
Y-292875D01*
X169239Y-294485D01*
X170151Y-295849D01*
X171516Y-296761D01*
X173125Y-297081D01*
X179875D01*
X181485Y-296761D01*
X182623Y-296000D01*
X187377D01*
X188515Y-296761D01*
X190125Y-297081D01*
X196875D01*
X198484Y-296761D01*
X198814Y-296540D01*
X199000Y-296565D01*
X200958Y-296307D01*
X202782Y-295551D01*
X204349Y-294349D01*
X205551Y-292782D01*
X206307Y-290958D01*
X206565Y-289000D01*
X206307Y-287042D01*
X205551Y-285218D01*
X204349Y-283651D01*
X202782Y-282449D01*
X200958Y-281693D01*
X199561Y-281509D01*
X199390Y-280897D01*
X199398Y-280207D01*
X200483Y-279482D01*
X201320Y-278229D01*
X201614Y-276750D01*
Y-272270D01*
X194000D01*
Y-271000D01*
X192730D01*
Y-261386D01*
X190250D01*
X188771Y-261680D01*
X188292Y-262000D01*
X182536D01*
X181408Y-261247D01*
X179750Y-260917D01*
X172250D01*
X171018Y-261162D01*
X170392Y-259991D01*
X171442Y-258942D01*
X171884Y-258280D01*
X172039Y-257500D01*
X171916Y-256882D01*
X172040Y-256500D01*
X172671Y-255612D01*
X173730D01*
Y-248500D01*
X175000D01*
Y-247230D01*
X182612D01*
Y-245125D01*
X182327Y-243695D01*
X182000Y-243205D01*
Y-237623D01*
X182761Y-236485D01*
X183081Y-234875D01*
Y-228504D01*
X183307Y-227958D01*
X183565Y-226000D01*
X183307Y-224042D01*
X182551Y-222218D01*
X181349Y-220651D01*
X179782Y-219449D01*
X177958Y-218693D01*
X176000Y-218435D01*
X174042Y-218693D01*
X172218Y-219449D01*
X170868Y-220484D01*
X164442Y-214058D01*
X163781Y-213616D01*
X163000Y-213461D01*
X163000D01*
X162220Y-213616D01*
X161558Y-214058D01*
X161558Y-214058D01*
X161116Y-214720D01*
X160961Y-215500D01*
X160961Y-222500D01*
X161116Y-223280D01*
X161558Y-223942D01*
X161558Y-223942D01*
X162220Y-224384D01*
X163000Y-224539D01*
X167033D01*
X167711Y-225809D01*
X167239Y-226516D01*
X166919Y-228125D01*
Y-232000D01*
X150000D01*
Y-248000D01*
X167388D01*
Y-251875D01*
X167673Y-253305D01*
X168265Y-254191D01*
X167851Y-255280D01*
X167702Y-255461D01*
X163000D01*
X162220Y-255616D01*
X161558Y-256058D01*
X161558Y-256058D01*
X161116Y-256720D01*
X160961Y-257500D01*
X160961Y-264500D01*
X160961Y-264500D01*
X161116Y-265280D01*
X161116Y-265280D01*
X160745Y-266546D01*
X160558Y-266685D01*
X160035Y-267035D01*
X156677Y-270392D01*
X147678D01*
X146849Y-269151D01*
X145485Y-268239D01*
X143875Y-267919D01*
X137125D01*
X135515Y-268239D01*
X134377Y-269000D01*
X129623D01*
X129608Y-268990D01*
Y-264000D01*
X137000D01*
Y-224000D01*
X136000Y-223000D01*
Y-220000D01*
X134041D01*
X133163Y-218730D01*
X133250Y-218500D01*
X133250D01*
Y-216588D01*
X136962D01*
X137239Y-217985D01*
X138151Y-219349D01*
X139515Y-220261D01*
X141125Y-220581D01*
X148875D01*
X150485Y-220261D01*
X151849Y-219349D01*
X152761Y-217985D01*
X153081Y-216375D01*
Y-209625D01*
X152761Y-208015D01*
X152000Y-206877D01*
Y-201295D01*
X152327Y-200805D01*
X152612Y-199375D01*
Y-197270D01*
D02*
G37*
G36*
X201000Y-220435D02*
X199042Y-220693D01*
X197218Y-221449D01*
X195651Y-222651D01*
X194449Y-224218D01*
X193693Y-226042D01*
X193435Y-228000D01*
X193693Y-229958D01*
X194449Y-231782D01*
X195651Y-233349D01*
X197218Y-234551D01*
X199042Y-235307D01*
X201000Y-235565D01*
X202958Y-235307D01*
X204782Y-234551D01*
X206349Y-233349D01*
X207551Y-231782D01*
X208307Y-229958D01*
X208565Y-228000D01*
X208307Y-226042D01*
X207551Y-224218D01*
X206349Y-222651D01*
X204782Y-221449D01*
X202958Y-220693D01*
X201000Y-220435D01*
D02*
G37*
G36*
X182612Y-249770D02*
X176270D01*
Y-255612D01*
X178875D01*
X180305Y-255327D01*
X181517Y-254517D01*
X182327Y-253305D01*
X182612Y-251875D01*
Y-249770D01*
D02*
G37*
G36*
X243000Y-220406D02*
X239177Y-220782D01*
X235502Y-221897D01*
X232114Y-223708D01*
X229145Y-226145D01*
X226708Y-229114D01*
X224897Y-232502D01*
X223782Y-236177D01*
X223406Y-240000D01*
X223782Y-243823D01*
X224897Y-247498D01*
X226708Y-250886D01*
X229145Y-253855D01*
X232114Y-256292D01*
X235502Y-258103D01*
X239177Y-259218D01*
X243000Y-259594D01*
X246823Y-259218D01*
X250498Y-258103D01*
X253886Y-256292D01*
X256855Y-253855D01*
X259292Y-250886D01*
X261103Y-247498D01*
X262218Y-243823D01*
X262594Y-240000D01*
X262218Y-236177D01*
X261103Y-232502D01*
X259292Y-229114D01*
X256855Y-226145D01*
X253886Y-223708D01*
X250498Y-221897D01*
X246823Y-220782D01*
X243000Y-220406D01*
D02*
G37*
G36*
X43000D02*
X39177Y-220782D01*
X35502Y-221897D01*
X32114Y-223708D01*
X29145Y-226145D01*
X26708Y-229114D01*
X24897Y-232502D01*
X23782Y-236177D01*
X23406Y-240000D01*
X23782Y-243823D01*
X24897Y-247498D01*
X26708Y-250886D01*
X29145Y-253855D01*
X32114Y-256292D01*
X35502Y-258103D01*
X39177Y-259218D01*
X43000Y-259594D01*
X46823Y-259218D01*
X50498Y-258103D01*
X53886Y-256292D01*
X56855Y-253855D01*
X59292Y-250886D01*
X61103Y-247498D01*
X62218Y-243823D01*
X62594Y-240000D01*
X62218Y-236177D01*
X61103Y-232502D01*
X59292Y-229114D01*
X56855Y-226145D01*
X53886Y-223708D01*
X50498Y-221897D01*
X46823Y-220782D01*
X43000Y-220406D01*
D02*
G37*
G36*
X197750Y-261386D02*
X195270D01*
Y-269730D01*
X201614D01*
Y-265250D01*
X201320Y-263771D01*
X200483Y-262518D01*
X199229Y-261680D01*
X197750Y-261386D01*
D02*
G37*
G36*
X74000Y-269940D02*
X72173Y-270180D01*
X70470Y-270886D01*
X69008Y-272008D01*
X67885Y-273470D01*
X67180Y-275173D01*
X66940Y-277000D01*
X67180Y-278827D01*
X67885Y-280530D01*
X69008Y-281992D01*
X70470Y-283114D01*
X72173Y-283820D01*
X74000Y-284060D01*
X75827Y-283820D01*
X77530Y-283114D01*
X78992Y-281992D01*
X80114Y-280530D01*
X80820Y-278827D01*
X81060Y-277000D01*
X80820Y-275173D01*
X80114Y-273470D01*
X78992Y-272008D01*
X77530Y-270886D01*
X75827Y-270180D01*
X74000Y-269940D01*
D02*
G37*
G36*
X75000Y-286940D02*
X73173Y-287180D01*
X71470Y-287885D01*
X70008Y-289008D01*
X68885Y-290470D01*
X68180Y-292173D01*
X67940Y-294000D01*
X68180Y-295827D01*
X68885Y-297530D01*
X70008Y-298992D01*
X71470Y-300114D01*
X73173Y-300820D01*
X75000Y-301060D01*
X76827Y-300820D01*
X78530Y-300114D01*
X79992Y-298992D01*
X81114Y-297530D01*
X81820Y-295827D01*
X82060Y-294000D01*
X81820Y-292173D01*
X81114Y-290470D01*
X79992Y-289008D01*
X78530Y-287885D01*
X76827Y-287180D01*
X75000Y-286940D01*
D02*
G37*
G36*
X209375Y-330919D02*
X202625D01*
X201016Y-331239D01*
X199877Y-332000D01*
X194295D01*
X193805Y-331673D01*
X192375Y-331388D01*
X190270D01*
Y-339000D01*
Y-346612D01*
X192375D01*
X192543Y-346578D01*
X193348Y-347659D01*
X192882Y-350000D01*
X193348Y-352341D01*
X194674Y-354326D01*
X196659Y-355652D01*
X199000Y-356118D01*
X201341Y-355652D01*
X203326Y-354326D01*
X203327Y-354324D01*
X203756Y-354239D01*
X205244Y-353244D01*
X209244Y-349244D01*
X210239Y-347756D01*
X210415Y-346874D01*
X210985Y-346761D01*
X212349Y-345849D01*
X213261Y-344484D01*
X213581Y-342875D01*
Y-335125D01*
X213261Y-333516D01*
X212349Y-332151D01*
X210985Y-331239D01*
X209375Y-330919D01*
D02*
G37*
G36*
X238000Y-285435D02*
X236042Y-285693D01*
X234218Y-286449D01*
X232651Y-287651D01*
X231449Y-289218D01*
X230693Y-291042D01*
X230435Y-293000D01*
X230693Y-294958D01*
X231449Y-296782D01*
X232651Y-298349D01*
X234218Y-299551D01*
X236042Y-300307D01*
X236441Y-300359D01*
Y-301640D01*
X236042Y-301693D01*
X234218Y-302449D01*
X232651Y-303651D01*
X231449Y-305218D01*
X230693Y-307042D01*
X230435Y-309000D01*
X230693Y-310958D01*
X231449Y-312782D01*
X232651Y-314349D01*
X234218Y-315551D01*
X236042Y-316307D01*
X236441Y-316360D01*
Y-317640D01*
X236042Y-317693D01*
X234218Y-318449D01*
X232651Y-319651D01*
X231449Y-321218D01*
X230693Y-323042D01*
X230435Y-325000D01*
X230693Y-326958D01*
X231449Y-328782D01*
X232651Y-330349D01*
X233148Y-330730D01*
X232716Y-332000D01*
X229123D01*
X227984Y-331239D01*
X226375Y-330919D01*
X219625D01*
X218015Y-331239D01*
X216651Y-332151D01*
X215739Y-333516D01*
X215419Y-335125D01*
Y-342875D01*
X215739Y-344484D01*
X216651Y-345849D01*
X218015Y-346761D01*
X219625Y-347081D01*
X219646D01*
X219755Y-347244D01*
X222975Y-350463D01*
X223348Y-352341D01*
X224674Y-354326D01*
X226659Y-355652D01*
X229000Y-356118D01*
X231341Y-355652D01*
X233326Y-354326D01*
X234652Y-352341D01*
X235117Y-350000D01*
X234652Y-347659D01*
X234450Y-347357D01*
X235007Y-346588D01*
X235304Y-346349D01*
X236625Y-346612D01*
X238730D01*
Y-339000D01*
X240000D01*
Y-337730D01*
X247112D01*
Y-335125D01*
X246827Y-333695D01*
X246017Y-332483D01*
X244805Y-331673D01*
X243936Y-331500D01*
X243651Y-330941D01*
X243489Y-330178D01*
X243490Y-330166D01*
X244551Y-328782D01*
X245307Y-326958D01*
X245565Y-325000D01*
X245307Y-323042D01*
X244551Y-321218D01*
X243349Y-319651D01*
X241782Y-318449D01*
X239958Y-317693D01*
X239559Y-317640D01*
Y-316360D01*
X239958Y-316307D01*
X241782Y-315551D01*
X243349Y-314349D01*
X244551Y-312782D01*
X245307Y-310958D01*
X245565Y-309000D01*
X245307Y-307042D01*
X244551Y-305218D01*
X243349Y-303651D01*
X241782Y-302449D01*
X239958Y-301693D01*
X239559Y-301640D01*
Y-300359D01*
X239958Y-300307D01*
X241782Y-299551D01*
X243349Y-298349D01*
X244551Y-296782D01*
X245307Y-294958D01*
X245565Y-293000D01*
X245307Y-291042D01*
X244551Y-289218D01*
X243349Y-287651D01*
X241782Y-286449D01*
X239958Y-285693D01*
X238000Y-285435D01*
D02*
G37*
G36*
X187730Y-331388D02*
X185625D01*
X184195Y-331673D01*
X182983Y-332483D01*
X182173Y-333695D01*
X181888Y-335125D01*
Y-337730D01*
X187730D01*
Y-331388D01*
D02*
G37*
G36*
X247112Y-340270D02*
X241270D01*
Y-346612D01*
X243375D01*
X244805Y-346327D01*
X246017Y-345517D01*
X246827Y-344305D01*
X247112Y-342875D01*
Y-340270D01*
D02*
G37*
G36*
X187730D02*
X181888D01*
Y-342875D01*
X182173Y-344305D01*
X182983Y-345517D01*
X184195Y-346327D01*
X185625Y-346612D01*
X187730D01*
Y-340270D01*
D02*
G37*
G36*
X142500Y-338440D02*
X140673Y-338680D01*
X138970Y-339386D01*
X137508Y-340508D01*
X136386Y-341970D01*
X135680Y-343673D01*
X135440Y-345500D01*
X135680Y-347327D01*
X136386Y-349030D01*
X137508Y-350493D01*
X138970Y-351614D01*
X140673Y-352320D01*
X142500Y-352560D01*
X144327Y-352320D01*
X146030Y-351614D01*
X147493Y-350493D01*
X148615Y-349030D01*
X149320Y-347327D01*
X149560Y-345500D01*
X149320Y-343673D01*
X148615Y-341970D01*
X147493Y-340508D01*
X146030Y-339386D01*
X144327Y-338680D01*
X142500Y-338440D01*
D02*
G37*
G36*
X20000Y-342435D02*
X18042Y-342693D01*
X16218Y-343449D01*
X14651Y-344651D01*
X13449Y-346218D01*
X12693Y-348042D01*
X12435Y-350000D01*
X12693Y-351958D01*
X13449Y-353782D01*
X14651Y-355349D01*
X16218Y-356551D01*
X18042Y-357307D01*
X20000Y-357565D01*
X21958Y-357307D01*
X23782Y-356551D01*
X25349Y-355349D01*
X26551Y-353782D01*
X27307Y-351958D01*
X27565Y-350000D01*
X27307Y-348042D01*
X26551Y-346218D01*
X25349Y-344651D01*
X23782Y-343449D01*
X21958Y-342693D01*
X20000Y-342435D01*
D02*
G37*
G36*
X73000Y-343939D02*
X71172Y-344179D01*
X69470Y-344885D01*
X68007Y-346007D01*
X66885Y-347469D01*
X66180Y-349172D01*
X65939Y-350999D01*
X66180Y-352827D01*
X66885Y-354529D01*
X68007Y-355992D01*
X69470Y-357114D01*
X71172Y-357819D01*
X73000Y-358060D01*
X74827Y-357819D01*
X76530Y-357114D01*
X77992Y-355992D01*
X79114Y-354529D01*
X79820Y-352827D01*
X80060Y-350999D01*
X79820Y-349172D01*
X79114Y-347469D01*
X77992Y-346007D01*
X76530Y-344885D01*
X74827Y-344179D01*
X73000Y-343939D01*
D02*
G37*
G36*
X346000Y-339435D02*
X344042Y-339693D01*
X342218Y-340449D01*
X340651Y-341651D01*
X339449Y-343218D01*
X338693Y-345042D01*
X338435Y-347000D01*
X338693Y-348958D01*
X339230Y-350255D01*
X338623Y-351616D01*
X338041Y-351692D01*
X336217Y-352448D01*
X334650Y-353650D01*
X333448Y-355217D01*
X332692Y-357041D01*
X332435Y-358999D01*
X332676Y-360834D01*
X322756Y-370754D01*
X321761Y-372243D01*
X321412Y-373999D01*
Y-409160D01*
X321016Y-409239D01*
X319877Y-410000D01*
X315123D01*
X313985Y-409239D01*
X312375Y-408919D01*
X305625D01*
X304016Y-409239D01*
X302651Y-410151D01*
X302459Y-410439D01*
X301384Y-411116D01*
X300061Y-410232D01*
X298500Y-409921D01*
X292500D01*
X290939Y-410232D01*
X289616Y-411116D01*
X289025Y-412000D01*
X284422D01*
X284052Y-411447D01*
X282881Y-410665D01*
X281500Y-410390D01*
X279770D01*
Y-416999D01*
Y-423609D01*
X281500D01*
X282881Y-423334D01*
X284052Y-422552D01*
X284421Y-422000D01*
X289026D01*
X289616Y-422883D01*
X290939Y-423767D01*
X292500Y-424078D01*
X298500D01*
X300061Y-423767D01*
X301384Y-422883D01*
X302458Y-423561D01*
X302651Y-423849D01*
X304016Y-424761D01*
X305625Y-425081D01*
X312375D01*
X313985Y-424761D01*
X315123Y-424000D01*
X319877D01*
X321016Y-424761D01*
X322625Y-425081D01*
X329375D01*
X330984Y-424761D01*
X332349Y-423849D01*
X333261Y-422485D01*
X333581Y-420875D01*
Y-413125D01*
X333261Y-411516D01*
X332349Y-410151D01*
X330984Y-409239D01*
X330588Y-409160D01*
Y-375899D01*
X339932Y-366555D01*
X339999Y-366564D01*
X341957Y-366306D01*
X343782Y-365550D01*
X345348Y-364348D01*
X346550Y-362782D01*
X347306Y-360957D01*
X347564Y-358999D01*
X347306Y-357041D01*
X346769Y-355744D01*
X347376Y-354384D01*
X347958Y-354307D01*
X349782Y-353551D01*
X351349Y-352349D01*
X352551Y-350782D01*
X353307Y-348958D01*
X353565Y-347000D01*
X353307Y-345042D01*
X352551Y-343218D01*
X351349Y-341651D01*
X349782Y-340449D01*
X347958Y-339693D01*
X346000Y-339435D01*
D02*
G37*
G36*
X164730Y-362388D02*
X162625D01*
X161195Y-362673D01*
X159983Y-363483D01*
X159172Y-364695D01*
X158888Y-366125D01*
Y-368730D01*
X164730D01*
Y-362388D01*
D02*
G37*
G36*
X109000Y-350940D02*
X107173Y-351180D01*
X105470Y-351886D01*
X104008Y-353008D01*
X102886Y-354470D01*
X102180Y-356173D01*
X101940Y-358000D01*
X102180Y-359827D01*
X102886Y-361530D01*
X104008Y-362993D01*
X104967Y-363729D01*
X105041Y-363899D01*
Y-365101D01*
X104967Y-365271D01*
X104008Y-366007D01*
X102886Y-367470D01*
X102180Y-369173D01*
X101940Y-371000D01*
X102180Y-372827D01*
X102886Y-374530D01*
X104008Y-375992D01*
X104493Y-376365D01*
Y-377635D01*
X104007Y-378007D01*
X102885Y-379469D01*
X102180Y-381172D01*
X101939Y-382999D01*
X102180Y-384827D01*
X102885Y-386529D01*
X104007Y-387992D01*
X105470Y-389114D01*
X105949Y-389312D01*
Y-390687D01*
X105470Y-390886D01*
X104008Y-392007D01*
X102886Y-393470D01*
X102180Y-395173D01*
X101940Y-397000D01*
X102180Y-398827D01*
X102215Y-398911D01*
X101115Y-399470D01*
X99992Y-398008D01*
X98530Y-396885D01*
X96827Y-396180D01*
X95000Y-395940D01*
X93173Y-396180D01*
X91470Y-396885D01*
X90007Y-398008D01*
X88885Y-399470D01*
X88180Y-401173D01*
X87940Y-403000D01*
X88180Y-404827D01*
X88885Y-406530D01*
X90007Y-407993D01*
X91470Y-409114D01*
X93173Y-409820D01*
X95000Y-410060D01*
X96827Y-409820D01*
X98530Y-409114D01*
X99992Y-407993D01*
X101115Y-406530D01*
X101820Y-404827D01*
X102060Y-403000D01*
X101820Y-401173D01*
X101785Y-401089D01*
X102886Y-400530D01*
X104008Y-401992D01*
X105470Y-403115D01*
X107173Y-403820D01*
X109000Y-404060D01*
X110827Y-403820D01*
X112530Y-403115D01*
X113993Y-401992D01*
X115114Y-400530D01*
X115820Y-398827D01*
X116060Y-397000D01*
X115820Y-395173D01*
X115114Y-393470D01*
X113993Y-392007D01*
X113798Y-391858D01*
X114229Y-390588D01*
X168919D01*
Y-392875D01*
X169239Y-394484D01*
X170000Y-395623D01*
Y-400377D01*
X169239Y-401516D01*
X168919Y-403125D01*
Y-408092D01*
X168256Y-408756D01*
X167261Y-410244D01*
X166912Y-412000D01*
Y-425160D01*
X166516Y-425239D01*
X165377Y-426000D01*
X160623D01*
X159485Y-425239D01*
X159134Y-425170D01*
X158714Y-423791D01*
X159320Y-422327D01*
X159560Y-420500D01*
X159320Y-418673D01*
X158615Y-416970D01*
X157493Y-415508D01*
X156030Y-414385D01*
X154327Y-413680D01*
X152500Y-413440D01*
X150673Y-413680D01*
X148970Y-414385D01*
X147803Y-415281D01*
X146249Y-415341D01*
X145992Y-415008D01*
X144530Y-413885D01*
X142827Y-413180D01*
X141000Y-412940D01*
X139173Y-413180D01*
X137470Y-413885D01*
X136008Y-415008D01*
X134886Y-416470D01*
X134180Y-418173D01*
X133940Y-420000D01*
X134180Y-421827D01*
X134886Y-423530D01*
X135242Y-423995D01*
X134795Y-425184D01*
X134515Y-425239D01*
X133377Y-426000D01*
X129766D01*
X129474Y-425621D01*
X129194Y-424730D01*
X130114Y-423530D01*
X130820Y-421827D01*
X131060Y-420000D01*
X130820Y-418173D01*
X130114Y-416470D01*
X128993Y-415008D01*
X127530Y-413885D01*
X125827Y-413180D01*
X124000Y-412940D01*
X122173Y-413180D01*
X120470Y-413885D01*
X119008Y-415008D01*
X117886Y-416470D01*
X117180Y-418173D01*
X116940Y-420000D01*
X117180Y-421827D01*
X117886Y-423530D01*
X118425Y-424233D01*
X117898Y-425632D01*
X117695Y-425673D01*
X116482Y-426483D01*
X115672Y-427695D01*
X115388Y-429125D01*
Y-431730D01*
X122500D01*
Y-433000D01*
X123770D01*
Y-440612D01*
X125875D01*
X127305Y-440327D01*
X127795Y-440000D01*
X133377D01*
X134515Y-440761D01*
X136125Y-441081D01*
X142875D01*
X144485Y-440761D01*
X145849Y-439849D01*
X146236Y-439269D01*
X147764D01*
X148151Y-439849D01*
X149515Y-440761D01*
X151125Y-441081D01*
X157875D01*
X159485Y-440761D01*
X160623Y-440000D01*
X165377D01*
X166516Y-440761D01*
X168125Y-441081D01*
X174875D01*
X176485Y-440761D01*
X177002Y-440415D01*
X177917Y-439964D01*
X179000Y-440563D01*
Y-443584D01*
X178151Y-444151D01*
X177239Y-445516D01*
X176919Y-447125D01*
Y-453875D01*
X177239Y-455485D01*
X178151Y-456849D01*
X179515Y-457761D01*
X181125Y-458081D01*
X188496D01*
X189042Y-458307D01*
X191000Y-458565D01*
X192958Y-458307D01*
X194782Y-457551D01*
X196349Y-456349D01*
X197551Y-454782D01*
X198307Y-452958D01*
X198565Y-451000D01*
X198307Y-449042D01*
X197551Y-447218D01*
X196349Y-445651D01*
X194782Y-444449D01*
X192958Y-443693D01*
X191000Y-443435D01*
Y-440416D01*
X191849Y-439849D01*
X192761Y-438484D01*
X193081Y-436875D01*
Y-430125D01*
X192761Y-428516D01*
X191849Y-427151D01*
X190485Y-426239D01*
X188875Y-425919D01*
X181125D01*
X179515Y-426239D01*
X178404Y-426982D01*
X177849Y-426151D01*
X176485Y-425239D01*
X176088Y-425160D01*
Y-414081D01*
X180875D01*
X182484Y-413761D01*
X183849Y-412849D01*
X184761Y-411484D01*
X185081Y-409875D01*
Y-403125D01*
X184761Y-401516D01*
X184000Y-400377D01*
Y-395623D01*
X184761Y-394484D01*
X185081Y-392875D01*
Y-387408D01*
X194933Y-377556D01*
X195000Y-377565D01*
X196958Y-377307D01*
X198782Y-376551D01*
X200349Y-375349D01*
X201551Y-373782D01*
X202307Y-371958D01*
X202565Y-370000D01*
X202307Y-368042D01*
X201551Y-366218D01*
X200349Y-364651D01*
X198782Y-363449D01*
X196958Y-362693D01*
X195000Y-362435D01*
X193042Y-362693D01*
X191218Y-363449D01*
X190851Y-363730D01*
X189598Y-363523D01*
X189349Y-363151D01*
X187985Y-362239D01*
X186375Y-361919D01*
X179625D01*
X178015Y-362239D01*
X176877Y-363000D01*
X171295D01*
X170805Y-362673D01*
X169375Y-362388D01*
X167270D01*
Y-370000D01*
Y-377612D01*
X169375D01*
X170805Y-377327D01*
X171295Y-377000D01*
X176877D01*
X178015Y-377761D01*
X179625Y-378081D01*
X179771D01*
X180257Y-379254D01*
X178099Y-381412D01*
X122078D01*
Y-367000D01*
X121768Y-365439D01*
X120884Y-364116D01*
X120884Y-364116D01*
X115910Y-359142D01*
X116060Y-358000D01*
X115820Y-356173D01*
X115114Y-354470D01*
X113993Y-353008D01*
X112530Y-351886D01*
X110827Y-351180D01*
X109000Y-350940D01*
D02*
G37*
G36*
X164730Y-371270D02*
X158888D01*
Y-373875D01*
X159172Y-375305D01*
X159983Y-376517D01*
X161195Y-377327D01*
X162625Y-377612D01*
X164730D01*
Y-371270D01*
D02*
G37*
G36*
X365000Y-365435D02*
X363042Y-365693D01*
X361218Y-366449D01*
X359651Y-367651D01*
X358449Y-369218D01*
X357693Y-371042D01*
X357435Y-373000D01*
X357693Y-374958D01*
X358449Y-376782D01*
X359651Y-378349D01*
X361218Y-379551D01*
X363042Y-380307D01*
X365000Y-380565D01*
X366958Y-380307D01*
X368782Y-379551D01*
X370349Y-378349D01*
X371551Y-376782D01*
X372307Y-374958D01*
X372565Y-373000D01*
X372307Y-371042D01*
X371551Y-369218D01*
X370349Y-367651D01*
X368782Y-366449D01*
X366958Y-365693D01*
X365000Y-365435D01*
D02*
G37*
G36*
X241000Y-368940D02*
X239173Y-369180D01*
X237470Y-369885D01*
X236008Y-371008D01*
X234886Y-372470D01*
X234180Y-374173D01*
X233940Y-376000D01*
X234180Y-377827D01*
X234886Y-379530D01*
X236008Y-380993D01*
X237470Y-382114D01*
X239173Y-382820D01*
X241000Y-383060D01*
X242827Y-382820D01*
X244530Y-382114D01*
X245992Y-380993D01*
X247115Y-379530D01*
X247820Y-377827D01*
X248060Y-376000D01*
X247820Y-374173D01*
X247115Y-372470D01*
X245992Y-371008D01*
X244530Y-369885D01*
X242827Y-369180D01*
X241000Y-368940D01*
D02*
G37*
G36*
X244500Y-391833D02*
X242673Y-392074D01*
X240970Y-392779D01*
X239508Y-393901D01*
X238589Y-395098D01*
X238185Y-395399D01*
X236902Y-395625D01*
X235827Y-395180D01*
X234000Y-394940D01*
X232173Y-395180D01*
X230470Y-395886D01*
X229007Y-397008D01*
X227885Y-398470D01*
X227180Y-400173D01*
X226940Y-402000D01*
X227180Y-403827D01*
X227885Y-405530D01*
X229007Y-406992D01*
X230470Y-408115D01*
X232173Y-408820D01*
X234000Y-409060D01*
X235827Y-408820D01*
X237530Y-408115D01*
X238992Y-406992D01*
X239911Y-405796D01*
X240315Y-405495D01*
X241598Y-405268D01*
X242673Y-405713D01*
X244500Y-405954D01*
X246327Y-405713D01*
X248030Y-405008D01*
X249492Y-403886D01*
X250614Y-402424D01*
X251320Y-400721D01*
X251560Y-398893D01*
X251320Y-397066D01*
X250614Y-395363D01*
X249492Y-393901D01*
X248030Y-392779D01*
X246327Y-392074D01*
X244500Y-391833D01*
D02*
G37*
G36*
X378230Y-395388D02*
X376125D01*
X374695Y-395673D01*
X373482Y-396483D01*
X372672Y-397695D01*
X372388Y-399125D01*
Y-401730D01*
X378230D01*
Y-395388D01*
D02*
G37*
G36*
X63000Y-387435D02*
X61042Y-387693D01*
X59218Y-388449D01*
X57651Y-389651D01*
X56449Y-391218D01*
X55693Y-393042D01*
X55435Y-395000D01*
X55693Y-396958D01*
X56449Y-398782D01*
X57651Y-400349D01*
X59218Y-401551D01*
X61042Y-402307D01*
X63000Y-402565D01*
X64958Y-402307D01*
X66782Y-401551D01*
X68349Y-400349D01*
X69551Y-398782D01*
X70307Y-396958D01*
X70565Y-395000D01*
X70307Y-393042D01*
X69551Y-391218D01*
X68349Y-389651D01*
X66782Y-388449D01*
X64958Y-387693D01*
X63000Y-387435D01*
D02*
G37*
G36*
X378230Y-404270D02*
X372388D01*
Y-406875D01*
X372672Y-408305D01*
X373482Y-409517D01*
X374695Y-410327D01*
X376125Y-410612D01*
X378230D01*
Y-404270D01*
D02*
G37*
G36*
X464460Y-402771D02*
X463109Y-402948D01*
X460667Y-403960D01*
X458569Y-405569D01*
X456960Y-407667D01*
X455948Y-410109D01*
X455771Y-411460D01*
X464460D01*
Y-402771D01*
D02*
G37*
G36*
X277230Y-410390D02*
X275500D01*
X274119Y-410665D01*
X272948Y-411447D01*
X272166Y-412618D01*
X271891Y-413999D01*
Y-415729D01*
X277230D01*
Y-410390D01*
D02*
G37*
G36*
X20000Y-402435D02*
X18042Y-402693D01*
X16218Y-403449D01*
X14651Y-404651D01*
X13449Y-406218D01*
X12693Y-408042D01*
X12435Y-410000D01*
X12693Y-411958D01*
X13449Y-413782D01*
X14651Y-415349D01*
X16218Y-416551D01*
X18042Y-417307D01*
X20000Y-417565D01*
X21958Y-417307D01*
X23782Y-416551D01*
X25349Y-415349D01*
X26551Y-413782D01*
X27307Y-411958D01*
X27565Y-410000D01*
X27307Y-408042D01*
X26551Y-406218D01*
X25349Y-404651D01*
X23782Y-403449D01*
X21958Y-402693D01*
X20000Y-402435D01*
D02*
G37*
G36*
X464460Y-414000D02*
X455771D01*
X455948Y-415351D01*
X456960Y-417793D01*
X458569Y-419891D01*
X460667Y-421500D01*
X463109Y-422512D01*
X464460Y-422689D01*
Y-414000D01*
D02*
G37*
G36*
X277230Y-418269D02*
X271891D01*
Y-420000D01*
X272166Y-421381D01*
X272948Y-422552D01*
X274119Y-423334D01*
X275500Y-423609D01*
X277230D01*
Y-418269D01*
D02*
G37*
G36*
X421112Y-419270D02*
X415270D01*
Y-425612D01*
X417375D01*
X418805Y-425327D01*
X420018Y-424517D01*
X420828Y-423305D01*
X421112Y-421875D01*
Y-419270D01*
D02*
G37*
G36*
X238000Y-413435D02*
X236042Y-413693D01*
X234218Y-414449D01*
X232651Y-415651D01*
X231449Y-417218D01*
X230693Y-419042D01*
X230435Y-421000D01*
X230693Y-422958D01*
X231449Y-424782D01*
X232651Y-426349D01*
X234218Y-427551D01*
X236042Y-428307D01*
X238000Y-428565D01*
X239958Y-428307D01*
X241782Y-427551D01*
X243349Y-426349D01*
X244551Y-424782D01*
X245307Y-422958D01*
X245565Y-421000D01*
X245307Y-419042D01*
X244551Y-417218D01*
X243349Y-415651D01*
X241782Y-414449D01*
X239958Y-413693D01*
X238000Y-413435D01*
D02*
G37*
G36*
X359000Y-431435D02*
X357042Y-431693D01*
X355218Y-432449D01*
X353651Y-433651D01*
X353458Y-433902D01*
X345000D01*
X343049Y-434290D01*
X341395Y-435395D01*
X338314Y-438477D01*
X338000Y-438435D01*
X336042Y-438693D01*
X334218Y-439449D01*
X332651Y-440651D01*
X331449Y-442218D01*
X331125Y-443000D01*
X312500D01*
Y-454501D01*
X311042Y-454693D01*
X309770Y-455220D01*
X308500Y-454507D01*
Y-443000D01*
X287500D01*
Y-454500D01*
X286999Y-454939D01*
X285172Y-455179D01*
X283469Y-455885D01*
X283179Y-456107D01*
X282040Y-455546D01*
Y-443460D01*
X273270D01*
Y-456000D01*
Y-468540D01*
X282040D01*
Y-468453D01*
X283179Y-467891D01*
X283469Y-468114D01*
X285172Y-468819D01*
X286246Y-468960D01*
X286999Y-469059D01*
X287500Y-469000D01*
Y-469000D01*
X308500D01*
X308500Y-469000D01*
Y-469000D01*
X309770Y-468780D01*
X311042Y-469307D01*
X313000Y-469565D01*
X314958Y-469307D01*
X315699Y-469000D01*
X333500D01*
Y-453493D01*
X334770Y-452780D01*
X336042Y-453307D01*
X338000Y-453565D01*
X339958Y-453307D01*
X341782Y-452551D01*
X343349Y-451349D01*
X344551Y-449782D01*
X345307Y-447958D01*
X345565Y-446000D01*
X345523Y-445686D01*
X347112Y-444098D01*
X353458D01*
X353651Y-444349D01*
X355218Y-445551D01*
X357042Y-446307D01*
X359000Y-446565D01*
X360958Y-446307D01*
X362782Y-445551D01*
X364349Y-444349D01*
X364542Y-444098D01*
X367888D01*
X367919Y-444129D01*
Y-450375D01*
X368239Y-451984D01*
X369000Y-453123D01*
Y-457877D01*
X368239Y-459016D01*
X367919Y-460625D01*
Y-467375D01*
X368239Y-468984D01*
X369151Y-470349D01*
X370516Y-471261D01*
X372125Y-471581D01*
X373291D01*
X375041Y-472306D01*
X376999Y-472564D01*
X378957Y-472306D01*
X380782Y-471550D01*
X381045Y-471348D01*
X381484Y-471261D01*
X382849Y-470349D01*
X383358Y-469587D01*
X384642D01*
X385151Y-470349D01*
X386516Y-471261D01*
X388125Y-471581D01*
X395875D01*
X397485Y-471261D01*
X398849Y-470349D01*
X399761Y-468984D01*
X400081Y-467375D01*
Y-460625D01*
X399761Y-459016D01*
X399000Y-457877D01*
Y-452295D01*
X399327Y-451805D01*
X399612Y-450375D01*
Y-448270D01*
X392000D01*
Y-447000D01*
X390730D01*
Y-439888D01*
X388125D01*
X386695Y-440172D01*
X385483Y-440983D01*
X384982Y-441732D01*
X384658Y-441807D01*
X383569Y-441729D01*
X382849Y-440651D01*
X381484Y-439739D01*
X379875Y-439419D01*
X377629D01*
X373605Y-435395D01*
X371951Y-434290D01*
X370000Y-433902D01*
X364542D01*
X364349Y-433651D01*
X362782Y-432449D01*
X360958Y-431693D01*
X359000Y-431435D01*
D02*
G37*
G36*
X121230Y-434270D02*
X115388D01*
Y-436875D01*
X115672Y-438305D01*
X116482Y-439517D01*
X117695Y-440327D01*
X119125Y-440612D01*
X121230D01*
Y-434270D01*
D02*
G37*
G36*
X395875Y-439888D02*
X393270D01*
Y-445730D01*
X399612D01*
Y-443625D01*
X399327Y-442195D01*
X398517Y-440983D01*
X397305Y-440172D01*
X395875Y-439888D01*
D02*
G37*
G36*
X262500Y-431940D02*
X260672Y-432180D01*
X258970Y-432886D01*
X257507Y-434008D01*
X256385Y-435470D01*
X255680Y-437173D01*
X255439Y-439000D01*
X255680Y-440827D01*
X256137Y-441930D01*
X255396Y-443200D01*
X237500D01*
Y-469200D01*
X258500D01*
Y-446295D01*
X259770Y-445446D01*
X260672Y-445820D01*
X261960Y-445989D01*
Y-454730D01*
X270730D01*
Y-443460D01*
X269344D01*
X268755Y-442190D01*
X269320Y-440827D01*
X269560Y-439000D01*
X269320Y-437173D01*
X268614Y-435470D01*
X267492Y-434008D01*
X266030Y-432886D01*
X264327Y-432180D01*
X262500Y-431940D01*
D02*
G37*
G36*
X413000Y-438435D02*
X411042Y-438693D01*
X409290Y-439419D01*
X405125D01*
X403516Y-439739D01*
X402151Y-440651D01*
X401239Y-442015D01*
X400919Y-443625D01*
Y-450375D01*
X401239Y-451984D01*
X402000Y-453123D01*
Y-458705D01*
X401673Y-459195D01*
X401388Y-460625D01*
Y-462730D01*
X409000D01*
X416612D01*
Y-460625D01*
X416327Y-459195D01*
X416000Y-458705D01*
Y-453122D01*
X416229Y-452781D01*
X416782Y-452551D01*
X418349Y-451349D01*
X419551Y-449782D01*
X420307Y-447958D01*
X420565Y-446000D01*
X420307Y-444042D01*
X419551Y-442218D01*
X418349Y-440651D01*
X416782Y-439449D01*
X414958Y-438693D01*
X413000Y-438435D01*
D02*
G37*
G36*
X82000Y-452435D02*
X80042Y-452693D01*
X78218Y-453449D01*
X76651Y-454651D01*
X75449Y-456218D01*
X74693Y-458042D01*
X74435Y-460000D01*
X74693Y-461958D01*
X75449Y-463782D01*
X76651Y-465349D01*
X78218Y-466551D01*
X80042Y-467307D01*
X82000Y-467565D01*
X83958Y-467307D01*
X85782Y-466551D01*
X87349Y-465349D01*
X88551Y-463782D01*
X89307Y-461958D01*
X89565Y-460000D01*
X89307Y-458042D01*
X88551Y-456218D01*
X87349Y-454651D01*
X85782Y-453449D01*
X83958Y-452693D01*
X82000Y-452435D01*
D02*
G37*
G36*
X270730Y-457270D02*
X261960D01*
Y-468540D01*
X270730D01*
Y-457270D01*
D02*
G37*
G36*
X233100Y-443200D02*
X212100D01*
Y-469200D01*
X233100D01*
Y-443200D01*
D02*
G37*
G36*
X416612Y-465270D02*
X410270D01*
Y-471112D01*
X412875D01*
X414305Y-470827D01*
X415517Y-470017D01*
X416327Y-468805D01*
X416612Y-467375D01*
Y-465270D01*
D02*
G37*
G36*
X407730D02*
X401388D01*
Y-467375D01*
X401673Y-468805D01*
X402483Y-470017D01*
X403695Y-470827D01*
X405125Y-471112D01*
X407730D01*
Y-465270D01*
D02*
G37*
%LPD*%
G36*
X170000Y-222500D02*
X163000D01*
X163000Y-215500D01*
X170000Y-222500D01*
D02*
G37*
G36*
X123000Y-240000D02*
X118000Y-242000D01*
Y-238000D01*
X123000Y-240000D01*
D02*
G37*
G36*
X163000Y-264500D02*
X163000Y-257500D01*
X170000D01*
X163000Y-264500D01*
D02*
G37*
%LPC*%
G36*
X387000Y-89435D02*
X385042Y-89693D01*
X383218Y-90449D01*
X381651Y-91651D01*
X380449Y-93218D01*
X379693Y-95042D01*
X379435Y-97000D01*
X379693Y-98958D01*
X380449Y-100782D01*
X381651Y-102349D01*
X383218Y-103551D01*
X385042Y-104307D01*
X387000Y-104565D01*
X388958Y-104307D01*
X390782Y-103551D01*
X392349Y-102349D01*
X393551Y-100782D01*
X394307Y-98958D01*
X394565Y-97000D01*
X394307Y-95042D01*
X393551Y-93218D01*
X392349Y-91651D01*
X390782Y-90449D01*
X388958Y-89693D01*
X387000Y-89435D01*
D02*
G37*
G36*
X426000Y-140935D02*
X424042Y-141193D01*
X422218Y-141949D01*
X420651Y-143151D01*
X419449Y-144718D01*
X418693Y-146542D01*
X418435Y-148500D01*
X418693Y-150458D01*
X419449Y-152282D01*
X420651Y-153849D01*
X422218Y-155051D01*
X424042Y-155807D01*
X426000Y-156065D01*
X427958Y-155807D01*
X429782Y-155051D01*
X431349Y-153849D01*
X432551Y-152282D01*
X433307Y-150458D01*
X433565Y-148500D01*
X433307Y-146542D01*
X432551Y-144718D01*
X431349Y-143151D01*
X429782Y-141949D01*
X427958Y-141193D01*
X426000Y-140935D01*
D02*
G37*
G36*
X388000Y-120406D02*
X384177Y-120782D01*
X380502Y-121897D01*
X377114Y-123708D01*
X374145Y-126145D01*
X371708Y-129114D01*
X369897Y-132502D01*
X368782Y-136177D01*
X368406Y-140000D01*
X368782Y-143823D01*
X369897Y-147498D01*
X371708Y-150886D01*
X374145Y-153855D01*
X377114Y-156292D01*
X380502Y-158103D01*
X384177Y-159218D01*
X388000Y-159594D01*
X391823Y-159218D01*
X395499Y-158103D01*
X398886Y-156292D01*
X401855Y-153855D01*
X404292Y-150886D01*
X406103Y-147498D01*
X407218Y-143823D01*
X407594Y-140000D01*
X407218Y-136177D01*
X406103Y-132502D01*
X404292Y-129114D01*
X401855Y-126145D01*
X398886Y-123708D01*
X395499Y-121897D01*
X391823Y-120782D01*
X388000Y-120406D01*
D02*
G37*
G36*
X358000Y-171435D02*
X356042Y-171693D01*
X354218Y-172449D01*
X352651Y-173651D01*
X351449Y-175218D01*
X350693Y-177042D01*
X350435Y-179000D01*
X350693Y-180958D01*
X351449Y-182782D01*
X352651Y-184349D01*
X354218Y-185551D01*
X356042Y-186307D01*
X358000Y-186565D01*
X359958Y-186307D01*
X361782Y-185551D01*
X363349Y-184349D01*
X364551Y-182782D01*
X365307Y-180958D01*
X365565Y-179000D01*
X365307Y-177042D01*
X364551Y-175218D01*
X363349Y-173651D01*
X361782Y-172449D01*
X359958Y-171693D01*
X358000Y-171435D01*
D02*
G37*
G36*
X376000Y-173435D02*
X374042Y-173693D01*
X372218Y-174449D01*
X370651Y-175651D01*
X369449Y-177218D01*
X368693Y-179042D01*
X368435Y-181000D01*
X368693Y-182958D01*
X369449Y-184782D01*
X370651Y-186349D01*
X372218Y-187551D01*
X374042Y-188307D01*
X376000Y-188565D01*
X377958Y-188307D01*
X379782Y-187551D01*
X381349Y-186349D01*
X382551Y-184782D01*
X383307Y-182958D01*
X383565Y-181000D01*
X383307Y-179042D01*
X382551Y-177218D01*
X381349Y-175651D01*
X379782Y-174449D01*
X377958Y-173693D01*
X376000Y-173435D01*
D02*
G37*
G36*
X456000Y-156435D02*
X454042Y-156693D01*
X452218Y-157449D01*
X450651Y-158651D01*
X449449Y-160218D01*
X448950Y-161422D01*
X433186Y-177186D01*
X432104Y-178596D01*
X431424Y-180238D01*
X431308Y-181119D01*
X431192Y-182000D01*
X431192Y-182000D01*
Y-189124D01*
X431151Y-189151D01*
X430239Y-190515D01*
X429919Y-192125D01*
Y-196888D01*
X429614Y-197038D01*
X428649Y-197394D01*
X426958Y-196693D01*
X425000Y-196435D01*
X423042Y-196693D01*
X421218Y-197449D01*
X419651Y-198651D01*
X418449Y-200218D01*
X417693Y-202042D01*
X417435Y-204000D01*
X417693Y-205958D01*
X418449Y-207782D01*
X419392Y-209012D01*
Y-217677D01*
X402579Y-234491D01*
X401042Y-234693D01*
X399218Y-235449D01*
X398270Y-236176D01*
X397000Y-235550D01*
X397000Y-235336D01*
X397000Y-235336D01*
X397000Y-235312D01*
Y-218300D01*
X379000D01*
Y-236300D01*
X396041Y-236300D01*
X396097D01*
X396097D01*
X396319Y-236300D01*
X396535Y-236736D01*
X396946Y-237570D01*
X396449Y-238218D01*
X395693Y-240042D01*
X395435Y-242000D01*
X395693Y-243958D01*
X396449Y-245782D01*
X397651Y-247349D01*
X399218Y-248551D01*
X401042Y-249307D01*
X403000Y-249565D01*
X404958Y-249307D01*
X406782Y-248551D01*
X408349Y-247349D01*
X409551Y-245782D01*
X410307Y-243958D01*
X410509Y-242421D01*
X428965Y-223965D01*
X430181Y-222146D01*
X430608Y-220000D01*
X431878Y-219335D01*
X432515Y-219761D01*
X434125Y-220081D01*
X435952D01*
X437192Y-221320D01*
Y-234000D01*
X437424Y-235762D01*
X438104Y-237404D01*
X439186Y-238814D01*
X440596Y-239896D01*
X442238Y-240576D01*
X444000Y-240808D01*
X445762Y-240576D01*
X447404Y-239896D01*
X448814Y-238814D01*
X449896Y-237404D01*
X450576Y-235762D01*
X450808Y-234000D01*
Y-218500D01*
X450808Y-218500D01*
X450576Y-216738D01*
X449896Y-215096D01*
X448814Y-213686D01*
X446081Y-210952D01*
Y-209125D01*
X445761Y-207516D01*
X445000Y-206377D01*
Y-201623D01*
X445761Y-200485D01*
X446081Y-198875D01*
Y-192125D01*
X445761Y-190515D01*
X444849Y-189151D01*
X444808Y-189124D01*
Y-184820D01*
X458578Y-171050D01*
X459782Y-170551D01*
X461349Y-169349D01*
X462551Y-167782D01*
X463307Y-165958D01*
X463565Y-164000D01*
X463307Y-162042D01*
X462551Y-160218D01*
X461349Y-158651D01*
X459782Y-157449D01*
X457958Y-156693D01*
X456000Y-156435D01*
D02*
G37*
G36*
X388000Y-243622D02*
X385650Y-243932D01*
X383461Y-244839D01*
X381581Y-246281D01*
X380139Y-248161D01*
X379232Y-250350D01*
X378922Y-252700D01*
X379232Y-255049D01*
X380139Y-257239D01*
X381581Y-259119D01*
X383461Y-260562D01*
X385650Y-261468D01*
X388000Y-261778D01*
X390350Y-261468D01*
X392539Y-260562D01*
X394419Y-259119D01*
X395862Y-257239D01*
X396768Y-255049D01*
X397078Y-252700D01*
X396768Y-250350D01*
X395862Y-248161D01*
X394419Y-246281D01*
X392539Y-244839D01*
X390350Y-243932D01*
X388000Y-243622D01*
D02*
G37*
%LPD*%
D10*
X104000Y-251000D02*
D03*
Y-233000D02*
D03*
X52000Y-97000D02*
D03*
Y-79000D02*
D03*
D11*
X407500Y-403000D02*
D03*
X424500D02*
D03*
X296000Y-101000D02*
D03*
X279000D02*
D03*
X309000Y-417000D02*
D03*
X326000D02*
D03*
X396500Y-403000D02*
D03*
X379500D02*
D03*
X414000Y-418000D02*
D03*
X397000D02*
D03*
X171500Y-433000D02*
D03*
X154500D02*
D03*
X139500Y-433000D02*
D03*
X122500D02*
D03*
X183000Y-370000D02*
D03*
X166000D02*
D03*
X206000Y-339000D02*
D03*
X189000D02*
D03*
X223000D02*
D03*
X240000D02*
D03*
X97000Y-22000D02*
D03*
X114000D02*
D03*
X77000Y-100000D02*
D03*
X94000D02*
D03*
Y-116000D02*
D03*
X77000D02*
D03*
X176500Y-289000D02*
D03*
X193500D02*
D03*
X123500Y-276000D02*
D03*
X140500D02*
D03*
X426000Y-388000D02*
D03*
X409000D02*
D03*
D12*
X266000Y-46500D02*
D03*
Y-63500D02*
D03*
X250000Y-46500D02*
D03*
Y-63500D02*
D03*
X234000Y-46500D02*
D03*
Y-63500D02*
D03*
X145000Y-213000D02*
D03*
Y-196000D02*
D03*
X376000Y-447000D02*
D03*
Y-464000D02*
D03*
X392000Y-464000D02*
D03*
Y-447000D02*
D03*
X409000Y-464000D02*
D03*
Y-447000D02*
D03*
X185000Y-450500D02*
D03*
Y-433500D02*
D03*
X177000Y-406500D02*
D03*
Y-389500D02*
D03*
X132000Y-68000D02*
D03*
Y-51000D02*
D03*
X31000Y-79500D02*
D03*
Y-96500D02*
D03*
X175000Y-248500D02*
D03*
Y-231500D02*
D03*
X438000Y-212500D02*
D03*
Y-195500D02*
D03*
D13*
X302000Y-271000D02*
D03*
X314000D02*
D03*
D20*
X113000Y-76000D02*
D03*
Y-94000D02*
D03*
D35*
X110000Y-116000D02*
D03*
X130000D02*
D03*
D41*
X268000Y-101000D02*
X279000D01*
X251000Y-84000D02*
X268000Y-101000D01*
X435000Y-403000D02*
X444000Y-394000D01*
X428000Y-403000D02*
X435000D01*
X303000Y-331000D02*
X314000Y-342000D01*
X112001Y-386000D02*
X180000D01*
X326000Y-373999D02*
X340999Y-358999D01*
X326000Y-417000D02*
Y-373999D01*
X339999Y-358999D02*
X340999D01*
X286999Y-461999D02*
X294000D01*
X376999Y-464999D02*
X391001D01*
X171500Y-433000D02*
X184500D01*
X171500Y-412000D02*
X177000Y-406500D01*
X171500Y-433000D02*
Y-412000D01*
X141500Y-433000D02*
X154500D01*
X141000Y-432500D02*
Y-420000D01*
X183000Y-370000D02*
X195000D01*
X180000Y-386000D02*
X195000Y-371000D01*
X223000Y-344000D02*
Y-339000D01*
Y-344000D02*
X229000Y-350000D01*
X206000Y-346000D02*
Y-339000D01*
X202000Y-350000D02*
X206000Y-346000D01*
X199000Y-350000D02*
X202000D01*
X109000Y-382999D02*
X112001Y-386000D01*
X96500Y-46500D02*
Y-37500D01*
Y-46500D02*
X98000Y-48000D01*
X122000D01*
X125000Y-51000D01*
X132000D01*
X96500Y-37500D02*
Y-22500D01*
X115500Y-37500D02*
Y-23500D01*
X130000Y-212000D02*
X146000D01*
X258000Y-300000D02*
X267000D01*
X256000Y-275999D02*
X263999D01*
X271000Y-335000D02*
X279000Y-343000D01*
X301000D01*
X271000Y-335000D02*
Y-304000D01*
X267000Y-300000D02*
X271000Y-304000D01*
X278000Y-325000D02*
X284000Y-331000D01*
X303000D01*
X278000Y-325000D02*
Y-290000D01*
X263999Y-275999D02*
X278000Y-290000D01*
X426000Y-388000D02*
X430000Y-384000D01*
X467000D01*
X397000Y-404000D02*
Y-397000D01*
X406000Y-388000D01*
X410000D01*
D42*
X301000Y-282347D02*
Y-257347D01*
X315000Y-282000D02*
Y-259000D01*
X438000Y-182000D02*
X456000Y-164000D01*
X438000Y-195500D02*
Y-182000D01*
Y-212500D02*
X444000Y-218500D01*
Y-234000D02*
Y-218500D01*
X31000Y-112000D02*
Y-96500D01*
D43*
X370000Y-439000D02*
X376000Y-445000D01*
X202000Y-76000D02*
X214500Y-63500D01*
X234000D01*
X250000D02*
X266000D01*
X234000D02*
X250000D01*
X266000Y-38400D02*
X275400Y-29000D01*
X266000Y-46500D02*
Y-38400D01*
X224600Y-29000D02*
X234000Y-38400D01*
Y-46500D02*
Y-38400D01*
X338000Y-446000D02*
X345000Y-439000D01*
X370000D01*
X250000Y-46500D02*
Y-42500D01*
X408000Y-400000D02*
Y-391000D01*
X411000Y-388000D01*
D44*
X295500Y-417000D02*
X309000D01*
X77000Y-119000D02*
Y-116000D01*
X126000Y-38500D02*
Y-37000D01*
X125500Y-39000D02*
X126000Y-38500D01*
X124000Y-37500D02*
X125500Y-39000D01*
X115500Y-37500D02*
X124000D01*
X106000Y-76000D02*
X113000D01*
X100500D02*
X106000D01*
Y-60500D01*
X77000Y-116000D02*
Y-100000D01*
X52000Y-97000D02*
X55000Y-100000D01*
X77000D01*
X113000Y-95000D02*
X130000Y-112000D01*
X101000Y-116000D02*
X109000D01*
X94000D02*
X101000D01*
X94000D02*
Y-100000D01*
X121000Y-136000D02*
X131000D01*
X176500Y-289000D02*
Y-271500D01*
X164000Y-271000D02*
X176000D01*
X159000Y-276000D02*
X164000Y-271000D01*
X140500Y-276000D02*
X159000D01*
X107000Y-252000D02*
X123000D01*
X124000Y-276000D02*
Y-253000D01*
X123000Y-196000D02*
X145000D01*
X108000Y-198000D02*
X119000D01*
X98000Y-227000D02*
Y-208000D01*
X108000Y-198000D01*
X98000Y-227000D02*
X104000Y-233000D01*
Y-251000D02*
X108000D01*
X403000Y-242000D02*
X425000Y-220000D01*
Y-204000D01*
X92000Y-134000D02*
X96000D01*
X77000Y-119000D02*
X92000Y-134000D01*
X130166Y-115993D02*
X131000Y-136000D01*
X130000Y-112000D02*
X130166Y-115993D01*
X250000Y-42500D02*
Y-29000D01*
D45*
X302000Y-271000D02*
X314000D01*
D46*
X31000Y-79000D02*
X70500D01*
D48*
X122500Y-227500D02*
Y-211970D01*
X109000Y-358000D02*
X118000Y-367000D01*
Y-386000D02*
Y-367000D01*
X195000Y-371000D02*
Y-370000D01*
X73000Y-350999D02*
X73999D01*
X119000Y-228000D02*
X123000D01*
X116000Y-216000D02*
Y-211970D01*
X109000Y-223000D02*
X116000Y-216000D01*
Y-183970D02*
Y-175000D01*
X122500Y-183970D02*
Y-176500D01*
X126750Y-172250D01*
X115000Y-174000D02*
X115500Y-174500D01*
X116000Y-175000D01*
X108000Y-222000D02*
X109000Y-223000D01*
X108000Y-222000D02*
Y-222000D01*
D51*
X167000Y-82000D02*
D03*
D52*
X167000Y-32000D02*
D03*
D53*
X222000Y-102000D02*
D03*
X441000Y-397000D02*
D03*
X467000Y-384000D02*
D03*
X465730Y-412730D02*
D03*
X250000Y-29000D02*
D03*
X275400D02*
D03*
D54*
X224600D02*
D03*
D55*
X199000Y-350000D02*
D03*
X229000D02*
D03*
X109000Y-358000D02*
D03*
X124000Y-420000D02*
D03*
X191000Y-421000D02*
D03*
X95000Y-403000D02*
D03*
X244500Y-398893D02*
D03*
X152500Y-420500D02*
D03*
X109000Y-397000D02*
D03*
X75000Y-294000D02*
D03*
X74000Y-277000D02*
D03*
X79000Y-340000D02*
D03*
X73000Y-377000D02*
D03*
X234000Y-402000D02*
D03*
X241000Y-376000D02*
D03*
X222000Y-462000D02*
D03*
X248000D02*
D03*
X286999Y-461999D02*
D03*
X273000Y-462000D02*
D03*
X262500Y-439000D02*
D03*
X109000Y-382999D02*
D03*
X109000Y-371000D02*
D03*
X142500Y-345500D02*
D03*
X141000Y-420000D02*
D03*
X73000Y-350999D02*
D03*
X393000Y-420000D02*
D03*
X378500Y-399000D02*
D03*
X379500Y-420814D02*
D03*
X411000Y-388000D02*
D03*
D56*
X388000Y-227300D02*
D03*
D57*
Y-252700D02*
D03*
D58*
X43000Y-240000D02*
D03*
X243000D02*
D03*
X388000Y-340000D02*
D03*
Y-140000D02*
D03*
X450000Y-30000D02*
D03*
Y-445000D02*
D03*
X30000Y-450000D02*
D03*
Y-30000D02*
D03*
D59*
X176000Y-226000D02*
D03*
X201000Y-228000D02*
D03*
X460000Y-112000D02*
D03*
X230000Y-150000D02*
D03*
X164000D02*
D03*
X180000Y-180000D02*
D03*
X346000Y-80000D02*
D03*
X299000Y-129000D02*
D03*
Y-118000D02*
D03*
X245000Y-75000D02*
D03*
X317000Y-88000D02*
D03*
X296000Y-101000D02*
D03*
X253000Y-129000D02*
D03*
Y-118000D02*
D03*
X222000Y-102000D02*
D03*
X259000Y-328000D02*
D03*
X301000Y-343000D02*
D03*
X314000Y-342000D02*
D03*
X330000Y-336000D02*
D03*
X251000Y-84000D02*
D03*
X257000Y-75000D02*
D03*
X202000Y-76000D02*
D03*
X276000Y-122000D02*
D03*
X265000Y-188000D02*
D03*
X276000Y-195000D02*
D03*
X287000Y-188000D02*
D03*
X414000Y-41000D02*
D03*
X110000Y-340000D02*
D03*
X15000Y-146000D02*
D03*
X235000Y-211000D02*
D03*
X80000Y-407000D02*
D03*
X349000Y-111000D02*
D03*
X387000Y-97000D02*
D03*
X339999Y-358999D02*
D03*
X338000Y-446000D02*
D03*
X359000Y-439000D02*
D03*
X239000Y-363000D02*
D03*
X250000Y-355000D02*
D03*
X31000Y-384000D02*
D03*
X356000Y-80000D02*
D03*
X367000Y-111000D02*
D03*
X366000Y-80000D02*
D03*
X411000Y-115000D02*
D03*
X376000Y-211000D02*
D03*
X339000Y-208000D02*
D03*
X358000D02*
D03*
X238000Y-421000D02*
D03*
X286000Y-300000D02*
D03*
X63000Y-395000D02*
D03*
X358000Y-179000D02*
D03*
X246000Y-436000D02*
D03*
X191000Y-451000D02*
D03*
X82000Y-460000D02*
D03*
X346000Y-347000D02*
D03*
X260000Y-343000D02*
D03*
X376999Y-464999D02*
D03*
X117000Y-433000D02*
D03*
X195000Y-370000D02*
D03*
X162000D02*
D03*
Y-394000D02*
D03*
X138000D02*
D03*
Y-371000D02*
D03*
X20000Y-410000D02*
D03*
Y-350000D02*
D03*
X132000Y-68000D02*
D03*
X321000Y-28000D02*
D03*
X126000Y-37000D02*
D03*
X459000Y-67000D02*
D03*
X376000Y-181000D02*
D03*
X425000Y-204000D02*
D03*
X199000Y-289000D02*
D03*
X145000Y-213000D02*
D03*
X146000Y-192000D02*
D03*
X442000Y-415000D02*
D03*
X457000Y-346000D02*
D03*
X456000Y-366000D02*
D03*
X426000Y-148500D02*
D03*
X431000Y-163000D02*
D03*
X456000Y-164000D02*
D03*
X403000Y-242000D02*
D03*
X20000Y-220000D02*
D03*
Y-260000D02*
D03*
Y-280000D02*
D03*
Y-300000D02*
D03*
X313000Y-462000D02*
D03*
X413000Y-446000D02*
D03*
X450000Y-253000D02*
D03*
X462000Y-177000D02*
D03*
Y-216000D02*
D03*
X461000Y-238000D02*
D03*
X462000Y-197000D02*
D03*
X31000Y-112000D02*
D03*
X83000Y-38000D02*
D03*
X75000Y-31000D02*
D03*
X67000Y-39000D02*
D03*
X15000Y-125000D02*
D03*
Y-110000D02*
D03*
Y-95000D02*
D03*
Y-80000D02*
D03*
Y-65000D02*
D03*
X30000Y-55000D02*
D03*
X49000Y-146000D02*
D03*
X64000D02*
D03*
X80000D02*
D03*
X145000Y-145000D02*
D03*
X30000Y-146000D02*
D03*
X256000Y-275999D02*
D03*
X365000Y-373000D02*
D03*
X258000Y-300000D02*
D03*
X238000Y-309000D02*
D03*
Y-293000D02*
D03*
Y-325000D02*
D03*
X298000Y-320000D02*
D03*
X332750Y-28000D02*
D03*
X347000Y-28000D02*
D03*
X167000Y-67000D02*
D03*
X187000Y-101000D02*
D03*
X254000Y-151000D02*
D03*
Y-168000D02*
D03*
X293000Y-161000D02*
D03*
X110000Y-305000D02*
D03*
X130000D02*
D03*
X150000D02*
D03*
X170000D02*
D03*
X205000D02*
D03*
X90000D02*
D03*
X428000Y-355000D02*
D03*
X291000Y-389000D02*
D03*
X317000D02*
D03*
X304000Y-403000D02*
D03*
D60*
X71000Y-100000D02*
D03*
X52000Y-97000D02*
D03*
X101000Y-116000D02*
D03*
X131000Y-136000D02*
D03*
X335000Y-234000D02*
D03*
X335000Y-283500D02*
D03*
Y-266000D02*
D03*
X433000D02*
D03*
X393000Y-284500D02*
D03*
X459000Y-132000D02*
D03*
X96000Y-134000D02*
D03*
X74000Y-116000D02*
D03*
D61*
X117000Y-201000D02*
D03*
X122000Y-195000D02*
D03*
X127000Y-201000D02*
D03*
X123000Y-228000D02*
D03*
X444000Y-234000D02*
D03*
X115500Y-174500D02*
D03*
X126750Y-172250D02*
D03*
X112000Y-195000D02*
D03*
X108000Y-222000D02*
D03*
D62*
X126000Y-228000D02*
D03*
Y-252000D02*
D03*
X160000Y-240000D02*
D03*
D63*
X109500Y-211970D02*
D03*
X116000D02*
D03*
X122500D02*
D03*
X129000Y-212000D02*
D03*
X109500Y-183970D02*
D03*
X116000D02*
D03*
X122500D02*
D03*
X129000Y-184000D02*
D03*
D64*
X119000Y-198000D02*
D03*
D65*
X278500Y-417000D02*
D03*
X295500D02*
D03*
D66*
X298000Y-456000D02*
D03*
X323000D02*
D03*
X272000D02*
D03*
X248000Y-456200D02*
D03*
X222600D02*
D03*
D67*
X459000Y-364000D02*
D03*
Y-344000D02*
D03*
D68*
X106000Y-60500D02*
D03*
X115500Y-37500D02*
D03*
X96500D02*
D03*
D69*
X70500Y-79000D02*
D03*
X97500D02*
D03*
D70*
X119000Y-135000D02*
D03*
X101000D02*
D03*
X176000Y-271000D02*
D03*
X194000D02*
D03*
M02*
