G04 Layer_Physical_Order=2*
G04 Layer_Color=3407718*
%FSLAX44Y44*%
%MOMM*%
G71*
G01*
G75*
%ADD44C,0.5000*%
%ADD50C,0.8000*%
%ADD51C,1.3500*%
%ADD53C,1.5000*%
%ADD55C,0.8000*%
%ADD59C,0.9000*%
%ADD60C,1.0000*%
%ADD61C,0.7000*%
G36*
X154000Y-90000D02*
X176000Y-112000D01*
X246550Y-112000D01*
X247176Y-113270D01*
X246449Y-114218D01*
X245693Y-116042D01*
X245435Y-118000D01*
X245693Y-119958D01*
X246449Y-121782D01*
X247651Y-123349D01*
Y-123651D01*
X246449Y-125218D01*
X245693Y-127042D01*
X245435Y-129000D01*
X245693Y-130958D01*
X246449Y-132782D01*
X247651Y-134349D01*
X249218Y-135551D01*
X251042Y-136307D01*
X253000Y-136565D01*
X254958Y-136307D01*
X256782Y-135551D01*
X258349Y-134349D01*
X259551Y-132782D01*
X260307Y-130958D01*
X260565Y-129000D01*
X260307Y-127042D01*
X259551Y-125218D01*
X258349Y-123651D01*
Y-123349D01*
X259551Y-121782D01*
X260307Y-119958D01*
X260565Y-118000D01*
X260307Y-116042D01*
X259551Y-114218D01*
X258824Y-113270D01*
X259450Y-112000D01*
X305000D01*
Y-314716D01*
X303730Y-315147D01*
X303349Y-314651D01*
X301782Y-313449D01*
X299958Y-312693D01*
X298000Y-312435D01*
X296042Y-312693D01*
X294218Y-313449D01*
X292651Y-314651D01*
X291449Y-316218D01*
X290693Y-318042D01*
X290435Y-320000D01*
X290693Y-321958D01*
X291449Y-323782D01*
X292651Y-325349D01*
X294218Y-326551D01*
X296042Y-327307D01*
X298000Y-327565D01*
X299958Y-327307D01*
X301782Y-326551D01*
X303349Y-325349D01*
X303730Y-324853D01*
X305000Y-325284D01*
Y-335164D01*
X303736Y-336016D01*
X302958Y-335693D01*
X301000Y-335435D01*
X299042Y-335693D01*
X297218Y-336449D01*
X295651Y-337651D01*
X294449Y-339218D01*
X293693Y-341042D01*
X293435Y-343000D01*
X293693Y-344958D01*
X294449Y-346782D01*
X295651Y-348349D01*
X297218Y-349551D01*
X299042Y-350307D01*
X301000Y-350565D01*
X302958Y-350307D01*
X304782Y-349551D01*
X306349Y-348349D01*
X307083Y-347392D01*
X308624Y-347313D01*
X308651Y-347349D01*
X310218Y-348551D01*
X312042Y-349307D01*
X314000Y-349565D01*
X315958Y-349307D01*
X317782Y-348551D01*
X319349Y-347349D01*
X320551Y-345782D01*
X321307Y-343958D01*
X321565Y-342000D01*
X321307Y-340042D01*
X320551Y-338218D01*
X319824Y-337270D01*
X320450Y-336000D01*
X322435D01*
X322693Y-337958D01*
X323449Y-339782D01*
X324651Y-341349D01*
X326218Y-342551D01*
X328042Y-343307D01*
X330000Y-343565D01*
X331958Y-343307D01*
X333782Y-342551D01*
X335349Y-341349D01*
X336551Y-339782D01*
X337307Y-337958D01*
X337565Y-336000D01*
X367547D01*
X368675Y-337270D01*
X368406Y-340000D01*
X368782Y-343823D01*
X369897Y-347498D01*
X371708Y-350886D01*
X374145Y-353855D01*
X377114Y-356292D01*
X380502Y-358103D01*
X384177Y-359218D01*
X388000Y-359594D01*
X391823Y-359218D01*
X395499Y-358103D01*
X398886Y-356292D01*
X401855Y-353855D01*
X404292Y-350886D01*
X406103Y-347498D01*
X407218Y-343823D01*
X407594Y-340000D01*
X407326Y-337270D01*
X408453Y-336000D01*
X454000D01*
X455486Y-337486D01*
X455362Y-337850D01*
X454939Y-338736D01*
X453218Y-339449D01*
X451651Y-340651D01*
X450449Y-342218D01*
X449693Y-344042D01*
X449435Y-346000D01*
X449693Y-347958D01*
X450449Y-349782D01*
X451651Y-351349D01*
X453218Y-352551D01*
X455042Y-353307D01*
X457000Y-353565D01*
X458958Y-353307D01*
X460782Y-352551D01*
X462349Y-351349D01*
X463551Y-349782D01*
X464264Y-348060D01*
X464664Y-347870D01*
X465631Y-347631D01*
X470000Y-352000D01*
Y-373690D01*
X468730Y-374646D01*
X467000Y-374418D01*
X464520Y-374744D01*
X462209Y-375702D01*
X460225Y-377225D01*
X458702Y-379209D01*
X457745Y-381520D01*
X457418Y-384000D01*
X457745Y-386480D01*
X458702Y-388791D01*
X460225Y-390775D01*
X462209Y-392298D01*
X464520Y-393255D01*
X467000Y-393582D01*
X468730Y-393354D01*
X470000Y-394310D01*
Y-402489D01*
X468944Y-403194D01*
X468351Y-402948D01*
X467000Y-402771D01*
Y-412730D01*
Y-422689D01*
X468351Y-422512D01*
X468944Y-422266D01*
X470000Y-422971D01*
Y-439381D01*
X468730Y-439569D01*
X468103Y-437502D01*
X466292Y-434114D01*
X463855Y-431145D01*
X460886Y-428708D01*
X457498Y-426897D01*
X453823Y-425782D01*
X450000Y-425406D01*
X446177Y-425782D01*
X442502Y-426897D01*
X439114Y-428708D01*
X436145Y-431145D01*
X433708Y-434114D01*
X431897Y-437502D01*
X430782Y-441177D01*
X430406Y-445000D01*
X430782Y-448823D01*
X431897Y-452498D01*
X433708Y-455886D01*
X436145Y-458855D01*
X439114Y-461292D01*
X442502Y-463103D01*
X446177Y-464218D01*
X450000Y-464594D01*
X453823Y-464218D01*
X457498Y-463103D01*
X460886Y-461292D01*
X463855Y-458855D01*
X466292Y-455886D01*
X468103Y-452498D01*
X468730Y-450431D01*
X470000Y-450619D01*
Y-475412D01*
X10000D01*
Y-455619D01*
X11270Y-455431D01*
X11897Y-457498D01*
X13708Y-460886D01*
X16145Y-463855D01*
X19114Y-466292D01*
X22502Y-468103D01*
X26177Y-469218D01*
X30000Y-469594D01*
X33823Y-469218D01*
X37498Y-468103D01*
X40886Y-466292D01*
X43855Y-463855D01*
X46292Y-460886D01*
X48103Y-457498D01*
X49218Y-453823D01*
X49594Y-450000D01*
X49218Y-446177D01*
X48103Y-442502D01*
X46292Y-439114D01*
X43855Y-436145D01*
X40886Y-433708D01*
X37498Y-431897D01*
X33823Y-430782D01*
X30000Y-430406D01*
X26177Y-430782D01*
X22502Y-431897D01*
X19114Y-433708D01*
X16145Y-436145D01*
X13708Y-439114D01*
X11897Y-442502D01*
X11270Y-444569D01*
X10000Y-444381D01*
Y-35619D01*
X11270Y-35431D01*
X11897Y-37498D01*
X13708Y-40886D01*
X16145Y-43855D01*
X19114Y-46292D01*
X22502Y-48103D01*
X26177Y-49218D01*
X30000Y-49594D01*
X33823Y-49218D01*
X37498Y-48103D01*
X40886Y-46292D01*
X43855Y-43855D01*
X46292Y-40886D01*
X48103Y-37498D01*
X49218Y-33823D01*
X49594Y-30000D01*
X49218Y-26177D01*
X48103Y-22502D01*
X46292Y-19114D01*
X44779Y-17270D01*
X45380Y-16000D01*
X154000D01*
Y-90000D01*
D02*
G37*
G36*
X434000Y-51000D02*
X458000D01*
X467000Y-60000D01*
Y-63397D01*
X465730Y-63649D01*
X465551Y-63218D01*
X464349Y-61651D01*
X462782Y-60449D01*
X460958Y-59693D01*
X459000Y-59435D01*
X457042Y-59693D01*
X455218Y-60449D01*
X453651Y-61651D01*
X452449Y-63218D01*
X451693Y-65042D01*
X451435Y-67000D01*
X451693Y-68958D01*
X452449Y-70782D01*
X453651Y-72349D01*
X455218Y-73551D01*
X457042Y-74307D01*
X459000Y-74565D01*
X460958Y-74307D01*
X462782Y-73551D01*
X464349Y-72349D01*
X465551Y-70782D01*
X465730Y-70351D01*
X467000Y-70603D01*
Y-127209D01*
X465730Y-127629D01*
X464706Y-126294D01*
X463035Y-125012D01*
X461088Y-124206D01*
X459000Y-123931D01*
X456912Y-124206D01*
X454966Y-125012D01*
X453294Y-126294D01*
X452012Y-127965D01*
X451206Y-129912D01*
X450931Y-132000D01*
X451206Y-134088D01*
X452012Y-136034D01*
X453294Y-137706D01*
X454966Y-138988D01*
X456912Y-139794D01*
X459000Y-140069D01*
X461088Y-139794D01*
X463035Y-138988D01*
X464706Y-137706D01*
X465730Y-136371D01*
X467000Y-136791D01*
Y-275000D01*
Y-324885D01*
X400320D01*
X398886Y-323708D01*
X395499Y-321897D01*
X391823Y-320782D01*
X388000Y-320406D01*
X384177Y-320782D01*
X380502Y-321897D01*
X377114Y-323708D01*
X375680Y-324885D01*
X309966D01*
Y-200000D01*
X340000Y-169966D01*
X340000Y-80000D01*
Y-66000D01*
X387000Y-30000D01*
X420000D01*
X434000Y-51000D01*
D02*
G37*
G36*
X307817Y-17183D02*
X305000Y-20000D01*
Y-108000D01*
X301284D01*
X300853Y-106730D01*
X301349Y-106349D01*
X302551Y-104782D01*
X303307Y-102958D01*
X303565Y-101000D01*
X303307Y-99042D01*
X302551Y-97218D01*
X301349Y-95651D01*
X299782Y-94449D01*
X297958Y-93693D01*
X296000Y-93435D01*
X294042Y-93693D01*
X292218Y-94449D01*
X290651Y-95651D01*
X289449Y-97218D01*
X288693Y-99042D01*
X288435Y-101000D01*
X288693Y-102958D01*
X289449Y-104782D01*
X290651Y-106349D01*
X291147Y-106730D01*
X290716Y-108000D01*
X228450D01*
X227824Y-106730D01*
X228551Y-105782D01*
X229307Y-103958D01*
X229565Y-102000D01*
X229307Y-100042D01*
X228551Y-98218D01*
X227349Y-96651D01*
X225782Y-95449D01*
X223958Y-94693D01*
X222000Y-94435D01*
X220042Y-94693D01*
X218218Y-95449D01*
X216651Y-96651D01*
X215449Y-98218D01*
X214693Y-100042D01*
X214435Y-102000D01*
X214693Y-103958D01*
X215449Y-105782D01*
X216176Y-106730D01*
X215550Y-108000D01*
X191528D01*
X191097Y-106730D01*
X192021Y-106021D01*
X193149Y-104550D01*
X193859Y-102838D01*
X193934Y-102270D01*
X180067D01*
X180141Y-102838D01*
X180851Y-104550D01*
X181979Y-106021D01*
X182903Y-106730D01*
X182472Y-108000D01*
X178913D01*
X160336Y-90197D01*
X161165Y-89232D01*
X162315Y-90115D01*
X164575Y-91051D01*
X165730Y-91203D01*
Y-82000D01*
X167000D01*
Y-80730D01*
X176203D01*
X176051Y-79575D01*
X175115Y-77315D01*
X173626Y-75374D01*
X171685Y-73885D01*
X171680Y-73883D01*
X171489Y-72429D01*
X172021Y-72021D01*
X173149Y-70550D01*
X173859Y-68838D01*
X173934Y-68270D01*
X160067D01*
X160141Y-68838D01*
X160851Y-70550D01*
X161979Y-72021D01*
X162511Y-72429D01*
X162320Y-73883D01*
X162315Y-73885D01*
X160374Y-75374D01*
X158885Y-77315D01*
X158270Y-78800D01*
X157000Y-78548D01*
Y-40798D01*
X158250Y-40750D01*
X158270Y-40750D01*
X175750D01*
Y-23250D01*
X158270D01*
X158250Y-23250D01*
X157000Y-23202D01*
Y-16987D01*
X307328Y-16011D01*
X307817Y-17183D01*
D02*
G37*
%LPC*%
G36*
X132000Y-60435D02*
X130042Y-60693D01*
X128218Y-61449D01*
X126651Y-62651D01*
X125449Y-64218D01*
X124693Y-66042D01*
X124435Y-68000D01*
X124693Y-69958D01*
X125449Y-71782D01*
X126651Y-73349D01*
X128218Y-74551D01*
X130042Y-75307D01*
X132000Y-75565D01*
X133958Y-75307D01*
X135782Y-74551D01*
X137349Y-73349D01*
X138551Y-71782D01*
X139307Y-69958D01*
X139565Y-68000D01*
X139307Y-66042D01*
X138551Y-64218D01*
X137349Y-62651D01*
X135782Y-61449D01*
X133958Y-60693D01*
X132000Y-60435D01*
D02*
G37*
G36*
X31000Y-104435D02*
X29042Y-104693D01*
X27218Y-105449D01*
X25651Y-106651D01*
X24449Y-108218D01*
X23693Y-110042D01*
X23435Y-112000D01*
X23693Y-113958D01*
X24449Y-115782D01*
X25651Y-117349D01*
X27218Y-118551D01*
X29042Y-119307D01*
X31000Y-119565D01*
X32958Y-119307D01*
X34782Y-118551D01*
X36349Y-117349D01*
X37551Y-115782D01*
X38307Y-113958D01*
X38565Y-112000D01*
X38307Y-110042D01*
X37551Y-108218D01*
X36349Y-106651D01*
X34782Y-105449D01*
X32958Y-104693D01*
X31000Y-104435D01*
D02*
G37*
G36*
X101000Y-107931D02*
X98912Y-108206D01*
X96966Y-109012D01*
X95294Y-110294D01*
X94012Y-111966D01*
X93206Y-113912D01*
X92931Y-116000D01*
X93206Y-118088D01*
X94012Y-120035D01*
X95294Y-121706D01*
X96966Y-122988D01*
X98912Y-123794D01*
X101000Y-124069D01*
X103088Y-123794D01*
X105035Y-122988D01*
X106706Y-121706D01*
X107988Y-120035D01*
X108794Y-118088D01*
X109069Y-116000D01*
X108794Y-113912D01*
X107988Y-111966D01*
X106706Y-110294D01*
X105035Y-109012D01*
X103088Y-108206D01*
X101000Y-107931D01*
D02*
G37*
G36*
X276000Y-114435D02*
X274042Y-114693D01*
X272218Y-115449D01*
X270651Y-116651D01*
X269449Y-118218D01*
X268693Y-120042D01*
X268435Y-122000D01*
X268693Y-123958D01*
X269449Y-125782D01*
X270651Y-127349D01*
X272218Y-128551D01*
X274042Y-129307D01*
X276000Y-129565D01*
X277958Y-129307D01*
X279782Y-128551D01*
X281349Y-127349D01*
X282551Y-125782D01*
X283307Y-123958D01*
X283565Y-122000D01*
X283307Y-120042D01*
X282551Y-118218D01*
X281349Y-116651D01*
X279782Y-115449D01*
X277958Y-114693D01*
X276000Y-114435D01*
D02*
G37*
G36*
X131000Y-127931D02*
X128912Y-128206D01*
X126966Y-129012D01*
X125294Y-130294D01*
X124012Y-131966D01*
X123206Y-133912D01*
X122931Y-136000D01*
X123206Y-138088D01*
X124012Y-140035D01*
X125294Y-141706D01*
X126966Y-142988D01*
X128912Y-143794D01*
X131000Y-144069D01*
X133088Y-143794D01*
X135035Y-142988D01*
X136706Y-141706D01*
X137988Y-140035D01*
X138794Y-138088D01*
X139069Y-136000D01*
X138794Y-133912D01*
X137988Y-131966D01*
X136706Y-130294D01*
X135035Y-129012D01*
X133088Y-128206D01*
X131000Y-127931D01*
D02*
G37*
G36*
X126750Y-165694D02*
X125053Y-165917D01*
X123472Y-166572D01*
X122114Y-167614D01*
X121072Y-168972D01*
X121032Y-169069D01*
X119523Y-169394D01*
X118778Y-168822D01*
X117197Y-168167D01*
X115500Y-167944D01*
X113803Y-168167D01*
X112222Y-168822D01*
X110864Y-169864D01*
X109822Y-171222D01*
X109167Y-172803D01*
X108944Y-174500D01*
X109167Y-176197D01*
X109822Y-177778D01*
X110864Y-179136D01*
X112222Y-180178D01*
X113803Y-180833D01*
X115500Y-181056D01*
X117197Y-180833D01*
X118778Y-180178D01*
X120136Y-179136D01*
X121178Y-177778D01*
X121218Y-177680D01*
X122727Y-177356D01*
X123472Y-177928D01*
X125053Y-178583D01*
X126750Y-178806D01*
X128447Y-178583D01*
X130028Y-177928D01*
X131386Y-176886D01*
X132428Y-175528D01*
X133083Y-173947D01*
X133306Y-172250D01*
X133083Y-170553D01*
X132428Y-168972D01*
X131386Y-167614D01*
X130028Y-166572D01*
X128447Y-165917D01*
X126750Y-165694D01*
D02*
G37*
G36*
X287000Y-180435D02*
X285042Y-180693D01*
X283218Y-181449D01*
X281651Y-182651D01*
X280449Y-184218D01*
X279693Y-186042D01*
X279569Y-186986D01*
X278183Y-187786D01*
X277958Y-187693D01*
X276000Y-187435D01*
X274042Y-187693D01*
X273818Y-187786D01*
X272431Y-186986D01*
X272307Y-186042D01*
X271551Y-184218D01*
X270349Y-182651D01*
X268782Y-181449D01*
X266958Y-180693D01*
X265000Y-180435D01*
X263042Y-180693D01*
X261218Y-181449D01*
X259651Y-182651D01*
X258449Y-184218D01*
X257693Y-186042D01*
X257435Y-188000D01*
X257693Y-189958D01*
X258449Y-191782D01*
X259651Y-193349D01*
X261218Y-194551D01*
X263042Y-195307D01*
X265000Y-195565D01*
X266958Y-195307D01*
X267183Y-195214D01*
X268569Y-196014D01*
X268693Y-196958D01*
X269449Y-198782D01*
X270651Y-200349D01*
X272218Y-201551D01*
X274042Y-202307D01*
X276000Y-202565D01*
X277958Y-202307D01*
X279782Y-201551D01*
X281349Y-200349D01*
X282551Y-198782D01*
X283307Y-196958D01*
X283431Y-196014D01*
X284818Y-195214D01*
X285042Y-195307D01*
X287000Y-195565D01*
X288958Y-195307D01*
X290782Y-194551D01*
X292349Y-193349D01*
X293551Y-191782D01*
X294307Y-189958D01*
X294565Y-188000D01*
X294307Y-186042D01*
X293551Y-184218D01*
X292349Y-182651D01*
X290782Y-181449D01*
X288958Y-180693D01*
X287000Y-180435D01*
D02*
G37*
G36*
X145000Y-205435D02*
X143042Y-205693D01*
X141218Y-206449D01*
X139651Y-207651D01*
X138449Y-209218D01*
X137693Y-211042D01*
X137435Y-213000D01*
X137693Y-214958D01*
X138449Y-216782D01*
X139651Y-218349D01*
X141218Y-219551D01*
X143042Y-220307D01*
X145000Y-220565D01*
X146958Y-220307D01*
X148782Y-219551D01*
X150349Y-218349D01*
X151551Y-216782D01*
X152307Y-214958D01*
X152565Y-213000D01*
X152307Y-211042D01*
X151551Y-209218D01*
X150349Y-207651D01*
X148782Y-206449D01*
X146958Y-205693D01*
X145000Y-205435D01*
D02*
G37*
G36*
X108000Y-215443D02*
X106303Y-215667D01*
X104722Y-216322D01*
X103364Y-217364D01*
X102322Y-218722D01*
X101667Y-220303D01*
X101444Y-222000D01*
X101667Y-223696D01*
X102322Y-225278D01*
X103364Y-226635D01*
X104722Y-227677D01*
X106303Y-228332D01*
X108000Y-228556D01*
X109697Y-228332D01*
X111278Y-227677D01*
X112636Y-226635D01*
X113678Y-225278D01*
X114333Y-223696D01*
X114556Y-222000D01*
X114333Y-220303D01*
X113678Y-218722D01*
X112636Y-217364D01*
X111278Y-216322D01*
X109697Y-215667D01*
X108000Y-215443D01*
D02*
G37*
G36*
X176000Y-218435D02*
X174042Y-218693D01*
X172218Y-219449D01*
X170651Y-220651D01*
X169449Y-222218D01*
X168693Y-224042D01*
X168435Y-226000D01*
X168693Y-227958D01*
X169449Y-229782D01*
X170651Y-231349D01*
X172218Y-232551D01*
X174042Y-233307D01*
X176000Y-233565D01*
X177958Y-233307D01*
X179782Y-232551D01*
X181349Y-231349D01*
X182551Y-229782D01*
X183307Y-227958D01*
X183565Y-226000D01*
X183307Y-224042D01*
X182551Y-222218D01*
X181349Y-220651D01*
X179782Y-219449D01*
X177958Y-218693D01*
X176000Y-218435D01*
D02*
G37*
G36*
X123000Y-221444D02*
X121303Y-221667D01*
X119722Y-222322D01*
X118364Y-223364D01*
X117322Y-224722D01*
X116667Y-226303D01*
X116444Y-228000D01*
X116667Y-229697D01*
X117322Y-231278D01*
X118364Y-232636D01*
X119722Y-233678D01*
X121303Y-234333D01*
X123000Y-234556D01*
X124697Y-234333D01*
X126278Y-233678D01*
X127636Y-232636D01*
X128678Y-231278D01*
X129333Y-229697D01*
X129556Y-228000D01*
X129333Y-226303D01*
X128678Y-224722D01*
X127636Y-223364D01*
X126278Y-222322D01*
X124697Y-221667D01*
X123000Y-221444D01*
D02*
G37*
G36*
X201000Y-220435D02*
X199042Y-220693D01*
X197218Y-221449D01*
X195651Y-222651D01*
X194449Y-224218D01*
X193693Y-226042D01*
X193435Y-228000D01*
X193693Y-229958D01*
X194449Y-231782D01*
X195651Y-233349D01*
X197218Y-234551D01*
X199042Y-235307D01*
X201000Y-235565D01*
X202958Y-235307D01*
X204782Y-234551D01*
X206349Y-233349D01*
X207551Y-231782D01*
X208307Y-229958D01*
X208565Y-228000D01*
X208307Y-226042D01*
X207551Y-224218D01*
X206349Y-222651D01*
X204782Y-221449D01*
X202958Y-220693D01*
X201000Y-220435D01*
D02*
G37*
G36*
X243000Y-220406D02*
X239177Y-220782D01*
X235502Y-221897D01*
X232114Y-223708D01*
X229145Y-226145D01*
X226708Y-229114D01*
X224897Y-232502D01*
X223782Y-236177D01*
X223406Y-240000D01*
X223782Y-243823D01*
X224897Y-247498D01*
X226708Y-250886D01*
X229145Y-253855D01*
X232114Y-256292D01*
X235502Y-258103D01*
X239177Y-259218D01*
X243000Y-259594D01*
X246823Y-259218D01*
X250498Y-258103D01*
X253886Y-256292D01*
X256855Y-253855D01*
X259292Y-250886D01*
X261103Y-247498D01*
X262218Y-243823D01*
X262594Y-240000D01*
X262218Y-236177D01*
X261103Y-232502D01*
X259292Y-229114D01*
X256855Y-226145D01*
X253886Y-223708D01*
X250498Y-221897D01*
X246823Y-220782D01*
X243000Y-220406D01*
D02*
G37*
G36*
X43000D02*
X39177Y-220782D01*
X35502Y-221897D01*
X32114Y-223708D01*
X29145Y-226145D01*
X26708Y-229114D01*
X24897Y-232502D01*
X23782Y-236177D01*
X23406Y-240000D01*
X23782Y-243823D01*
X24897Y-247498D01*
X26708Y-250886D01*
X29145Y-253855D01*
X32114Y-256292D01*
X35502Y-258103D01*
X39177Y-259218D01*
X43000Y-259594D01*
X46823Y-259218D01*
X50498Y-258103D01*
X53886Y-256292D01*
X56855Y-253855D01*
X59292Y-250886D01*
X61103Y-247498D01*
X62218Y-243823D01*
X62594Y-240000D01*
X62218Y-236177D01*
X61103Y-232502D01*
X59292Y-229114D01*
X56855Y-226145D01*
X53886Y-223708D01*
X50498Y-221897D01*
X46823Y-220782D01*
X43000Y-220406D01*
D02*
G37*
G36*
X256000Y-268435D02*
X254042Y-268692D01*
X252217Y-269448D01*
X250650Y-270650D01*
X249448Y-272217D01*
X248692Y-274042D01*
X248435Y-275999D01*
X248692Y-277957D01*
X249448Y-279782D01*
X250650Y-281348D01*
X252217Y-282551D01*
X254042Y-283306D01*
X256000Y-283564D01*
X257957Y-283306D01*
X259782Y-282551D01*
X261349Y-281348D01*
X262551Y-279782D01*
X263306Y-277957D01*
X263564Y-275999D01*
X263306Y-274042D01*
X262551Y-272217D01*
X261349Y-270650D01*
X259782Y-269448D01*
X257957Y-268692D01*
X256000Y-268435D01*
D02*
G37*
G36*
X74000Y-269940D02*
X72173Y-270180D01*
X70470Y-270886D01*
X69008Y-272008D01*
X67885Y-273470D01*
X67180Y-275173D01*
X66940Y-277000D01*
X67180Y-278827D01*
X67885Y-280530D01*
X69008Y-281992D01*
X70470Y-283114D01*
X72173Y-283820D01*
X74000Y-284060D01*
X75827Y-283820D01*
X77530Y-283114D01*
X78992Y-281992D01*
X80114Y-280530D01*
X80820Y-278827D01*
X81060Y-277000D01*
X80820Y-275173D01*
X80114Y-273470D01*
X78992Y-272008D01*
X77530Y-270886D01*
X75827Y-270180D01*
X74000Y-269940D01*
D02*
G37*
G36*
X199000Y-281435D02*
X197042Y-281693D01*
X195218Y-282449D01*
X193651Y-283651D01*
X192449Y-285218D01*
X191693Y-287042D01*
X191435Y-289000D01*
X191693Y-290958D01*
X192449Y-292782D01*
X193651Y-294349D01*
X195218Y-295551D01*
X197042Y-296307D01*
X199000Y-296565D01*
X200958Y-296307D01*
X202782Y-295551D01*
X204349Y-294349D01*
X205551Y-292782D01*
X206307Y-290958D01*
X206565Y-289000D01*
X206307Y-287042D01*
X205551Y-285218D01*
X204349Y-283651D01*
X202782Y-282449D01*
X200958Y-281693D01*
X199000Y-281435D01*
D02*
G37*
G36*
X75000Y-286940D02*
X73173Y-287180D01*
X71470Y-287885D01*
X70008Y-289008D01*
X68885Y-290470D01*
X68180Y-292173D01*
X67940Y-294000D01*
X68180Y-295827D01*
X68885Y-297530D01*
X70008Y-298992D01*
X71470Y-300114D01*
X73173Y-300820D01*
X75000Y-301060D01*
X76827Y-300820D01*
X78530Y-300114D01*
X79992Y-298992D01*
X81114Y-297530D01*
X81820Y-295827D01*
X82060Y-294000D01*
X81820Y-292173D01*
X81114Y-290470D01*
X79992Y-289008D01*
X78530Y-287885D01*
X76827Y-287180D01*
X75000Y-286940D01*
D02*
G37*
G36*
X286000Y-292435D02*
X284042Y-292693D01*
X282218Y-293449D01*
X280651Y-294651D01*
X279449Y-296218D01*
X278693Y-298042D01*
X278435Y-300000D01*
X278693Y-301958D01*
X279449Y-303782D01*
X280651Y-305349D01*
X282218Y-306551D01*
X284042Y-307307D01*
X286000Y-307565D01*
X287958Y-307307D01*
X289782Y-306551D01*
X291349Y-305349D01*
X292551Y-303782D01*
X293307Y-301958D01*
X293565Y-300000D01*
X293307Y-298042D01*
X292551Y-296218D01*
X291349Y-294651D01*
X289782Y-293449D01*
X287958Y-292693D01*
X286000Y-292435D01*
D02*
G37*
G36*
X258000D02*
X256042Y-292693D01*
X254218Y-293449D01*
X252651Y-294651D01*
X251449Y-296218D01*
X250693Y-298042D01*
X250435Y-300000D01*
X250693Y-301958D01*
X251449Y-303782D01*
X252651Y-305349D01*
X254218Y-306551D01*
X256042Y-307307D01*
X258000Y-307565D01*
X259958Y-307307D01*
X261782Y-306551D01*
X263349Y-305349D01*
X264551Y-303782D01*
X265307Y-301958D01*
X265565Y-300000D01*
X265307Y-298042D01*
X264551Y-296218D01*
X263349Y-294651D01*
X261782Y-293449D01*
X259958Y-292693D01*
X258000Y-292435D01*
D02*
G37*
G36*
X238000Y-285435D02*
X236042Y-285693D01*
X234218Y-286449D01*
X232651Y-287651D01*
X231449Y-289218D01*
X230693Y-291042D01*
X230435Y-293000D01*
X230693Y-294958D01*
X231449Y-296782D01*
X232651Y-298349D01*
X234218Y-299551D01*
X236042Y-300307D01*
X236441Y-300359D01*
Y-301640D01*
X236042Y-301693D01*
X234218Y-302449D01*
X232651Y-303651D01*
X231449Y-305218D01*
X230693Y-307042D01*
X230435Y-309000D01*
X230693Y-310958D01*
X231449Y-312782D01*
X232651Y-314349D01*
X234218Y-315551D01*
X236042Y-316307D01*
X236441Y-316360D01*
Y-317640D01*
X236042Y-317693D01*
X234218Y-318449D01*
X232651Y-319651D01*
X231449Y-321218D01*
X230693Y-323042D01*
X230435Y-325000D01*
X230693Y-326958D01*
X231449Y-328782D01*
X232651Y-330349D01*
X234218Y-331551D01*
X236042Y-332307D01*
X238000Y-332565D01*
X239958Y-332307D01*
X241782Y-331551D01*
X243349Y-330349D01*
X244551Y-328782D01*
X245307Y-326958D01*
X245565Y-325000D01*
X245307Y-323042D01*
X244551Y-321218D01*
X243349Y-319651D01*
X241782Y-318449D01*
X239958Y-317693D01*
X239559Y-317640D01*
Y-316360D01*
X239958Y-316307D01*
X241782Y-315551D01*
X243349Y-314349D01*
X244551Y-312782D01*
X245307Y-310958D01*
X245565Y-309000D01*
X245307Y-307042D01*
X244551Y-305218D01*
X243349Y-303651D01*
X241782Y-302449D01*
X239958Y-301693D01*
X239559Y-301640D01*
Y-300359D01*
X239958Y-300307D01*
X241782Y-299551D01*
X243349Y-298349D01*
X244551Y-296782D01*
X245307Y-294958D01*
X245565Y-293000D01*
X245307Y-291042D01*
X244551Y-289218D01*
X243349Y-287651D01*
X241782Y-286449D01*
X239958Y-285693D01*
X238000Y-285435D01*
D02*
G37*
G36*
X259000Y-320435D02*
X257042Y-320693D01*
X255218Y-321449D01*
X253651Y-322651D01*
X252449Y-324218D01*
X251693Y-326042D01*
X251435Y-328000D01*
X251693Y-329958D01*
X252449Y-331782D01*
X253651Y-333349D01*
X255218Y-334551D01*
X256349Y-335020D01*
Y-336394D01*
X256218Y-336449D01*
X254651Y-337651D01*
X253449Y-339218D01*
X252693Y-341042D01*
X252435Y-343000D01*
X252693Y-344958D01*
X253449Y-346782D01*
X253622Y-347007D01*
X252821Y-348051D01*
X251958Y-347693D01*
X250000Y-347435D01*
X248042Y-347693D01*
X246218Y-348449D01*
X244651Y-349651D01*
X243449Y-351218D01*
X242693Y-353042D01*
X242435Y-355000D01*
X242693Y-356958D01*
X243449Y-358782D01*
X244651Y-360349D01*
X246218Y-361551D01*
X248042Y-362307D01*
X250000Y-362565D01*
X251958Y-362307D01*
X253782Y-361551D01*
X255349Y-360349D01*
X256551Y-358782D01*
X257307Y-356958D01*
X257565Y-355000D01*
X257307Y-353042D01*
X256551Y-351218D01*
X256378Y-350993D01*
X257179Y-349949D01*
X258042Y-350307D01*
X260000Y-350565D01*
X261958Y-350307D01*
X263782Y-349551D01*
X265349Y-348349D01*
X266551Y-346782D01*
X267307Y-344958D01*
X267565Y-343000D01*
X267307Y-341042D01*
X266551Y-339218D01*
X265349Y-337651D01*
X263782Y-336449D01*
X262651Y-335980D01*
Y-334606D01*
X262782Y-334551D01*
X264349Y-333349D01*
X265551Y-331782D01*
X266307Y-329958D01*
X266565Y-328000D01*
X266307Y-326042D01*
X265551Y-324218D01*
X264349Y-322651D01*
X262782Y-321449D01*
X260958Y-320693D01*
X259000Y-320435D01*
D02*
G37*
G36*
X142500Y-338440D02*
X140673Y-338680D01*
X138970Y-339386D01*
X137508Y-340508D01*
X136386Y-341970D01*
X135680Y-343673D01*
X135440Y-345500D01*
X135680Y-347327D01*
X136386Y-349030D01*
X137508Y-350493D01*
X138970Y-351614D01*
X140673Y-352320D01*
X142500Y-352560D01*
X144327Y-352320D01*
X146030Y-351614D01*
X147493Y-350493D01*
X148615Y-349030D01*
X149320Y-347327D01*
X149560Y-345500D01*
X149320Y-343673D01*
X148615Y-341970D01*
X147493Y-340508D01*
X146030Y-339386D01*
X144327Y-338680D01*
X142500Y-338440D01*
D02*
G37*
G36*
X229000Y-343882D02*
X226659Y-344348D01*
X224674Y-345674D01*
X223348Y-347659D01*
X222882Y-350000D01*
X223348Y-352341D01*
X224674Y-354326D01*
X226659Y-355652D01*
X229000Y-356118D01*
X231341Y-355652D01*
X233326Y-354326D01*
X234652Y-352341D01*
X235117Y-350000D01*
X234652Y-347659D01*
X233326Y-345674D01*
X231341Y-344348D01*
X229000Y-343882D01*
D02*
G37*
G36*
X199000D02*
X196659Y-344348D01*
X194674Y-345674D01*
X193348Y-347659D01*
X192882Y-350000D01*
X193348Y-352341D01*
X194674Y-354326D01*
X196659Y-355652D01*
X199000Y-356118D01*
X201341Y-355652D01*
X203326Y-354326D01*
X204652Y-352341D01*
X205117Y-350000D01*
X204652Y-347659D01*
X203326Y-345674D01*
X201341Y-344348D01*
X199000Y-343882D01*
D02*
G37*
G36*
X20000Y-342435D02*
X18042Y-342693D01*
X16218Y-343449D01*
X14651Y-344651D01*
X13449Y-346218D01*
X12693Y-348042D01*
X12435Y-350000D01*
X12693Y-351958D01*
X13449Y-353782D01*
X14651Y-355349D01*
X16218Y-356551D01*
X18042Y-357307D01*
X20000Y-357565D01*
X21958Y-357307D01*
X23782Y-356551D01*
X25349Y-355349D01*
X26551Y-353782D01*
X27307Y-351958D01*
X27565Y-350000D01*
X27307Y-348042D01*
X26551Y-346218D01*
X25349Y-344651D01*
X23782Y-343449D01*
X21958Y-342693D01*
X20000Y-342435D01*
D02*
G37*
G36*
X73000Y-343939D02*
X71172Y-344179D01*
X69470Y-344885D01*
X68007Y-346007D01*
X66885Y-347469D01*
X66180Y-349172D01*
X65939Y-350999D01*
X66180Y-352827D01*
X66885Y-354529D01*
X68007Y-355992D01*
X69470Y-357114D01*
X71172Y-357819D01*
X73000Y-358060D01*
X74827Y-357819D01*
X76530Y-357114D01*
X77992Y-355992D01*
X79114Y-354529D01*
X79820Y-352827D01*
X80060Y-350999D01*
X79820Y-349172D01*
X79114Y-347469D01*
X77992Y-346007D01*
X76530Y-344885D01*
X74827Y-344179D01*
X73000Y-343939D01*
D02*
G37*
G36*
X346000Y-339435D02*
X344042Y-339693D01*
X342218Y-340449D01*
X340651Y-341651D01*
X339449Y-343218D01*
X338693Y-345042D01*
X338435Y-347000D01*
X338693Y-348958D01*
X339230Y-350255D01*
X338623Y-351616D01*
X338041Y-351692D01*
X336217Y-352448D01*
X334650Y-353650D01*
X333448Y-355217D01*
X332692Y-357041D01*
X332435Y-358999D01*
X332692Y-360957D01*
X333448Y-362782D01*
X334650Y-364348D01*
X336217Y-365550D01*
X338041Y-366306D01*
X339999Y-366564D01*
X341957Y-366306D01*
X343782Y-365550D01*
X345348Y-364348D01*
X346550Y-362782D01*
X347306Y-360957D01*
X347564Y-358999D01*
X347306Y-357041D01*
X346769Y-355744D01*
X347376Y-354384D01*
X347958Y-354307D01*
X349782Y-353551D01*
X351349Y-352349D01*
X352551Y-350782D01*
X353307Y-348958D01*
X353565Y-347000D01*
X353307Y-345042D01*
X352551Y-343218D01*
X351349Y-341651D01*
X349782Y-340449D01*
X347958Y-339693D01*
X346000Y-339435D01*
D02*
G37*
G36*
X456000Y-358435D02*
X454042Y-358693D01*
X452218Y-359449D01*
X450651Y-360651D01*
X449449Y-362218D01*
X448693Y-364042D01*
X448435Y-366000D01*
X448693Y-367958D01*
X449449Y-369782D01*
X450651Y-371349D01*
X452218Y-372551D01*
X454042Y-373307D01*
X456000Y-373565D01*
X457958Y-373307D01*
X459782Y-372551D01*
X461349Y-371349D01*
X462551Y-369782D01*
X463307Y-367958D01*
X463565Y-366000D01*
X463307Y-364042D01*
X462551Y-362218D01*
X461349Y-360651D01*
X459782Y-359449D01*
X457958Y-358693D01*
X456000Y-358435D01*
D02*
G37*
G36*
X195000Y-362435D02*
X193042Y-362693D01*
X191218Y-363449D01*
X189651Y-364651D01*
X188449Y-366218D01*
X187693Y-368042D01*
X187435Y-370000D01*
X187693Y-371958D01*
X188449Y-373782D01*
X189651Y-375349D01*
X191218Y-376551D01*
X193042Y-377307D01*
X195000Y-377565D01*
X196958Y-377307D01*
X198782Y-376551D01*
X200349Y-375349D01*
X201551Y-373782D01*
X202307Y-371958D01*
X202565Y-370000D01*
X202307Y-368042D01*
X201551Y-366218D01*
X200349Y-364651D01*
X198782Y-363449D01*
X196958Y-362693D01*
X195000Y-362435D01*
D02*
G37*
G36*
X365000Y-365435D02*
X363042Y-365693D01*
X361218Y-366449D01*
X359651Y-367651D01*
X358449Y-369218D01*
X357693Y-371042D01*
X357435Y-373000D01*
X357693Y-374958D01*
X358449Y-376782D01*
X359651Y-378349D01*
X361218Y-379551D01*
X363042Y-380307D01*
X365000Y-380565D01*
X366958Y-380307D01*
X368782Y-379551D01*
X370349Y-378349D01*
X371551Y-376782D01*
X372307Y-374958D01*
X372565Y-373000D01*
X372307Y-371042D01*
X371551Y-369218D01*
X370349Y-367651D01*
X368782Y-366449D01*
X366958Y-365693D01*
X365000Y-365435D01*
D02*
G37*
G36*
X241000Y-368940D02*
X239173Y-369180D01*
X237470Y-369885D01*
X236008Y-371008D01*
X234886Y-372470D01*
X234180Y-374173D01*
X233940Y-376000D01*
X234180Y-377827D01*
X234886Y-379530D01*
X236008Y-380993D01*
X237470Y-382114D01*
X239173Y-382820D01*
X241000Y-383060D01*
X242827Y-382820D01*
X244530Y-382114D01*
X245992Y-380993D01*
X247115Y-379530D01*
X247820Y-377827D01*
X248060Y-376000D01*
X247820Y-374173D01*
X247115Y-372470D01*
X245992Y-371008D01*
X244530Y-369885D01*
X242827Y-369180D01*
X241000Y-368940D01*
D02*
G37*
G36*
X411000Y-380940D02*
X409173Y-381180D01*
X407470Y-381885D01*
X406007Y-383008D01*
X404885Y-384470D01*
X404180Y-386173D01*
X403940Y-388000D01*
X404180Y-389827D01*
X404885Y-391530D01*
X406007Y-392993D01*
X407470Y-394114D01*
X409173Y-394820D01*
X411000Y-395060D01*
X412827Y-394820D01*
X414530Y-394114D01*
X415992Y-392993D01*
X417114Y-391530D01*
X417820Y-389827D01*
X418060Y-388000D01*
X417820Y-386173D01*
X417114Y-384470D01*
X415992Y-383008D01*
X414530Y-381885D01*
X412827Y-381180D01*
X411000Y-380940D01*
D02*
G37*
G36*
X244500Y-391833D02*
X242673Y-392074D01*
X240970Y-392779D01*
X239508Y-393901D01*
X238589Y-395098D01*
X238185Y-395399D01*
X236902Y-395625D01*
X235827Y-395180D01*
X234000Y-394940D01*
X232173Y-395180D01*
X230470Y-395886D01*
X229007Y-397008D01*
X227885Y-398470D01*
X227180Y-400173D01*
X226940Y-402000D01*
X227180Y-403827D01*
X227885Y-405530D01*
X229007Y-406992D01*
X230470Y-408115D01*
X232173Y-408820D01*
X234000Y-409060D01*
X235827Y-408820D01*
X237530Y-408115D01*
X238992Y-406992D01*
X239911Y-405796D01*
X240315Y-405495D01*
X241598Y-405268D01*
X242673Y-405713D01*
X244500Y-405954D01*
X246327Y-405713D01*
X248030Y-405008D01*
X249492Y-403886D01*
X250614Y-402424D01*
X251320Y-400721D01*
X251560Y-398893D01*
X251320Y-397066D01*
X250614Y-395363D01*
X249492Y-393901D01*
X248030Y-392779D01*
X246327Y-392074D01*
X244500Y-391833D01*
D02*
G37*
G36*
X109000Y-350940D02*
X107173Y-351180D01*
X105470Y-351886D01*
X104008Y-353008D01*
X102886Y-354470D01*
X102180Y-356173D01*
X101940Y-358000D01*
X102180Y-359827D01*
X102886Y-361530D01*
X104008Y-362993D01*
X104967Y-363729D01*
X105041Y-363899D01*
Y-365101D01*
X104967Y-365271D01*
X104008Y-366007D01*
X102886Y-367470D01*
X102180Y-369173D01*
X101940Y-371000D01*
X102180Y-372827D01*
X102886Y-374530D01*
X104008Y-375992D01*
X104493Y-376365D01*
Y-377635D01*
X104007Y-378007D01*
X102885Y-379469D01*
X102180Y-381172D01*
X101939Y-382999D01*
X102180Y-384827D01*
X102885Y-386529D01*
X104007Y-387992D01*
X105470Y-389114D01*
X105949Y-389312D01*
Y-390687D01*
X105470Y-390886D01*
X104008Y-392007D01*
X102886Y-393470D01*
X102180Y-395173D01*
X101940Y-397000D01*
X102180Y-398827D01*
X102215Y-398911D01*
X101115Y-399470D01*
X99992Y-398008D01*
X98530Y-396885D01*
X96827Y-396180D01*
X95000Y-395940D01*
X93173Y-396180D01*
X91470Y-396885D01*
X90007Y-398008D01*
X88885Y-399470D01*
X88180Y-401173D01*
X87940Y-403000D01*
X88180Y-404827D01*
X88885Y-406530D01*
X90007Y-407993D01*
X91470Y-409114D01*
X93173Y-409820D01*
X95000Y-410060D01*
X96827Y-409820D01*
X98530Y-409114D01*
X99992Y-407993D01*
X101115Y-406530D01*
X101820Y-404827D01*
X102060Y-403000D01*
X101820Y-401173D01*
X101785Y-401089D01*
X102886Y-400530D01*
X104008Y-401992D01*
X105470Y-403115D01*
X107173Y-403820D01*
X109000Y-404060D01*
X110827Y-403820D01*
X112530Y-403115D01*
X113993Y-401992D01*
X115114Y-400530D01*
X115820Y-398827D01*
X116060Y-397000D01*
X115820Y-395173D01*
X115114Y-393470D01*
X113993Y-392007D01*
X112530Y-390886D01*
X112051Y-390687D01*
Y-389312D01*
X112530Y-389114D01*
X113992Y-387992D01*
X115114Y-386529D01*
X115820Y-384827D01*
X116060Y-382999D01*
X115820Y-381172D01*
X115114Y-379469D01*
X113992Y-378007D01*
X113507Y-377635D01*
Y-376365D01*
X113993Y-375992D01*
X115114Y-374530D01*
X115820Y-372827D01*
X116060Y-371000D01*
X115820Y-369173D01*
X115114Y-367470D01*
X113993Y-366007D01*
X113033Y-365271D01*
X112959Y-365101D01*
Y-363899D01*
X113033Y-363729D01*
X113993Y-362993D01*
X115114Y-361530D01*
X115820Y-359827D01*
X116060Y-358000D01*
X115820Y-356173D01*
X115114Y-354470D01*
X113993Y-353008D01*
X112530Y-351886D01*
X110827Y-351180D01*
X109000Y-350940D01*
D02*
G37*
G36*
X63000Y-387435D02*
X61042Y-387693D01*
X59218Y-388449D01*
X57651Y-389651D01*
X56449Y-391218D01*
X55693Y-393042D01*
X55435Y-395000D01*
X55693Y-396958D01*
X56449Y-398782D01*
X57651Y-400349D01*
X59218Y-401551D01*
X61042Y-402307D01*
X63000Y-402565D01*
X64958Y-402307D01*
X66782Y-401551D01*
X68349Y-400349D01*
X69551Y-398782D01*
X70307Y-396958D01*
X70565Y-395000D01*
X70307Y-393042D01*
X69551Y-391218D01*
X68349Y-389651D01*
X66782Y-388449D01*
X64958Y-387693D01*
X63000Y-387435D01*
D02*
G37*
G36*
X441000Y-387418D02*
X438520Y-387744D01*
X436209Y-388702D01*
X434225Y-390224D01*
X432702Y-392209D01*
X431745Y-394520D01*
X431418Y-397000D01*
X431745Y-399480D01*
X432702Y-401791D01*
X434225Y-403775D01*
X436209Y-405298D01*
X438520Y-406255D01*
X441000Y-406582D01*
X443480Y-406255D01*
X445791Y-405298D01*
X447775Y-403775D01*
X449298Y-401791D01*
X450256Y-399480D01*
X450582Y-397000D01*
X450256Y-394520D01*
X449298Y-392209D01*
X447775Y-390224D01*
X445791Y-388702D01*
X443480Y-387744D01*
X441000Y-387418D01*
D02*
G37*
G36*
X464460Y-402771D02*
X463109Y-402948D01*
X460667Y-403960D01*
X458569Y-405569D01*
X456960Y-407667D01*
X455948Y-410109D01*
X455771Y-411460D01*
X464460D01*
Y-402771D01*
D02*
G37*
G36*
X393000Y-412940D02*
X391173Y-413180D01*
X389470Y-413885D01*
X388008Y-415008D01*
X386885Y-416470D01*
X386761Y-416771D01*
X386522Y-416878D01*
X385328Y-416911D01*
X384492Y-415821D01*
X383030Y-414699D01*
X381327Y-413994D01*
X379500Y-413753D01*
X377673Y-413994D01*
X375970Y-414699D01*
X374507Y-415821D01*
X373386Y-417284D01*
X372680Y-418986D01*
X372440Y-420814D01*
X372680Y-422641D01*
X373386Y-424344D01*
X374507Y-425806D01*
X375970Y-426928D01*
X377673Y-427634D01*
X379500Y-427874D01*
X381327Y-427634D01*
X383030Y-426928D01*
X384492Y-425806D01*
X385614Y-424344D01*
X385739Y-424043D01*
X385978Y-423936D01*
X387172Y-423903D01*
X388008Y-424992D01*
X389470Y-426114D01*
X391173Y-426820D01*
X393000Y-427060D01*
X394827Y-426820D01*
X396530Y-426114D01*
X397992Y-424992D01*
X399114Y-423530D01*
X399820Y-421827D01*
X400060Y-420000D01*
X399820Y-418173D01*
X399114Y-416470D01*
X397992Y-415008D01*
X396530Y-413885D01*
X394827Y-413180D01*
X393000Y-412940D01*
D02*
G37*
G36*
X20000Y-402435D02*
X18042Y-402693D01*
X16218Y-403449D01*
X14651Y-404651D01*
X13449Y-406218D01*
X12693Y-408042D01*
X12435Y-410000D01*
X12693Y-411958D01*
X13449Y-413782D01*
X14651Y-415349D01*
X16218Y-416551D01*
X18042Y-417307D01*
X20000Y-417565D01*
X21958Y-417307D01*
X23782Y-416551D01*
X25349Y-415349D01*
X26551Y-413782D01*
X27307Y-411958D01*
X27565Y-410000D01*
X27307Y-408042D01*
X26551Y-406218D01*
X25349Y-404651D01*
X23782Y-403449D01*
X21958Y-402693D01*
X20000Y-402435D01*
D02*
G37*
G36*
X464460Y-414000D02*
X455771D01*
X455948Y-415351D01*
X456960Y-417793D01*
X458569Y-419891D01*
X460667Y-421500D01*
X463109Y-422512D01*
X464460Y-422689D01*
Y-414000D01*
D02*
G37*
G36*
X124000Y-412940D02*
X122173Y-413180D01*
X120470Y-413885D01*
X119008Y-415008D01*
X117886Y-416470D01*
X117180Y-418173D01*
X116940Y-420000D01*
X117180Y-421827D01*
X117886Y-423530D01*
X119008Y-424992D01*
X120470Y-426115D01*
X122173Y-426820D01*
X124000Y-427060D01*
X125827Y-426820D01*
X127530Y-426115D01*
X128993Y-424992D01*
X130114Y-423530D01*
X130820Y-421827D01*
X131060Y-420000D01*
X130820Y-418173D01*
X130114Y-416470D01*
X128993Y-415008D01*
X127530Y-413885D01*
X125827Y-413180D01*
X124000Y-412940D01*
D02*
G37*
G36*
X141000D02*
X139173Y-413180D01*
X137470Y-413885D01*
X136008Y-415008D01*
X134886Y-416470D01*
X134180Y-418173D01*
X133940Y-420000D01*
X134180Y-421827D01*
X134886Y-423530D01*
X136008Y-424992D01*
X137470Y-426115D01*
X139173Y-426820D01*
X141000Y-427060D01*
X142827Y-426820D01*
X144530Y-426115D01*
X145697Y-425219D01*
X147251Y-425159D01*
X147508Y-425492D01*
X148970Y-426614D01*
X150673Y-427320D01*
X152500Y-427560D01*
X154327Y-427320D01*
X156030Y-426614D01*
X157493Y-425492D01*
X158615Y-424030D01*
X159320Y-422327D01*
X159560Y-420500D01*
X159320Y-418673D01*
X158615Y-416970D01*
X157493Y-415508D01*
X156030Y-414385D01*
X154327Y-413680D01*
X152500Y-413440D01*
X150673Y-413680D01*
X148970Y-414385D01*
X147803Y-415281D01*
X146249Y-415341D01*
X145992Y-415008D01*
X144530Y-413885D01*
X142827Y-413180D01*
X141000Y-412940D01*
D02*
G37*
G36*
X238000Y-413435D02*
X236042Y-413693D01*
X234218Y-414449D01*
X232651Y-415651D01*
X231449Y-417218D01*
X230693Y-419042D01*
X230435Y-421000D01*
X230693Y-422958D01*
X231449Y-424782D01*
X232651Y-426349D01*
X234218Y-427551D01*
X236042Y-428307D01*
X238000Y-428565D01*
X239958Y-428307D01*
X241782Y-427551D01*
X243349Y-426349D01*
X244551Y-424782D01*
X245307Y-422958D01*
X245565Y-421000D01*
X245307Y-419042D01*
X244551Y-417218D01*
X243349Y-415651D01*
X241782Y-414449D01*
X239958Y-413693D01*
X238000Y-413435D01*
D02*
G37*
G36*
X262500Y-431940D02*
X260672Y-432180D01*
X258970Y-432886D01*
X257507Y-434008D01*
X256385Y-435470D01*
X255680Y-437173D01*
X255439Y-439000D01*
X255680Y-440827D01*
X256385Y-442530D01*
X257507Y-443993D01*
X258970Y-445115D01*
X260672Y-445820D01*
X262500Y-446060D01*
X264327Y-445820D01*
X266030Y-445115D01*
X267492Y-443993D01*
X268614Y-442530D01*
X269320Y-440827D01*
X269560Y-439000D01*
X269320Y-437173D01*
X268614Y-435470D01*
X267492Y-434008D01*
X266030Y-432886D01*
X264327Y-432180D01*
X262500Y-431940D01*
D02*
G37*
G36*
X359000Y-431435D02*
X357042Y-431693D01*
X355218Y-432449D01*
X353651Y-433651D01*
X352449Y-435218D01*
X351693Y-437042D01*
X351435Y-439000D01*
X351693Y-440958D01*
X352449Y-442782D01*
X353651Y-444349D01*
X355218Y-445551D01*
X357042Y-446307D01*
X359000Y-446565D01*
X360958Y-446307D01*
X362782Y-445551D01*
X364349Y-444349D01*
X365551Y-442782D01*
X366307Y-440958D01*
X366565Y-439000D01*
X366307Y-437042D01*
X365551Y-435218D01*
X364349Y-433651D01*
X362782Y-432449D01*
X360958Y-431693D01*
X359000Y-431435D01*
D02*
G37*
G36*
X413000Y-438435D02*
X411042Y-438693D01*
X409218Y-439449D01*
X407651Y-440651D01*
X406449Y-442218D01*
X405693Y-444042D01*
X405435Y-446000D01*
X405693Y-447958D01*
X406449Y-449782D01*
X407651Y-451349D01*
X409218Y-452551D01*
X411042Y-453307D01*
X413000Y-453565D01*
X414958Y-453307D01*
X416782Y-452551D01*
X418349Y-451349D01*
X419551Y-449782D01*
X420307Y-447958D01*
X420565Y-446000D01*
X420307Y-444042D01*
X419551Y-442218D01*
X418349Y-440651D01*
X416782Y-439449D01*
X414958Y-438693D01*
X413000Y-438435D01*
D02*
G37*
G36*
X338000Y-438435D02*
X336042Y-438693D01*
X334218Y-439449D01*
X332651Y-440651D01*
X331449Y-442218D01*
X330693Y-444042D01*
X330435Y-446000D01*
X330693Y-447958D01*
X331449Y-449782D01*
X332651Y-451349D01*
X334218Y-452551D01*
X336042Y-453307D01*
X338000Y-453565D01*
X339958Y-453307D01*
X341782Y-452551D01*
X343349Y-451349D01*
X344551Y-449782D01*
X345307Y-447958D01*
X345565Y-446000D01*
X345307Y-444042D01*
X344551Y-442218D01*
X343349Y-440651D01*
X341782Y-439449D01*
X339958Y-438693D01*
X338000Y-438435D01*
D02*
G37*
G36*
X191000Y-443435D02*
X189042Y-443693D01*
X187218Y-444449D01*
X185651Y-445651D01*
X184449Y-447218D01*
X183693Y-449042D01*
X183435Y-451000D01*
X183693Y-452958D01*
X184449Y-454782D01*
X185651Y-456349D01*
X187218Y-457551D01*
X189042Y-458307D01*
X191000Y-458565D01*
X192958Y-458307D01*
X194782Y-457551D01*
X196349Y-456349D01*
X197551Y-454782D01*
X198307Y-452958D01*
X198565Y-451000D01*
X198307Y-449042D01*
X197551Y-447218D01*
X196349Y-445651D01*
X194782Y-444449D01*
X192958Y-443693D01*
X191000Y-443435D01*
D02*
G37*
G36*
X82000Y-452435D02*
X80042Y-452693D01*
X78218Y-453449D01*
X76651Y-454651D01*
X75449Y-456218D01*
X74693Y-458042D01*
X74435Y-460000D01*
X74693Y-461958D01*
X75449Y-463782D01*
X76651Y-465349D01*
X78218Y-466551D01*
X80042Y-467307D01*
X82000Y-467565D01*
X83958Y-467307D01*
X85782Y-466551D01*
X87349Y-465349D01*
X88551Y-463782D01*
X89307Y-461958D01*
X89565Y-460000D01*
X89307Y-458042D01*
X88551Y-456218D01*
X87349Y-454651D01*
X85782Y-453449D01*
X83958Y-452693D01*
X82000Y-452435D01*
D02*
G37*
G36*
X286999Y-454939D02*
X285172Y-455179D01*
X283469Y-455885D01*
X282007Y-457007D01*
X280885Y-458469D01*
X280180Y-460172D01*
X279939Y-461999D01*
X280180Y-463826D01*
X280885Y-465529D01*
X282007Y-466992D01*
X283469Y-468114D01*
X285172Y-468819D01*
X286999Y-469059D01*
X288827Y-468819D01*
X290530Y-468114D01*
X291992Y-466992D01*
X293114Y-465529D01*
X293819Y-463826D01*
X294060Y-461999D01*
X293819Y-460172D01*
X293114Y-458469D01*
X291992Y-457007D01*
X290530Y-455885D01*
X288827Y-455179D01*
X286999Y-454939D01*
D02*
G37*
G36*
X248000Y-454940D02*
X246173Y-455180D01*
X244470Y-455886D01*
X243008Y-457007D01*
X241886Y-458470D01*
X241180Y-460173D01*
X240940Y-462000D01*
X241180Y-463827D01*
X241886Y-465530D01*
X243008Y-466992D01*
X244470Y-468115D01*
X246173Y-468820D01*
X248000Y-469060D01*
X249827Y-468820D01*
X251530Y-468115D01*
X252992Y-466992D01*
X254114Y-465530D01*
X254820Y-463827D01*
X255060Y-462000D01*
X254820Y-460173D01*
X254114Y-458470D01*
X252992Y-457007D01*
X251530Y-455886D01*
X249827Y-455180D01*
X248000Y-454940D01*
D02*
G37*
G36*
X222000D02*
X220173Y-455180D01*
X218470Y-455886D01*
X217008Y-457007D01*
X215886Y-458470D01*
X215180Y-460173D01*
X214940Y-462000D01*
X215180Y-463827D01*
X215886Y-465530D01*
X217008Y-466992D01*
X218470Y-468115D01*
X220173Y-468820D01*
X222000Y-469060D01*
X223827Y-468820D01*
X225530Y-468115D01*
X226992Y-466992D01*
X228114Y-465530D01*
X228820Y-463827D01*
X229060Y-462000D01*
X228820Y-460173D01*
X228114Y-458470D01*
X226992Y-457007D01*
X225530Y-455886D01*
X223827Y-455180D01*
X222000Y-454940D01*
D02*
G37*
G36*
X313000Y-454435D02*
X311042Y-454693D01*
X309218Y-455449D01*
X307651Y-456651D01*
X306449Y-458218D01*
X305693Y-460042D01*
X305435Y-462000D01*
X305693Y-463958D01*
X306449Y-465782D01*
X307651Y-467349D01*
X309218Y-468551D01*
X311042Y-469307D01*
X313000Y-469565D01*
X314958Y-469307D01*
X316782Y-468551D01*
X318349Y-467349D01*
X319551Y-465782D01*
X320307Y-463958D01*
X320565Y-462000D01*
X320307Y-460042D01*
X319551Y-458218D01*
X318349Y-456651D01*
X316782Y-455449D01*
X314958Y-454693D01*
X313000Y-454435D01*
D02*
G37*
G36*
X376999Y-457434D02*
X375041Y-457692D01*
X373217Y-458448D01*
X371650Y-459650D01*
X370448Y-461217D01*
X369692Y-463041D01*
X369435Y-464999D01*
X369692Y-466957D01*
X370448Y-468781D01*
X371650Y-470348D01*
X373217Y-471550D01*
X375041Y-472306D01*
X376999Y-472564D01*
X378957Y-472306D01*
X380782Y-471550D01*
X382348Y-470348D01*
X383550Y-468781D01*
X384306Y-466957D01*
X384564Y-464999D01*
X384306Y-463041D01*
X383550Y-461217D01*
X382348Y-459650D01*
X380782Y-458448D01*
X378957Y-457692D01*
X376999Y-457434D01*
D02*
G37*
G36*
X387000Y-89435D02*
X385042Y-89693D01*
X383218Y-90449D01*
X381651Y-91651D01*
X380449Y-93218D01*
X379693Y-95042D01*
X379435Y-97000D01*
X379693Y-98958D01*
X380449Y-100782D01*
X381651Y-102349D01*
X383218Y-103551D01*
X385042Y-104307D01*
X387000Y-104565D01*
X388958Y-104307D01*
X390782Y-103551D01*
X392349Y-102349D01*
X393551Y-100782D01*
X394307Y-98958D01*
X394565Y-97000D01*
X394307Y-95042D01*
X393551Y-93218D01*
X392349Y-91651D01*
X390782Y-90449D01*
X388958Y-89693D01*
X387000Y-89435D01*
D02*
G37*
G36*
X426000Y-140935D02*
X424042Y-141193D01*
X422218Y-141949D01*
X420651Y-143151D01*
X419449Y-144718D01*
X418693Y-146542D01*
X418435Y-148500D01*
X418693Y-150458D01*
X419449Y-152282D01*
X420651Y-153849D01*
X422218Y-155051D01*
X424042Y-155807D01*
X426000Y-156065D01*
X427958Y-155807D01*
X429782Y-155051D01*
X431349Y-153849D01*
X432551Y-152282D01*
X433307Y-150458D01*
X433565Y-148500D01*
X433307Y-146542D01*
X432551Y-144718D01*
X431349Y-143151D01*
X429782Y-141949D01*
X427958Y-141193D01*
X426000Y-140935D01*
D02*
G37*
G36*
X388000Y-120406D02*
X384177Y-120782D01*
X380502Y-121897D01*
X377114Y-123708D01*
X374145Y-126145D01*
X371708Y-129114D01*
X369897Y-132502D01*
X368782Y-136177D01*
X368406Y-140000D01*
X368782Y-143823D01*
X369897Y-147498D01*
X371708Y-150886D01*
X374145Y-153855D01*
X377114Y-156292D01*
X380502Y-158103D01*
X384177Y-159218D01*
X388000Y-159594D01*
X391823Y-159218D01*
X395499Y-158103D01*
X398886Y-156292D01*
X401855Y-153855D01*
X404292Y-150886D01*
X406103Y-147498D01*
X407218Y-143823D01*
X407594Y-140000D01*
X407218Y-136177D01*
X406103Y-132502D01*
X404292Y-129114D01*
X401855Y-126145D01*
X398886Y-123708D01*
X395499Y-121897D01*
X391823Y-120782D01*
X388000Y-120406D01*
D02*
G37*
G36*
X456000Y-156435D02*
X454042Y-156693D01*
X452218Y-157449D01*
X450651Y-158651D01*
X449449Y-160218D01*
X448693Y-162042D01*
X448435Y-164000D01*
X448693Y-165958D01*
X449449Y-167782D01*
X450651Y-169349D01*
X452218Y-170551D01*
X454042Y-171307D01*
X456000Y-171565D01*
X457958Y-171307D01*
X459782Y-170551D01*
X461349Y-169349D01*
X462551Y-167782D01*
X463307Y-165958D01*
X463565Y-164000D01*
X463307Y-162042D01*
X462551Y-160218D01*
X461349Y-158651D01*
X459782Y-157449D01*
X457958Y-156693D01*
X456000Y-156435D01*
D02*
G37*
G36*
X358000Y-171435D02*
X356042Y-171693D01*
X354218Y-172449D01*
X352651Y-173651D01*
X351449Y-175218D01*
X350693Y-177042D01*
X350435Y-179000D01*
X350693Y-180958D01*
X351449Y-182782D01*
X352651Y-184349D01*
X354218Y-185551D01*
X356042Y-186307D01*
X358000Y-186565D01*
X359958Y-186307D01*
X361782Y-185551D01*
X363349Y-184349D01*
X364551Y-182782D01*
X365307Y-180958D01*
X365565Y-179000D01*
X365307Y-177042D01*
X364551Y-175218D01*
X363349Y-173651D01*
X361782Y-172449D01*
X359958Y-171693D01*
X358000Y-171435D01*
D02*
G37*
G36*
X376000Y-173435D02*
X374042Y-173693D01*
X372218Y-174449D01*
X370651Y-175651D01*
X369449Y-177218D01*
X368693Y-179042D01*
X368435Y-181000D01*
X368693Y-182958D01*
X369449Y-184782D01*
X370651Y-186349D01*
X372218Y-187551D01*
X374042Y-188307D01*
X376000Y-188565D01*
X377958Y-188307D01*
X379782Y-187551D01*
X381349Y-186349D01*
X382551Y-184782D01*
X383307Y-182958D01*
X383565Y-181000D01*
X383307Y-179042D01*
X382551Y-177218D01*
X381349Y-175651D01*
X379782Y-174449D01*
X377958Y-173693D01*
X376000Y-173435D01*
D02*
G37*
G36*
X425000Y-196435D02*
X423042Y-196693D01*
X421218Y-197449D01*
X419651Y-198651D01*
X418449Y-200218D01*
X417693Y-202042D01*
X417435Y-204000D01*
X417693Y-205958D01*
X418449Y-207782D01*
X419651Y-209349D01*
X421218Y-210551D01*
X423042Y-211307D01*
X425000Y-211565D01*
X426958Y-211307D01*
X428782Y-210551D01*
X430349Y-209349D01*
X431551Y-207782D01*
X432307Y-205958D01*
X432565Y-204000D01*
X432307Y-202042D01*
X431551Y-200218D01*
X430349Y-198651D01*
X428782Y-197449D01*
X426958Y-196693D01*
X425000Y-196435D01*
D02*
G37*
G36*
X444000Y-227444D02*
X442303Y-227667D01*
X440722Y-228322D01*
X439364Y-229364D01*
X438322Y-230722D01*
X437667Y-232303D01*
X437444Y-234000D01*
X437667Y-235697D01*
X438322Y-237278D01*
X439364Y-238636D01*
X440722Y-239678D01*
X442303Y-240333D01*
X444000Y-240556D01*
X445697Y-240333D01*
X447278Y-239678D01*
X448636Y-238636D01*
X449678Y-237278D01*
X450333Y-235697D01*
X450556Y-234000D01*
X450333Y-232303D01*
X449678Y-230722D01*
X448636Y-229364D01*
X447278Y-228322D01*
X445697Y-227667D01*
X444000Y-227444D01*
D02*
G37*
G36*
X397000Y-218300D02*
X379000D01*
Y-236300D01*
X396041Y-236300D01*
X396097D01*
X396097D01*
X396319Y-236300D01*
X396535Y-236736D01*
X396946Y-237570D01*
X396449Y-238218D01*
X395693Y-240042D01*
X395435Y-242000D01*
X395693Y-243958D01*
X396449Y-245782D01*
X397651Y-247349D01*
X399218Y-248551D01*
X401042Y-249307D01*
X403000Y-249565D01*
X404958Y-249307D01*
X406782Y-248551D01*
X408349Y-247349D01*
X409551Y-245782D01*
X410307Y-243958D01*
X410565Y-242000D01*
X410307Y-240042D01*
X409551Y-238218D01*
X408349Y-236651D01*
X406782Y-235449D01*
X404958Y-234693D01*
X403000Y-234435D01*
X401042Y-234693D01*
X399218Y-235449D01*
X398270Y-236176D01*
X397000Y-235550D01*
X397000Y-235336D01*
X397000Y-235336D01*
X397000Y-235312D01*
Y-218300D01*
D02*
G37*
G36*
X388000Y-243622D02*
X385650Y-243932D01*
X383461Y-244839D01*
X381581Y-246281D01*
X380139Y-248161D01*
X379232Y-250350D01*
X378922Y-252700D01*
X379232Y-255049D01*
X380139Y-257239D01*
X381581Y-259119D01*
X383461Y-260562D01*
X385650Y-261468D01*
X388000Y-261778D01*
X390350Y-261468D01*
X392539Y-260562D01*
X394419Y-259119D01*
X395862Y-257239D01*
X396768Y-255049D01*
X397078Y-252700D01*
X396768Y-250350D01*
X395862Y-248161D01*
X394419Y-246281D01*
X392539Y-244839D01*
X390350Y-243932D01*
X388000Y-243622D01*
D02*
G37*
G36*
X234100Y-19500D02*
X215100D01*
Y-38500D01*
X234100D01*
Y-19500D01*
D02*
G37*
G36*
X275400Y-19418D02*
X272920Y-19744D01*
X270609Y-20702D01*
X268625Y-22225D01*
X267102Y-24209D01*
X266145Y-26520D01*
X265818Y-29000D01*
X266145Y-31480D01*
X267102Y-33791D01*
X268625Y-35775D01*
X270609Y-37298D01*
X272920Y-38255D01*
X275400Y-38582D01*
X277880Y-38255D01*
X280191Y-37298D01*
X282176Y-35775D01*
X283698Y-33791D01*
X284655Y-31480D01*
X284982Y-29000D01*
X284655Y-26520D01*
X283698Y-24209D01*
X282176Y-22225D01*
X280191Y-20702D01*
X277880Y-19744D01*
X275400Y-19418D01*
D02*
G37*
G36*
X250000D02*
X247520Y-19744D01*
X245209Y-20702D01*
X243225Y-22225D01*
X241702Y-24209D01*
X240745Y-26520D01*
X240418Y-29000D01*
X240745Y-31480D01*
X241702Y-33791D01*
X243225Y-35775D01*
X245209Y-37298D01*
X247520Y-38255D01*
X250000Y-38582D01*
X252480Y-38255D01*
X254791Y-37298D01*
X256775Y-35775D01*
X258298Y-33791D01*
X259256Y-31480D01*
X259582Y-29000D01*
X259256Y-26520D01*
X258298Y-24209D01*
X256775Y-22225D01*
X254791Y-20702D01*
X252480Y-19744D01*
X250000Y-19418D01*
D02*
G37*
G36*
X168270Y-60066D02*
Y-65730D01*
X173934D01*
X173859Y-65162D01*
X173149Y-63450D01*
X172021Y-61979D01*
X170550Y-60851D01*
X168838Y-60141D01*
X168270Y-60066D01*
D02*
G37*
G36*
X165730D02*
X165162Y-60141D01*
X163450Y-60851D01*
X161979Y-61979D01*
X160851Y-63450D01*
X160141Y-65162D01*
X160067Y-65730D01*
X165730D01*
Y-60066D01*
D02*
G37*
G36*
X255730Y-68067D02*
X255162Y-68141D01*
X253450Y-68851D01*
X251979Y-69979D01*
X251635Y-70427D01*
X250365D01*
X250021Y-69979D01*
X248550Y-68851D01*
X246838Y-68141D01*
X246270Y-68067D01*
Y-75000D01*
X245000D01*
Y-76270D01*
X238067D01*
X238141Y-76838D01*
X238851Y-78550D01*
X239979Y-80021D01*
X241450Y-81149D01*
X243162Y-81859D01*
X243686Y-82730D01*
X257934D01*
X257859Y-82162D01*
X258751Y-81870D01*
X258838Y-81859D01*
X260550Y-81149D01*
X262021Y-80021D01*
X263149Y-78550D01*
X263859Y-76838D01*
X263934Y-76270D01*
X257000D01*
Y-75000D01*
X255730D01*
Y-68067D01*
D02*
G37*
G36*
X258270D02*
Y-73730D01*
X263934D01*
X263859Y-73162D01*
X263149Y-71450D01*
X262021Y-69979D01*
X260550Y-68851D01*
X258838Y-68141D01*
X258270Y-68067D01*
D02*
G37*
G36*
X243730D02*
X243162Y-68141D01*
X241450Y-68851D01*
X239979Y-69979D01*
X238851Y-71450D01*
X238141Y-73162D01*
X238067Y-73730D01*
X243730D01*
Y-68067D01*
D02*
G37*
G36*
X202000Y-68435D02*
X200042Y-68693D01*
X198218Y-69449D01*
X196651Y-70651D01*
X195449Y-72218D01*
X194693Y-74042D01*
X194435Y-76000D01*
X194693Y-77958D01*
X195449Y-79782D01*
X196651Y-81349D01*
X198218Y-82551D01*
X200042Y-83307D01*
X202000Y-83565D01*
X203958Y-83307D01*
X205782Y-82551D01*
X207349Y-81349D01*
X208551Y-79782D01*
X209307Y-77958D01*
X209565Y-76000D01*
X209307Y-74042D01*
X208551Y-72218D01*
X207349Y-70651D01*
X205782Y-69449D01*
X203958Y-68693D01*
X202000Y-68435D01*
D02*
G37*
G36*
X257934Y-85270D02*
X252270D01*
Y-90934D01*
X252838Y-90859D01*
X254550Y-90149D01*
X256021Y-89021D01*
X257149Y-87550D01*
X257859Y-85838D01*
X257934Y-85270D01*
D02*
G37*
G36*
X249730D02*
X244067D01*
X244141Y-85838D01*
X244851Y-87550D01*
X245979Y-89021D01*
X247450Y-90149D01*
X249162Y-90859D01*
X249730Y-90934D01*
Y-85270D01*
D02*
G37*
G36*
X176203Y-83270D02*
X168270D01*
Y-91203D01*
X169425Y-91051D01*
X171685Y-90115D01*
X173626Y-88626D01*
X175115Y-86685D01*
X176051Y-84425D01*
X176203Y-83270D01*
D02*
G37*
G36*
X188270Y-94066D02*
Y-99730D01*
X193934D01*
X193859Y-99162D01*
X193149Y-97450D01*
X192021Y-95979D01*
X190550Y-94851D01*
X188838Y-94141D01*
X188270Y-94066D01*
D02*
G37*
G36*
X185730D02*
X185162Y-94141D01*
X183450Y-94851D01*
X181979Y-95979D01*
X180851Y-97450D01*
X180141Y-99162D01*
X180067Y-99730D01*
X185730D01*
Y-94066D01*
D02*
G37*
%LPD*%
D44*
X167000Y-89933D02*
X168270Y-91203D01*
X257000Y-75000D02*
X272000D01*
X245000D02*
X257000D01*
X232000D02*
X245000D01*
D50*
X167000Y-89933D02*
Y-70000D01*
X167000Y-82000D02*
X183000D01*
D51*
X167000D02*
D03*
D53*
X465730Y-412730D02*
D03*
D55*
X191000Y-421000D02*
D03*
X79000Y-340000D02*
D03*
X73000Y-377000D02*
D03*
X273000Y-462000D02*
D03*
X378500Y-399000D02*
D03*
D59*
X460000Y-112000D02*
D03*
X230000Y-150000D02*
D03*
X164000D02*
D03*
X180000Y-180000D02*
D03*
X346000Y-80000D02*
D03*
X299000Y-129000D02*
D03*
Y-118000D02*
D03*
X245000Y-75000D02*
D03*
X251000Y-84000D02*
D03*
X257000Y-75000D02*
D03*
X414000Y-41000D02*
D03*
X110000Y-340000D02*
D03*
X15000Y-146000D02*
D03*
X235000Y-211000D02*
D03*
X80000Y-407000D02*
D03*
X349000Y-111000D02*
D03*
X239000Y-363000D02*
D03*
X31000Y-384000D02*
D03*
X356000Y-80000D02*
D03*
X367000Y-111000D02*
D03*
X366000Y-80000D02*
D03*
X411000Y-115000D02*
D03*
X376000Y-211000D02*
D03*
X339000Y-208000D02*
D03*
X358000D02*
D03*
X246000Y-436000D02*
D03*
X117000Y-433000D02*
D03*
X162000Y-370000D02*
D03*
Y-394000D02*
D03*
X138000D02*
D03*
Y-371000D02*
D03*
X126000Y-37000D02*
D03*
X146000Y-192000D02*
D03*
X442000Y-415000D02*
D03*
X431000Y-163000D02*
D03*
X20000Y-220000D02*
D03*
Y-260000D02*
D03*
Y-280000D02*
D03*
Y-300000D02*
D03*
X450000Y-253000D02*
D03*
X462000Y-177000D02*
D03*
Y-216000D02*
D03*
X461000Y-238000D02*
D03*
X462000Y-197000D02*
D03*
X83000Y-38000D02*
D03*
X75000Y-31000D02*
D03*
X67000Y-39000D02*
D03*
X15000Y-125000D02*
D03*
Y-110000D02*
D03*
Y-95000D02*
D03*
Y-80000D02*
D03*
Y-65000D02*
D03*
X30000Y-55000D02*
D03*
X49000Y-146000D02*
D03*
X64000D02*
D03*
X80000D02*
D03*
X145000Y-145000D02*
D03*
X30000Y-146000D02*
D03*
X167000Y-67000D02*
D03*
X187000Y-101000D02*
D03*
X254000Y-151000D02*
D03*
Y-168000D02*
D03*
X293000Y-161000D02*
D03*
X110000Y-305000D02*
D03*
X130000D02*
D03*
X150000D02*
D03*
X170000D02*
D03*
X205000D02*
D03*
X90000D02*
D03*
X428000Y-355000D02*
D03*
X291000Y-389000D02*
D03*
X317000D02*
D03*
X304000Y-403000D02*
D03*
D60*
X71000Y-100000D02*
D03*
X52000Y-97000D02*
D03*
X335000Y-234000D02*
D03*
X335000Y-283500D02*
D03*
Y-266000D02*
D03*
X433000D02*
D03*
X393000Y-284500D02*
D03*
X96000Y-134000D02*
D03*
X74000Y-116000D02*
D03*
D61*
X117000Y-201000D02*
D03*
X122000Y-195000D02*
D03*
X127000Y-201000D02*
D03*
X112000Y-195000D02*
D03*
M02*
