G04 Layer_Color=65535*
%FSLAX44Y44*%
%MOMM*%
G71*
G01*
G75*
%ADD48C,0.2000*%
%ADD71C,0.2500*%
%ADD72C,0.3810*%
%ADD73C,0.1270*%
%ADD74C,0.1016*%
%ADD75C,0.1524*%
%ADD76C,0.2540*%
%ADD77C,0.3500*%
G36*
X331940Y-431940D02*
X321940D01*
X331940Y-421940D01*
Y-431940D01*
D02*
G37*
G36*
X127250Y-408510D02*
Y-410000D01*
X123000D01*
Y-405750D01*
X124490D01*
X127250Y-408510D01*
D02*
G37*
G36*
X309500Y-149500D02*
X299500Y-139500D01*
X309500D01*
Y-149500D01*
D02*
G37*
D48*
X127250Y-410000D02*
X126681Y-407875D01*
X125125Y-406319D01*
X123000Y-405750D01*
X273000Y-100500D02*
X287750D01*
X177000Y-410000D02*
Y-405750D01*
X172750Y-410000D02*
X177000D01*
Y-360250D02*
Y-356000D01*
X172750D02*
X177000D01*
X123000D02*
X127250D01*
X123000Y-360250D02*
Y-356000D01*
Y-410000D02*
Y-405750D01*
Y-410000D02*
X127250D01*
X434920Y-97540D02*
X445080D01*
X409500Y-83000D02*
Y-52000D01*
X414500Y-83000D02*
Y-52000D01*
X409500D02*
X414500D01*
X409500Y-83000D02*
X414500D01*
X242500Y-139500D02*
X309500D01*
X242500Y-176500D02*
Y-139500D01*
Y-176500D02*
X309500D01*
Y-139500D01*
X46500Y-355500D02*
Y-324500D01*
X51500Y-355500D02*
Y-324500D01*
X46500D02*
X51500D01*
X46500Y-355500D02*
X51500D01*
X361500Y-299000D02*
Y-268000D01*
X366500Y-299000D02*
Y-268000D01*
X361500D02*
X366500D01*
X361500Y-299000D02*
X366500D01*
X21000Y-181250D02*
X25000Y-177250D01*
X21000Y-197250D02*
Y-171250D01*
X47000Y-197250D02*
Y-191250D01*
Y-177250D02*
Y-171250D01*
X461000Y-313250D02*
X465000Y-309250D01*
Y-319250D02*
Y-293250D01*
X439000Y-299250D02*
Y-293250D01*
Y-319250D02*
Y-313250D01*
X412000Y-103000D02*
Y-91000D01*
X404500Y-182500D02*
Y-179500D01*
X435500Y-182500D02*
Y-179500D01*
X404500Y-182500D02*
X435500D01*
X404500Y-179500D02*
X435500D01*
X368920Y-237460D02*
X379080D01*
X123000Y-215500D02*
X139250D01*
X123000Y-241500D02*
X139250D01*
X123000D02*
Y-237000D01*
Y-220000D02*
Y-215500D01*
D71*
X133370Y-416500D02*
X131495Y-415417D01*
Y-417583D01*
X133370Y-416500D01*
X425250Y-85750D02*
X423375Y-84667D01*
Y-86833D01*
X425250Y-85750D01*
X62250Y-358250D02*
X60375Y-357168D01*
Y-359333D01*
X62250Y-358250D01*
X377250Y-301750D02*
X375375Y-300667D01*
Y-302833D01*
X377250Y-301750D01*
X395790Y-216250D02*
X393915Y-215168D01*
Y-217333D01*
X395790Y-216250D01*
X402750Y-193000D02*
X400875Y-191917D01*
Y-194083D01*
X402750Y-193000D01*
X149250Y-248000D02*
X147375Y-246917D01*
Y-249083D01*
X149250Y-248000D01*
D72*
X346545Y-439560D02*
X345229Y-437748D01*
X343099Y-438440D01*
Y-440680D01*
X345229Y-441372D01*
X346545Y-439560D01*
D73*
X99488Y-238004D02*
X112512D01*
X99488Y-240996D02*
X112512D01*
X327778Y-270762D02*
Y-261238D01*
X324222Y-270762D02*
Y-261238D01*
X388238Y-187222D02*
X397762D01*
X388238Y-190778D02*
X397762D01*
X453278Y-120762D02*
Y-111238D01*
X449722Y-120762D02*
Y-111238D01*
X406278Y-45762D02*
Y-36238D01*
X402722Y-45762D02*
Y-36238D01*
X276278Y-111762D02*
Y-102238D01*
X272722Y-111762D02*
Y-102238D01*
X312778Y-92762D02*
Y-83238D01*
X309222Y-92762D02*
Y-83238D01*
X182238Y-89778D02*
X191762D01*
X182238Y-86222D02*
X191762D01*
X228976Y-102936D02*
X232024D01*
X228976Y-111064D02*
X232024D01*
X207064Y-99024D02*
Y-95976D01*
X198936Y-99024D02*
Y-95976D01*
X299238Y-65778D02*
X308762D01*
X299238Y-62222D02*
X308762D01*
X239222Y-192762D02*
Y-183238D01*
X242778Y-192762D02*
Y-183238D01*
X90936Y-391024D02*
Y-387976D01*
X99064Y-391024D02*
Y-387976D01*
X272278Y-347762D02*
Y-338238D01*
X268722Y-347762D02*
Y-338238D01*
X336222Y-465762D02*
Y-456238D01*
X339778Y-465762D02*
Y-456238D01*
X252722Y-446762D02*
Y-437238D01*
X256278Y-446762D02*
Y-437238D01*
X214976Y-363936D02*
X218024D01*
X214976Y-372064D02*
X218024D01*
X218278Y-387762D02*
Y-378238D01*
X214722Y-387762D02*
Y-378238D01*
X270976Y-292064D02*
X274024D01*
X270976Y-283936D02*
X274024D01*
X56722Y-281762D02*
Y-272238D01*
X60278Y-281762D02*
Y-272238D01*
X57722Y-298762D02*
Y-289238D01*
X61278Y-298762D02*
Y-289238D01*
X14488Y-361496D02*
X27512D01*
X14488Y-358504D02*
X27512D01*
X47722Y-373762D02*
Y-364238D01*
X51278Y-373762D02*
Y-364238D01*
X425238Y-259778D02*
X434762D01*
X425238Y-256222D02*
X434762D01*
X341722Y-253762D02*
Y-244238D01*
X345278Y-253762D02*
Y-244238D01*
X330238Y-290222D02*
X339762D01*
X330238Y-293778D02*
X339762D01*
X445080Y-97540D02*
Y-90500D01*
X434920Y-97540D02*
Y-90500D01*
X371976Y-92936D02*
X375024D01*
X371976Y-101064D02*
X375024D01*
X449976Y-136064D02*
X453024D01*
X449976Y-127936D02*
X453024D01*
X454936Y-77024D02*
Y-73976D01*
X463064Y-77024D02*
Y-73976D01*
X71226Y-169436D02*
X74274D01*
X71226Y-177564D02*
X74274D01*
X75936Y-287524D02*
Y-284476D01*
X84064Y-287524D02*
Y-284476D01*
X27476Y-405936D02*
X30524D01*
X27476Y-414064D02*
X30524D01*
X24064Y-328024D02*
Y-324976D01*
X15936Y-328024D02*
Y-324976D01*
X72650Y-333810D02*
Y-326190D01*
X85350Y-333810D02*
Y-326190D01*
X46976Y-318064D02*
X50024D01*
X46976Y-309936D02*
X50024D01*
X430064Y-141524D02*
Y-138476D01*
X421936Y-141524D02*
Y-138476D01*
X68936Y-370024D02*
Y-366976D01*
X77064Y-370024D02*
Y-366976D01*
X403190Y-270350D02*
X410810D01*
X403190Y-257650D02*
X410810D01*
X405936Y-298524D02*
Y-295476D01*
X414064Y-298524D02*
Y-295476D01*
X314936Y-242024D02*
Y-238976D01*
X323064Y-242024D02*
Y-238976D01*
X341976Y-238064D02*
X345024D01*
X341976Y-229936D02*
X345024D01*
X212976Y-334936D02*
X216024D01*
X212976Y-343064D02*
X216024D01*
X397064Y-294524D02*
Y-291476D01*
X388936Y-294524D02*
Y-291476D01*
X330976Y-323064D02*
X334024D01*
X330976Y-314936D02*
X334024D01*
X368920Y-244500D02*
Y-237460D01*
X379080Y-244500D02*
Y-237460D01*
X141488Y-199496D02*
X154512D01*
X141488Y-196504D02*
X154512D01*
X183722Y-52762D02*
Y-43238D01*
X187278Y-52762D02*
Y-43238D01*
D74*
X192936Y-23524D02*
Y-20476D01*
X201064Y-23524D02*
Y-20476D01*
X384064Y-69024D02*
Y-65976D01*
X375936Y-69024D02*
Y-65976D01*
X72064Y-446524D02*
Y-443476D01*
X63936Y-446524D02*
Y-443476D01*
X47976Y-390936D02*
X51024D01*
X47976Y-399064D02*
X51024D01*
X371936Y-191524D02*
Y-188476D01*
X380064Y-191524D02*
Y-188476D01*
X323064Y-293524D02*
Y-290476D01*
X314936Y-293524D02*
Y-290476D01*
X172476Y-202936D02*
X175524D01*
X172476Y-211064D02*
X175524D01*
D75*
X276060Y-376060D02*
X331940D01*
X276060Y-431940D02*
X331940D01*
X276060D02*
Y-376060D01*
X331940Y-431940D02*
Y-376060D01*
D76*
X389000Y-437000D02*
Y-427000D01*
X421500Y-437000D02*
Y-427000D01*
X186997Y-15000D02*
X179000D01*
Y-20332D01*
Y-22997D02*
Y-25663D01*
Y-24330D01*
X186997D01*
X185665Y-22997D01*
X179000Y-29662D02*
Y-32328D01*
Y-30995D01*
X186997D01*
X185665Y-29662D01*
X173335Y-114668D02*
X172003Y-116001D01*
Y-118667D01*
X173335Y-120000D01*
X178667D01*
X180000Y-118667D01*
Y-116001D01*
X178667Y-114668D01*
X173335Y-112003D02*
X172003Y-110670D01*
Y-108004D01*
X173335Y-106671D01*
X174668D01*
X176001Y-108004D01*
Y-109337D01*
Y-108004D01*
X177334Y-106671D01*
X178667D01*
X180000Y-108004D01*
Y-110670D01*
X178667Y-112003D01*
X172003Y-98673D02*
X173335Y-101339D01*
X176001Y-104005D01*
X178667D01*
X180000Y-102672D01*
Y-100006D01*
X178667Y-98673D01*
X177334D01*
X176001Y-100006D01*
Y-104005D01*
X311332Y-98336D02*
X309999Y-97003D01*
X307333D01*
X306000Y-98336D01*
Y-103667D01*
X307333Y-105000D01*
X309999D01*
X311332Y-103667D01*
X313997Y-98336D02*
X315330Y-97003D01*
X317996D01*
X319329Y-98336D01*
Y-99668D01*
X317996Y-101001D01*
X316663D01*
X317996D01*
X319329Y-102334D01*
Y-103667D01*
X317996Y-105000D01*
X315330D01*
X313997Y-103667D01*
X327326Y-97003D02*
X321995D01*
Y-101001D01*
X324661Y-99668D01*
X325994D01*
X327326Y-101001D01*
Y-103667D01*
X325994Y-105000D01*
X323328D01*
X321995Y-103667D01*
X219000Y-126000D02*
Y-118003D01*
X222999D01*
X224332Y-119335D01*
Y-122001D01*
X222999Y-123334D01*
X219000D01*
X221666D02*
X224332Y-126000D01*
X226997Y-119335D02*
X228330Y-118003D01*
X230996D01*
X232329Y-119335D01*
Y-120668D01*
X230996Y-122001D01*
X229663D01*
X230996D01*
X232329Y-123334D01*
Y-124667D01*
X230996Y-126000D01*
X228330D01*
X226997Y-124667D01*
X240326Y-118003D02*
X234995D01*
Y-122001D01*
X237661Y-120668D01*
X238994D01*
X240326Y-122001D01*
Y-124667D01*
X238994Y-126000D01*
X236328D01*
X234995Y-124667D01*
X207000Y-139000D02*
X199003D01*
Y-135001D01*
X200336Y-133668D01*
X203001D01*
X204334Y-135001D01*
Y-139000D01*
Y-136334D02*
X207000Y-133668D01*
X200336Y-131003D02*
X199003Y-129670D01*
Y-127004D01*
X200336Y-125671D01*
X201668D01*
X203001Y-127004D01*
Y-128337D01*
Y-127004D01*
X204334Y-125671D01*
X205667D01*
X207000Y-127004D01*
Y-129670D01*
X205667Y-131003D01*
X199003Y-123005D02*
Y-117674D01*
X200336D01*
X205667Y-123005D01*
X207000D01*
X301335Y-42169D02*
X300002Y-43502D01*
Y-46167D01*
X301335Y-47500D01*
X306667D01*
X308000Y-46167D01*
Y-43502D01*
X306667Y-42169D01*
X301335Y-39503D02*
X300002Y-38170D01*
Y-35504D01*
X301335Y-34171D01*
X302668D01*
X304001Y-35504D01*
Y-36837D01*
Y-35504D01*
X305334Y-34171D01*
X306667D01*
X308000Y-35504D01*
Y-38170D01*
X306667Y-39503D01*
X308000Y-27507D02*
X300002D01*
X304001Y-31505D01*
Y-26174D01*
X272332Y-326335D02*
X270999Y-325003D01*
X268333D01*
X267000Y-326335D01*
Y-331667D01*
X268333Y-333000D01*
X270999D01*
X272332Y-331667D01*
X274997Y-326335D02*
X276330Y-325003D01*
X278996D01*
X280329Y-326335D01*
Y-327668D01*
X278996Y-329001D01*
X277663D01*
X278996D01*
X280329Y-330334D01*
Y-331667D01*
X278996Y-333000D01*
X276330D01*
X274997Y-331667D01*
X288326Y-333000D02*
X282995D01*
X288326Y-327668D01*
Y-326335D01*
X286994Y-325003D01*
X284328D01*
X282995Y-326335D01*
X205000Y-359000D02*
Y-351003D01*
X208999D01*
X210332Y-352336D01*
Y-355001D01*
X208999Y-356334D01*
X205000D01*
X207666D02*
X210332Y-359000D01*
X212997Y-352336D02*
X214330Y-351003D01*
X216996D01*
X218329Y-352336D01*
Y-353668D01*
X216996Y-355001D01*
X215663D01*
X216996D01*
X218329Y-356334D01*
Y-357667D01*
X216996Y-359000D01*
X214330D01*
X212997Y-357667D01*
X220995Y-359000D02*
X223661D01*
X222328D01*
Y-351003D01*
X220995Y-352336D01*
X211332Y-394336D02*
X209999Y-393003D01*
X207333D01*
X206000Y-394336D01*
Y-399667D01*
X207333Y-401000D01*
X209999D01*
X211332Y-399667D01*
X219329Y-401000D02*
X213997D01*
X219329Y-395668D01*
Y-394336D01*
X217996Y-393003D01*
X215330D01*
X213997Y-394336D01*
X221995Y-399667D02*
X223328Y-401000D01*
X225994D01*
X227326Y-399667D01*
Y-394336D01*
X225994Y-393003D01*
X223328D01*
X221995Y-394336D01*
Y-395668D01*
X223328Y-397001D01*
X227326D01*
X263000Y-279000D02*
Y-271003D01*
X266999D01*
X268332Y-272335D01*
Y-275001D01*
X266999Y-276334D01*
X263000D01*
X265666D02*
X268332Y-279000D01*
X276329D02*
X270997D01*
X276329Y-273668D01*
Y-272335D01*
X274996Y-271003D01*
X272330D01*
X270997Y-272335D01*
X278995D02*
X280328Y-271003D01*
X282994D01*
X284326Y-272335D01*
Y-273668D01*
X282994Y-275001D01*
X284326Y-276334D01*
Y-277667D01*
X282994Y-279000D01*
X280328D01*
X278995Y-277667D01*
Y-276334D01*
X280328Y-275001D01*
X278995Y-273668D01*
Y-272335D01*
X280328Y-275001D02*
X282994D01*
X352000Y-323000D02*
Y-315003D01*
X355999D01*
X357332Y-316336D01*
Y-319001D01*
X355999Y-320334D01*
X352000D01*
X354666D02*
X357332Y-323000D01*
X365329D02*
X359997D01*
X365329Y-317668D01*
Y-316336D01*
X363996Y-315003D01*
X361330D01*
X359997Y-316336D01*
X367995Y-315003D02*
X373326D01*
Y-316336D01*
X367995Y-321667D01*
Y-323000D01*
X204500Y-329000D02*
Y-321003D01*
X208499D01*
X209832Y-322336D01*
Y-325001D01*
X208499Y-326334D01*
X204500D01*
X207166D02*
X209832Y-329000D01*
X217829D02*
X212497D01*
X217829Y-323668D01*
Y-322336D01*
X216496Y-321003D01*
X213830D01*
X212497Y-322336D01*
X224494Y-329000D02*
Y-321003D01*
X220495Y-325001D01*
X225826D01*
X333000Y-226000D02*
Y-218003D01*
X336999D01*
X338332Y-219335D01*
Y-222001D01*
X336999Y-223334D01*
X333000D01*
X335666D02*
X338332Y-226000D01*
X346329D02*
X340997D01*
X346329Y-220668D01*
Y-219335D01*
X344996Y-218003D01*
X342330D01*
X340997Y-219335D01*
X348995D02*
X350328Y-218003D01*
X352994D01*
X354326Y-219335D01*
Y-220668D01*
X352994Y-222001D01*
X351661D01*
X352994D01*
X354326Y-223334D01*
Y-224667D01*
X352994Y-226000D01*
X350328D01*
X348995Y-224667D01*
X309000Y-251000D02*
X301003D01*
Y-247001D01*
X302335Y-245668D01*
X305001D01*
X306334Y-247001D01*
Y-251000D01*
Y-248334D02*
X309000Y-245668D01*
Y-237671D02*
Y-243003D01*
X303668Y-237671D01*
X302335D01*
X301003Y-239004D01*
Y-241670D01*
X302335Y-243003D01*
X309000Y-229674D02*
Y-235005D01*
X303668Y-229674D01*
X302335D01*
X301003Y-231006D01*
Y-233672D01*
X302335Y-235005D01*
X90000Y-374000D02*
X82003D01*
Y-370001D01*
X83336Y-368668D01*
X86001D01*
X87334Y-370001D01*
Y-374000D01*
Y-371334D02*
X90000Y-368668D01*
Y-366003D02*
Y-363337D01*
Y-364670D01*
X82003D01*
X83336Y-366003D01*
X82003Y-359338D02*
Y-354006D01*
X83336D01*
X88667Y-359338D01*
X90000D01*
X99000Y-340000D02*
X91003D01*
Y-336001D01*
X92336Y-334668D01*
X95001D01*
X96334Y-336001D01*
Y-340000D01*
Y-337334D02*
X99000Y-334668D01*
Y-332003D02*
Y-329337D01*
Y-330670D01*
X91003D01*
X92336Y-332003D01*
X99000Y-321339D02*
X91003D01*
X95001Y-325338D01*
Y-320006D01*
X36625Y-305919D02*
X28628D01*
Y-301921D01*
X29960Y-300588D01*
X32626D01*
X33959Y-301921D01*
Y-305919D01*
Y-303253D02*
X36625Y-300588D01*
Y-297922D02*
Y-295256D01*
Y-296589D01*
X28628D01*
X29960Y-297922D01*
Y-291257D02*
X28628Y-289924D01*
Y-287258D01*
X29960Y-285926D01*
X31293D01*
X32626Y-287258D01*
Y-288591D01*
Y-287258D01*
X33959Y-285926D01*
X35292D01*
X36625Y-287258D01*
Y-289924D01*
X35292Y-291257D01*
X48000Y-414000D02*
Y-406003D01*
X51999D01*
X53332Y-407336D01*
Y-410001D01*
X51999Y-411334D01*
X48000D01*
X50666D02*
X53332Y-414000D01*
X55997D02*
X58663D01*
X57330D01*
Y-406003D01*
X55997Y-407336D01*
X67994Y-414000D02*
X62662D01*
X67994Y-408668D01*
Y-407336D01*
X66661Y-406003D01*
X63995D01*
X62662Y-407336D01*
X65750Y-193000D02*
Y-185003D01*
X69749D01*
X71082Y-186336D01*
Y-189001D01*
X69749Y-190334D01*
X65750D01*
X68416D02*
X71082Y-193000D01*
X73747Y-185003D02*
X79079D01*
Y-186336D01*
X73747Y-191667D01*
Y-193000D01*
X450000Y-79000D02*
X442003D01*
Y-75001D01*
X443335Y-73668D01*
X446001D01*
X447334Y-75001D01*
Y-79000D01*
Y-76334D02*
X450000Y-73668D01*
X442003Y-65671D02*
X443335Y-68337D01*
X446001Y-71003D01*
X448667D01*
X450000Y-69670D01*
Y-67004D01*
X448667Y-65671D01*
X447334D01*
X446001Y-67004D01*
Y-71003D01*
X444000Y-149000D02*
Y-141003D01*
X447999D01*
X449332Y-142336D01*
Y-145001D01*
X447999Y-146334D01*
X444000D01*
X446666D02*
X449332Y-149000D01*
X457329Y-141003D02*
X451997D01*
Y-145001D01*
X454663Y-143668D01*
X455996D01*
X457329Y-145001D01*
Y-147667D01*
X455996Y-149000D01*
X453330D01*
X451997Y-147667D01*
X342000Y-101000D02*
Y-93003D01*
X345999D01*
X347332Y-94335D01*
Y-97001D01*
X345999Y-98334D01*
X342000D01*
X344666D02*
X347332Y-101000D01*
X353996D02*
Y-93003D01*
X349997Y-97001D01*
X355329D01*
X301003Y-302000D02*
X309000D01*
Y-296668D01*
Y-294003D02*
Y-291337D01*
Y-292670D01*
X301003D01*
X302335Y-294003D01*
Y-287338D02*
X301003Y-286005D01*
Y-283339D01*
X302335Y-282006D01*
X307667D01*
X309000Y-283339D01*
Y-286005D01*
X307667Y-287338D01*
X302335D01*
X358003Y-200000D02*
X366000D01*
Y-194668D01*
X359336Y-192003D02*
X358003Y-190670D01*
Y-188004D01*
X359336Y-186671D01*
X360668D01*
X362001Y-188004D01*
X363334Y-186671D01*
X364667D01*
X366000Y-188004D01*
Y-190670D01*
X364667Y-192003D01*
X363334D01*
X362001Y-190670D01*
X360668Y-192003D01*
X359336D01*
X362001Y-190670D02*
Y-188004D01*
X72000Y-391003D02*
Y-399000D01*
X77332D01*
X79997Y-391003D02*
X85329D01*
Y-392336D01*
X79997Y-397667D01*
Y-399000D01*
X78003Y-452500D02*
X86000D01*
Y-447168D01*
X78003Y-439171D02*
X79335Y-441837D01*
X82001Y-444503D01*
X84667D01*
X86000Y-443170D01*
Y-440504D01*
X84667Y-439171D01*
X83334D01*
X82001Y-440504D01*
Y-444503D01*
X392000Y-109003D02*
Y-117000D01*
X397332D01*
X399997Y-110336D02*
X401330Y-109003D01*
X403996D01*
X405329Y-110336D01*
Y-111668D01*
X403996Y-113001D01*
X402663D01*
X403996D01*
X405329Y-114334D01*
Y-115667D01*
X403996Y-117000D01*
X401330D01*
X399997Y-115667D01*
X360003Y-71000D02*
X368000D01*
Y-65668D01*
Y-57671D02*
Y-63003D01*
X362668Y-57671D01*
X361335D01*
X360003Y-59004D01*
Y-61670D01*
X361335Y-63003D01*
X169000Y-189003D02*
Y-197000D01*
X174332D01*
X176997D02*
X179663D01*
X178330D01*
Y-189003D01*
X176997Y-190336D01*
X425003Y-122000D02*
X433000D01*
Y-118001D01*
X431667Y-116668D01*
X426335D01*
X425003Y-118001D01*
Y-122000D01*
X433000Y-108671D02*
Y-114003D01*
X427668Y-108671D01*
X426335D01*
X425003Y-110004D01*
Y-112670D01*
X426335Y-114003D01*
X292332Y-258335D02*
X290999Y-257003D01*
X288333D01*
X287000Y-258335D01*
Y-263667D01*
X288333Y-265000D01*
X290999D01*
X292332Y-263667D01*
X294997Y-265000D02*
X297663D01*
X296330D01*
Y-257003D01*
X294997Y-258335D01*
X301662Y-263667D02*
X302995Y-265000D01*
X305661D01*
X306994Y-263667D01*
Y-258335D01*
X305661Y-257003D01*
X302995D01*
X301662Y-258335D01*
Y-259668D01*
X302995Y-261001D01*
X306994D01*
X443335Y-272668D02*
X442003Y-274001D01*
Y-276667D01*
X443335Y-278000D01*
X448667D01*
X450000Y-276667D01*
Y-274001D01*
X448667Y-272668D01*
X450000Y-270003D02*
Y-267337D01*
Y-268670D01*
X442003D01*
X443335Y-270003D01*
X442003Y-263338D02*
Y-258006D01*
X443335D01*
X448667Y-263338D01*
X450000D01*
X44332Y-378335D02*
X42999Y-377003D01*
X40333D01*
X39000Y-378335D01*
Y-383667D01*
X40333Y-385000D01*
X42999D01*
X44332Y-383667D01*
X46997Y-385000D02*
X49663D01*
X48330D01*
Y-377003D01*
X46997Y-378335D01*
X58994Y-377003D02*
X53662D01*
Y-381001D01*
X56328Y-379668D01*
X57661D01*
X58994Y-381001D01*
Y-383667D01*
X57661Y-385000D01*
X54995D01*
X53662Y-383667D01*
X18335Y-392668D02*
X17003Y-394001D01*
Y-396667D01*
X18335Y-398000D01*
X23667D01*
X25000Y-396667D01*
Y-394001D01*
X23667Y-392668D01*
X25000Y-390003D02*
Y-387337D01*
Y-388670D01*
X17003D01*
X18335Y-390003D01*
X25000Y-379339D02*
X17003D01*
X21001Y-383338D01*
Y-378006D01*
X457332Y-98336D02*
X455999Y-97003D01*
X453333D01*
X452000Y-98336D01*
Y-103667D01*
X453333Y-105000D01*
X455999D01*
X457332Y-103667D01*
X459997D02*
X461330Y-105000D01*
X463996D01*
X465329Y-103667D01*
Y-98336D01*
X463996Y-97003D01*
X461330D01*
X459997Y-98336D01*
Y-99668D01*
X461330Y-101001D01*
X465329D01*
X229332Y-168335D02*
X227999Y-167003D01*
X225333D01*
X224000Y-168335D01*
Y-173667D01*
X225333Y-175000D01*
X227999D01*
X229332Y-173667D01*
X231997Y-167003D02*
X237329D01*
Y-168335D01*
X231997Y-173667D01*
Y-175000D01*
X88336Y-241668D02*
X87003Y-243001D01*
Y-245667D01*
X88336Y-247000D01*
X93667D01*
X95000Y-245667D01*
Y-243001D01*
X93667Y-241668D01*
X87003Y-233671D02*
Y-239003D01*
X91001D01*
X89668Y-236337D01*
Y-235004D01*
X91001Y-233671D01*
X93667D01*
X95000Y-235004D01*
Y-237670D01*
X93667Y-239003D01*
X250336Y-105668D02*
X249003Y-107001D01*
Y-109667D01*
X250336Y-111000D01*
X255667D01*
X257000Y-109667D01*
Y-107001D01*
X255667Y-105668D01*
X250336Y-103003D02*
X249003Y-101670D01*
Y-99004D01*
X250336Y-97671D01*
X251668D01*
X253001Y-99004D01*
Y-100337D01*
Y-99004D01*
X254334Y-97671D01*
X255667D01*
X257000Y-99004D01*
Y-101670D01*
X255667Y-103003D01*
X403332Y-23335D02*
X401999Y-22003D01*
X399333D01*
X398000Y-23335D01*
Y-28667D01*
X399333Y-30000D01*
X401999D01*
X403332Y-28667D01*
X411329Y-30000D02*
X405997D01*
X411329Y-24668D01*
Y-23335D01*
X409996Y-22003D01*
X407330D01*
X405997Y-23335D01*
X145336Y-172668D02*
X144003Y-174001D01*
Y-176667D01*
X145336Y-178000D01*
X150667D01*
X152000Y-176667D01*
Y-174001D01*
X150667Y-172668D01*
X152000Y-170003D02*
Y-167337D01*
Y-168670D01*
X144003D01*
X145336Y-170003D01*
X180332Y-58335D02*
X178999Y-57003D01*
X176333D01*
X175000Y-58335D01*
Y-63667D01*
X176333Y-65000D01*
X178999D01*
X180332Y-63667D01*
X182997Y-58335D02*
X184330Y-57003D01*
X186996D01*
X188329Y-58335D01*
Y-59668D01*
X186996Y-61001D01*
X185663D01*
X186996D01*
X188329Y-62334D01*
Y-63667D01*
X186996Y-65000D01*
X184330D01*
X182997Y-63667D01*
X190995Y-58335D02*
X192328Y-57003D01*
X194994D01*
X196327Y-58335D01*
Y-59668D01*
X194994Y-61001D01*
X196327Y-62334D01*
Y-63667D01*
X194994Y-65000D01*
X192328D01*
X190995Y-63667D01*
Y-62334D01*
X192328Y-61001D01*
X190995Y-59668D01*
Y-58335D01*
X192328Y-61001D02*
X194994D01*
X381002Y-49000D02*
Y-42336D01*
X377669Y-45668D02*
X384334D01*
X376003Y-32339D02*
Y-39003D01*
X381002D01*
X379336Y-35671D01*
Y-34005D01*
X381002Y-32339D01*
X384334D01*
X386000Y-34005D01*
Y-37337D01*
X384334Y-39003D01*
X376003Y-29006D02*
X382668D01*
X386000Y-25674D01*
X382668Y-22342D01*
X376003D01*
X69665Y-51669D02*
X67998Y-50003D01*
X64666D01*
X63000Y-51669D01*
Y-58334D01*
X64666Y-60000D01*
X67998D01*
X69665Y-58334D01*
Y-55002D01*
X66332D01*
X72997Y-60000D02*
Y-50003D01*
X79661Y-60000D01*
Y-50003D01*
X82994D02*
Y-60000D01*
X87992D01*
X89658Y-58334D01*
Y-51669D01*
X87992Y-50003D01*
X82994D01*
D77*
X445488Y-103619D02*
X445869Y-104000D01*
X446250Y-103619D01*
X445869Y-103238D01*
X445488Y-103619D01*
X368512Y-231381D02*
X368131Y-231000D01*
X367750Y-231381D01*
X368131Y-231762D01*
X368512Y-231381D01*
M02*
