M48
;Layer_Color=9474304
;FILE_FORMAT=4:4
METRIC,LZ
;TYPE=PLATED
T1F00S00C0.3000
T2F00S00C0.4000
T3F00S00C0.5000
T4F00S00C0.8000
T5F00S00C0.9000
T6F00S00C2.3000
T7F00S00C3.0000
%
T01
X00108Y-00222
X00123Y-00228
X00127Y-00201
X00117
X00112Y-00195
X00122
X001155Y-001745
X0012675Y-0017225
X00444Y-00234
T02
X00286999Y-00461999
X00273Y-00462
X00248
X00222
X002625Y-00439
X002445Y-00398893
X00234Y-00402
X00241Y-00376
X00229Y-0035
X00199
X001425Y-003455
X00109Y-00358
Y-00371
X00109Y-00382999
X00109Y-00397
X00095Y-00403
X00124Y-0042
X00141
X001525Y-004205
X00191Y-00421
X00073Y-00377
X00073Y-00350999
X00079Y-0034
X00075Y-00294
X00074Y-00277
X003785Y-00399
X003795Y-00420814
X00393Y-0042
X00411Y-00388
T03
X00313Y-00462
X00376999Y-00464999
X00191Y-00451
X00082Y-0046
X0008Y-00407
X00063Y-00395
X00031Y-00384
X0002Y-0041
Y-0035
Y-003
Y-0028
Y-0026
Y-0022
X00015Y-00146
X0003
X00049
X00064
X0008
X00096Y-00134
X00101Y-00116
X00074Y-00116
X00071Y-001
X00052Y-00097
X00031Y-00112
X00015Y-0011
Y-00125
Y-00095
Y-0008
Y-00065
X0003Y-00055
X00132Y-00068
X00167Y-00067
X00202Y-00076
X00187Y-00101
X00222Y-00102
X00253Y-00118
Y-00129
X00254Y-00151
Y-00168
X00265Y-00188
X00276Y-00195
X00235Y-00211
X00201Y-00228
X00176Y-00226
X00145Y-00213
X00146Y-00192
X0018Y-0018
X00164Y-0015
X00145Y-00145
X00131Y-00136
X0023Y-0015
X00276Y-00122
X00251Y-00084
X00257Y-00075
X00245
X00256Y-00275999
X00258Y-003
X00238Y-00293
Y-00309
Y-00325
X00259Y-00328
X0026Y-00343
X0025Y-00355
X00239Y-00363
X00195Y-0037
X00162
Y-00394
X00138
Y-00371
X0011Y-0034
Y-00305
X0013
X0015
X0017
X00205
X00199Y-00289
X0009Y-00305
X00117Y-00433
X00246Y-00436
X00238Y-00421
X00304Y-00403
X00291Y-00389
X00317
X00314Y-00342
X00301Y-00343
X00298Y-0032
X00286Y-003
X00335Y-002835
Y-00266
X00335Y-00234
X00339Y-00208
X00358
X00376Y-00211
Y-00181
X00358Y-00179
X00349Y-00111
X00367
X00366Y-0008
X00356
X00346
X00317Y-00088
X00296Y-00101
X00299Y-00118
Y-00129
X00293Y-00161
X00287Y-00188
X00425Y-00204
X00462Y-00197
Y-00216
X00461Y-00238
X0045Y-00253
X00433Y-00266
X00403Y-00242
X00393Y-002845
X00428Y-00355
X00457Y-00346
X00456Y-00366
X00442Y-00415
X00413Y-00446
X00359Y-00439
X00338Y-00446
X00339999Y-00358999
X00346Y-00347
X0033Y-00336
X00365Y-00373
X00431Y-00163
X00426Y-001485
X00456Y-00164
X00462Y-00177
X00459Y-00132
X0046Y-00112
X00459Y-00067
X00411Y-00115
X00387Y-00097
X00414Y-00041
X00347Y-00028
X0033275Y-00028
X00321Y-00028
X00126Y-00037
X00083Y-00038
X00075Y-00031
X00067Y-00039
T04
X00167Y-00082
X00167Y-00032
T05
X00441Y-00397
X00467Y-00384
X0046573Y-0041273
X00388Y-002527
Y-002273
X002754Y-00029
X0025
X002246
T06
X00043Y-0024
X00243
T07
X0003Y-0045
X0045Y-00445
X00388Y-0034
Y-0014
X0045Y-0003
X0003
M30
