G04 Layer_Color=16711935*
%FSLAX44Y44*%
%MOMM*%
G71*
G01*
G75*
%ADD17R,1.0000X1.0000*%
G04:AMPARAMS|DCode=78|XSize=1.2032mm|YSize=1.1032mm|CornerRadius=0.2141mm|HoleSize=0mm|Usage=FLASHONLY|Rotation=270.000|XOffset=0mm|YOffset=0mm|HoleType=Round|Shape=RoundedRectangle|*
%AMROUNDEDRECTD78*
21,1,1.2032,0.6750,0,0,270.0*
21,1,0.7750,1.1032,0,0,270.0*
1,1,0.4282,-0.3375,-0.3875*
1,1,0.4282,-0.3375,0.3875*
1,1,0.4282,0.3375,0.3875*
1,1,0.4282,0.3375,-0.3875*
%
%ADD78ROUNDEDRECTD78*%
G04:AMPARAMS|DCode=82|XSize=1.6032mm|YSize=1.2032mm|CornerRadius=0.2266mm|HoleSize=0mm|Usage=FLASHONLY|Rotation=0.000|XOffset=0mm|YOffset=0mm|HoleType=Round|Shape=RoundedRectangle|*
%AMROUNDEDRECTD82*
21,1,1.6032,0.7500,0,0,0.0*
21,1,1.1500,1.2032,0,0,0.0*
1,1,0.4532,0.5750,-0.3750*
1,1,0.4532,-0.5750,-0.3750*
1,1,0.4532,-0.5750,0.3750*
1,1,0.4532,0.5750,0.3750*
%
%ADD82ROUNDEDRECTD82*%
G04:AMPARAMS|DCode=83|XSize=0.8532mm|YSize=0.7032mm|CornerRadius=0.1516mm|HoleSize=0mm|Usage=FLASHONLY|Rotation=270.000|XOffset=0mm|YOffset=0mm|HoleType=Round|Shape=RoundedRectangle|*
%AMROUNDEDRECTD83*
21,1,0.8532,0.4000,0,0,270.0*
21,1,0.5500,0.7032,0,0,270.0*
1,1,0.3032,-0.2000,-0.2750*
1,1,0.3032,-0.2000,0.2750*
1,1,0.3032,0.2000,0.2750*
1,1,0.3032,0.2000,-0.2750*
%
%ADD83ROUNDEDRECTD83*%
G04:AMPARAMS|DCode=86|XSize=1.2032mm|YSize=1.1032mm|CornerRadius=0.2141mm|HoleSize=0mm|Usage=FLASHONLY|Rotation=0.000|XOffset=0mm|YOffset=0mm|HoleType=Round|Shape=RoundedRectangle|*
%AMROUNDEDRECTD86*
21,1,1.2032,0.6750,0,0,0.0*
21,1,0.7750,1.1032,0,0,0.0*
1,1,0.4282,0.3875,-0.3375*
1,1,0.4282,-0.3875,-0.3375*
1,1,0.4282,-0.3875,0.3375*
1,1,0.4282,0.3875,0.3375*
%
%ADD86ROUNDEDRECTD86*%
G04:AMPARAMS|DCode=87|XSize=1.5032mm|YSize=1.0032mm|CornerRadius=0.2016mm|HoleSize=0mm|Usage=FLASHONLY|Rotation=270.000|XOffset=0mm|YOffset=0mm|HoleType=Round|Shape=RoundedRectangle|*
%AMROUNDEDRECTD87*
21,1,1.5032,0.6000,0,0,270.0*
21,1,1.1000,1.0032,0,0,270.0*
1,1,0.4032,-0.3000,-0.5500*
1,1,0.4032,-0.3000,0.5500*
1,1,0.4032,0.3000,0.5500*
1,1,0.4032,0.3000,-0.5500*
%
%ADD87ROUNDEDRECTD87*%
%ADD107C,3.7032*%
%ADD108C,1.6032*%
%ADD109R,1.6032X1.6032*%
%ADD110C,1.0032*%
%ADD111C,1.7032*%
%ADD112R,1.7032X1.7032*%
%ADD113R,1.5532X1.5532*%
%ADD114C,1.5532*%
%ADD115C,1.1032*%
%ADD116C,0.9032*%
%ADD117C,1.2032*%
G04:AMPARAMS|DCode=118|XSize=1.6032mm|YSize=1.2032mm|CornerRadius=0.2266mm|HoleSize=0mm|Usage=FLASHONLY|Rotation=90.000|XOffset=0mm|YOffset=0mm|HoleType=Round|Shape=RoundedRectangle|*
%AMROUNDEDRECTD118*
21,1,1.6032,0.7500,0,0,90.0*
21,1,1.1500,1.2032,0,0,90.0*
1,1,0.4532,0.3750,0.5750*
1,1,0.4532,0.3750,-0.5750*
1,1,0.4532,-0.3750,-0.5750*
1,1,0.4532,-0.3750,0.5750*
%
%ADD118ROUNDEDRECTD118*%
%ADD119R,1.3032X2.0032*%
%ADD120R,0.8032X1.2532*%
%ADD121R,2.2032X1.7032*%
%ADD122R,1.7032X2.2032*%
G04:AMPARAMS|DCode=123|XSize=1.0032mm|YSize=1.0032mm|CornerRadius=0.2016mm|HoleSize=0mm|Usage=FLASHONLY|Rotation=180.000|XOffset=0mm|YOffset=0mm|HoleType=Round|Shape=RoundedRectangle|*
%AMROUNDEDRECTD123*
21,1,1.0032,0.6000,0,0,180.0*
21,1,0.6000,1.0032,0,0,180.0*
1,1,0.4032,-0.3000,0.3000*
1,1,0.4032,0.3000,0.3000*
1,1,0.4032,0.3000,-0.3000*
1,1,0.4032,-0.3000,-0.3000*
%
%ADD123ROUNDEDRECTD123*%
%ADD124R,2.5032X1.7032*%
%ADD125R,0.4532X0.9032*%
%ADD126R,1.6032X1.2032*%
D17*
X314000Y-271000D02*
D03*
X302000D02*
D03*
D78*
X409000Y-388000D02*
D03*
X426000D02*
D03*
X140500Y-276000D02*
D03*
X123500D02*
D03*
X193500Y-289000D02*
D03*
X176500D02*
D03*
X77000Y-116000D02*
D03*
X94000D02*
D03*
Y-100000D02*
D03*
X77000D02*
D03*
X114000Y-22000D02*
D03*
X97000D02*
D03*
X240000Y-339000D02*
D03*
X223000D02*
D03*
X189000D02*
D03*
X206000D02*
D03*
X166000Y-370000D02*
D03*
X183000D02*
D03*
X122500Y-433000D02*
D03*
X139500D02*
D03*
X154500Y-433000D02*
D03*
X171500D02*
D03*
X397000Y-418000D02*
D03*
X414000D02*
D03*
X379500Y-403000D02*
D03*
X396500D02*
D03*
X326000Y-417000D02*
D03*
X309000D02*
D03*
X279000Y-101000D02*
D03*
X296000D02*
D03*
X424500Y-403000D02*
D03*
X407500D02*
D03*
D82*
X52000Y-79000D02*
D03*
Y-97000D02*
D03*
X104000Y-233000D02*
D03*
Y-251000D02*
D03*
D83*
X113000Y-94000D02*
D03*
Y-76000D02*
D03*
D86*
X438000Y-195500D02*
D03*
Y-212500D02*
D03*
X175000Y-231500D02*
D03*
Y-248500D02*
D03*
X31000Y-96500D02*
D03*
Y-79500D02*
D03*
X132000Y-51000D02*
D03*
Y-68000D02*
D03*
X177000Y-389500D02*
D03*
Y-406500D02*
D03*
X185000Y-433500D02*
D03*
Y-450500D02*
D03*
X409000Y-447000D02*
D03*
Y-464000D02*
D03*
X392000Y-447000D02*
D03*
Y-464000D02*
D03*
X376000Y-464000D02*
D03*
Y-447000D02*
D03*
X145000Y-196000D02*
D03*
Y-213000D02*
D03*
X234000Y-63500D02*
D03*
Y-46500D02*
D03*
X250000Y-63500D02*
D03*
Y-46500D02*
D03*
X266000Y-63500D02*
D03*
Y-46500D02*
D03*
D87*
X130000Y-116000D02*
D03*
X110000D02*
D03*
D107*
X30000Y-30000D02*
D03*
Y-450000D02*
D03*
X450000Y-445000D02*
D03*
Y-30000D02*
D03*
X388000Y-140000D02*
D03*
Y-340000D02*
D03*
X243000Y-240000D02*
D03*
X43000D02*
D03*
D108*
X388000Y-252700D02*
D03*
D109*
Y-227300D02*
D03*
D110*
X229000Y-350000D02*
D03*
X199000D02*
D03*
X411000Y-388000D02*
D03*
X379500Y-420814D02*
D03*
X378500Y-399000D02*
D03*
X393000Y-420000D02*
D03*
X73000Y-350999D02*
D03*
X141000Y-420000D02*
D03*
X142500Y-345500D02*
D03*
X109000Y-371000D02*
D03*
X109000Y-382999D02*
D03*
X262500Y-439000D02*
D03*
X273000Y-462000D02*
D03*
X286999Y-461999D02*
D03*
X248000Y-462000D02*
D03*
X222000D02*
D03*
X241000Y-376000D02*
D03*
X234000Y-402000D02*
D03*
X73000Y-377000D02*
D03*
X79000Y-340000D02*
D03*
X74000Y-277000D02*
D03*
X75000Y-294000D02*
D03*
X109000Y-397000D02*
D03*
X152500Y-420500D02*
D03*
X244500Y-398893D02*
D03*
X95000Y-403000D02*
D03*
X191000Y-421000D02*
D03*
X124000Y-420000D02*
D03*
X109000Y-358000D02*
D03*
D111*
X222000Y-102000D02*
D03*
X275400Y-29000D02*
D03*
X250000D02*
D03*
X465730Y-412730D02*
D03*
X467000Y-384000D02*
D03*
X441000Y-397000D02*
D03*
D112*
X224600Y-29000D02*
D03*
D113*
X167000Y-32000D02*
D03*
D114*
X167000Y-82000D02*
D03*
D115*
X304000Y-403000D02*
D03*
X317000Y-389000D02*
D03*
X291000D02*
D03*
X428000Y-355000D02*
D03*
X90000Y-305000D02*
D03*
X205000D02*
D03*
X170000D02*
D03*
X150000D02*
D03*
X130000D02*
D03*
X110000D02*
D03*
X293000Y-161000D02*
D03*
X254000Y-168000D02*
D03*
Y-151000D02*
D03*
X187000Y-101000D02*
D03*
X167000Y-67000D02*
D03*
X347000Y-28000D02*
D03*
X332750Y-28000D02*
D03*
X298000Y-320000D02*
D03*
X238000Y-325000D02*
D03*
Y-293000D02*
D03*
Y-309000D02*
D03*
X258000Y-300000D02*
D03*
X365000Y-373000D02*
D03*
X256000Y-275999D02*
D03*
X30000Y-146000D02*
D03*
X145000Y-145000D02*
D03*
X80000Y-146000D02*
D03*
X64000D02*
D03*
X49000D02*
D03*
X30000Y-55000D02*
D03*
X15000Y-65000D02*
D03*
Y-80000D02*
D03*
Y-95000D02*
D03*
Y-110000D02*
D03*
Y-125000D02*
D03*
X67000Y-39000D02*
D03*
X75000Y-31000D02*
D03*
X83000Y-38000D02*
D03*
X31000Y-112000D02*
D03*
X462000Y-197000D02*
D03*
X461000Y-238000D02*
D03*
X462000Y-216000D02*
D03*
Y-177000D02*
D03*
X450000Y-253000D02*
D03*
X413000Y-446000D02*
D03*
X313000Y-462000D02*
D03*
X20000Y-300000D02*
D03*
Y-280000D02*
D03*
Y-260000D02*
D03*
Y-220000D02*
D03*
X403000Y-242000D02*
D03*
X456000Y-164000D02*
D03*
X431000Y-163000D02*
D03*
X426000Y-148500D02*
D03*
X456000Y-366000D02*
D03*
X457000Y-346000D02*
D03*
X442000Y-415000D02*
D03*
X146000Y-192000D02*
D03*
X145000Y-213000D02*
D03*
X199000Y-289000D02*
D03*
X425000Y-204000D02*
D03*
X376000Y-181000D02*
D03*
X459000Y-67000D02*
D03*
X126000Y-37000D02*
D03*
X321000Y-28000D02*
D03*
X132000Y-68000D02*
D03*
X20000Y-350000D02*
D03*
Y-410000D02*
D03*
X138000Y-371000D02*
D03*
Y-394000D02*
D03*
X162000D02*
D03*
Y-370000D02*
D03*
X195000D02*
D03*
X117000Y-433000D02*
D03*
X376999Y-464999D02*
D03*
X260000Y-343000D02*
D03*
X346000Y-347000D02*
D03*
X82000Y-460000D02*
D03*
X191000Y-451000D02*
D03*
X246000Y-436000D02*
D03*
X358000Y-179000D02*
D03*
X63000Y-395000D02*
D03*
X286000Y-300000D02*
D03*
X238000Y-421000D02*
D03*
X358000Y-208000D02*
D03*
X339000D02*
D03*
X376000Y-211000D02*
D03*
X411000Y-115000D02*
D03*
X366000Y-80000D02*
D03*
X367000Y-111000D02*
D03*
X356000Y-80000D02*
D03*
X31000Y-384000D02*
D03*
X250000Y-355000D02*
D03*
X239000Y-363000D02*
D03*
X359000Y-439000D02*
D03*
X338000Y-446000D02*
D03*
X339999Y-358999D02*
D03*
X387000Y-97000D02*
D03*
X349000Y-111000D02*
D03*
X80000Y-407000D02*
D03*
X235000Y-211000D02*
D03*
X15000Y-146000D02*
D03*
X110000Y-340000D02*
D03*
X414000Y-41000D02*
D03*
X287000Y-188000D02*
D03*
X276000Y-195000D02*
D03*
X265000Y-188000D02*
D03*
X276000Y-122000D02*
D03*
X202000Y-76000D02*
D03*
X257000Y-75000D02*
D03*
X251000Y-84000D02*
D03*
X330000Y-336000D02*
D03*
X314000Y-342000D02*
D03*
X301000Y-343000D02*
D03*
X259000Y-328000D02*
D03*
X222000Y-102000D02*
D03*
X253000Y-118000D02*
D03*
Y-129000D02*
D03*
X296000Y-101000D02*
D03*
X317000Y-88000D02*
D03*
X245000Y-75000D02*
D03*
X299000Y-118000D02*
D03*
Y-129000D02*
D03*
X346000Y-80000D02*
D03*
X180000Y-180000D02*
D03*
X160000Y-145000D02*
D03*
X230000Y-150000D02*
D03*
X460000Y-112000D02*
D03*
X201000Y-228000D02*
D03*
X176000Y-226000D02*
D03*
D116*
X108000Y-222000D02*
D03*
X112000Y-195000D02*
D03*
X126750Y-172250D02*
D03*
X115500Y-174500D02*
D03*
X444000Y-234000D02*
D03*
X123000Y-228000D02*
D03*
X127000Y-201000D02*
D03*
X122000Y-195000D02*
D03*
X117000Y-201000D02*
D03*
D117*
X74000Y-116000D02*
D03*
X96000Y-134000D02*
D03*
X459000Y-132000D02*
D03*
X393000Y-284500D02*
D03*
X433000Y-266000D02*
D03*
X335000D02*
D03*
Y-283500D02*
D03*
X335000Y-234000D02*
D03*
X131000Y-136000D02*
D03*
X101000Y-116000D02*
D03*
X52000Y-97000D02*
D03*
X71000Y-100000D02*
D03*
D118*
X194000Y-271000D02*
D03*
X176000D02*
D03*
X101000Y-135000D02*
D03*
X119000D02*
D03*
D119*
X97500Y-79000D02*
D03*
X70500D02*
D03*
D120*
X96500Y-37500D02*
D03*
X115500D02*
D03*
X106000Y-60500D02*
D03*
D121*
X459000Y-344000D02*
D03*
Y-364000D02*
D03*
D122*
X222600Y-456200D02*
D03*
X248000D02*
D03*
X272000Y-456000D02*
D03*
X323000D02*
D03*
X298000D02*
D03*
D123*
X295500Y-417000D02*
D03*
X278500D02*
D03*
D124*
X119000Y-198000D02*
D03*
D125*
X129000Y-184000D02*
D03*
X122500Y-183970D02*
D03*
X116000D02*
D03*
X109500D02*
D03*
X129000Y-212000D02*
D03*
X122500Y-211970D02*
D03*
X116000D02*
D03*
X109500D02*
D03*
D126*
X160000Y-240000D02*
D03*
X126000Y-252000D02*
D03*
Y-228000D02*
D03*
M02*
