G04 Layer_Color=11599871*
%FSLAX44Y44*%
%MOMM*%
G71*
G01*
G75*
%ADD41C,0.3000*%
%ADD48C,0.2000*%
%ADD71C,0.2500*%
%ADD73C,0.1270*%
%ADD74C,0.1016*%
%ADD76C,0.2540*%
%ADD77C,0.3500*%
%ADD127C,0.4064*%
%ADD128C,0.2032*%
%ADD129C,0.3556*%
D41*
X283000Y-240000D02*
X282977Y-237458D01*
X282908Y-234916D01*
X282792Y-232377D01*
X282631Y-229840D01*
X282423Y-227306D01*
X282170Y-224776D01*
X281870Y-222252D01*
X281525Y-219733D01*
X281134Y-217221D01*
X280698Y-214716D01*
X280216Y-212220D01*
X279689Y-209733D01*
X279117Y-207256D01*
X278500Y-204790D01*
X277838Y-202335D01*
X277132Y-199893D01*
X276382Y-197464D01*
X275587Y-195049D01*
X274749Y-192649D01*
X273867Y-190264D01*
X272943Y-187896D01*
X271975Y-185545D01*
X270965Y-183212D01*
X269913Y-180898D01*
X268819Y-178603D01*
X267683Y-176328D01*
X266506Y-174074D01*
X265289Y-171843D01*
X264031Y-169633D01*
X262733Y-167447D01*
X261396Y-165285D01*
X260020Y-163147D01*
X258605Y-161035D01*
X257152Y-158949D01*
X255662Y-156889D01*
X254134Y-154858D01*
X252570Y-152853D01*
X250969Y-150878D01*
X249333Y-148932D01*
X247662Y-147016D01*
X245956Y-145131D01*
X244216Y-143278D01*
X242443Y-141455D01*
X240637Y-139666D01*
X238799Y-137910D01*
X236930Y-136187D01*
X235029Y-134498D01*
X233098Y-132845D01*
X231138Y-131226D01*
X229148Y-129644D01*
X227130Y-128098D01*
X225084Y-126588D01*
X223011Y-125117D01*
X220912Y-123683D01*
X218787Y-122287D01*
X216637Y-120930D01*
X214463Y-119613D01*
X212265Y-118335D01*
X210044Y-117097D01*
X207801Y-115900D01*
X205537Y-114744D01*
X203252Y-113629D01*
X200948Y-112556D01*
X198624Y-111524D01*
X196282Y-110536D01*
X193922Y-109589D01*
X191546Y-108686D01*
X189153Y-107826D01*
X186746Y-107010D01*
X184324Y-106238D01*
X181888Y-105509D01*
X179439Y-104825D01*
X176979Y-104186D01*
X174507Y-103591D01*
X172025Y-103042D01*
X169533Y-102537D01*
X167033Y-102078D01*
X164524Y-101664D01*
X162009Y-101297D01*
X159487Y-100974D01*
X156960Y-100698D01*
X154428Y-100467D01*
X151892Y-100283D01*
X149354Y-100144D01*
X146813Y-100052D01*
X144271Y-100006D01*
X141729D01*
X139187Y-100052D01*
X136647Y-100144D01*
X134108Y-100283D01*
X131573Y-100467D01*
X129041Y-100698D01*
X126514Y-100974D01*
X123992Y-101296D01*
X121476Y-101664D01*
X118968Y-102078D01*
X116467Y-102537D01*
X113976Y-103042D01*
X111493Y-103591D01*
X109022Y-104186D01*
X106561Y-104825D01*
X104113Y-105509D01*
X101677Y-106238D01*
X99255Y-107010D01*
X96847Y-107826D01*
X94454Y-108686D01*
X92078Y-109589D01*
X89718Y-110535D01*
X87376Y-111524D01*
X85053Y-112556D01*
X82748Y-113629D01*
X80463Y-114744D01*
X78199Y-115900D01*
X75956Y-117097D01*
X73736Y-118335D01*
X71538Y-119613D01*
X69363Y-120930D01*
X67214Y-122287D01*
X65089Y-123682D01*
X62989Y-125116D01*
X60916Y-126588D01*
X58871Y-128097D01*
X56852Y-129643D01*
X54863Y-131226D01*
X52902Y-132844D01*
X50971Y-134498D01*
X49071Y-136187D01*
X47201Y-137909D01*
X45363Y-139666D01*
X43557Y-141455D01*
X41784Y-143277D01*
X40044Y-145131D01*
X38339Y-147016D01*
X36667Y-148932D01*
X35031Y-150878D01*
X33431Y-152853D01*
X31866Y-154857D01*
X30339Y-156889D01*
X28848Y-158949D01*
X27395Y-161035D01*
X25980Y-163147D01*
X24604Y-165285D01*
X23267Y-167447D01*
X21969Y-169633D01*
X20711Y-171842D01*
X19494Y-174074D01*
X18317Y-176328D01*
X17181Y-178602D01*
X16087Y-180897D01*
X15035Y-183211D01*
X14025Y-185544D01*
X13057Y-187896D01*
X12133Y-190264D01*
X11251Y-192648D01*
X10413Y-195048D01*
X9618Y-197463D01*
X8868Y-199892D01*
X8162Y-202335D01*
X7500Y-204789D01*
X6883Y-207256D01*
X6311Y-209733D01*
X5784Y-212220D01*
X5302Y-214716D01*
X4866Y-217221D01*
X4475Y-219733D01*
X4130Y-222251D01*
X3830Y-224776D01*
X3577Y-227306D01*
X3369Y-229839D01*
X3208Y-232377D01*
X3092Y-234916D01*
X3023Y-237458D01*
X3000Y-240000D01*
X3023Y-242542D01*
X3092Y-245084D01*
X3208Y-247623D01*
X3369Y-250160D01*
X3577Y-252694D01*
X3830Y-255224D01*
X4130Y-257748D01*
X4475Y-260267D01*
X4866Y-262779D01*
X5302Y-265284D01*
X5784Y-267780D01*
X6311Y-270267D01*
X6883Y-272744D01*
X7500Y-275210D01*
X8162Y-277665D01*
X8868Y-280107D01*
X9618Y-282536D01*
X10413Y-284951D01*
X11251Y-287352D01*
X12133Y-289736D01*
X13057Y-292104D01*
X14025Y-294455D01*
X15035Y-296788D01*
X16087Y-299103D01*
X17181Y-301397D01*
X18317Y-303672D01*
X19494Y-305926D01*
X20711Y-308157D01*
X21969Y-310367D01*
X23267Y-312553D01*
X24604Y-314715D01*
X25980Y-316853D01*
X27395Y-318965D01*
X28848Y-321051D01*
X30338Y-323111D01*
X31866Y-325143D01*
X33431Y-327147D01*
X35031Y-329122D01*
X36667Y-331068D01*
X38338Y-332984D01*
X40044Y-334869D01*
X41784Y-336723D01*
X43557Y-338545D01*
X45363Y-340334D01*
X47201Y-342091D01*
X49070Y-343813D01*
X50971Y-345502D01*
X52902Y-347156D01*
X54862Y-348774D01*
X56852Y-350356D01*
X58870Y-351903D01*
X60916Y-353412D01*
X62989Y-354884D01*
X65088Y-356318D01*
X67213Y-357713D01*
X69363Y-359070D01*
X71538Y-360387D01*
X73736Y-361665D01*
X75956Y-362903D01*
X78199Y-364100D01*
X80463Y-365256D01*
X82748Y-366371D01*
X85053Y-367444D01*
X87376Y-368476D01*
X89719Y-369465D01*
X92078Y-370411D01*
X94455Y-371314D01*
X96847Y-372174D01*
X99255Y-372990D01*
X101677Y-373763D01*
X104113Y-374491D01*
X106561Y-375175D01*
X109022Y-375814D01*
X111494Y-376409D01*
X113976Y-376958D01*
X116468Y-377463D01*
X118968Y-377922D01*
X121476Y-378336D01*
X123992Y-378704D01*
X126514Y-379026D01*
X129041Y-379302D01*
X131573Y-379533D01*
X134108Y-379717D01*
X136647Y-379856D01*
X139188Y-379948D01*
X141729Y-379994D01*
X144272D01*
X146814Y-379948D01*
X149354Y-379856D01*
X151893Y-379717D01*
X154429Y-379533D01*
X156960Y-379302D01*
X159487Y-379026D01*
X162009Y-378703D01*
X164525Y-378335D01*
X167033Y-377922D01*
X169534Y-377463D01*
X172026Y-376958D01*
X174508Y-376409D01*
X176980Y-375814D01*
X179440Y-375174D01*
X181889Y-374490D01*
X184324Y-373762D01*
X186747Y-372990D01*
X189154Y-372173D01*
X191547Y-371314D01*
X193923Y-370410D01*
X196283Y-369464D01*
X198625Y-368475D01*
X200949Y-367444D01*
X203253Y-366371D01*
X205538Y-365256D01*
X207802Y-364100D01*
X210045Y-362902D01*
X212266Y-361665D01*
X214464Y-360387D01*
X216638Y-359069D01*
X218788Y-357713D01*
X220913Y-356317D01*
X223012Y-354883D01*
X225085Y-353411D01*
X227131Y-351902D01*
X229149Y-350356D01*
X231139Y-348773D01*
X233099Y-347155D01*
X235030Y-345501D01*
X236931Y-343812D01*
X238800Y-342090D01*
X240638Y-340333D01*
X242444Y-338544D01*
X244217Y-336722D01*
X245957Y-334868D01*
X247662Y-332983D01*
X249334Y-331067D01*
X250970Y-329121D01*
X252570Y-327146D01*
X254135Y-325142D01*
X255662Y-323110D01*
X257153Y-321050D01*
X258606Y-318964D01*
X260021Y-316852D01*
X261397Y-314714D01*
X262734Y-312552D01*
X264032Y-310366D01*
X265289Y-308156D01*
X266507Y-305924D01*
X267684Y-303671D01*
X268819Y-301396D01*
X269914Y-299101D01*
X270966Y-296787D01*
X271976Y-294454D01*
X272943Y-292103D01*
X273868Y-289735D01*
X274750Y-287350D01*
X275588Y-284950D01*
X276382Y-282535D01*
X277132Y-280106D01*
X277839Y-277664D01*
X278500Y-275209D01*
X279117Y-272743D01*
X279689Y-270266D01*
X280216Y-267779D01*
X280698Y-265282D01*
X281135Y-262778D01*
X281525Y-260266D01*
X281871Y-257747D01*
X282170Y-255222D01*
X282423Y-252693D01*
X282631Y-250159D01*
X282792Y-247622D01*
X282908Y-245082D01*
X282977Y-242541D01*
X283000Y-240000D01*
X243000Y-260000D02*
X245507Y-259842D01*
X247974Y-259372D01*
X250362Y-258596D01*
X252635Y-257526D01*
X254756Y-256180D01*
X256691Y-254579D01*
X258410Y-252749D01*
X259887Y-250716D01*
X261097Y-248516D01*
X262021Y-246180D01*
X262646Y-243748D01*
X262960Y-241256D01*
Y-238744D01*
X262646Y-236252D01*
X262021Y-233820D01*
X261096Y-231484D01*
X259886Y-229283D01*
X258410Y-227251D01*
X256691Y-225421D01*
X254756Y-223820D01*
X252635Y-222474D01*
X250362Y-221404D01*
X247974Y-220628D01*
X245507Y-220158D01*
X243000Y-220000D01*
X43000D02*
X40493Y-220158D01*
X38026Y-220628D01*
X35638Y-221404D01*
X33365Y-222474D01*
X31244Y-223820D01*
X29309Y-225421D01*
X27590Y-227251D01*
X26113Y-229284D01*
X24904Y-231484D01*
X23979Y-233820D01*
X23354Y-236252D01*
X23040Y-238744D01*
Y-241256D01*
X23354Y-243748D01*
X23979Y-246180D01*
X24903Y-248516D01*
X26113Y-250716D01*
X27590Y-252749D01*
X29309Y-254579D01*
X31244Y-256180D01*
X33365Y-257526D01*
X35638Y-258596D01*
X38026Y-259372D01*
X40493Y-259842D01*
X43000Y-260000D01*
X133000Y-216000D02*
X135000Y-218000D01*
X199000Y-360000D02*
X229000D01*
X199000Y-440000D02*
X229000D01*
X199000D02*
Y-360000D01*
X229000Y-440000D02*
Y-360000D01*
X62000Y-159000D02*
X224000D01*
X69000Y-314000D02*
X217000D01*
X69000Y-166000D02*
X217000D01*
X69000Y-314000D02*
Y-166000D01*
X217000Y-314000D02*
Y-166000D01*
X224000Y-220000D02*
X243000D01*
X224000Y-260000D02*
X243000D01*
X62000Y-321000D02*
X224000D01*
Y-260000D01*
Y-220000D02*
Y-159000D01*
X62000Y-220000D02*
Y-159000D01*
Y-321000D02*
Y-260000D01*
X43000D02*
X62000D01*
X43000Y-220000D02*
X62000D01*
D48*
X156250Y-40135D02*
X154213Y-41622D01*
X152379Y-43354D01*
X150778Y-45302D01*
X149435Y-47437D01*
X148371Y-49724D01*
X147603Y-52126D01*
X147144Y-54606D01*
X147000Y-57124D01*
X147175Y-59640D01*
X147665Y-62115D01*
X148462Y-64507D01*
X149555Y-66781D01*
X150924Y-68899D01*
X152550Y-70827D01*
X154405Y-72536D01*
X156460Y-73998D01*
X158683Y-75189D01*
X175317D02*
X177540Y-73998D01*
X179595Y-72536D01*
X181450Y-70827D01*
X183076Y-68899D01*
X184445Y-66781D01*
X185538Y-64507D01*
X186335Y-62115D01*
X186825Y-59640D01*
X187000Y-57124D01*
X186856Y-54606D01*
X186397Y-52126D01*
X185630Y-49724D01*
X184566Y-47437D01*
X183222Y-45302D01*
X181621Y-43354D01*
X179787Y-41622D01*
X177750Y-40135D01*
X373043Y-214573D02*
X370924Y-215944D01*
X368931Y-217492D01*
X367077Y-219204D01*
X365376Y-221068D01*
X363841Y-223071D01*
X362483Y-225198D01*
X361311Y-227432D01*
X360335Y-229760D01*
X359561Y-232161D01*
X358995Y-234621D01*
X358641Y-237119D01*
X358502Y-239639D01*
X358579Y-242161D01*
X358872Y-244668D01*
X359377Y-247140D01*
X360092Y-249560D01*
X361011Y-251910D01*
X362128Y-254174D01*
X363434Y-256333D01*
X364920Y-258373D01*
X366575Y-260278D01*
X368386Y-262035D01*
X370341Y-263631D01*
X372425Y-265053D01*
X374623Y-266293D01*
X376919Y-267340D01*
X379296Y-268187D01*
X381737Y-268828D01*
X384224Y-269257D01*
X386738Y-269473D01*
X389262D01*
X391776Y-269257D01*
X394263Y-268828D01*
X396704Y-268187D01*
X399081Y-267340D01*
X401377Y-266293D01*
X403575Y-265053D01*
X405659Y-263631D01*
X407614Y-262035D01*
X409426Y-260278D01*
X411080Y-258373D01*
X412566Y-256333D01*
X413872Y-254174D01*
X414989Y-251910D01*
X415908Y-249560D01*
X416623Y-247140D01*
X417128Y-244668D01*
X417421Y-242161D01*
X417498Y-239639D01*
X417359Y-237119D01*
X417005Y-234621D01*
X416440Y-232161D01*
X415666Y-229759D01*
X414689Y-227432D01*
X413517Y-225198D01*
X412159Y-223071D01*
X410624Y-221068D01*
X408923Y-219204D01*
X407069Y-217492D01*
X405075Y-215944D01*
X402957Y-214573D01*
X413000Y-140000D02*
X412872Y-137471D01*
X412488Y-134967D01*
X411853Y-132516D01*
X410974Y-130141D01*
X409859Y-127867D01*
X408519Y-125718D01*
X406969Y-123716D01*
X405224Y-121880D01*
X403303Y-120231D01*
X401224Y-118784D01*
X399010Y-117555D01*
X396683Y-116556D01*
X394266Y-115798D01*
X391786Y-115288D01*
X389266Y-115032D01*
X386734D01*
X384214Y-115288D01*
X381734Y-115798D01*
X379317Y-116556D01*
X376990Y-117555D01*
X374776Y-118784D01*
X372697Y-120231D01*
X370776Y-121880D01*
X369031Y-123716D01*
X367481Y-125718D01*
X366141Y-127867D01*
X365026Y-130141D01*
X364146Y-132516D01*
X363512Y-134967D01*
X363128Y-137471D01*
X363000Y-140000D01*
Y-340000D02*
X363128Y-342529D01*
X363512Y-345033D01*
X364147Y-347484D01*
X365026Y-349859D01*
X366141Y-352133D01*
X367481Y-354282D01*
X369031Y-356284D01*
X370776Y-358120D01*
X372697Y-359769D01*
X374776Y-361216D01*
X376990Y-362445D01*
X379317Y-363444D01*
X381734Y-364202D01*
X384214Y-364712D01*
X386734Y-364968D01*
X389266D01*
X391786Y-364712D01*
X394266Y-364202D01*
X396683Y-363444D01*
X399010Y-362445D01*
X401224Y-361216D01*
X403303Y-359769D01*
X405224Y-358120D01*
X406969Y-356284D01*
X408519Y-354282D01*
X409859Y-352132D01*
X410974Y-349859D01*
X411853Y-347484D01*
X412488Y-345032D01*
X412872Y-342529D01*
X413000Y-340000D01*
X211900Y-16300D02*
X288100D01*
Y-41700D02*
Y-16300D01*
X211900Y-41700D02*
X288100D01*
X211900D02*
Y-16300D01*
X123000Y-238000D02*
Y-235000D01*
X163000Y-232000D02*
Y-225000D01*
Y-255000D02*
Y-248000D01*
X136000Y-257500D02*
X160000D01*
X136000Y-222500D02*
X160000D01*
X123000Y-245000D02*
Y-242000D01*
X113000Y-56000D02*
X121000D01*
Y-47000D01*
X91000Y-56000D02*
X99000D01*
X91000D02*
Y-47000D01*
X80000Y-87000D02*
X88000D01*
X80000Y-71000D02*
X88000D01*
X107920Y-87540D02*
X118080D01*
X373000Y-214500D02*
X403000D01*
X302000Y-326000D02*
Y-154000D01*
Y-326000D02*
X363000D01*
X413000Y-154000D02*
Y-140000D01*
X363000Y-154000D02*
Y-140000D01*
Y-340000D02*
Y-326000D01*
X413000Y-340000D02*
Y-326000D01*
X318000Y-170000D02*
X458000D01*
X474000Y-326000D02*
Y-154000D01*
X413000Y-326000D02*
X474000D01*
X413000Y-154000D02*
X474000D01*
X302000D02*
X363000D01*
X318000Y-310000D02*
X458000D01*
Y-170000D01*
X318000Y-310000D02*
Y-170000D01*
D71*
X89250Y-37500D02*
X87375Y-36418D01*
Y-38582D01*
X89250Y-37500D01*
D73*
X414476Y-407064D02*
X417524D01*
X414476Y-398936D02*
X417524D01*
X285976Y-96936D02*
X289024D01*
X285976Y-105064D02*
X289024D01*
X261936Y-56524D02*
Y-53476D01*
X270064Y-56524D02*
Y-53476D01*
X245936Y-56524D02*
Y-53476D01*
X254064Y-56524D02*
Y-53476D01*
X229936Y-56524D02*
Y-53476D01*
X238064Y-56524D02*
Y-53476D01*
X97488Y-243496D02*
X110512D01*
X97488Y-240504D02*
X110512D01*
X140238Y-202722D02*
X149762D01*
X140238Y-206278D02*
X149762D01*
X315976Y-421064D02*
X319024D01*
X315976Y-412936D02*
X319024D01*
X386222Y-407762D02*
Y-398238D01*
X389778Y-407762D02*
Y-398238D01*
X371936Y-457024D02*
Y-453976D01*
X380064Y-457024D02*
Y-453976D01*
X387238Y-453722D02*
X396762D01*
X387238Y-457278D02*
X396762D01*
X403722Y-422762D02*
Y-413238D01*
X407278Y-422762D02*
Y-413238D01*
X404238Y-453722D02*
X413762D01*
X404238Y-457278D02*
X413762D01*
X161476Y-428936D02*
X164524D01*
X161476Y-437064D02*
X164524D01*
X181064Y-399524D02*
Y-396476D01*
X172936Y-399524D02*
Y-396476D01*
X129222Y-437762D02*
Y-428238D01*
X132778Y-437762D02*
Y-428238D01*
X172722Y-374762D02*
Y-365238D01*
X176278Y-374762D02*
Y-365238D01*
X195722Y-343762D02*
Y-334238D01*
X199278Y-343762D02*
Y-334238D01*
X233278Y-343762D02*
Y-334238D01*
X229722Y-343762D02*
Y-334238D01*
X136064Y-61024D02*
Y-57976D01*
X127936Y-61024D02*
Y-57976D01*
X103976Y-26064D02*
X107024D01*
X103976Y-17936D02*
X107024D01*
X45488Y-89496D02*
X58512D01*
X45488Y-86504D02*
X58512D01*
X107920Y-87540D02*
Y-80500D01*
X118080Y-87540D02*
Y-80500D01*
X87278Y-104762D02*
Y-95238D01*
X83722Y-104762D02*
Y-95238D01*
X83976Y-111936D02*
X87024D01*
X83976Y-120064D02*
X87024D01*
X116190Y-122350D02*
X123810D01*
X116190Y-109650D02*
X123810D01*
X111496Y-141512D02*
Y-128488D01*
X108504Y-141512D02*
Y-128488D01*
X183476Y-293064D02*
X186524D01*
X183476Y-284936D02*
X186524D01*
X183504Y-277512D02*
Y-264488D01*
X186496Y-277512D02*
Y-264488D01*
X130476Y-280064D02*
X133524D01*
X130476Y-271936D02*
X133524D01*
X179064Y-241524D02*
Y-238476D01*
X170936Y-241524D02*
Y-238476D01*
X442064Y-205524D02*
Y-202476D01*
X433936Y-205524D02*
Y-202476D01*
X415976Y-383936D02*
X419024D01*
X415976Y-392064D02*
X419024D01*
D74*
X189064Y-443524D02*
Y-440476D01*
X180936Y-443524D02*
Y-440476D01*
X26936Y-89524D02*
Y-86476D01*
X35064Y-89524D02*
Y-86476D01*
D76*
X271250Y-420000D02*
Y-413750D01*
X418467Y-8974D02*
X422466D01*
X424465Y-10973D01*
Y-18971D01*
X422466Y-20970D01*
X418467D01*
X416468Y-18971D01*
Y-10973D01*
X418467Y-8974D01*
X412469Y-24969D02*
Y-12973D01*
X406471D01*
X404472Y-14972D01*
Y-18971D01*
X406471Y-20970D01*
X412469D01*
X394475D02*
X398474D01*
X400473Y-18971D01*
Y-14972D01*
X398474Y-12973D01*
X394475D01*
X392476Y-14972D01*
Y-16971D01*
X400473D01*
X388477Y-20970D02*
Y-12973D01*
X382479D01*
X380480Y-14972D01*
Y-20970D01*
X376481Y-8974D02*
X368484D01*
X372482D01*
Y-20970D01*
X358487Y-8974D02*
X362486D01*
X364485Y-10973D01*
Y-18971D01*
X362486Y-20970D01*
X358487D01*
X356488Y-18971D01*
Y-10973D01*
X358487Y-8974D01*
X344491D02*
X352489D01*
Y-14972D01*
X348490D01*
X352489D01*
Y-20970D01*
X340493Y-8974D02*
Y-20970D01*
X332495D01*
X328497D02*
X324498D01*
X326497D01*
Y-12973D01*
X328497D01*
X310502Y-8974D02*
Y-20970D01*
X316500D01*
X318500Y-18971D01*
Y-14972D01*
X316500Y-12973D01*
X310502D01*
X304504D02*
X300506D01*
X298506Y-14972D01*
Y-20970D01*
X304504D01*
X306504Y-18971D01*
X304504Y-16971D01*
X298506D01*
X294508Y-12973D02*
Y-20970D01*
Y-16971D01*
X292508Y-14972D01*
X290509Y-12973D01*
X288510D01*
X419467Y-35463D02*
X417468Y-33464D01*
X413469D01*
X411470Y-35463D01*
Y-43461D01*
X413469Y-45460D01*
X417468D01*
X419467Y-43461D01*
Y-35463D01*
X399474Y-45460D02*
X407471D01*
X399474Y-37463D01*
Y-35463D01*
X401473Y-33464D01*
X405472D01*
X407471Y-35463D01*
X395475Y-45460D02*
Y-43461D01*
X393475D01*
Y-45460D01*
X395475D01*
X377481D02*
X385478D01*
X377481Y-37463D01*
Y-35463D01*
X379480Y-33464D01*
X383479D01*
X385478Y-35463D01*
X373482D02*
X371483Y-33464D01*
X367484D01*
X365485Y-35463D01*
Y-43461D01*
X367484Y-45460D01*
X371483D01*
X373482Y-43461D01*
Y-35463D01*
X353488Y-45460D02*
X361486D01*
X353488Y-37463D01*
Y-35463D01*
X355488Y-33464D01*
X359487D01*
X361486Y-35463D01*
X349490D02*
X347490Y-33464D01*
X343492D01*
X341492Y-35463D01*
Y-43461D01*
X343492Y-45460D01*
X347490D01*
X349490Y-43461D01*
Y-35463D01*
X325498Y-37463D02*
X321499Y-45460D01*
X317500Y-37463D01*
X307503Y-45460D02*
Y-33464D01*
X313501Y-39462D01*
X305504D01*
X301505Y-33464D02*
Y-45460D01*
X295507D01*
X293508Y-43461D01*
Y-41461D01*
X295507Y-39462D01*
X301505D01*
X295507D01*
X293508Y-37463D01*
Y-35463D01*
X295507Y-33464D01*
X301505D01*
X174668Y-50335D02*
X176001Y-49003D01*
X178667D01*
X180000Y-50335D01*
Y-55667D01*
X178667Y-57000D01*
X176001D01*
X174668Y-55667D01*
X172003Y-50335D02*
X170670Y-49003D01*
X168004D01*
X166671Y-50335D01*
Y-51668D01*
X168004Y-53001D01*
X169337D01*
X168004D01*
X166671Y-54334D01*
Y-55667D01*
X168004Y-57000D01*
X170670D01*
X172003Y-55667D01*
X164005Y-49003D02*
X158673D01*
Y-50335D01*
X164005Y-55667D01*
Y-57000D01*
X298000Y-90000D02*
Y-82003D01*
X294001D01*
X292668Y-83336D01*
Y-86001D01*
X294001Y-87334D01*
X298000D01*
X295334D02*
X292668Y-90000D01*
X290003Y-83336D02*
X288670Y-82003D01*
X286004D01*
X284671Y-83336D01*
Y-84668D01*
X286004Y-86001D01*
X287337D01*
X286004D01*
X284671Y-87334D01*
Y-88667D01*
X286004Y-90000D01*
X288670D01*
X290003Y-88667D01*
X282005Y-83336D02*
X280672Y-82003D01*
X278006D01*
X276674Y-83336D01*
Y-84668D01*
X278006Y-86001D01*
X276674Y-87334D01*
Y-88667D01*
X278006Y-90000D01*
X280672D01*
X282005Y-88667D01*
Y-87334D01*
X280672Y-86001D01*
X282005Y-84668D01*
Y-83336D01*
X280672Y-86001D02*
X278006D01*
X429500Y-412000D02*
X421503D01*
Y-415999D01*
X422836Y-417332D01*
X425501D01*
X426834Y-415999D01*
Y-412000D01*
Y-414666D02*
X429500Y-417332D01*
X422836Y-419997D02*
X421503Y-421330D01*
Y-423996D01*
X422836Y-425329D01*
X424168D01*
X425501Y-423996D01*
Y-422663D01*
Y-423996D01*
X426834Y-425329D01*
X428167D01*
X429500Y-423996D01*
Y-421330D01*
X428167Y-419997D01*
X421503Y-433326D02*
X422836Y-430661D01*
X425501Y-427995D01*
X428167D01*
X429500Y-429328D01*
Y-431993D01*
X428167Y-433326D01*
X426834D01*
X425501Y-431993D01*
Y-427995D01*
X85336Y-236332D02*
X84003Y-234999D01*
Y-232333D01*
X85336Y-231000D01*
X90667D01*
X92000Y-232333D01*
Y-234999D01*
X90667Y-236332D01*
X85336Y-238997D02*
X84003Y-240330D01*
Y-242996D01*
X85336Y-244329D01*
X86668D01*
X88001Y-242996D01*
Y-241663D01*
Y-242996D01*
X89334Y-244329D01*
X90667D01*
X92000Y-242996D01*
Y-240330D01*
X90667Y-238997D01*
X85336Y-246995D02*
X84003Y-248328D01*
Y-250994D01*
X85336Y-252326D01*
X86668D01*
X88001Y-250994D01*
Y-249661D01*
Y-250994D01*
X89334Y-252326D01*
X90667D01*
X92000Y-250994D01*
Y-248328D01*
X90667Y-246995D01*
X335000Y-407000D02*
Y-399003D01*
X331001D01*
X329668Y-400336D01*
Y-403001D01*
X331001Y-404334D01*
X335000D01*
X332334D02*
X329668Y-407000D01*
X327003Y-400336D02*
X325670Y-399003D01*
X323004D01*
X321671Y-400336D01*
Y-401668D01*
X323004Y-403001D01*
X324337D01*
X323004D01*
X321671Y-404334D01*
Y-405667D01*
X323004Y-407000D01*
X325670D01*
X327003Y-405667D01*
X319005Y-400336D02*
X317672Y-399003D01*
X315006D01*
X313673Y-400336D01*
Y-401668D01*
X315006Y-403001D01*
X316339D01*
X315006D01*
X313673Y-404334D01*
Y-405667D01*
X315006Y-407000D01*
X317672D01*
X319005Y-405667D01*
X196000Y-386000D02*
X188003D01*
Y-389999D01*
X189335Y-391332D01*
X192001D01*
X193334Y-389999D01*
Y-386000D01*
Y-388666D02*
X196000Y-391332D01*
X189335Y-393997D02*
X188003Y-395330D01*
Y-397996D01*
X189335Y-399329D01*
X190668D01*
X192001Y-397996D01*
Y-396663D01*
Y-397996D01*
X193334Y-399329D01*
X194667D01*
X196000Y-397996D01*
Y-395330D01*
X194667Y-393997D01*
X189335Y-401995D02*
X188003Y-403328D01*
Y-405993D01*
X189335Y-407326D01*
X194667D01*
X196000Y-405993D01*
Y-403328D01*
X194667Y-401995D01*
X189335D01*
X193000Y-230000D02*
X185003D01*
Y-233999D01*
X186336Y-235332D01*
X189001D01*
X190334Y-233999D01*
Y-230000D01*
Y-232666D02*
X193000Y-235332D01*
Y-243329D02*
Y-237997D01*
X187668Y-243329D01*
X186336D01*
X185003Y-241996D01*
Y-239330D01*
X186336Y-237997D01*
X191667Y-245995D02*
X193000Y-247328D01*
Y-249994D01*
X191667Y-251326D01*
X186336D01*
X185003Y-249994D01*
Y-247328D01*
X186336Y-245995D01*
X187668D01*
X189001Y-247328D01*
Y-251326D01*
X217000Y-393003D02*
X211668Y-401000D01*
Y-393003D02*
X217000Y-401000D01*
X209003D02*
X206337D01*
X207670D01*
Y-393003D01*
X209003Y-394336D01*
X130997Y-89000D02*
X123000D01*
Y-85001D01*
X124333Y-83668D01*
X129664D01*
X130997Y-85001D01*
Y-89000D01*
X123000Y-81003D02*
Y-78337D01*
Y-79670D01*
X130997D01*
X129664Y-81003D01*
X358000Y-468000D02*
X365997D01*
Y-464001D01*
X364664Y-462668D01*
X361999D01*
X360666Y-464001D01*
Y-468000D01*
Y-465334D02*
X358000Y-462668D01*
Y-454671D02*
Y-460003D01*
X363332Y-454671D01*
X364664D01*
X365997Y-456004D01*
Y-458670D01*
X364664Y-460003D01*
X365997Y-446674D02*
Y-452005D01*
X361999D01*
X363332Y-449339D01*
Y-448006D01*
X361999Y-446674D01*
X359333D01*
X358000Y-448006D01*
Y-450672D01*
X359333Y-452005D01*
X173000Y-451000D02*
Y-443003D01*
X169001D01*
X167668Y-444336D01*
Y-447001D01*
X169001Y-448334D01*
X173000D01*
X170334D02*
X167668Y-451000D01*
X159671D02*
X165003D01*
X159671Y-445668D01*
Y-444336D01*
X161004Y-443003D01*
X163670D01*
X165003Y-444336D01*
X157005Y-451000D02*
X154339D01*
X155672D01*
Y-443003D01*
X157005Y-444336D01*
X428000Y-195000D02*
Y-187003D01*
X424001D01*
X422668Y-188335D01*
Y-191001D01*
X424001Y-192334D01*
X428000D01*
X425334D02*
X422668Y-195000D01*
X420003D02*
X417337D01*
X418670D01*
Y-187003D01*
X420003Y-188335D01*
X413338D02*
X412005Y-187003D01*
X409339D01*
X408006Y-188335D01*
Y-189668D01*
X409339Y-191001D01*
X408006Y-192334D01*
Y-193667D01*
X409339Y-195000D01*
X412005D01*
X413338Y-193667D01*
Y-192334D01*
X412005Y-191001D01*
X413338Y-189668D01*
Y-188335D01*
X412005Y-191001D02*
X409339D01*
X196000Y-309000D02*
Y-301003D01*
X192001D01*
X190668Y-302335D01*
Y-305001D01*
X192001Y-306334D01*
X196000D01*
X193334D02*
X190668Y-309000D01*
X188003D02*
X185337D01*
X186670D01*
Y-301003D01*
X188003Y-302335D01*
X181338D02*
X180005Y-301003D01*
X177339D01*
X176006Y-302335D01*
Y-307667D01*
X177339Y-309000D01*
X180005D01*
X181338Y-307667D01*
Y-302335D01*
X86000Y-133000D02*
Y-125003D01*
X82001D01*
X80668Y-126335D01*
Y-129001D01*
X82001Y-130334D01*
X86000D01*
X83334D02*
X80668Y-133000D01*
X78003Y-131667D02*
X76670Y-133000D01*
X74004D01*
X72671Y-131667D01*
Y-126335D01*
X74004Y-125003D01*
X76670D01*
X78003Y-126335D01*
Y-127668D01*
X76670Y-129001D01*
X72671D01*
X147000Y-109000D02*
X139003D01*
Y-112999D01*
X140336Y-114332D01*
X143001D01*
X144334Y-112999D01*
Y-109000D01*
Y-111666D02*
X147000Y-114332D01*
X140336Y-116997D02*
X139003Y-118330D01*
Y-120996D01*
X140336Y-122329D01*
X141668D01*
X143001Y-120996D01*
X144334Y-122329D01*
X145667D01*
X147000Y-120996D01*
Y-118330D01*
X145667Y-116997D01*
X144334D01*
X143001Y-118330D01*
X141668Y-116997D01*
X140336D01*
X143001Y-118330D02*
Y-120996D01*
X86000Y-23000D02*
Y-15003D01*
X82001D01*
X80668Y-16336D01*
Y-19001D01*
X82001Y-20334D01*
X86000D01*
X83334D02*
X80668Y-23000D01*
X78003Y-16336D02*
X76670Y-15003D01*
X74004D01*
X72671Y-16336D01*
Y-17668D01*
X74004Y-19001D01*
X75337D01*
X74004D01*
X72671Y-20334D01*
Y-21667D01*
X74004Y-23000D01*
X76670D01*
X78003Y-21667D01*
X133000Y-41000D02*
X140997D01*
Y-37001D01*
X139664Y-35668D01*
X136999D01*
X135666Y-37001D01*
Y-41000D01*
Y-38334D02*
X133000Y-35668D01*
Y-27671D02*
Y-33003D01*
X138332Y-27671D01*
X139664D01*
X140997Y-29004D01*
Y-31670D01*
X139664Y-33003D01*
X113000Y-280000D02*
Y-272003D01*
X109001D01*
X107668Y-273335D01*
Y-276001D01*
X109001Y-277334D01*
X113000D01*
X110334D02*
X107668Y-280000D01*
X105003D02*
X102337D01*
X103670D01*
Y-272003D01*
X105003Y-273335D01*
X84667Y-50332D02*
X79335D01*
X78003Y-48999D01*
Y-46333D01*
X79335Y-45000D01*
X84667D01*
X86000Y-46333D01*
Y-48999D01*
X83334Y-47666D02*
X86000Y-50332D01*
Y-48999D02*
X84667Y-50332D01*
X86000Y-52997D02*
Y-55663D01*
Y-54330D01*
X78003D01*
X79335Y-52997D01*
X196003Y-446000D02*
X204000D01*
Y-451332D01*
X202667Y-453997D02*
X204000Y-455330D01*
Y-457996D01*
X202667Y-459329D01*
X197335D01*
X196003Y-457996D01*
Y-455330D01*
X197335Y-453997D01*
X198668D01*
X200001Y-455330D01*
Y-459329D01*
X62000Y-62919D02*
Y-70917D01*
X56668D01*
X48671Y-62919D02*
X54003D01*
Y-66918D01*
X51337Y-65585D01*
X50004D01*
X48671Y-66918D01*
Y-69584D01*
X50004Y-70917D01*
X52670D01*
X54003Y-69584D01*
X38000Y-62003D02*
Y-70000D01*
X32668D01*
X26004D02*
Y-62003D01*
X30003Y-66001D01*
X24671D01*
X424664Y-464668D02*
X425997Y-466001D01*
Y-468667D01*
X424664Y-470000D01*
X419333D01*
X418000Y-468667D01*
Y-466001D01*
X419333Y-464668D01*
X418000Y-456671D02*
Y-462003D01*
X423332Y-456671D01*
X424664D01*
X425997Y-458004D01*
Y-460670D01*
X424664Y-462003D01*
Y-454005D02*
X425997Y-452672D01*
Y-450006D01*
X424664Y-448674D01*
X423332D01*
X421999Y-450006D01*
X420666Y-448674D01*
X419333D01*
X418000Y-450006D01*
Y-452672D01*
X419333Y-454005D01*
X420666D01*
X421999Y-452672D01*
X423332Y-454005D01*
X424664D01*
X421999Y-452672D02*
Y-450006D01*
X389668Y-384336D02*
X391001Y-383003D01*
X393667D01*
X395000Y-384336D01*
Y-389667D01*
X393667Y-391000D01*
X391001D01*
X389668Y-389667D01*
X381671Y-391000D02*
X387003D01*
X381671Y-385668D01*
Y-384336D01*
X383004Y-383003D01*
X385670D01*
X387003Y-384336D01*
X379005Y-383003D02*
X373674D01*
Y-384336D01*
X379005Y-389667D01*
Y-391000D01*
X410668Y-428335D02*
X412001Y-427003D01*
X414667D01*
X416000Y-428335D01*
Y-433667D01*
X414667Y-435000D01*
X412001D01*
X410668Y-433667D01*
X402671Y-435000D02*
X408003D01*
X402671Y-429668D01*
Y-428335D01*
X404004Y-427003D01*
X406670D01*
X408003Y-428335D01*
X394674Y-427003D02*
X400005D01*
Y-431001D01*
X397339Y-429668D01*
X396006D01*
X394674Y-431001D01*
Y-433667D01*
X396006Y-435000D01*
X398672D01*
X400005Y-433667D01*
X135668Y-442836D02*
X137001Y-441503D01*
X139667D01*
X141000Y-442836D01*
Y-448167D01*
X139667Y-449500D01*
X137001D01*
X135668Y-448167D01*
X127671Y-449500D02*
X133003D01*
X127671Y-444169D01*
Y-442836D01*
X129004Y-441503D01*
X131670D01*
X133003Y-442836D01*
X125005D02*
X123672Y-441503D01*
X121006D01*
X119674Y-442836D01*
Y-448167D01*
X121006Y-449500D01*
X123672D01*
X125005Y-448167D01*
Y-442836D01*
X180668Y-353335D02*
X182001Y-352003D01*
X184667D01*
X186000Y-353335D01*
Y-358667D01*
X184667Y-360000D01*
X182001D01*
X180668Y-358667D01*
X178003Y-360000D02*
X175337D01*
X176670D01*
Y-352003D01*
X178003Y-353335D01*
X171338D02*
X170005Y-352003D01*
X167339D01*
X166006Y-353335D01*
Y-354668D01*
X167339Y-356001D01*
X166006Y-357334D01*
Y-358667D01*
X167339Y-360000D01*
X170005D01*
X171338Y-358667D01*
Y-357334D01*
X170005Y-356001D01*
X171338Y-354668D01*
Y-353335D01*
X170005Y-356001D02*
X167339D01*
X207668Y-253335D02*
X209001Y-252003D01*
X211667D01*
X213000Y-253335D01*
Y-258667D01*
X211667Y-260000D01*
X209001D01*
X207668Y-258667D01*
X205003Y-260000D02*
X202337D01*
X203670D01*
Y-252003D01*
X205003Y-253335D01*
X198338Y-260000D02*
X195672D01*
X197005D01*
Y-252003D01*
X198338Y-253335D01*
X153668Y-130336D02*
X155001Y-129003D01*
X157667D01*
X159000Y-130336D01*
Y-135667D01*
X157667Y-137000D01*
X155001D01*
X153668Y-135667D01*
X151003Y-137000D02*
X148337D01*
X149670D01*
Y-129003D01*
X151003Y-130336D01*
X144338D02*
X143005Y-129003D01*
X140339D01*
X139007Y-130336D01*
Y-135667D01*
X140339Y-137000D01*
X143005D01*
X144338Y-135667D01*
Y-130336D01*
X49335Y-113332D02*
X48003Y-111999D01*
Y-109333D01*
X49335Y-108000D01*
X54667D01*
X56000Y-109333D01*
Y-111999D01*
X54667Y-113332D01*
X48003Y-121329D02*
X49335Y-118663D01*
X52001Y-115997D01*
X54667D01*
X56000Y-117330D01*
Y-119996D01*
X54667Y-121329D01*
X53334D01*
X52001Y-119996D01*
Y-115997D01*
X156335Y-203332D02*
X155003Y-201999D01*
Y-199333D01*
X156335Y-198000D01*
X161667D01*
X163000Y-199333D01*
Y-201999D01*
X161667Y-203332D01*
X163000Y-209996D02*
X155003D01*
X159001Y-205997D01*
Y-211329D01*
X427500Y-378000D02*
Y-370003D01*
X423501D01*
X422168Y-371335D01*
Y-374001D01*
X423501Y-375334D01*
X427500D01*
X424834D02*
X422168Y-378000D01*
X419503Y-371335D02*
X418170Y-370003D01*
X415504D01*
X414171Y-371335D01*
Y-372668D01*
X415504Y-374001D01*
X416837D01*
X415504D01*
X414171Y-375334D01*
Y-376667D01*
X415504Y-378000D01*
X418170D01*
X419503Y-376667D01*
X407506Y-378000D02*
Y-370003D01*
X411505Y-374001D01*
X406174D01*
X301997Y-440000D02*
Y-434002D01*
Y-437001D01*
X293000D01*
X301997Y-431003D02*
X293000Y-425005D01*
X301997D02*
X293000Y-431003D01*
X318000Y-440000D02*
X326997D01*
Y-435502D01*
X325498Y-434002D01*
X322499D01*
X320999Y-435502D01*
Y-440000D01*
Y-437001D02*
X318000Y-434002D01*
X326997Y-431003D02*
X318000Y-425005D01*
X326997D02*
X318000Y-431003D01*
X254498Y-423002D02*
X255997Y-424501D01*
Y-427500D01*
X254498Y-429000D01*
X248500D01*
X247000Y-427500D01*
Y-424501D01*
X248500Y-423002D01*
X255997Y-420003D02*
X247000D01*
Y-414005D01*
X255997Y-411006D02*
X247000D01*
X249999D01*
X255997Y-405008D01*
X251499Y-409506D01*
X247000Y-405008D01*
X278997Y-432003D02*
X280996Y-434002D01*
Y-438001D01*
X278997Y-440000D01*
X270999D01*
X269000Y-438001D01*
Y-434002D01*
X270999Y-432003D01*
X274998D01*
Y-436001D01*
D77*
X107512Y-93619D02*
X107131Y-94000D01*
X106750Y-93619D01*
X107131Y-93238D01*
X107512Y-93619D01*
D127*
X331032Y-123350D02*
X329628Y-121417D01*
X327356Y-122156D01*
Y-124544D01*
X329628Y-125283D01*
X331032Y-123350D01*
D128*
X102000Y-219590D02*
Y-176410D01*
X136510D01*
X102000Y-219590D02*
X136510D01*
Y-176410D01*
X323920Y-128430D02*
X329000Y-123350D01*
X323920Y-118270D02*
X329000Y-123350D01*
X334080Y-128430D01*
X311220Y-123350D02*
X329000D01*
X339160D01*
X329000Y-133510D02*
Y-123350D01*
Y-113190D01*
Y-123350D02*
X334080Y-118270D01*
D129*
X329000Y-93548D02*
X356178Y-140622D01*
X301822D02*
X329000Y-93548D01*
X301822Y-140622D02*
X356178D01*
M02*
