G04 Layer_Physical_Order=1*
G04 Layer_Color=255*
%FSLAX44Y44*%
%MOMM*%
G71*
G01*
G75*
G04:AMPARAMS|DCode=10|XSize=1.4mm|YSize=1mm|CornerRadius=0.125mm|HoleSize=0mm|Usage=FLASHONLY|Rotation=180.000|XOffset=0mm|YOffset=0mm|HoleType=Round|Shape=RoundedRectangle|*
%AMROUNDEDRECTD10*
21,1,1.4000,0.7500,0,0,180.0*
21,1,1.1500,1.0000,0,0,180.0*
1,1,0.2500,-0.5750,0.3750*
1,1,0.2500,0.5750,0.3750*
1,1,0.2500,0.5750,-0.3750*
1,1,0.2500,-0.5750,-0.3750*
%
%ADD10ROUNDEDRECTD10*%
G04:AMPARAMS|DCode=11|XSize=1mm|YSize=0.9mm|CornerRadius=0.1125mm|HoleSize=0mm|Usage=FLASHONLY|Rotation=270.000|XOffset=0mm|YOffset=0mm|HoleType=Round|Shape=RoundedRectangle|*
%AMROUNDEDRECTD11*
21,1,1.0000,0.6750,0,0,270.0*
21,1,0.7750,0.9000,0,0,270.0*
1,1,0.2250,-0.3375,-0.3875*
1,1,0.2250,-0.3375,0.3875*
1,1,0.2250,0.3375,0.3875*
1,1,0.2250,0.3375,-0.3875*
%
%ADD11ROUNDEDRECTD11*%
G04:AMPARAMS|DCode=12|XSize=1mm|YSize=0.9mm|CornerRadius=0.1125mm|HoleSize=0mm|Usage=FLASHONLY|Rotation=0.000|XOffset=0mm|YOffset=0mm|HoleType=Round|Shape=RoundedRectangle|*
%AMROUNDEDRECTD12*
21,1,1.0000,0.6750,0,0,0.0*
21,1,0.7750,0.9000,0,0,0.0*
1,1,0.2250,0.3875,-0.3375*
1,1,0.2250,-0.3875,-0.3375*
1,1,0.2250,-0.3875,0.3375*
1,1,0.2250,0.3875,0.3375*
%
%ADD12ROUNDEDRECTD12*%
%ADD13R,1.0000X1.0000*%
%ADD14R,1.4750X0.4500*%
%ADD15R,2.4100X3.2900*%
%ADD16R,0.5000X0.5000*%
%ADD17R,3.6000X3.6000*%
%ADD18O,0.8500X0.2500*%
%ADD19O,0.2500X0.8500*%
G04:AMPARAMS|DCode=20|XSize=0.65mm|YSize=0.5mm|CornerRadius=0.05mm|HoleSize=0mm|Usage=FLASHONLY|Rotation=90.000|XOffset=0mm|YOffset=0mm|HoleType=Round|Shape=RoundedRectangle|*
%AMROUNDEDRECTD20*
21,1,0.6500,0.4000,0,0,90.0*
21,1,0.5500,0.5000,0,0,90.0*
1,1,0.1000,0.2000,0.2750*
1,1,0.1000,0.2000,-0.2750*
1,1,0.1000,-0.2000,-0.2750*
1,1,0.1000,-0.2000,0.2750*
%
%ADD20ROUNDEDRECTD20*%
%ADD21O,0.3000X1.8000*%
%ADD22O,1.8000X0.3000*%
%ADD23R,1.1000X0.6500*%
G04:AMPARAMS|DCode=24|XSize=3.5mm|YSize=1.75mm|CornerRadius=0.2188mm|HoleSize=0mm|Usage=FLASHONLY|Rotation=180.000|XOffset=0mm|YOffset=0mm|HoleType=Round|Shape=RoundedRectangle|*
%AMROUNDEDRECTD24*
21,1,3.5000,1.3125,0,0,180.0*
21,1,3.0625,1.7500,0,0,180.0*
1,1,0.4375,-1.5313,0.6563*
1,1,0.4375,1.5313,0.6563*
1,1,0.4375,1.5313,-0.6563*
1,1,0.4375,-1.5313,-0.6563*
%
%ADD24ROUNDEDRECTD24*%
G04:AMPARAMS|DCode=25|XSize=1.1mm|YSize=1.75mm|CornerRadius=0.1375mm|HoleSize=0mm|Usage=FLASHONLY|Rotation=180.000|XOffset=0mm|YOffset=0mm|HoleType=Round|Shape=RoundedRectangle|*
%AMROUNDEDRECTD25*
21,1,1.1000,1.4750,0,0,180.0*
21,1,0.8250,1.7500,0,0,180.0*
1,1,0.2750,-0.4125,0.7375*
1,1,0.2750,0.4125,0.7375*
1,1,0.2750,0.4125,-0.7375*
1,1,0.2750,-0.4125,-0.7375*
%
%ADD25ROUNDEDRECTD25*%
G04:AMPARAMS|DCode=26|XSize=1.1mm|YSize=1.75mm|CornerRadius=0.1375mm|HoleSize=0mm|Usage=FLASHONLY|Rotation=180.000|XOffset=0mm|YOffset=0mm|HoleType=Round|Shape=RoundedRectangle|*
%AMROUNDEDRECTD26*
21,1,1.1000,1.4750,0,0,180.0*
21,1,0.8250,1.7500,0,0,180.0*
1,1,0.2750,-0.4125,0.7375*
1,1,0.2750,0.4125,0.7375*
1,1,0.2750,0.4125,-0.7375*
1,1,0.2750,-0.4125,-0.7375*
%
%ADD26ROUNDEDRECTD26*%
%ADD27R,1.0500X1.0000*%
%ADD28R,2.2000X1.0500*%
%ADD29R,1.3000X1.5000*%
%ADD30R,4.0000X3.0000*%
%ADD31R,0.8000X0.3400*%
%ADD32R,0.6500X0.3400*%
%ADD33R,1.7100X2.2900*%
G04:AMPARAMS|DCode=34|XSize=1.3mm|YSize=0.8mm|CornerRadius=0.1mm|HoleSize=0mm|Usage=FLASHONLY|Rotation=180.000|XOffset=0mm|YOffset=0mm|HoleType=Round|Shape=RoundedRectangle|*
%AMROUNDEDRECTD34*
21,1,1.3000,0.6000,0,0,180.0*
21,1,1.1000,0.8000,0,0,180.0*
1,1,0.2000,-0.5500,0.3000*
1,1,0.2000,0.5500,0.3000*
1,1,0.2000,0.5500,-0.3000*
1,1,0.2000,-0.5500,-0.3000*
%
%ADD34ROUNDEDRECTD34*%
G04:AMPARAMS|DCode=35|XSize=1.3mm|YSize=0.8mm|CornerRadius=0.1mm|HoleSize=0mm|Usage=FLASHONLY|Rotation=270.000|XOffset=0mm|YOffset=0mm|HoleType=Round|Shape=RoundedRectangle|*
%AMROUNDEDRECTD35*
21,1,1.3000,0.6000,0,0,270.0*
21,1,1.1000,0.8000,0,0,270.0*
1,1,0.2000,-0.3000,-0.5500*
1,1,0.2000,-0.3000,0.5500*
1,1,0.2000,0.3000,0.5500*
1,1,0.2000,0.3000,-0.5500*
%
%ADD35ROUNDEDRECTD35*%
%ADD36R,0.7000X1.3000*%
%ADD37R,1.3000X2.4000*%
%ADD38R,0.9500X0.6000*%
%ADD39R,0.9500X0.9000*%
%ADD40R,0.9500X0.9000*%
%ADD41C,0.3000*%
%ADD42C,0.7500*%
%ADD43C,0.4000*%
%ADD44C,0.5000*%
%ADD45C,0.9000*%
%ADD46C,0.6000*%
%ADD47C,1.0000*%
%ADD48C,0.2000*%
%ADD49C,0.4500*%
%ADD50C,0.8000*%
%ADD51C,1.3500*%
%ADD52R,1.3500X1.3500*%
%ADD53C,1.5000*%
%ADD54R,1.5000X1.5000*%
%ADD55C,0.8000*%
%ADD56R,1.4000X1.4000*%
%ADD57C,1.4000*%
%ADD58C,3.5000*%
%ADD59C,0.9000*%
%ADD60C,1.0000*%
%ADD61C,0.7000*%
G36*
X154000Y-45435D02*
X150000D01*
X149812Y-45460D01*
X142460D01*
Y-52812D01*
X142435Y-53000D01*
X142460Y-53188D01*
Y-60540D01*
Y-66812D01*
X142435Y-67000D01*
X142460Y-67188D01*
Y-74540D01*
X149812D01*
X150000Y-74565D01*
X154000D01*
Y-119000D01*
X244414D01*
Y-132375D01*
X244754Y-134082D01*
X245721Y-135529D01*
X247168Y-136496D01*
X248875Y-136836D01*
X257125D01*
X258832Y-136496D01*
X260279Y-135529D01*
X261246Y-134082D01*
X261586Y-132375D01*
Y-119000D01*
X267414D01*
Y-132375D01*
X267754Y-134082D01*
X267931Y-134347D01*
Y-179148D01*
X260688D01*
X258663Y-179551D01*
X256947Y-180697D01*
X255343Y-180813D01*
X254485Y-180239D01*
X252875Y-179919D01*
X246125D01*
X244515Y-180239D01*
X243377Y-181000D01*
X237795D01*
X237305Y-180673D01*
X235875Y-180388D01*
X233770D01*
Y-188000D01*
X232500D01*
Y-189270D01*
X225388D01*
Y-191875D01*
X225539Y-192632D01*
X224660Y-193902D01*
X190500D01*
X188549Y-194290D01*
X186895Y-195395D01*
X183371Y-198919D01*
X179125D01*
X177516Y-199239D01*
X176151Y-200151D01*
X175584Y-201000D01*
X172416D01*
X171849Y-200151D01*
X170485Y-199239D01*
X168875Y-198919D01*
X162125D01*
X160515Y-199239D01*
X159151Y-200151D01*
X159131Y-200180D01*
X157612Y-200290D01*
X157000Y-199651D01*
Y-194708D01*
X157320Y-194229D01*
X157614Y-192750D01*
Y-190270D01*
X138386D01*
Y-192750D01*
X138680Y-194229D01*
X139000Y-194708D01*
Y-200464D01*
X138247Y-201592D01*
X137917Y-203250D01*
Y-210502D01*
X137693Y-211042D01*
X137435Y-213000D01*
X137693Y-214958D01*
X138449Y-216782D01*
X139651Y-218349D01*
X140250Y-218809D01*
Y-226500D01*
X155750D01*
Y-214525D01*
X156814Y-213814D01*
X157239Y-213178D01*
X158703D01*
X159151Y-213849D01*
X160515Y-214761D01*
X162125Y-215081D01*
X168875D01*
X170485Y-214761D01*
X171849Y-213849D01*
X172416Y-213000D01*
X175584D01*
X176151Y-213849D01*
X177516Y-214761D01*
X179125Y-215081D01*
X185875D01*
X187484Y-214761D01*
X188849Y-213849D01*
X189761Y-212484D01*
X190081Y-210875D01*
Y-206629D01*
X192612Y-204098D01*
X247000D01*
X248951Y-203710D01*
X250605Y-202605D01*
X253605Y-199605D01*
X254302Y-198561D01*
X255650Y-198829D01*
X255801Y-199587D01*
X256947Y-201303D01*
X258663Y-202449D01*
X260688Y-202852D01*
X291312D01*
X293337Y-202449D01*
X295052Y-201303D01*
X296199Y-199587D01*
X296602Y-197563D01*
Y-184438D01*
X296199Y-182414D01*
X295052Y-180697D01*
X293337Y-179551D01*
X291312Y-179148D01*
X284069D01*
Y-134347D01*
X284246Y-134082D01*
X284586Y-132375D01*
Y-119000D01*
X290883D01*
Y-123730D01*
X299000D01*
Y-125000D01*
X300270D01*
Y-136367D01*
X303125D01*
X303730Y-136246D01*
X305000Y-137242D01*
Y-294892D01*
X291534D01*
X291349Y-294651D01*
X290588Y-294067D01*
Y-293000D01*
X290239Y-291244D01*
X289244Y-289756D01*
X288581Y-289092D01*
Y-284125D01*
X288261Y-282516D01*
X287349Y-281151D01*
X285984Y-280239D01*
X284375Y-279919D01*
X277625D01*
X276015Y-280239D01*
X274877Y-281000D01*
X270123D01*
X268985Y-280239D01*
X267375Y-279919D01*
X263868D01*
X263020Y-278649D01*
X263306Y-277957D01*
X263564Y-275999D01*
X263306Y-274042D01*
X262551Y-272217D01*
X261349Y-270650D01*
X259782Y-269448D01*
X257957Y-268692D01*
X256000Y-268435D01*
X254042Y-268692D01*
X252217Y-269448D01*
X250650Y-270650D01*
X249448Y-272217D01*
X248692Y-274042D01*
X248435Y-275999D01*
X248692Y-277957D01*
X249448Y-279782D01*
X250650Y-281348D01*
X251684Y-282142D01*
X251253Y-283412D01*
X243000D01*
X241244Y-283761D01*
X239756Y-284756D01*
X238951Y-285560D01*
X238000Y-285435D01*
X236042Y-285693D01*
X234218Y-286449D01*
X232651Y-287651D01*
X231449Y-289218D01*
X230693Y-291042D01*
X230435Y-293000D01*
X230693Y-294958D01*
X231449Y-296782D01*
X232651Y-298349D01*
X234218Y-299551D01*
X236042Y-300307D01*
X236441Y-300359D01*
Y-301640D01*
X236042Y-301693D01*
X234218Y-302449D01*
X232651Y-303651D01*
X231449Y-305218D01*
X230693Y-307042D01*
X230435Y-309000D01*
X230693Y-310958D01*
X231449Y-312782D01*
X232651Y-314349D01*
X234218Y-315551D01*
X236042Y-316307D01*
X236441Y-316360D01*
Y-317640D01*
X236042Y-317693D01*
X234218Y-318449D01*
X232651Y-319651D01*
X231449Y-321218D01*
X230693Y-323042D01*
X230435Y-325000D01*
X230693Y-326958D01*
X231449Y-328782D01*
X232651Y-330349D01*
X234218Y-331551D01*
X236042Y-332307D01*
X238000Y-332565D01*
X239958Y-332307D01*
X241782Y-331551D01*
X243349Y-330349D01*
X244551Y-328782D01*
X245307Y-326958D01*
X245565Y-325000D01*
X245328Y-323199D01*
X245760Y-322576D01*
X246243Y-322078D01*
X252489D01*
X253116Y-323348D01*
X252449Y-324218D01*
X251693Y-326042D01*
X251435Y-328000D01*
X251693Y-329958D01*
X252449Y-331782D01*
X253651Y-333349D01*
X255218Y-334551D01*
X255718Y-334759D01*
X255843Y-336023D01*
X255651Y-336151D01*
X254739Y-337515D01*
X254723Y-337595D01*
X254651Y-337651D01*
X253449Y-339218D01*
X252693Y-341042D01*
X252435Y-343000D01*
X252693Y-344958D01*
X253449Y-346782D01*
X253622Y-347007D01*
X252821Y-348051D01*
X251958Y-347693D01*
X250000Y-347435D01*
X248042Y-347693D01*
X246218Y-348449D01*
X244651Y-349651D01*
X243449Y-351218D01*
X242693Y-353042D01*
X242435Y-355000D01*
X242693Y-356958D01*
X243449Y-358782D01*
X244651Y-360349D01*
X245412Y-360933D01*
Y-369108D01*
X244142Y-369725D01*
X242827Y-369180D01*
X241000Y-368940D01*
X239173Y-369180D01*
X237470Y-369885D01*
X236008Y-371008D01*
X234886Y-372470D01*
X234180Y-374173D01*
X233940Y-376000D01*
X234180Y-377827D01*
X234886Y-379530D01*
X236008Y-380993D01*
X236454Y-381335D01*
X236137Y-382693D01*
X235939Y-382732D01*
X234616Y-383616D01*
X234616Y-383616D01*
X233285Y-384947D01*
X232112Y-384461D01*
Y-384270D01*
X225000D01*
Y-381730D01*
X232112D01*
Y-379125D01*
X231828Y-377695D01*
X231071Y-376562D01*
X231020Y-376445D01*
X231104Y-375013D01*
X231349Y-374849D01*
X232261Y-373484D01*
X232581Y-371875D01*
Y-364125D01*
X232261Y-362515D01*
X231349Y-361151D01*
X229984Y-360239D01*
X228375Y-359919D01*
X226645D01*
X226119Y-358649D01*
X228708Y-356059D01*
X229000Y-356118D01*
X231341Y-355652D01*
X233326Y-354326D01*
X234652Y-352341D01*
X235117Y-350000D01*
X234652Y-347659D01*
X233326Y-345674D01*
X231341Y-344348D01*
X230328Y-344147D01*
X230581Y-342875D01*
Y-335125D01*
X230261Y-333516D01*
X229349Y-332151D01*
X227985Y-331239D01*
X226375Y-330919D01*
X219625D01*
X218015Y-331239D01*
X216877Y-332000D01*
X212123D01*
X210984Y-331239D01*
X209375Y-330919D01*
X202625D01*
X201015Y-331239D01*
X199651Y-332151D01*
X198739Y-333516D01*
X198419Y-335125D01*
Y-342875D01*
X197415Y-344198D01*
X196659Y-344348D01*
X194674Y-345674D01*
X194190Y-346398D01*
X193116Y-347116D01*
X178811Y-361422D01*
X178531D01*
X177250Y-361167D01*
X171833D01*
Y-355750D01*
X171503Y-354092D01*
X170564Y-352686D01*
X169158Y-351747D01*
X167500Y-351417D01*
X165842Y-351747D01*
X165000Y-352309D01*
X164158Y-351747D01*
X162500Y-351417D01*
X160842Y-351747D01*
X160000Y-352309D01*
X159158Y-351747D01*
X157500Y-351417D01*
X155842Y-351747D01*
X155000Y-352309D01*
X154158Y-351747D01*
X152500Y-351417D01*
X150842Y-351747D01*
X149586Y-352586D01*
X148979Y-352180D01*
X147709Y-351927D01*
X147399Y-351287D01*
X147290Y-350648D01*
X147493Y-350493D01*
X148615Y-349030D01*
X149320Y-347327D01*
X149560Y-345500D01*
X149320Y-343673D01*
X148615Y-341970D01*
X147493Y-340508D01*
X146030Y-339386D01*
X144327Y-338680D01*
X142500Y-338440D01*
X140673Y-338680D01*
X138970Y-339386D01*
X137508Y-340508D01*
X136386Y-341970D01*
X135680Y-343673D01*
X135440Y-345500D01*
X135680Y-347327D01*
X136386Y-349030D01*
X137263Y-350173D01*
X137018Y-351233D01*
X136806Y-351555D01*
X135842Y-351747D01*
X135000Y-352309D01*
X134158Y-351747D01*
X132500Y-351417D01*
X130842Y-351747D01*
X129436Y-352686D01*
X128497Y-354092D01*
X128167Y-355750D01*
Y-361167D01*
X122750D01*
X121469Y-361422D01*
X116534D01*
X115686Y-360152D01*
X115820Y-359827D01*
X116060Y-358000D01*
X115820Y-356173D01*
X115114Y-354470D01*
X113993Y-353008D01*
X112530Y-351886D01*
X110827Y-351180D01*
X109000Y-350940D01*
X107173Y-351180D01*
X105470Y-351886D01*
X104008Y-353008D01*
X102886Y-354470D01*
X102180Y-356173D01*
X101940Y-358000D01*
X102180Y-359827D01*
X102886Y-361530D01*
X104008Y-362993D01*
X104967Y-363729D01*
X105041Y-363899D01*
Y-365101D01*
X104967Y-365271D01*
X104008Y-366007D01*
X102886Y-367470D01*
X102810Y-367653D01*
X102116Y-368116D01*
X102116Y-368116D01*
X96813Y-373419D01*
X91125D01*
X89515Y-373739D01*
X88151Y-374651D01*
X87239Y-376016D01*
X86919Y-377625D01*
Y-384375D01*
X87239Y-385984D01*
X88000Y-387123D01*
Y-391877D01*
X87239Y-393016D01*
X86919Y-394625D01*
Y-401375D01*
X87239Y-402985D01*
X88109Y-404286D01*
X88180Y-404827D01*
X88885Y-406530D01*
X90007Y-407993D01*
X91470Y-409114D01*
X93173Y-409820D01*
X95000Y-410060D01*
X96827Y-409820D01*
X98530Y-409114D01*
X99992Y-407993D01*
X101115Y-406530D01*
X101820Y-404827D01*
X101891Y-404286D01*
X102761Y-402985D01*
X102844Y-402563D01*
X103381Y-402300D01*
X104220Y-402156D01*
X105470Y-403115D01*
X107173Y-403820D01*
X109000Y-404060D01*
X110827Y-403820D01*
X112530Y-403115D01*
X113993Y-401992D01*
X115114Y-400530D01*
X115820Y-398827D01*
X116060Y-397000D01*
X115910Y-395857D01*
X116970Y-394797D01*
X118348Y-394845D01*
X118886Y-395500D01*
X119180Y-396979D01*
X119586Y-397586D01*
X118747Y-398842D01*
X118417Y-400500D01*
X118747Y-402158D01*
X119686Y-403564D01*
X121092Y-404503D01*
X122750Y-404833D01*
X128167D01*
Y-410250D01*
X128302Y-410930D01*
X125986Y-413246D01*
X125827Y-413180D01*
X124000Y-412940D01*
X122173Y-413180D01*
X120470Y-413885D01*
X119008Y-415008D01*
X117886Y-416470D01*
X117180Y-418173D01*
X116940Y-420000D01*
X117180Y-421827D01*
X117886Y-423530D01*
X119008Y-424992D01*
X120470Y-426115D01*
X122173Y-426820D01*
X124000Y-427060D01*
X125827Y-426820D01*
X127530Y-426115D01*
X128993Y-424992D01*
X130114Y-423530D01*
X130820Y-421827D01*
X131060Y-420000D01*
X131026Y-419741D01*
X133007Y-417761D01*
X133558Y-417954D01*
X134148Y-418415D01*
X133940Y-420000D01*
X134180Y-421827D01*
X134886Y-423530D01*
X136008Y-424992D01*
X137470Y-426115D01*
X139173Y-426820D01*
X141000Y-427060D01*
X142827Y-426820D01*
X144530Y-426115D01*
X145697Y-425219D01*
X147251Y-425159D01*
X147508Y-425492D01*
X148970Y-426614D01*
X150673Y-427320D01*
X152500Y-427560D01*
X154327Y-427320D01*
X156030Y-426614D01*
X157493Y-425492D01*
X158615Y-424030D01*
X159320Y-422327D01*
X159560Y-420500D01*
X159320Y-418673D01*
X158615Y-416970D01*
X157738Y-415827D01*
X157982Y-414767D01*
X158194Y-414445D01*
X159158Y-414253D01*
X160000Y-413691D01*
X160842Y-414253D01*
X162500Y-414583D01*
X163422Y-415340D01*
Y-417218D01*
X163732Y-418778D01*
X164616Y-420102D01*
X165939Y-420985D01*
X167500Y-421296D01*
X183782D01*
X183782Y-421296D01*
X185343Y-420985D01*
X186666Y-420102D01*
X189689Y-417078D01*
X230132D01*
X230980Y-418348D01*
X230693Y-419042D01*
X230435Y-421000D01*
X230693Y-422958D01*
X231449Y-424782D01*
X232651Y-426349D01*
X234218Y-427551D01*
X234879Y-427825D01*
X235127Y-429071D01*
X218756Y-445442D01*
X217761Y-446930D01*
X217412Y-448686D01*
Y-456697D01*
X217008Y-457007D01*
X215886Y-458470D01*
X215180Y-460173D01*
X214940Y-462000D01*
X215180Y-463827D01*
X215886Y-465530D01*
X217008Y-466992D01*
X218470Y-468115D01*
X220173Y-468820D01*
X219870Y-470000D01*
X35619D01*
X35431Y-468730D01*
X37498Y-468103D01*
X40886Y-466292D01*
X43855Y-463855D01*
X46292Y-460886D01*
X48103Y-457498D01*
X49218Y-453823D01*
X49594Y-450000D01*
X49218Y-446177D01*
X48103Y-442502D01*
X46292Y-439114D01*
X43855Y-436145D01*
X40886Y-433708D01*
X37498Y-431897D01*
X33823Y-430782D01*
X30000Y-430406D01*
X26177Y-430782D01*
X22502Y-431897D01*
X19114Y-433708D01*
X16145Y-436145D01*
X13708Y-439114D01*
X11897Y-442502D01*
X11270Y-444569D01*
X10000Y-444381D01*
Y-356651D01*
X11247Y-356408D01*
X12000Y-357536D01*
Y-363292D01*
X11680Y-363771D01*
X11386Y-365250D01*
Y-367730D01*
X30614D01*
Y-365250D01*
X30320Y-363771D01*
X30000Y-363292D01*
Y-357536D01*
X30753Y-356408D01*
X30884Y-355750D01*
X34392D01*
Y-362538D01*
X33739Y-363516D01*
X33419Y-365125D01*
Y-372875D01*
X33739Y-374484D01*
X34651Y-375849D01*
X35392Y-376344D01*
Y-387656D01*
X34651Y-388151D01*
X33739Y-389515D01*
X33419Y-391125D01*
Y-398875D01*
X33739Y-400485D01*
X33867Y-400676D01*
X33282Y-402087D01*
X32515Y-402239D01*
X31377Y-403000D01*
X26623D01*
X25484Y-402239D01*
X23875Y-401919D01*
X17125D01*
X15516Y-402239D01*
X14151Y-403151D01*
X13239Y-404515D01*
X12919Y-406125D01*
Y-407496D01*
X12693Y-408042D01*
X12435Y-410000D01*
X12693Y-411958D01*
X12919Y-412504D01*
Y-413875D01*
X13239Y-415485D01*
X14151Y-416849D01*
X15516Y-417761D01*
X17125Y-418081D01*
X23875D01*
X25484Y-417761D01*
X26623Y-417000D01*
X31377D01*
X32515Y-417761D01*
X34125Y-418081D01*
X40875D01*
X41939Y-417869D01*
X59919Y-435850D01*
Y-439875D01*
X60239Y-441484D01*
X61151Y-442849D01*
X62000Y-443416D01*
Y-446584D01*
X61151Y-447151D01*
X60239Y-448516D01*
X59919Y-450125D01*
Y-456875D01*
X60239Y-458484D01*
X61151Y-459849D01*
X62516Y-460761D01*
X64125Y-461081D01*
X71875D01*
X73260Y-460805D01*
X74193Y-461082D01*
X74602Y-461267D01*
X74693Y-461958D01*
X75449Y-463782D01*
X76651Y-465349D01*
X78218Y-466551D01*
X80042Y-467307D01*
X82000Y-467565D01*
X83958Y-467307D01*
X85782Y-466551D01*
X87349Y-465349D01*
X88551Y-463782D01*
X89307Y-461958D01*
X89565Y-460000D01*
X89307Y-458042D01*
X88551Y-456218D01*
X87349Y-454651D01*
X85782Y-453449D01*
X83958Y-452693D01*
X82000Y-452435D01*
X81049Y-452561D01*
X78744Y-450256D01*
X77256Y-449261D01*
X75854Y-448982D01*
X75761Y-448516D01*
X74849Y-447151D01*
X74000Y-446584D01*
Y-443416D01*
X74849Y-442849D01*
X75761Y-441484D01*
X76081Y-439875D01*
Y-433125D01*
X75761Y-431516D01*
X74849Y-430151D01*
X73485Y-429239D01*
X71875Y-428919D01*
X68850D01*
X45965Y-406035D01*
X44925Y-405339D01*
X44761Y-404515D01*
X44633Y-404324D01*
X45217Y-402913D01*
X45985Y-402761D01*
X47349Y-401849D01*
X47916Y-401000D01*
X51084D01*
X51651Y-401849D01*
X53015Y-402761D01*
X54625Y-403081D01*
X61375D01*
X62984Y-402761D01*
X63346Y-402519D01*
X64958Y-402307D01*
X66782Y-401551D01*
X68349Y-400349D01*
X69551Y-398782D01*
X70307Y-396958D01*
X70565Y-395000D01*
X70307Y-393042D01*
X69551Y-391218D01*
X68349Y-389651D01*
X66782Y-388449D01*
X64958Y-387693D01*
X63346Y-387481D01*
X62984Y-387239D01*
X61375Y-386919D01*
X54625D01*
X53015Y-387239D01*
X51651Y-388151D01*
X51084Y-389000D01*
X47916D01*
X47349Y-388151D01*
X46608Y-387656D01*
Y-376344D01*
X47123Y-376000D01*
X52705D01*
X53195Y-376327D01*
X54625Y-376612D01*
X56730D01*
Y-369000D01*
X59270D01*
Y-376612D01*
X61375D01*
X62805Y-376327D01*
X64017Y-375517D01*
X64118Y-375366D01*
X65317Y-375730D01*
X73000D01*
Y-377000D01*
D01*
Y-375730D01*
X80612D01*
Y-373625D01*
X80327Y-372195D01*
X80000Y-371705D01*
Y-366123D01*
X80761Y-364985D01*
X81081Y-363375D01*
Y-356625D01*
X80761Y-355015D01*
X79849Y-353651D01*
X79559Y-353457D01*
X79820Y-352827D01*
X80060Y-350999D01*
X79820Y-349172D01*
X79284Y-347879D01*
X79914Y-346609D01*
X84500D01*
X85881Y-346335D01*
X87052Y-345552D01*
X87835Y-344381D01*
X88109Y-343000D01*
Y-341270D01*
X79000D01*
Y-338730D01*
X88109D01*
Y-337000D01*
X87835Y-335619D01*
X87500Y-335118D01*
Y-325710D01*
X88268Y-324561D01*
X88578Y-323000D01*
Y-317000D01*
X88268Y-315439D01*
X87384Y-314116D01*
X86061Y-313232D01*
X84500Y-312922D01*
X79689D01*
X76884Y-310116D01*
X75561Y-309232D01*
X74000Y-308922D01*
X74000Y-308922D01*
X64342D01*
X64261Y-308515D01*
X63349Y-307151D01*
X61985Y-306239D01*
X60375Y-305919D01*
X54687D01*
X52578Y-303811D01*
Y-302081D01*
X54375D01*
X55985Y-301761D01*
X57123Y-301000D01*
X61877D01*
X63016Y-301761D01*
X64625Y-302081D01*
X71375D01*
X72985Y-301761D01*
X73750Y-301249D01*
X74516Y-301761D01*
X76125Y-302081D01*
X83875D01*
X85485Y-301761D01*
X86849Y-300849D01*
X87761Y-299485D01*
X88081Y-297875D01*
Y-291125D01*
X87761Y-289515D01*
X87000Y-288377D01*
Y-283623D01*
X87761Y-282484D01*
X88081Y-280875D01*
Y-274125D01*
X87761Y-272516D01*
X86849Y-271151D01*
X85485Y-270239D01*
X83875Y-269919D01*
X76125D01*
X75217Y-270100D01*
X74000Y-269940D01*
X73192Y-270046D01*
X71985Y-269239D01*
X70375Y-268919D01*
X63625D01*
X62016Y-269239D01*
X60877Y-270000D01*
X56123D01*
X54984Y-269239D01*
X53375Y-268919D01*
X46625D01*
X45016Y-269239D01*
X43651Y-270151D01*
X42739Y-271516D01*
X42419Y-273125D01*
Y-278813D01*
X38116Y-283116D01*
X37232Y-284439D01*
X36922Y-286000D01*
X36922Y-286000D01*
Y-305919D01*
X36625D01*
X35015Y-306239D01*
X33651Y-307151D01*
X32739Y-308515D01*
X32460Y-309922D01*
X24000D01*
X22439Y-310232D01*
X22159Y-310419D01*
X16125D01*
X14516Y-310739D01*
X13151Y-311651D01*
X12239Y-313015D01*
X11919Y-314625D01*
Y-321375D01*
X12239Y-322985D01*
X13000Y-324123D01*
Y-328877D01*
X12239Y-330015D01*
X11919Y-331625D01*
Y-338375D01*
X12239Y-339985D01*
X13151Y-341349D01*
X13947Y-341881D01*
X13679Y-343229D01*
X13592Y-343247D01*
X12186Y-344186D01*
X11247Y-345592D01*
X10000Y-345349D01*
Y-35619D01*
X11270Y-35431D01*
X11897Y-37498D01*
X13708Y-40886D01*
X16145Y-43855D01*
X19114Y-46292D01*
X22502Y-48103D01*
X26177Y-49218D01*
X30000Y-49594D01*
X33823Y-49218D01*
X37498Y-48103D01*
X40886Y-46292D01*
X43855Y-43855D01*
X46292Y-40886D01*
X48103Y-37498D01*
X49218Y-33823D01*
X49594Y-30000D01*
X49218Y-26177D01*
X48103Y-22502D01*
X46292Y-19114D01*
X43855Y-16145D01*
X40886Y-13708D01*
X37498Y-11897D01*
X35431Y-11270D01*
X35619Y-10000D01*
X154000D01*
Y-45435D01*
D02*
G37*
G36*
X371919Y-59548D02*
Y-62375D01*
X372239Y-63984D01*
X373151Y-65349D01*
X374000Y-65916D01*
Y-69084D01*
X373151Y-69651D01*
X372239Y-71016D01*
X371919Y-72625D01*
Y-79375D01*
X372239Y-80984D01*
X373151Y-82349D01*
X374515Y-83261D01*
X376125Y-83581D01*
X383875D01*
X385485Y-83261D01*
X386462Y-82608D01*
X391500D01*
Y-83250D01*
X396892D01*
Y-86500D01*
X393000D01*
Y-90550D01*
X391730Y-91176D01*
X390782Y-90449D01*
X388958Y-89693D01*
X387346Y-89481D01*
X386984Y-89239D01*
X385375Y-88919D01*
X378625D01*
X377015Y-89239D01*
X375877Y-90000D01*
X371123D01*
X369985Y-89239D01*
X368375Y-88919D01*
X361625D01*
X360015Y-89239D01*
X358651Y-90151D01*
X357739Y-91516D01*
X357419Y-93125D01*
Y-97217D01*
X354756Y-99881D01*
X353761Y-101369D01*
X353412Y-103125D01*
Y-173067D01*
X352651Y-173651D01*
X351449Y-175218D01*
X350693Y-177042D01*
X350435Y-179000D01*
X350693Y-180958D01*
X351449Y-182782D01*
X352651Y-184349D01*
X354218Y-185551D01*
X356042Y-186307D01*
X358000Y-186565D01*
X359958Y-186307D01*
X361782Y-185551D01*
X363349Y-184349D01*
X364551Y-182782D01*
X365307Y-180958D01*
X365565Y-179000D01*
X365307Y-177042D01*
X364551Y-175218D01*
X363349Y-173651D01*
X362588Y-173067D01*
Y-105081D01*
X368375D01*
X369985Y-104761D01*
X371123Y-104000D01*
X375877D01*
X377015Y-104761D01*
X378625Y-105081D01*
X385375D01*
X386984Y-104761D01*
X387346Y-104519D01*
X388958Y-104307D01*
X390782Y-103551D01*
X391730Y-102824D01*
X393000Y-103450D01*
Y-107500D01*
X410730D01*
X412000Y-107500D01*
Y-107500D01*
X412000D01*
Y-107500D01*
X431000D01*
Y-91608D01*
X435500D01*
Y-98711D01*
X435477Y-98727D01*
X434703Y-99884D01*
X434431Y-101250D01*
Y-103803D01*
X434392Y-104000D01*
X434431Y-104197D01*
Y-106750D01*
X434703Y-108116D01*
X435477Y-109273D01*
X435494Y-109285D01*
X435739Y-110515D01*
X435419Y-112125D01*
Y-119875D01*
X435739Y-121484D01*
X436651Y-122849D01*
X437192Y-123210D01*
Y-124790D01*
X436651Y-125151D01*
X435739Y-126516D01*
X435419Y-128125D01*
Y-135875D01*
X435739Y-137485D01*
X436651Y-138849D01*
X437192Y-139210D01*
Y-158000D01*
X437192Y-158000D01*
X437424Y-159762D01*
X438104Y-161404D01*
X439186Y-162814D01*
X445186Y-168814D01*
X446596Y-169896D01*
X448238Y-170576D01*
X449119Y-170692D01*
X450000Y-170808D01*
X450000Y-170808D01*
X452838D01*
X454042Y-171307D01*
X456000Y-171565D01*
X457958Y-171307D01*
X459782Y-170551D01*
X461349Y-169349D01*
X462551Y-167782D01*
X463307Y-165958D01*
X463565Y-164000D01*
X463307Y-162042D01*
X462551Y-160218D01*
X461349Y-158651D01*
X459782Y-157449D01*
X457958Y-156693D01*
X456000Y-156435D01*
X454042Y-156693D01*
X452838Y-157192D01*
X452820D01*
X450808Y-155180D01*
Y-139000D01*
X453877D01*
X455015Y-139761D01*
X456625Y-140081D01*
X463375D01*
X464985Y-139761D01*
X465730Y-139263D01*
X467000Y-139941D01*
Y-242000D01*
X438883Y-242426D01*
X437731Y-241263D01*
X437747Y-240682D01*
X437814Y-240588D01*
X442328D01*
X444000Y-240808D01*
X445762Y-240576D01*
X447404Y-239896D01*
X448814Y-238814D01*
X449896Y-237404D01*
X450576Y-235762D01*
X450808Y-234000D01*
Y-229500D01*
Y-220000D01*
X450576Y-218238D01*
X449896Y-216596D01*
X448814Y-215186D01*
X447404Y-214104D01*
X446018Y-213530D01*
X445744Y-213256D01*
X444256Y-212261D01*
X442500Y-211912D01*
X441045D01*
Y-211550D01*
X429567D01*
X429136Y-210280D01*
X430349Y-209349D01*
X431551Y-207782D01*
X432307Y-205958D01*
X432509Y-204421D01*
X433465Y-203465D01*
X434110Y-202500D01*
X436000D01*
Y-183500D01*
X430042D01*
X429500Y-183392D01*
X428958Y-183500D01*
X420542D01*
X420000Y-183392D01*
X419458Y-183500D01*
X404000D01*
Y-187561D01*
X403186Y-188186D01*
X401270Y-190102D01*
X400000Y-189576D01*
Y-185000D01*
X398000Y-183000D01*
X388000D01*
X386000Y-185000D01*
Y-191377D01*
X385790Y-191692D01*
X382162D01*
X382000Y-191584D01*
Y-188416D01*
X382849Y-187849D01*
X383761Y-186485D01*
X384081Y-184875D01*
Y-178125D01*
X383761Y-176516D01*
X382849Y-175151D01*
X381484Y-174239D01*
X379875Y-173919D01*
X378504D01*
X377958Y-173693D01*
X376000Y-173435D01*
X374042Y-173693D01*
X373496Y-173919D01*
X372125D01*
X370516Y-174239D01*
X369151Y-175151D01*
X368239Y-176516D01*
X367919Y-178125D01*
Y-184875D01*
X368239Y-186485D01*
X369151Y-187849D01*
X370000Y-188416D01*
Y-191584D01*
X369151Y-192151D01*
X368239Y-193515D01*
X367919Y-195125D01*
Y-201875D01*
X368239Y-203484D01*
X369151Y-204849D01*
X370516Y-205761D01*
X372125Y-206081D01*
X379875D01*
X381484Y-205761D01*
X382162Y-205308D01*
X392500D01*
X394228Y-205081D01*
X396875D01*
X398245Y-204808D01*
X403000D01*
X403000Y-204808D01*
X403881Y-204692D01*
X404762Y-204576D01*
X406404Y-203896D01*
X407814Y-202814D01*
X408128Y-202500D01*
X415724D01*
X416035Y-202965D01*
X417491Y-204421D01*
X417693Y-205958D01*
X418449Y-207782D01*
X419651Y-209349D01*
X420864Y-210280D01*
X420433Y-211550D01*
X411450D01*
X411450Y-211550D01*
X411045D01*
Y-211550D01*
X410180Y-211550D01*
X397045D01*
Y-211902D01*
X396494Y-212011D01*
X395006Y-213006D01*
X394011Y-214494D01*
X393662Y-216250D01*
Y-216454D01*
X391816Y-218300D01*
X379000D01*
Y-224518D01*
X377730Y-225197D01*
X377366Y-224953D01*
X376000Y-224681D01*
X372000D01*
X370634Y-224953D01*
X369477Y-225727D01*
X368703Y-226884D01*
X368431Y-228250D01*
Y-233750D01*
X368703Y-235116D01*
X369477Y-236273D01*
X369500Y-236289D01*
Y-243711D01*
X369477Y-243727D01*
X368703Y-244884D01*
X368431Y-246250D01*
Y-251750D01*
X368703Y-253116D01*
X369477Y-254273D01*
X370634Y-255047D01*
X372000Y-255319D01*
X376000D01*
X377366Y-255047D01*
X377903Y-254688D01*
X378670Y-254897D01*
X379302Y-255220D01*
X380139Y-257239D01*
X380419Y-257605D01*
X380566Y-258137D01*
X380820Y-258570D01*
X381012Y-259035D01*
X381350Y-259475D01*
X381631Y-259954D01*
X388631Y-268954D01*
X389387Y-269700D01*
X389290Y-271187D01*
X389055Y-271412D01*
X384500D01*
Y-267750D01*
X367500D01*
Y-280250D01*
X376300D01*
X378000Y-280588D01*
X399412D01*
Y-282500D01*
X399761Y-284256D01*
X400756Y-285744D01*
X401000Y-285989D01*
Y-288348D01*
X399730Y-288730D01*
X398000Y-287000D01*
X388000D01*
X386242Y-288758D01*
X384500Y-288412D01*
Y-286750D01*
X367500D01*
Y-299250D01*
X384261D01*
X384919Y-299908D01*
Y-303092D01*
X382599Y-305412D01*
X350000D01*
X348244Y-305761D01*
X346756Y-306756D01*
X342592Y-310919D01*
X337625D01*
X336016Y-311239D01*
X334877Y-312000D01*
X330123D01*
X328984Y-311239D01*
X327375Y-310919D01*
X321687D01*
X320022Y-309254D01*
X320508Y-308081D01*
X322875D01*
X324484Y-307761D01*
X325849Y-306849D01*
X326344Y-306108D01*
X327656D01*
X328151Y-306849D01*
X329515Y-307761D01*
X331125Y-308081D01*
X338875D01*
X340485Y-307761D01*
X341849Y-306849D01*
X342761Y-305484D01*
X343081Y-303875D01*
Y-301408D01*
X345239Y-299250D01*
X360500D01*
Y-286750D01*
X343500D01*
Y-287607D01*
X343185Y-287796D01*
X342000Y-288000D01*
X340000Y-286000D01*
X330000D01*
X328190Y-287810D01*
X326974Y-287409D01*
X327081Y-286875D01*
Y-280125D01*
X326761Y-278515D01*
X325849Y-277151D01*
X324608Y-276322D01*
Y-273000D01*
X330000D01*
X332000Y-271000D01*
Y-261000D01*
X330000Y-259000D01*
X324608D01*
Y-256178D01*
X325849Y-255349D01*
X326761Y-253985D01*
X327081Y-252375D01*
Y-245625D01*
X326761Y-244016D01*
X326000Y-242877D01*
Y-238123D01*
X326761Y-236985D01*
X327081Y-235375D01*
Y-230408D01*
X329901Y-227588D01*
X337253D01*
X337738Y-228762D01*
X337500Y-229000D01*
Y-239000D01*
X339309Y-240809D01*
X339420Y-241500D01*
X339309Y-242191D01*
X337500Y-244000D01*
Y-254000D01*
X339500Y-256000D01*
X345877D01*
X347015Y-256761D01*
X347412Y-256840D01*
Y-267750D01*
X343500D01*
Y-280250D01*
X360500D01*
Y-267750D01*
X356588D01*
Y-256840D01*
X356984Y-256761D01*
X358349Y-255849D01*
X359261Y-254485D01*
X359581Y-252875D01*
Y-245125D01*
X359261Y-243515D01*
X358453Y-242307D01*
X358325Y-241799D01*
Y-241201D01*
X358453Y-240693D01*
X359261Y-239485D01*
X359581Y-237875D01*
Y-230125D01*
X359261Y-228515D01*
X358349Y-227151D01*
X356984Y-226239D01*
X355375Y-225919D01*
X353408D01*
X347244Y-219756D01*
X345756Y-218761D01*
X344000Y-218412D01*
X328000D01*
X326244Y-218761D01*
X324756Y-219756D01*
X320092Y-224419D01*
X315125D01*
X313515Y-224739D01*
X312151Y-225651D01*
X311239Y-227015D01*
X311236Y-227030D01*
X309966Y-226905D01*
Y-200000D01*
X340000Y-169966D01*
X340000Y-111153D01*
X340576Y-109762D01*
X340808Y-108000D01*
X340808Y-108000D01*
Y-88000D01*
X342000D01*
Y-87565D01*
X346000D01*
X347958Y-87307D01*
X349782Y-86551D01*
X351349Y-85349D01*
X352551Y-83782D01*
X353307Y-81958D01*
X353565Y-80000D01*
X353307Y-78042D01*
X352551Y-76218D01*
X351349Y-74651D01*
X349782Y-73449D01*
X347958Y-72693D01*
X346000Y-72435D01*
X342000D01*
Y-72000D01*
X340000D01*
Y-66000D01*
X354361Y-55000D01*
X367372D01*
X371919Y-59548D01*
D02*
G37*
G36*
X398250Y-228250D02*
X399250Y-229250D01*
X401000Y-231000D01*
X392000Y-231000D01*
Y-221000D01*
X396750Y-216250D01*
X398250D01*
Y-228250D01*
D02*
G37*
G36*
X465000Y-341000D02*
X470000Y-346000D01*
Y-373690D01*
X468730Y-374646D01*
X467000Y-374418D01*
X464520Y-374744D01*
X462209Y-375702D01*
X460910Y-376698D01*
X460256Y-376261D01*
X458500Y-375912D01*
X454236D01*
X453750Y-374739D01*
X455049Y-373439D01*
X456000Y-373565D01*
X457958Y-373307D01*
X459782Y-372551D01*
X461349Y-371349D01*
X462551Y-369782D01*
X463307Y-367958D01*
X463565Y-366000D01*
X463307Y-364042D01*
X462551Y-362218D01*
X461349Y-360651D01*
X459782Y-359449D01*
X457958Y-358693D01*
X456000Y-358435D01*
X454042Y-358693D01*
X452218Y-359449D01*
X450651Y-360651D01*
X449449Y-362218D01*
X448693Y-364042D01*
X448435Y-366000D01*
X448560Y-366951D01*
X445099Y-370412D01*
X406000D01*
X404244Y-370761D01*
X402756Y-371756D01*
X397599Y-376912D01*
X372872D01*
X372024Y-375642D01*
X372307Y-374958D01*
X372565Y-373000D01*
X372307Y-371042D01*
X371551Y-369218D01*
X370349Y-367651D01*
X368782Y-366449D01*
X366958Y-365693D01*
X365000Y-365435D01*
X363042Y-365693D01*
X361218Y-366449D01*
X359651Y-367651D01*
X358449Y-369218D01*
X357693Y-371042D01*
X357579Y-371912D01*
X337202D01*
X336556Y-371444D01*
X336088Y-370798D01*
Y-366872D01*
X337358Y-366023D01*
X338041Y-366306D01*
X339999Y-366564D01*
X341957Y-366306D01*
X343782Y-365550D01*
X345348Y-364348D01*
X346550Y-362782D01*
X347306Y-360957D01*
X347564Y-358999D01*
X347306Y-357041D01*
X346769Y-355744D01*
X347376Y-354384D01*
X347958Y-354307D01*
X349782Y-353551D01*
X351349Y-352349D01*
X352551Y-350782D01*
X353307Y-348958D01*
X353565Y-347000D01*
X353307Y-345042D01*
X352551Y-343218D01*
X351349Y-341651D01*
X349782Y-340449D01*
X347958Y-339693D01*
X346000Y-339435D01*
X344042Y-339693D01*
X342218Y-340449D01*
X340651Y-341651D01*
X340067Y-342412D01*
X336050D01*
X335717Y-341907D01*
X335508Y-341142D01*
X336551Y-339782D01*
X337307Y-337958D01*
X337565Y-336000D01*
X337307Y-334042D01*
X336551Y-332218D01*
X335824Y-331270D01*
X336450Y-330000D01*
X369999D01*
X370652Y-331089D01*
X369897Y-332502D01*
X368782Y-336177D01*
X368406Y-340000D01*
X368782Y-343823D01*
X369897Y-347498D01*
X371708Y-350886D01*
X374145Y-353855D01*
X377114Y-356292D01*
X380502Y-358103D01*
X384177Y-359218D01*
X388000Y-359594D01*
X391823Y-359218D01*
X395499Y-358103D01*
X398886Y-356292D01*
X401855Y-353855D01*
X404292Y-350886D01*
X406103Y-347498D01*
X407218Y-343823D01*
X407594Y-340000D01*
X407218Y-336177D01*
X406103Y-332502D01*
X405348Y-331089D01*
X406001Y-330000D01*
X454000D01*
X465000Y-341000D01*
D02*
G37*
G36*
X281911Y-371000D02*
X282261Y-372756D01*
X282770Y-373518D01*
Y-374866D01*
X283076Y-374806D01*
X283586Y-374465D01*
X284744Y-375239D01*
X286500Y-375588D01*
X288256Y-375239D01*
X289000Y-374742D01*
X289744Y-375239D01*
X291500Y-375588D01*
X293256Y-375239D01*
X294000Y-374742D01*
X294744Y-375239D01*
X296500Y-375588D01*
X298256Y-375239D01*
X299000Y-374742D01*
X299744Y-375239D01*
X301500Y-375588D01*
X303256Y-375239D01*
X304000Y-374742D01*
X304744Y-375239D01*
X306500Y-375588D01*
X308256Y-375239D01*
X309000Y-374742D01*
X309744Y-375239D01*
X311500Y-375588D01*
X313256Y-375239D01*
X314000Y-374742D01*
X314744Y-375239D01*
X316500Y-375588D01*
X318256Y-375239D01*
X319000Y-374742D01*
X319744Y-375239D01*
X321500Y-375588D01*
X323256Y-375239D01*
X324000Y-374742D01*
X324744Y-375239D01*
X326500Y-375588D01*
X328256Y-375239D01*
X329000Y-374742D01*
X329744Y-375239D01*
X331306Y-375550D01*
X331771Y-375839D01*
X332161Y-376229D01*
X332450Y-376694D01*
X332761Y-378256D01*
X333258Y-379000D01*
X332761Y-379744D01*
X332412Y-381500D01*
X332761Y-383256D01*
X333258Y-384000D01*
X332761Y-384744D01*
X332412Y-386500D01*
X332761Y-388256D01*
X333258Y-389000D01*
X332761Y-389744D01*
X332412Y-391500D01*
X332761Y-393256D01*
X333535Y-394414D01*
X333194Y-394924D01*
X333134Y-395230D01*
X334482D01*
X335244Y-395739D01*
X337000Y-396089D01*
X344500D01*
Y-396911D01*
X337000D01*
X335244Y-397261D01*
X334482Y-397770D01*
X333134D01*
X333194Y-398076D01*
X333535Y-398586D01*
X332761Y-399744D01*
X332412Y-401500D01*
X332761Y-403256D01*
X333258Y-404000D01*
X332761Y-404744D01*
X332412Y-406500D01*
X332761Y-408256D01*
X333258Y-409000D01*
X332761Y-409744D01*
X332412Y-411500D01*
X332761Y-413256D01*
X333258Y-414000D01*
X332761Y-414744D01*
X332412Y-416500D01*
X332761Y-418256D01*
X333258Y-419000D01*
X332761Y-419744D01*
X332412Y-421500D01*
X332761Y-423256D01*
X333258Y-424000D01*
X332761Y-424744D01*
X332412Y-426500D01*
X332761Y-428256D01*
X333258Y-429000D01*
X332761Y-429744D01*
X332450Y-431306D01*
X332161Y-431771D01*
X331771Y-432161D01*
X331306Y-432450D01*
X329744Y-432761D01*
X328586Y-433535D01*
X328076Y-433194D01*
X327770Y-433134D01*
Y-434482D01*
X327261Y-435244D01*
X326911Y-437000D01*
Y-444500D01*
X326089D01*
Y-437000D01*
X325739Y-435244D01*
X325230Y-434482D01*
Y-433134D01*
X324924Y-433194D01*
X324414Y-433535D01*
X323256Y-432761D01*
X321500Y-432412D01*
X319744Y-432761D01*
X319000Y-433258D01*
X318256Y-432761D01*
X316500Y-432412D01*
X314744Y-432761D01*
X313586Y-433535D01*
X313076Y-433194D01*
X312770Y-433134D01*
Y-434482D01*
X312261Y-435244D01*
X311911Y-437000D01*
Y-444500D01*
X311089D01*
Y-437000D01*
X310739Y-435244D01*
X310230Y-434482D01*
Y-433134D01*
X309924Y-433194D01*
X309414Y-433535D01*
X308256Y-432761D01*
X306500Y-432412D01*
X304744Y-432761D01*
X304000Y-433258D01*
X303256Y-432761D01*
X301500Y-432412D01*
X299744Y-432761D01*
X299000Y-433258D01*
X298256Y-432761D01*
X296500Y-432412D01*
X294744Y-432761D01*
X294000Y-433258D01*
X293256Y-432761D01*
X291500Y-432412D01*
X289744Y-432761D01*
X289000Y-433258D01*
X288256Y-432761D01*
X286500Y-432412D01*
X284744Y-432761D01*
X284000Y-433258D01*
X283256Y-432761D01*
X281500Y-432412D01*
X279744Y-432761D01*
X279000Y-433258D01*
X278256Y-432761D01*
X276694Y-432450D01*
X276229Y-432161D01*
X275839Y-431771D01*
X275550Y-431306D01*
X275239Y-429744D01*
X274465Y-428586D01*
X274806Y-428076D01*
X274867Y-427770D01*
X273518D01*
X272756Y-427261D01*
X271000Y-426911D01*
X263500D01*
Y-426089D01*
X271000D01*
X272756Y-425739D01*
X273518Y-425230D01*
X274867D01*
X274806Y-424924D01*
X274465Y-424414D01*
X275239Y-423256D01*
X275588Y-421500D01*
X275239Y-419744D01*
X274742Y-419000D01*
X275239Y-418256D01*
X275588Y-416500D01*
X275239Y-414744D01*
X274742Y-414000D01*
X275239Y-413256D01*
X275588Y-411500D01*
X275239Y-409744D01*
X274742Y-409000D01*
X275239Y-408256D01*
X275588Y-406500D01*
X275239Y-404744D01*
X274742Y-404000D01*
X275239Y-403256D01*
X275588Y-401500D01*
X275239Y-399744D01*
X274742Y-399000D01*
X275239Y-398256D01*
X275588Y-396500D01*
X275239Y-394744D01*
X274742Y-394000D01*
X275239Y-393256D01*
X275588Y-391500D01*
X275239Y-389744D01*
X274742Y-389000D01*
X275239Y-388256D01*
X275588Y-386500D01*
X275239Y-384744D01*
X274742Y-384000D01*
X275239Y-383256D01*
X275588Y-381500D01*
X275239Y-379744D01*
X274742Y-379000D01*
X275239Y-378256D01*
X275550Y-376694D01*
X275839Y-376229D01*
X276229Y-375839D01*
X276694Y-375550D01*
X278256Y-375239D01*
X279414Y-374465D01*
X279924Y-374806D01*
X280230Y-374866D01*
Y-373518D01*
X280739Y-372756D01*
X281089Y-371000D01*
Y-363500D01*
X281911D01*
Y-371000D01*
D02*
G37*
G36*
X457707Y-386196D02*
X457745Y-386480D01*
X458702Y-388791D01*
X460225Y-390775D01*
X462209Y-392298D01*
X464520Y-393255D01*
X467000Y-393582D01*
X468730Y-393354D01*
X470000Y-394310D01*
Y-402489D01*
X468944Y-403194D01*
X468351Y-402948D01*
X467000Y-402771D01*
Y-412730D01*
Y-422689D01*
X468351Y-422512D01*
X468944Y-422266D01*
X470000Y-422971D01*
Y-439381D01*
X468730Y-439569D01*
X468103Y-437502D01*
X466292Y-434114D01*
X463855Y-431145D01*
X460886Y-428708D01*
X457498Y-426897D01*
X453823Y-425782D01*
X450000Y-425406D01*
X446177Y-425782D01*
X442502Y-426897D01*
X439114Y-428708D01*
X436145Y-431145D01*
X433708Y-434114D01*
X431897Y-437502D01*
X430782Y-441177D01*
X430406Y-445000D01*
X430782Y-448823D01*
X431897Y-452498D01*
X433708Y-455886D01*
X436145Y-458855D01*
X439114Y-461292D01*
X442502Y-463103D01*
X446177Y-464218D01*
X450000Y-464594D01*
X453823Y-464218D01*
X457498Y-463103D01*
X460886Y-461292D01*
X463855Y-458855D01*
X466292Y-455886D01*
X468103Y-452498D01*
X468730Y-450431D01*
X470000Y-450619D01*
Y-470000D01*
X426153D01*
X425500Y-469001D01*
Y-439001D01*
X424940D01*
Y-425001D01*
X425500D01*
Y-395001D01*
X415462D01*
X415030Y-393731D01*
X415992Y-392993D01*
X417114Y-391530D01*
X417820Y-389827D01*
X418060Y-388000D01*
X417844Y-386358D01*
X418058Y-385770D01*
X418514Y-385088D01*
X456600D01*
X457707Y-386196D01*
D02*
G37*
%LPC*%
G36*
X99540Y-12460D02*
X78270D01*
Y-28730D01*
X99540D01*
Y-12460D01*
D02*
G37*
G36*
X75730D02*
X54460D01*
Y-28730D01*
X75730D01*
Y-12460D01*
D02*
G37*
G36*
X99540Y-31270D02*
X78270D01*
Y-47540D01*
X99540D01*
Y-31270D01*
D02*
G37*
G36*
X75730D02*
X54460D01*
Y-47540D01*
X75730D01*
Y-31270D01*
D02*
G37*
G36*
X132000Y-60435D02*
X130042Y-60693D01*
X128218Y-61449D01*
X126651Y-62651D01*
X125449Y-64218D01*
X124693Y-66042D01*
X124435Y-68000D01*
X124693Y-69958D01*
X125449Y-71782D01*
X126651Y-73349D01*
X128218Y-74551D01*
X130042Y-75307D01*
X132000Y-75565D01*
X133958Y-75307D01*
X135782Y-74551D01*
X137349Y-73349D01*
X138551Y-71782D01*
X139307Y-69958D01*
X139565Y-68000D01*
X139307Y-66042D01*
X138551Y-64218D01*
X137349Y-62651D01*
X135782Y-61449D01*
X133958Y-60693D01*
X132000Y-60435D01*
D02*
G37*
G36*
X31000Y-104435D02*
X29042Y-104693D01*
X27218Y-105449D01*
X25651Y-106651D01*
X24449Y-108218D01*
X23693Y-110042D01*
X23435Y-112000D01*
X23693Y-113958D01*
X24449Y-115782D01*
X25651Y-117349D01*
X27218Y-118551D01*
X29042Y-119307D01*
X31000Y-119565D01*
X32958Y-119307D01*
X34782Y-118551D01*
X36349Y-117349D01*
X37551Y-115782D01*
X38307Y-113958D01*
X38565Y-112000D01*
X38307Y-110042D01*
X37551Y-108218D01*
X36349Y-106651D01*
X34782Y-105449D01*
X32958Y-104693D01*
X31000Y-104435D01*
D02*
G37*
G36*
X101000Y-107931D02*
X98912Y-108206D01*
X96966Y-109012D01*
X95294Y-110294D01*
X94012Y-111966D01*
X93206Y-113912D01*
X92931Y-116000D01*
X93206Y-118088D01*
X94012Y-120035D01*
X95294Y-121706D01*
X96966Y-122988D01*
X98912Y-123794D01*
X101000Y-124069D01*
X103088Y-123794D01*
X105035Y-122988D01*
X106706Y-121706D01*
X107988Y-120035D01*
X108794Y-118088D01*
X109069Y-116000D01*
X108794Y-113912D01*
X107988Y-111966D01*
X106706Y-110294D01*
X105035Y-109012D01*
X103088Y-108206D01*
X101000Y-107931D01*
D02*
G37*
G36*
X297730Y-126270D02*
X290883D01*
Y-132375D01*
X291187Y-133903D01*
X292052Y-135198D01*
X293347Y-136063D01*
X294875Y-136367D01*
X297730D01*
Y-126270D01*
D02*
G37*
G36*
X131000Y-127931D02*
X128912Y-128206D01*
X126966Y-129012D01*
X125294Y-130294D01*
X124012Y-131966D01*
X123206Y-133912D01*
X122931Y-136000D01*
X123206Y-138088D01*
X124012Y-140035D01*
X125294Y-141706D01*
X126966Y-142988D01*
X128912Y-143794D01*
X131000Y-144069D01*
X133088Y-143794D01*
X135035Y-142988D01*
X136706Y-141706D01*
X137988Y-140035D01*
X138794Y-138088D01*
X139069Y-136000D01*
X138794Y-133912D01*
X137988Y-131966D01*
X136706Y-130294D01*
X135035Y-129012D01*
X133088Y-128206D01*
X131000Y-127931D01*
D02*
G37*
G36*
X84625Y-165419D02*
X77875D01*
X76266Y-165739D01*
X75127Y-166500D01*
X70373D01*
X69234Y-165739D01*
X67625Y-165419D01*
X60875D01*
X59265Y-165739D01*
X57901Y-166651D01*
X56989Y-168015D01*
X56669Y-169625D01*
Y-176250D01*
X47540D01*
Y-170770D01*
X35270D01*
Y-177290D01*
X41000D01*
Y-191210D01*
X35270D01*
Y-197730D01*
X47540D01*
Y-192250D01*
X57500D01*
Y-187891D01*
X58634Y-187134D01*
X64187Y-181581D01*
X67625D01*
X69234Y-181261D01*
X70373Y-180500D01*
X75127D01*
X76266Y-181261D01*
X77875Y-181581D01*
X84625D01*
X86235Y-181261D01*
X87599Y-180349D01*
X88511Y-178985D01*
X88790Y-177578D01*
X109740D01*
X109822Y-177778D01*
X110864Y-179136D01*
X112222Y-180178D01*
X113803Y-180833D01*
X115500Y-181056D01*
X117197Y-180833D01*
X118778Y-180178D01*
X120136Y-179136D01*
X121178Y-177778D01*
X121218Y-177680D01*
X122727Y-177356D01*
X123472Y-177928D01*
X125053Y-178583D01*
X126750Y-178806D01*
X128447Y-178583D01*
X130028Y-177928D01*
X131386Y-176886D01*
X132428Y-175528D01*
X133083Y-173947D01*
X133306Y-172250D01*
X133083Y-170553D01*
X132428Y-168972D01*
X131386Y-167614D01*
X130028Y-166572D01*
X128447Y-165917D01*
X126750Y-165694D01*
X125053Y-165917D01*
X123472Y-166572D01*
X122114Y-167614D01*
X121072Y-168972D01*
X121032Y-169069D01*
X119523Y-169394D01*
X118778Y-168822D01*
X117197Y-168167D01*
X115500Y-167944D01*
X113803Y-168167D01*
X112222Y-168822D01*
X111441Y-169422D01*
X88790D01*
X88511Y-168015D01*
X87599Y-166651D01*
X86235Y-165739D01*
X84625Y-165419D01*
D02*
G37*
G36*
X47540Y-161710D02*
X35270D01*
Y-168230D01*
X47540D01*
Y-161710D01*
D02*
G37*
G36*
X32730D02*
X20460D01*
Y-168230D01*
X32730D01*
Y-161710D01*
D02*
G37*
G36*
Y-170770D02*
X20460D01*
Y-177290D01*
X32730D01*
Y-170770D01*
D02*
G37*
G36*
X231230Y-180388D02*
X229125D01*
X227695Y-180673D01*
X226483Y-181483D01*
X225672Y-182695D01*
X225388Y-184125D01*
Y-186730D01*
X231230D01*
Y-180388D01*
D02*
G37*
G36*
X153750Y-181386D02*
X149270D01*
Y-187730D01*
X157614D01*
Y-185250D01*
X157320Y-183771D01*
X156482Y-182518D01*
X155229Y-181680D01*
X153750Y-181386D01*
D02*
G37*
G36*
X146730D02*
X142250D01*
X140771Y-181680D01*
X139518Y-182518D01*
X138680Y-183771D01*
X138386Y-185250D01*
Y-187730D01*
X146730D01*
Y-181386D01*
D02*
G37*
G36*
X32730Y-191210D02*
X20460D01*
Y-197730D01*
X32730D01*
Y-191210D01*
D02*
G37*
G36*
X47540Y-200270D02*
X35270D01*
Y-206790D01*
X47540D01*
Y-200270D01*
D02*
G37*
G36*
X32730D02*
X20460D01*
Y-206790D01*
X32730D01*
Y-200270D01*
D02*
G37*
G36*
X108000Y-215443D02*
X106303Y-215667D01*
X104722Y-216322D01*
X103364Y-217364D01*
X102322Y-218722D01*
X101667Y-220303D01*
X101444Y-221999D01*
X101078Y-222417D01*
X100250D01*
X98592Y-222747D01*
X97186Y-223686D01*
X96247Y-225092D01*
X95917Y-226750D01*
Y-234250D01*
X96247Y-235908D01*
X97000Y-237036D01*
Y-242792D01*
X96680Y-243271D01*
X96386Y-244750D01*
Y-247230D01*
X106000D01*
Y-248500D01*
D01*
Y-247230D01*
X115614D01*
Y-244750D01*
X115320Y-243271D01*
X115000Y-242792D01*
Y-237036D01*
X115753Y-235908D01*
X116034Y-234500D01*
X122574D01*
X123000Y-234556D01*
X123426Y-234500D01*
X130750D01*
Y-222500D01*
X126510D01*
X126278Y-222322D01*
X124697Y-221667D01*
X123000Y-221444D01*
X121303Y-221667D01*
X119722Y-222322D01*
X119490Y-222500D01*
X115771D01*
X115000Y-222182D01*
X114496Y-221542D01*
X114333Y-220303D01*
X113678Y-218722D01*
X112636Y-217364D01*
X111278Y-216322D01*
X109697Y-215667D01*
X108000Y-215443D01*
D02*
G37*
G36*
X176000Y-218435D02*
X174042Y-218693D01*
X172218Y-219449D01*
X170651Y-220651D01*
X169449Y-222218D01*
X168693Y-224042D01*
X168435Y-226000D01*
X168693Y-227958D01*
X169449Y-229782D01*
X170651Y-231349D01*
X172218Y-232551D01*
X174042Y-233307D01*
X176000Y-233565D01*
X177958Y-233307D01*
X179782Y-232551D01*
X181349Y-231349D01*
X181933Y-230588D01*
X193954D01*
X194449Y-231782D01*
X195651Y-233349D01*
X197218Y-234551D01*
X199042Y-235307D01*
X201000Y-235565D01*
X202958Y-235307D01*
X204782Y-234551D01*
X206349Y-233349D01*
X207551Y-231782D01*
X208307Y-229958D01*
X208565Y-228000D01*
X208307Y-226042D01*
X207551Y-224218D01*
X206349Y-222651D01*
X204782Y-221449D01*
X202958Y-220693D01*
X201000Y-220435D01*
X199042Y-220693D01*
X197307Y-221412D01*
X181933D01*
X181349Y-220651D01*
X179782Y-219449D01*
X177958Y-218693D01*
X176000Y-218435D01*
D02*
G37*
G36*
X155290Y-230960D02*
X149270D01*
Y-236730D01*
X155290D01*
Y-230960D01*
D02*
G37*
G36*
X146730D02*
X140710D01*
Y-236730D01*
X146730D01*
Y-230960D01*
D02*
G37*
G36*
X155290Y-239270D02*
X149270D01*
Y-245040D01*
X155290D01*
Y-239270D01*
D02*
G37*
G36*
X146730D02*
X140710D01*
Y-245040D01*
X146730D01*
Y-239270D01*
D02*
G37*
G36*
X115614Y-249770D02*
X107270D01*
Y-256114D01*
X111750D01*
X113229Y-255820D01*
X114482Y-254982D01*
X115320Y-253729D01*
X115614Y-252250D01*
Y-249770D01*
D02*
G37*
G36*
X104730D02*
X96386D01*
Y-252250D01*
X96680Y-253729D01*
X97518Y-254982D01*
X98771Y-255820D01*
X100250Y-256114D01*
X104730D01*
Y-249770D01*
D02*
G37*
G36*
X243000Y-220406D02*
X239177Y-220782D01*
X235502Y-221897D01*
X232114Y-223708D01*
X229145Y-226145D01*
X226708Y-229114D01*
X224897Y-232502D01*
X223782Y-236177D01*
X223406Y-240000D01*
X223782Y-243823D01*
X224897Y-247498D01*
X226708Y-250886D01*
X229145Y-253855D01*
X232114Y-256292D01*
X235502Y-258103D01*
X239177Y-259218D01*
X243000Y-259594D01*
X246823Y-259218D01*
X250498Y-258103D01*
X253886Y-256292D01*
X256855Y-253855D01*
X259292Y-250886D01*
X261103Y-247498D01*
X262218Y-243823D01*
X262594Y-240000D01*
X262218Y-236177D01*
X261103Y-232502D01*
X259292Y-229114D01*
X256855Y-226145D01*
X253886Y-223708D01*
X250498Y-221897D01*
X246823Y-220782D01*
X243000Y-220406D01*
D02*
G37*
G36*
X43000D02*
X39177Y-220782D01*
X35502Y-221897D01*
X32114Y-223708D01*
X29145Y-226145D01*
X26708Y-229114D01*
X24897Y-232502D01*
X23782Y-236177D01*
X23406Y-240000D01*
X23782Y-243823D01*
X24897Y-247498D01*
X26708Y-250886D01*
X29145Y-253855D01*
X32114Y-256292D01*
X35502Y-258103D01*
X39177Y-259218D01*
X43000Y-259594D01*
X46823Y-259218D01*
X50498Y-258103D01*
X53886Y-256292D01*
X56855Y-253855D01*
X59292Y-250886D01*
X61103Y-247498D01*
X62218Y-243823D01*
X62594Y-240000D01*
X62218Y-236177D01*
X61103Y-232502D01*
X59292Y-229114D01*
X56855Y-226145D01*
X53886Y-223708D01*
X50498Y-221897D01*
X46823Y-220782D01*
X43000Y-220406D01*
D02*
G37*
G36*
X199000Y-281435D02*
X197042Y-281693D01*
X195218Y-282449D01*
X193651Y-283651D01*
X192449Y-285218D01*
X191693Y-287042D01*
X191435Y-289000D01*
X191693Y-290958D01*
X192449Y-292782D01*
X193651Y-294349D01*
X195218Y-295551D01*
X197042Y-296307D01*
X199000Y-296565D01*
X200958Y-296307D01*
X202782Y-295551D01*
X204349Y-294349D01*
X205551Y-292782D01*
X206307Y-290958D01*
X206565Y-289000D01*
X206307Y-287042D01*
X205551Y-285218D01*
X204349Y-283651D01*
X202782Y-282449D01*
X200958Y-281693D01*
X199000Y-281435D01*
D02*
G37*
G36*
X30614Y-370270D02*
X22270D01*
Y-376614D01*
X26750D01*
X28229Y-376320D01*
X29482Y-375482D01*
X30320Y-374229D01*
X30614Y-372750D01*
Y-370270D01*
D02*
G37*
G36*
X19730D02*
X11386D01*
Y-372750D01*
X11680Y-374229D01*
X12518Y-375482D01*
X13771Y-376320D01*
X15250Y-376614D01*
X19730D01*
Y-370270D01*
D02*
G37*
G36*
X80612Y-378270D02*
X74270D01*
Y-384112D01*
X76875D01*
X78305Y-383827D01*
X79517Y-383017D01*
X80327Y-381805D01*
X80612Y-380375D01*
Y-378270D01*
D02*
G37*
G36*
X71730D02*
X65388D01*
Y-380375D01*
X65673Y-381805D01*
X66483Y-383017D01*
X67695Y-383827D01*
X69125Y-384112D01*
X71730D01*
Y-378270D01*
D02*
G37*
G36*
X191000Y-443435D02*
X189042Y-443693D01*
X187218Y-444449D01*
X185651Y-445651D01*
X184449Y-447218D01*
X183693Y-449042D01*
X183435Y-451000D01*
X183693Y-452958D01*
X184449Y-454782D01*
X185651Y-456349D01*
X187218Y-457551D01*
X189042Y-458307D01*
X191000Y-458565D01*
X192958Y-458307D01*
X194782Y-457551D01*
X196349Y-456349D01*
X197551Y-454782D01*
X198307Y-452958D01*
X198565Y-451000D01*
X198307Y-449042D01*
X197551Y-447218D01*
X196349Y-445651D01*
X194782Y-444449D01*
X192958Y-443693D01*
X191000Y-443435D01*
D02*
G37*
G36*
X388000Y-120406D02*
X384177Y-120782D01*
X380502Y-121897D01*
X377114Y-123708D01*
X374145Y-126145D01*
X371708Y-129114D01*
X369897Y-132502D01*
X368782Y-136177D01*
X368406Y-140000D01*
X368782Y-143823D01*
X369897Y-147498D01*
X371708Y-150886D01*
X374145Y-153855D01*
X377114Y-156292D01*
X380502Y-158103D01*
X384177Y-159218D01*
X388000Y-159594D01*
X391823Y-159218D01*
X395499Y-158103D01*
X398886Y-156292D01*
X401855Y-153855D01*
X404292Y-150886D01*
X406103Y-147498D01*
X407218Y-143823D01*
X407594Y-140000D01*
X407218Y-136177D01*
X406103Y-132502D01*
X404292Y-129114D01*
X401855Y-126145D01*
X398886Y-123708D01*
X395499Y-121897D01*
X391823Y-120782D01*
X388000Y-120406D01*
D02*
G37*
G36*
X431000Y-134000D02*
X421000D01*
X419000Y-136000D01*
Y-142377D01*
X418239Y-143516D01*
X417919Y-145125D01*
Y-150092D01*
X413161Y-154850D01*
X411806Y-155756D01*
X409756Y-157806D01*
X408850Y-159161D01*
X408511Y-159500D01*
X404000D01*
Y-178500D01*
X417000D01*
Y-176000D01*
X435000D01*
Y-161000D01*
X421648D01*
X421162Y-159827D01*
X424908Y-156081D01*
X429875D01*
X431484Y-155761D01*
X432849Y-154849D01*
X433761Y-153484D01*
X434081Y-151875D01*
Y-145125D01*
X433761Y-143516D01*
X433000Y-142377D01*
Y-136000D01*
X431000Y-134000D01*
D02*
G37*
G36*
X457000Y-338435D02*
X455042Y-338693D01*
X453218Y-339449D01*
X451651Y-340651D01*
X450449Y-342218D01*
X449693Y-344042D01*
X449435Y-346000D01*
X449693Y-347958D01*
X450449Y-349782D01*
X451651Y-351349D01*
X453218Y-352551D01*
X455042Y-353307D01*
X457000Y-353565D01*
X458958Y-353307D01*
X460782Y-352551D01*
X462349Y-351349D01*
X463551Y-349782D01*
X464307Y-347958D01*
X464565Y-346000D01*
X464307Y-344042D01*
X463551Y-342218D01*
X462349Y-340651D01*
X460782Y-339449D01*
X458958Y-338693D01*
X457000Y-338435D01*
D02*
G37*
G36*
X441000Y-387418D02*
X438520Y-387744D01*
X436209Y-388702D01*
X434225Y-390224D01*
X432702Y-392209D01*
X431745Y-394520D01*
X431418Y-397000D01*
X431745Y-399480D01*
X432702Y-401791D01*
X434225Y-403775D01*
X436209Y-405298D01*
X438520Y-406255D01*
X441000Y-406582D01*
X443480Y-406255D01*
X445791Y-405298D01*
X447775Y-403775D01*
X449298Y-401791D01*
X450256Y-399480D01*
X450582Y-397000D01*
X450256Y-394520D01*
X449298Y-392209D01*
X447775Y-390224D01*
X445791Y-388702D01*
X443480Y-387744D01*
X441000Y-387418D01*
D02*
G37*
G36*
X464460Y-402771D02*
X463109Y-402948D01*
X460667Y-403960D01*
X458569Y-405569D01*
X456960Y-407667D01*
X455948Y-410109D01*
X455771Y-411460D01*
X464460D01*
Y-402771D01*
D02*
G37*
G36*
Y-414000D02*
X455771D01*
X455948Y-415351D01*
X456960Y-417793D01*
X458569Y-419891D01*
X460667Y-421500D01*
X463109Y-422512D01*
X464460Y-422689D01*
Y-414000D01*
D02*
G37*
%LPD*%
D10*
X106000Y-230500D02*
D03*
Y-248500D02*
D03*
X21000Y-369000D02*
D03*
Y-351000D02*
D03*
X148000Y-207000D02*
D03*
Y-189000D02*
D03*
D11*
X317500Y-266000D02*
D03*
X334500D02*
D03*
X443000Y-116000D02*
D03*
X460000D02*
D03*
X396000Y-41000D02*
D03*
X413000D02*
D03*
X266000Y-107000D02*
D03*
X283000D02*
D03*
X302500Y-88000D02*
D03*
X319500D02*
D03*
X222000Y-107000D02*
D03*
X239000D02*
D03*
X249500Y-188000D02*
D03*
X232500D02*
D03*
X262000Y-343000D02*
D03*
X279000D02*
D03*
X346500Y-461000D02*
D03*
X329500D02*
D03*
X263000Y-442000D02*
D03*
X246000D02*
D03*
X208000Y-368000D02*
D03*
X225000D02*
D03*
X208000Y-383000D02*
D03*
X225000D02*
D03*
X281000Y-288000D02*
D03*
X264000D02*
D03*
X67000Y-277000D02*
D03*
X50000D02*
D03*
X68000Y-294000D02*
D03*
X51000D02*
D03*
X58000Y-369000D02*
D03*
X41000D02*
D03*
X352000Y-249000D02*
D03*
X335000D02*
D03*
X41000Y-395000D02*
D03*
X58000D02*
D03*
X365000Y-97000D02*
D03*
X382000D02*
D03*
X460000Y-132000D02*
D03*
X443000D02*
D03*
X64250Y-173500D02*
D03*
X81250D02*
D03*
X20500Y-410000D02*
D03*
X37500D02*
D03*
X57000Y-314000D02*
D03*
X40000D02*
D03*
X352000Y-234000D02*
D03*
X335000D02*
D03*
X206000Y-339000D02*
D03*
X223000D02*
D03*
X341000Y-319000D02*
D03*
X324000D02*
D03*
X165500Y-207000D02*
D03*
X182500D02*
D03*
X194000Y-48000D02*
D03*
X177000D02*
D03*
D12*
X393000Y-197500D02*
D03*
Y-180500D02*
D03*
X197000Y-30500D02*
D03*
Y-13500D02*
D03*
X187000Y-79500D02*
D03*
Y-96500D02*
D03*
X203000Y-89000D02*
D03*
Y-106000D02*
D03*
X304000Y-55500D02*
D03*
Y-72500D02*
D03*
X95000Y-398000D02*
D03*
Y-381000D02*
D03*
X430000Y-249500D02*
D03*
Y-266500D02*
D03*
X335000Y-300500D02*
D03*
Y-283500D02*
D03*
X380000Y-59000D02*
D03*
Y-76000D02*
D03*
X68000Y-436500D02*
D03*
Y-453500D02*
D03*
X376000Y-198500D02*
D03*
Y-181500D02*
D03*
X319000Y-283500D02*
D03*
Y-300500D02*
D03*
X459000Y-84000D02*
D03*
Y-67000D02*
D03*
X80000Y-294500D02*
D03*
Y-277500D02*
D03*
X20000Y-318000D02*
D03*
Y-335000D02*
D03*
X426000Y-131500D02*
D03*
Y-148500D02*
D03*
X73000Y-377000D02*
D03*
Y-360000D02*
D03*
X410000Y-305500D02*
D03*
Y-288500D02*
D03*
X319000Y-249000D02*
D03*
Y-232000D02*
D03*
X393000Y-284500D02*
D03*
Y-301500D02*
D03*
D13*
X150000Y-53000D02*
D03*
X162000D02*
D03*
X150000Y-67000D02*
D03*
X162000D02*
D03*
X334000Y-80000D02*
D03*
X346000D02*
D03*
D14*
X280380Y-94750D02*
D03*
Y-88250D02*
D03*
Y-81750D02*
D03*
Y-75250D02*
D03*
Y-68750D02*
D03*
Y-62250D02*
D03*
Y-55750D02*
D03*
Y-49250D02*
D03*
X221620D02*
D03*
Y-55750D02*
D03*
Y-62250D02*
D03*
Y-68750D02*
D03*
Y-75250D02*
D03*
Y-81750D02*
D03*
Y-88250D02*
D03*
Y-94750D02*
D03*
D15*
X251000Y-72000D02*
D03*
D16*
X429000Y-279000D02*
D03*
X436000D02*
D03*
D17*
X150000Y-383000D02*
D03*
D18*
X125750Y-400500D02*
D03*
Y-395500D02*
D03*
Y-390500D02*
D03*
Y-385500D02*
D03*
Y-380500D02*
D03*
Y-375500D02*
D03*
Y-370500D02*
D03*
Y-365500D02*
D03*
X174250D02*
D03*
Y-370500D02*
D03*
Y-375500D02*
D03*
Y-380500D02*
D03*
Y-385500D02*
D03*
Y-390500D02*
D03*
Y-395500D02*
D03*
Y-400500D02*
D03*
D19*
X132500Y-358750D02*
D03*
X137500D02*
D03*
X142500D02*
D03*
X147500D02*
D03*
X152500D02*
D03*
X157500D02*
D03*
X162500D02*
D03*
X167500D02*
D03*
Y-407250D02*
D03*
X162500D02*
D03*
X157500D02*
D03*
X152500D02*
D03*
X147500D02*
D03*
X142500D02*
D03*
X137500D02*
D03*
X132500D02*
D03*
D20*
X440000Y-86000D02*
D03*
Y-104000D02*
D03*
X374000Y-249000D02*
D03*
Y-231000D02*
D03*
D21*
X331500Y-444500D02*
D03*
X326500D02*
D03*
X321500D02*
D03*
X316500D02*
D03*
X311500D02*
D03*
X306500D02*
D03*
X301500D02*
D03*
X296500D02*
D03*
X291500D02*
D03*
X286500D02*
D03*
X281500D02*
D03*
X276500D02*
D03*
Y-363500D02*
D03*
X281500D02*
D03*
X286500D02*
D03*
X291500D02*
D03*
X296500D02*
D03*
X301500D02*
D03*
X306500D02*
D03*
X311500D02*
D03*
X316500D02*
D03*
X321500D02*
D03*
X326500D02*
D03*
X331500D02*
D03*
D22*
X263500Y-431500D02*
D03*
Y-426500D02*
D03*
Y-421500D02*
D03*
Y-416500D02*
D03*
Y-411500D02*
D03*
Y-406500D02*
D03*
Y-401500D02*
D03*
Y-396500D02*
D03*
Y-391500D02*
D03*
Y-386500D02*
D03*
Y-381500D02*
D03*
Y-376500D02*
D03*
X344500D02*
D03*
Y-381500D02*
D03*
Y-386500D02*
D03*
Y-391500D02*
D03*
Y-396500D02*
D03*
Y-401500D02*
D03*
Y-406500D02*
D03*
Y-411500D02*
D03*
Y-416500D02*
D03*
Y-421500D02*
D03*
Y-426500D02*
D03*
Y-431500D02*
D03*
D23*
X400000Y-77000D02*
D03*
Y-58000D02*
D03*
X424000D02*
D03*
Y-67500D02*
D03*
Y-77000D02*
D03*
X37000Y-349500D02*
D03*
Y-330500D02*
D03*
X61000D02*
D03*
Y-340000D02*
D03*
Y-349500D02*
D03*
X352000Y-293000D02*
D03*
Y-274000D02*
D03*
X376000D02*
D03*
Y-283500D02*
D03*
Y-293000D02*
D03*
D24*
X276000Y-191000D02*
D03*
D25*
X253000Y-125000D02*
D03*
X276000D02*
D03*
D26*
X299000D02*
D03*
D27*
X49250Y-184250D02*
D03*
X436750Y-306250D02*
D03*
D28*
X34000Y-199000D02*
D03*
Y-169500D02*
D03*
X452000Y-291500D02*
D03*
Y-321000D02*
D03*
D29*
X421500Y-97000D02*
D03*
X402500D02*
D03*
D30*
X352000Y-37000D02*
D03*
X77000Y-30000D02*
D03*
D31*
X404045Y-216250D02*
D03*
Y-222750D02*
D03*
Y-229250D02*
D03*
Y-235750D02*
D03*
D32*
X434795Y-216250D02*
D03*
Y-222750D02*
D03*
Y-229250D02*
D03*
Y-235750D02*
D03*
D33*
X423000Y-226000D02*
D03*
D34*
X79000Y-340000D02*
D03*
Y-320000D02*
D03*
D35*
X417000Y-264000D02*
D03*
X397000D02*
D03*
D36*
X410500Y-193000D02*
D03*
X420000D02*
D03*
X429500D02*
D03*
Y-169000D02*
D03*
X420000D02*
D03*
X410500D02*
D03*
D37*
X392000Y-454001D02*
D03*
Y-410001D02*
D03*
X416000D02*
D03*
Y-454001D02*
D03*
D38*
X123000Y-228500D02*
D03*
D39*
X148000Y-219000D02*
D03*
D40*
X148000Y-238000D02*
D03*
D41*
X176000Y-226000D02*
X199000D01*
X201000Y-228000D01*
X462000Y-384000D02*
X467000D01*
X348500Y-376500D02*
X361500D01*
X360784Y-396500D02*
X376000D01*
X360784Y-396500D02*
X360784Y-396500D01*
X354071Y-396500D02*
X360784D01*
X354071Y-396500D02*
X354071Y-396500D01*
X344500Y-396500D02*
X354071D01*
X356142Y-401500D02*
X364571D01*
X356142Y-401500D02*
X356142Y-401500D01*
X348500Y-401500D02*
X356142D01*
X357000Y-406500D02*
X357893D01*
X357000Y-406500D02*
X357000Y-406500D01*
X348500Y-406500D02*
X357000D01*
X348500Y-411500D02*
X355429D01*
X348500Y-401500D02*
X348500Y-401500D01*
X330000Y-341000D02*
Y-336000D01*
X321500Y-349500D02*
X330000Y-341000D01*
X321500Y-363500D02*
Y-349500D01*
X297500Y-72500D02*
X303000D01*
X293750Y-68750D02*
X297500Y-72500D01*
X280380Y-68750D02*
X293750D01*
X187000Y-79500D02*
Y-73000D01*
X194000Y-66000D01*
X206750Y-68750D02*
X221620D01*
X203000Y-89000D02*
X210250Y-81750D01*
X221620D01*
X290750Y-94750D02*
X296000Y-100000D01*
Y-101000D02*
Y-100000D01*
X290250Y-75250D02*
X302750Y-87750D01*
X280380Y-75250D02*
X290250D01*
X299000Y-56000D02*
X303000D01*
X292750Y-62250D02*
X299000Y-56000D01*
X280380Y-62250D02*
X292750D01*
X280380Y-94750D02*
X290750D01*
X222000Y-102000D02*
Y-95130D01*
X281000Y-328000D02*
X291500Y-338500D01*
X259000Y-328000D02*
X281000D01*
X291500Y-363500D02*
Y-338500D01*
X296500Y-347500D02*
X301000Y-343000D01*
X296500Y-363500D02*
Y-347500D01*
X311500Y-344500D02*
X314000Y-342000D01*
X311500Y-363500D02*
Y-344500D01*
X332000Y-347000D02*
X346000D01*
X326500Y-352500D02*
X332000Y-347000D01*
X326500Y-363500D02*
Y-352500D01*
X321500Y-363500D02*
X321500Y-363500D01*
X202000Y-76000D02*
X220870D01*
X221620Y-75250D01*
X358000Y-103125D02*
X364125Y-97000D01*
X358000Y-179000D02*
Y-103125D01*
X413000Y-161500D02*
Y-161050D01*
X410500Y-164000D02*
X413000Y-161500D01*
X410500Y-169000D02*
Y-164000D01*
X331500Y-363500D02*
Y-354571D01*
X339999Y-358999D02*
Y-353999D01*
X339035Y-353036D02*
X339999Y-353999D01*
X333036Y-353036D02*
X339035D01*
X331535Y-354535D02*
X333036Y-353036D01*
X233500Y-368500D02*
X239000Y-363000D01*
X233500Y-374500D02*
Y-368500D01*
X225000Y-383000D02*
X233500Y-374500D01*
X250000Y-374000D02*
Y-355000D01*
Y-374000D02*
X252500Y-376500D01*
X276500Y-454500D02*
Y-444500D01*
X249186Y-421500D02*
X263500D01*
X222000Y-462000D02*
Y-448686D01*
X249186Y-421500D01*
X253571Y-426500D02*
X263500D01*
X248000Y-432071D02*
X253571Y-426500D01*
X248000Y-442500D02*
Y-432071D01*
X285000Y-300000D02*
X286000D01*
X284500Y-300500D02*
X285000Y-300000D01*
X252500Y-376500D02*
X263500D01*
X262000Y-350000D02*
Y-343000D01*
X338000Y-452000D02*
X346500D01*
X332000D02*
X338000D01*
Y-446000D01*
X257000Y-454500D02*
X276500D01*
X249500Y-462000D02*
X257000Y-454500D01*
X75500Y-453500D02*
X82000Y-460000D01*
X68000Y-453500D02*
X75500D01*
X291500Y-454071D02*
Y-444500D01*
X286500Y-458500D02*
Y-444500D01*
X262500Y-439000D02*
Y-432500D01*
X322500Y-396500D02*
X344500D01*
X311500Y-444500D02*
Y-425500D01*
X326500Y-444500D02*
Y-425500D01*
X263500Y-426500D02*
X283500D01*
X281500Y-383500D02*
Y-363500D01*
X262000Y-350000D02*
X265000Y-353000D01*
X276500D01*
Y-363500D02*
Y-353000D01*
X281500Y-363500D02*
Y-345500D01*
X246000Y-444500D02*
X248000Y-442500D01*
X346500Y-461000D02*
Y-452000D01*
X326500Y-458000D02*
Y-444500D01*
X346500Y-461000D02*
X352000D01*
X358500Y-454500D01*
Y-431500D01*
X344500D02*
X358500D01*
X344500Y-391500D02*
X344500Y-391500D01*
X348500Y-411500D02*
X348500Y-411500D01*
X210000Y-383000D02*
X225000Y-368000D01*
X208000Y-383000D02*
X210000D01*
X197000Y-368000D02*
X208000D01*
X195000Y-370000D02*
X197000Y-368000D01*
X195000Y-370000D02*
X195000D01*
X223000Y-344000D02*
Y-339000D01*
Y-344000D02*
X229000Y-350000D01*
X206000Y-343000D02*
Y-339000D01*
X199000Y-350000D02*
X206000Y-343000D01*
X384500Y-310000D02*
X393000Y-301500D01*
X350000Y-310000D02*
X384500D01*
X341000Y-319000D02*
X350000Y-310000D01*
X48500Y-359500D02*
X58000Y-369000D01*
X61000Y-340000D02*
X79000D01*
X48500Y-359500D02*
Y-340500D01*
X49000Y-340000D01*
X61000D01*
X319000Y-232000D02*
X328000Y-223000D01*
X344000D01*
X352000Y-231000D01*
Y-234000D02*
Y-231000D01*
Y-249000D02*
Y-234000D01*
Y-274000D02*
Y-249000D01*
X336250Y-301750D02*
X345000Y-293000D01*
X352000D01*
X384500D02*
X393000Y-301500D01*
X376000Y-293000D02*
X384500D01*
X437750Y-216500D02*
X442500D01*
X385300Y-231000D02*
X388000Y-228300D01*
X374000Y-231000D02*
X385300D01*
X374000Y-249000D02*
X383300D01*
X148000Y-219000D02*
Y-207000D01*
X388000Y-228300D02*
Y-227300D01*
Y-226000D01*
X398250Y-216250D02*
X404045D01*
X398250Y-222500D02*
Y-216250D01*
Y-222500D02*
X398500Y-222750D01*
X404045D01*
X398250Y-228250D02*
Y-222500D01*
Y-228250D02*
X399250Y-229250D01*
X404045D01*
X437750Y-223000D02*
X441000D01*
X442500Y-216500D02*
X444000Y-218000D01*
X383300Y-249000D02*
X388000Y-253700D01*
X411250Y-306250D02*
X436750D01*
X413000Y-161050D02*
X415050Y-159000D01*
X415500D01*
X426000Y-148500D01*
X375000Y-274000D02*
X376000D01*
X378000Y-276000D01*
X404000D01*
Y-282500D02*
Y-276000D01*
Y-282500D02*
X410000Y-288500D01*
X414000Y-279000D02*
X427000D01*
X409000Y-274000D02*
X414000Y-279000D01*
X409000Y-274000D02*
Y-264000D01*
X417000D01*
X397000D02*
X404000D01*
Y-276000D02*
Y-264000D01*
X299429Y-462000D02*
X313000D01*
X291500Y-454071D02*
X299429Y-462000D01*
X413000Y-446000D02*
Y-441000D01*
X437750Y-229500D02*
X444000D01*
X437750Y-236000D02*
X444000D01*
X286000Y-300000D02*
Y-293000D01*
X281000Y-288000D02*
X286000Y-293000D01*
X357893Y-406500D02*
X371500Y-420107D01*
X371500D01*
X364571Y-401500D02*
X380071Y-417000D01*
X384686Y-428314D02*
X393000Y-420000D01*
X361500Y-376500D02*
X365000Y-373000D01*
X379500Y-417571D02*
X380071Y-417000D01*
X379500Y-420814D02*
Y-417571D01*
X371500Y-420107D02*
X372000Y-420607D01*
Y-423920D02*
Y-420607D01*
Y-423920D02*
X376393Y-428314D01*
X355429Y-411500D02*
X367000Y-423071D01*
Y-425991D02*
Y-423071D01*
Y-425991D02*
X374322Y-433314D01*
X405314D01*
X413000Y-441000D01*
X376393Y-428314D02*
X384686D01*
X458500Y-380500D02*
X462000Y-384000D01*
X344500Y-391500D02*
X407500D01*
X411000Y-388000D01*
X344500Y-381500D02*
X399500D01*
X344500Y-386500D02*
X401571D01*
X407571Y-380500D01*
X458500D01*
X399500Y-381500D02*
X406000Y-375000D01*
X447000D01*
X456000Y-366000D01*
X243000Y-288000D02*
X264000D01*
X238000Y-293000D02*
X243000Y-288000D01*
X106000Y-231000D02*
X108000Y-229000D01*
Y-222000D01*
X194000Y-66000D02*
X202222D01*
X203722Y-67500D01*
X205500D01*
X206750Y-68750D01*
D42*
X376000Y-198500D02*
X392500D01*
X403000Y-198000D02*
X408000Y-193000D01*
X393000Y-198000D02*
X403000D01*
X162000Y-77000D02*
Y-67000D01*
Y-77000D02*
X167000Y-82000D01*
X150000Y-79000D02*
Y-42000D01*
X139000Y-59000D02*
X150000D01*
X134000Y-54000D02*
X139000Y-59000D01*
X351500Y-29500D02*
X380000Y-58000D01*
X321000Y-28000D02*
X344500D01*
Y-10500D01*
Y-29500D02*
Y-28000D01*
Y-29500D02*
X348000Y-33000D01*
X197000Y-10500D02*
X344500D01*
X334000Y-108000D02*
Y-80000D01*
X317000Y-125000D02*
X334000Y-108000D01*
X346000Y-80000D02*
X356000D01*
X346000D02*
Y-69000D01*
Y-91000D02*
Y-80000D01*
X283000Y-107000D02*
X299000Y-123000D01*
Y-125000D02*
X317000D01*
X299000D02*
Y-123000D01*
X263000Y-107000D02*
X266000D01*
X253000Y-117000D02*
X263000Y-107000D01*
X253000Y-125000D02*
Y-117000D01*
X356000Y-80000D02*
X366000D01*
X376000Y-181500D02*
Y-181000D01*
X419000Y-266000D02*
X429500D01*
X444000Y-234000D02*
Y-229500D01*
X430000Y-266500D02*
X436500D01*
X450000Y-164000D02*
X456000D01*
X444000Y-158000D02*
X450000Y-164000D01*
X432000Y-179000D02*
X445000D01*
X76000Y-53000D02*
Y-15000D01*
X444000Y-158000D02*
Y-108000D01*
Y-229500D02*
Y-220000D01*
X436500Y-266500D02*
X455000Y-248000D01*
Y-189000D01*
X445000Y-179000D02*
X455000Y-189000D01*
X162000Y-60000D02*
X165000D01*
X162000Y-67000D02*
Y-60000D01*
X165000D02*
X177000Y-48000D01*
D43*
X239000Y-90000D02*
X251000Y-78000D01*
X235750Y-88250D02*
X251000Y-73000D01*
X221370Y-62000D02*
X221620Y-62250D01*
X187000Y-96500D02*
X196500Y-106000D01*
X203000D01*
X167000Y-82000D02*
X181500Y-96500D01*
X207000Y-51515D02*
X211235Y-55750D01*
X221620D01*
X239000Y-107000D02*
Y-90000D01*
X251000Y-73000D02*
Y-72000D01*
X221620Y-88250D02*
X235750D01*
X190500Y-199000D02*
X247000D01*
X182500Y-207000D02*
X190500Y-199000D01*
X250000Y-196000D02*
Y-188000D01*
X247000Y-199000D02*
X250000Y-196000D01*
X251000Y-72000D02*
Y-63000D01*
X429000Y-279000D02*
X434000D01*
X197000Y-53000D02*
Y-30500D01*
Y-53000D02*
X206000Y-62000D01*
X221370D01*
X280380Y-55750D02*
X289250D01*
X294000Y-51000D01*
X221620Y-49250D02*
X232750D01*
X234000Y-48000D01*
D44*
X195500Y-32000D02*
X197000Y-30500D01*
X167000Y-32000D02*
X195500D01*
X251000Y-63000D02*
X264750Y-49250D01*
X444000Y-58000D02*
X453000Y-67000D01*
X424000Y-58000D02*
X444000D01*
X453000Y-67000D02*
X459000D01*
X438500Y-67500D02*
X458000Y-87000D01*
X424000Y-67500D02*
X438500D01*
X458000Y-114000D02*
Y-87000D01*
X21000Y-369000D02*
X31000Y-379000D01*
Y-384000D02*
Y-379000D01*
X41000Y-395000D02*
Y-369000D01*
X37500Y-410000D02*
X42000D01*
X68250Y-436250D01*
X20000Y-350000D02*
X21000Y-351000D01*
X20000Y-350000D02*
Y-335000D01*
X37000Y-349500D02*
X40000Y-352500D01*
Y-368500D02*
Y-352500D01*
X382000Y-77000D02*
X392000D01*
Y-45000D01*
X396000Y-41000D01*
X412500Y-67500D02*
Y-43500D01*
Y-67500D02*
X424000D01*
X319000Y-264000D02*
Y-249000D01*
X317000Y-266000D02*
X319000Y-264000D01*
X335000Y-249000D02*
Y-234000D01*
X335000Y-266000D02*
Y-249000D01*
X319000Y-283500D02*
Y-268000D01*
X335000Y-283500D02*
Y-266000D01*
X319000Y-300500D02*
X335000D01*
X337500Y-283500D02*
X376000D01*
X392000D01*
X392000Y-77000D02*
X400000D01*
X458000Y-114000D02*
X460000Y-116000D01*
X440000Y-104000D02*
X444000Y-108000D01*
X424000Y-94500D02*
Y-77000D01*
X424250Y-86000D02*
X440000D01*
X421500Y-97000D02*
X424000Y-94500D01*
X402500Y-97000D02*
Y-79500D01*
X419000Y-180000D02*
X419500Y-180500D01*
X429500D01*
X425000Y-204000D02*
X429500Y-199500D01*
Y-189000D01*
X420000Y-199000D02*
X425000Y-204000D01*
X420000Y-199000D02*
Y-189000D01*
X397000Y-180000D02*
X419000D01*
X420000Y-179000D01*
Y-169000D01*
X147000Y-207000D02*
X165000D01*
X429500Y-180500D02*
Y-169000D01*
X439000Y-279000D02*
X451500Y-291500D01*
X452000D01*
X403000Y-242000D02*
Y-238250D01*
X403500Y-237750D01*
X53000Y-30000D02*
X100000D01*
X284500Y-300500D02*
X319000D01*
X294000Y-51000D02*
Y-43000D01*
X234000Y-48000D02*
X234000D01*
D45*
X150000Y-53000D02*
X162000D01*
X150000Y-67000D02*
X162000D01*
X334000Y-80000D02*
X346000D01*
D46*
X207000Y-51515D02*
Y-38000D01*
X250000Y-188000D02*
X258000D01*
X207000Y-38000D02*
X216000Y-29000D01*
X224600D01*
X278000D02*
X281000D01*
X294000Y-43000D02*
Y-42000D01*
X281000Y-29000D02*
X294000Y-42000D01*
X234000Y-48000D02*
X250000Y-32000D01*
D47*
X276000Y-191000D02*
Y-125000D01*
X388000Y-253700D02*
X388300Y-254000D01*
X388000Y-253700D02*
Y-252700D01*
Y-255000D02*
Y-253700D01*
Y-255000D02*
X395000Y-264000D01*
D48*
X314000Y-309000D02*
X324000Y-319000D01*
X125000Y-420000D02*
X132500Y-412500D01*
X124000Y-420000D02*
X125000D01*
X95000Y-403000D02*
Y-396000D01*
X132500Y-412500D02*
Y-407250D01*
X244500Y-398893D02*
X244606Y-399000D01*
X245000D01*
X247500Y-396500D01*
X263500D01*
X152500Y-420500D02*
Y-407250D01*
X109000Y-397000D02*
Y-396999D01*
X115499Y-390500D01*
X95000Y-381000D02*
X105000Y-371000D01*
X109000D01*
X242000Y-417000D02*
X263500D01*
X238000Y-421000D02*
X242000Y-417000D01*
X263500D02*
Y-416500D01*
X188000Y-413000D02*
X246657D01*
X253157Y-406500D01*
X245000Y-409000D02*
X252500Y-401500D01*
X188000Y-409000D02*
X245000D01*
X179500Y-400500D02*
X188000Y-409000D01*
X181500Y-395500D02*
X188000Y-402000D01*
X234000D01*
X235000Y-395000D02*
X239000Y-391000D01*
X263000D01*
X263500Y-391500D01*
X253157Y-406500D02*
X263500D01*
X188000Y-395000D02*
X235000D01*
X233000Y-391000D02*
X237500Y-386500D01*
X192000Y-391000D02*
X233000D01*
X237500Y-386500D02*
X263500D01*
X241000Y-376000D02*
X246500Y-381500D01*
X252500Y-401500D02*
X263500D01*
X267500D01*
X183500Y-390500D02*
X188000Y-395000D01*
X186500Y-385500D02*
X192000Y-391000D01*
X174250Y-385500D02*
X186500D01*
X246500Y-381500D02*
X263500D01*
X174250Y-395500D02*
X181500D01*
X174250Y-400500D02*
X179500D01*
X174250Y-380500D02*
X208000D01*
X222000Y-357000D02*
X229000Y-350000D01*
X196000Y-357000D02*
X222000D01*
X182500Y-370500D02*
X196000Y-357000D01*
X189500Y-375500D02*
X195000Y-370000D01*
X174250Y-375500D02*
X189500D01*
X174250Y-390500D02*
X183500D01*
X73000Y-360000D02*
X74000Y-359000D01*
Y-351999D01*
X109000Y-382999D02*
X111501Y-385500D01*
X125750D01*
X109000Y-371000D02*
X113500Y-375500D01*
X125750D01*
X115499Y-390500D02*
X125750D01*
X174250Y-370500D02*
X182500D01*
X180500Y-365500D02*
X196000Y-350000D01*
X174250Y-365500D02*
X180500D01*
X125750Y-395500D02*
X136500D01*
X142500Y-358750D02*
Y-345500D01*
X141000Y-420000D02*
X142500Y-418500D01*
Y-407250D01*
X147500Y-380500D02*
Y-358750D01*
X125750Y-380500D02*
X147500D01*
X147500Y-407250D02*
Y-385500D01*
X61000Y-349500D02*
X71501D01*
X24000Y-314000D02*
X40000D01*
X20000Y-318000D02*
X24000Y-314000D01*
X57000D02*
X58000Y-313000D01*
X74000D01*
X79000Y-318000D01*
Y-320000D02*
Y-318000D01*
X36000Y-329500D02*
X37000Y-330500D01*
X36000Y-329500D02*
Y-318000D01*
X40000Y-314000D01*
X61000Y-330500D02*
Y-322000D01*
X57000Y-318000D02*
X61000Y-322000D01*
X57000Y-318000D02*
Y-314000D01*
X444000Y-321000D02*
X466000D01*
X468000Y-319000D01*
X454000Y-292000D02*
X466000D01*
X468000Y-294000D01*
Y-319000D02*
Y-294000D01*
X41000Y-286000D02*
X50000Y-277000D01*
X41000Y-313000D02*
Y-286000D01*
X40000Y-314000D02*
X41000Y-313000D01*
X48500Y-305500D02*
X57000Y-314000D01*
X48500Y-305500D02*
Y-296500D01*
X51000Y-294000D01*
X49250Y-184250D02*
X55750D01*
X66250Y-173750D01*
X81250Y-173500D02*
X114500D01*
X115500Y-174500D01*
X109000Y-361000D02*
Y-358000D01*
X118500Y-370500D02*
X125750D01*
X113500Y-365500D02*
X125750D01*
X109000Y-361000D02*
X113500Y-365500D01*
X118500Y-370500D01*
X167500Y-417218D02*
Y-407250D01*
Y-417218D02*
X183782D01*
X188000Y-413000D01*
X237000Y-309000D02*
X314000D01*
X296000Y-318000D02*
X298000Y-320000D01*
X240000Y-325000D02*
Y-322000D01*
X244000Y-318000D01*
X296000D01*
D49*
X264750Y-49250D02*
X280380D01*
D50*
X423000Y-233000D02*
X430000Y-240000D01*
Y-249500D02*
Y-240000D01*
D51*
X167000Y-82000D02*
D03*
D52*
X167000Y-32000D02*
D03*
D53*
X441000Y-397000D02*
D03*
X467000Y-384000D02*
D03*
X465730Y-412730D02*
D03*
X250000Y-29000D02*
D03*
X275400D02*
D03*
D54*
X224600D02*
D03*
D55*
X199000Y-350000D02*
D03*
X229000D02*
D03*
X109000Y-358000D02*
D03*
X124000Y-420000D02*
D03*
X191000Y-421000D02*
D03*
X95000Y-403000D02*
D03*
X244500Y-398893D02*
D03*
X152500Y-420500D02*
D03*
X109000Y-397000D02*
D03*
X75000Y-294000D02*
D03*
X74000Y-277000D02*
D03*
X79000Y-340000D02*
D03*
X73000Y-377000D02*
D03*
X234000Y-402000D02*
D03*
X241000Y-376000D02*
D03*
X222000Y-462000D02*
D03*
X248000D02*
D03*
X286999Y-461999D02*
D03*
X273000Y-462000D02*
D03*
X262500Y-439000D02*
D03*
X109000Y-382999D02*
D03*
X109000Y-371000D02*
D03*
X142500Y-345500D02*
D03*
X141000Y-420000D02*
D03*
X73000Y-350999D02*
D03*
X393000Y-420000D02*
D03*
X378500Y-399000D02*
D03*
X379500Y-420814D02*
D03*
X411000Y-388000D02*
D03*
D56*
X388000Y-227300D02*
D03*
D57*
Y-252700D02*
D03*
D58*
X43000Y-240000D02*
D03*
X243000D02*
D03*
X388000Y-340000D02*
D03*
Y-140000D02*
D03*
X450000Y-30000D02*
D03*
Y-445000D02*
D03*
X30000Y-450000D02*
D03*
Y-30000D02*
D03*
D59*
X176000Y-226000D02*
D03*
X201000Y-228000D02*
D03*
X460000Y-112000D02*
D03*
X230000Y-150000D02*
D03*
X164000D02*
D03*
X180000Y-180000D02*
D03*
X346000Y-80000D02*
D03*
X299000Y-129000D02*
D03*
Y-118000D02*
D03*
X245000Y-75000D02*
D03*
X317000Y-88000D02*
D03*
X296000Y-101000D02*
D03*
X253000Y-129000D02*
D03*
Y-118000D02*
D03*
X222000Y-102000D02*
D03*
X259000Y-328000D02*
D03*
X301000Y-343000D02*
D03*
X314000Y-342000D02*
D03*
X330000Y-336000D02*
D03*
X251000Y-84000D02*
D03*
X257000Y-75000D02*
D03*
X202000Y-76000D02*
D03*
X276000Y-122000D02*
D03*
X265000Y-188000D02*
D03*
X276000Y-195000D02*
D03*
X287000Y-188000D02*
D03*
X414000Y-41000D02*
D03*
X110000Y-340000D02*
D03*
X15000Y-146000D02*
D03*
X235000Y-211000D02*
D03*
X80000Y-407000D02*
D03*
X349000Y-111000D02*
D03*
X387000Y-97000D02*
D03*
X339999Y-358999D02*
D03*
X338000Y-446000D02*
D03*
X359000Y-439000D02*
D03*
X239000Y-363000D02*
D03*
X250000Y-355000D02*
D03*
X31000Y-384000D02*
D03*
X356000Y-80000D02*
D03*
X367000Y-111000D02*
D03*
X366000Y-80000D02*
D03*
X411000Y-115000D02*
D03*
X376000Y-211000D02*
D03*
X339000Y-208000D02*
D03*
X358000D02*
D03*
X238000Y-421000D02*
D03*
X286000Y-300000D02*
D03*
X63000Y-395000D02*
D03*
X358000Y-179000D02*
D03*
X246000Y-436000D02*
D03*
X191000Y-451000D02*
D03*
X82000Y-460000D02*
D03*
X346000Y-347000D02*
D03*
X260000Y-343000D02*
D03*
X376999Y-464999D02*
D03*
X117000Y-433000D02*
D03*
X195000Y-370000D02*
D03*
X162000D02*
D03*
Y-394000D02*
D03*
X138000D02*
D03*
Y-371000D02*
D03*
X20000Y-410000D02*
D03*
Y-350000D02*
D03*
X132000Y-68000D02*
D03*
X321000Y-28000D02*
D03*
X126000Y-37000D02*
D03*
X459000Y-67000D02*
D03*
X376000Y-181000D02*
D03*
X425000Y-204000D02*
D03*
X199000Y-289000D02*
D03*
X145000Y-213000D02*
D03*
X146000Y-192000D02*
D03*
X442000Y-415000D02*
D03*
X457000Y-346000D02*
D03*
X456000Y-366000D02*
D03*
X426000Y-148500D02*
D03*
X431000Y-163000D02*
D03*
X456000Y-164000D02*
D03*
X403000Y-242000D02*
D03*
X20000Y-220000D02*
D03*
Y-260000D02*
D03*
Y-280000D02*
D03*
Y-300000D02*
D03*
X313000Y-462000D02*
D03*
X413000Y-446000D02*
D03*
X450000Y-253000D02*
D03*
X462000Y-177000D02*
D03*
Y-216000D02*
D03*
X461000Y-238000D02*
D03*
X462000Y-197000D02*
D03*
X31000Y-112000D02*
D03*
X83000Y-38000D02*
D03*
X75000Y-31000D02*
D03*
X67000Y-39000D02*
D03*
X15000Y-125000D02*
D03*
Y-110000D02*
D03*
Y-95000D02*
D03*
Y-80000D02*
D03*
Y-65000D02*
D03*
X30000Y-55000D02*
D03*
X49000Y-146000D02*
D03*
X64000D02*
D03*
X80000D02*
D03*
X145000Y-145000D02*
D03*
X30000Y-146000D02*
D03*
X256000Y-275999D02*
D03*
X365000Y-373000D02*
D03*
X258000Y-300000D02*
D03*
X238000Y-309000D02*
D03*
Y-293000D02*
D03*
Y-325000D02*
D03*
X298000Y-320000D02*
D03*
X332750Y-28000D02*
D03*
X347000Y-28000D02*
D03*
X167000Y-67000D02*
D03*
X187000Y-101000D02*
D03*
X254000Y-151000D02*
D03*
Y-168000D02*
D03*
X293000Y-161000D02*
D03*
X110000Y-305000D02*
D03*
X130000D02*
D03*
X150000D02*
D03*
X170000D02*
D03*
X205000D02*
D03*
X90000D02*
D03*
X428000Y-355000D02*
D03*
X291000Y-389000D02*
D03*
X317000D02*
D03*
X304000Y-403000D02*
D03*
D60*
X71000Y-100000D02*
D03*
X52000Y-97000D02*
D03*
X101000Y-116000D02*
D03*
X131000Y-136000D02*
D03*
X335000Y-234000D02*
D03*
X335000Y-283500D02*
D03*
Y-266000D02*
D03*
X433000D02*
D03*
X393000Y-284500D02*
D03*
X459000Y-132000D02*
D03*
X96000Y-134000D02*
D03*
X74000Y-116000D02*
D03*
D61*
X117000Y-201000D02*
D03*
X122000Y-195000D02*
D03*
X127000Y-201000D02*
D03*
X123000Y-228000D02*
D03*
X444000Y-234000D02*
D03*
X115500Y-174500D02*
D03*
X126750Y-172250D02*
D03*
X112000Y-195000D02*
D03*
X108000Y-222000D02*
D03*
M02*
