G04 Layer_Color=8388736*
%FSLAX44Y44*%
%MOMM*%
G71*
G01*
G75*
%ADD13R,1.0000X1.0000*%
%ADD16R,0.5000X0.5000*%
G04:AMPARAMS|DCode=78|XSize=1.6032mm|YSize=1.2032mm|CornerRadius=0.2266mm|HoleSize=0mm|Usage=FLASHONLY|Rotation=180.000|XOffset=0mm|YOffset=0mm|HoleType=Round|Shape=RoundedRectangle|*
%AMROUNDEDRECTD78*
21,1,1.6032,0.7500,0,0,180.0*
21,1,1.1500,1.2032,0,0,180.0*
1,1,0.4532,-0.5750,0.3750*
1,1,0.4532,0.5750,0.3750*
1,1,0.4532,0.5750,-0.3750*
1,1,0.4532,-0.5750,-0.3750*
%
%ADD78ROUNDEDRECTD78*%
G04:AMPARAMS|DCode=79|XSize=1.2032mm|YSize=1.1032mm|CornerRadius=0.2141mm|HoleSize=0mm|Usage=FLASHONLY|Rotation=270.000|XOffset=0mm|YOffset=0mm|HoleType=Round|Shape=RoundedRectangle|*
%AMROUNDEDRECTD79*
21,1,1.2032,0.6750,0,0,270.0*
21,1,0.7750,1.1032,0,0,270.0*
1,1,0.4282,-0.3375,-0.3875*
1,1,0.4282,-0.3375,0.3875*
1,1,0.4282,0.3375,0.3875*
1,1,0.4282,0.3375,-0.3875*
%
%ADD79ROUNDEDRECTD79*%
G04:AMPARAMS|DCode=80|XSize=1.2032mm|YSize=1.1032mm|CornerRadius=0.2141mm|HoleSize=0mm|Usage=FLASHONLY|Rotation=0.000|XOffset=0mm|YOffset=0mm|HoleType=Round|Shape=RoundedRectangle|*
%AMROUNDEDRECTD80*
21,1,1.2032,0.6750,0,0,0.0*
21,1,0.7750,1.1032,0,0,0.0*
1,1,0.4282,0.3875,-0.3375*
1,1,0.4282,-0.3875,-0.3375*
1,1,0.4282,-0.3875,0.3375*
1,1,0.4282,0.3875,0.3375*
%
%ADD80ROUNDEDRECTD80*%
%ADD81R,1.6782X0.6532*%
%ADD82R,2.6132X3.4932*%
%ADD83R,3.8032X3.8032*%
%ADD84O,1.0532X0.4532*%
%ADD85O,0.4532X1.0532*%
G04:AMPARAMS|DCode=86|XSize=0.8532mm|YSize=0.7032mm|CornerRadius=0.1516mm|HoleSize=0mm|Usage=FLASHONLY|Rotation=90.000|XOffset=0mm|YOffset=0mm|HoleType=Round|Shape=RoundedRectangle|*
%AMROUNDEDRECTD86*
21,1,0.8532,0.4000,0,0,90.0*
21,1,0.5500,0.7032,0,0,90.0*
1,1,0.3032,0.2000,0.2750*
1,1,0.3032,0.2000,-0.2750*
1,1,0.3032,-0.2000,-0.2750*
1,1,0.3032,-0.2000,0.2750*
%
%ADD86ROUNDEDRECTD86*%
%ADD87O,0.5032X2.0032*%
%ADD88O,2.0032X0.5032*%
%ADD89R,1.3032X0.8532*%
G04:AMPARAMS|DCode=90|XSize=3.7032mm|YSize=1.9532mm|CornerRadius=0.3204mm|HoleSize=0mm|Usage=FLASHONLY|Rotation=180.000|XOffset=0mm|YOffset=0mm|HoleType=Round|Shape=RoundedRectangle|*
%AMROUNDEDRECTD90*
21,1,3.7032,1.3125,0,0,180.0*
21,1,3.0625,1.9532,0,0,180.0*
1,1,0.6407,-1.5313,0.6563*
1,1,0.6407,1.5313,0.6563*
1,1,0.6407,1.5313,-0.6563*
1,1,0.6407,-1.5313,-0.6563*
%
%ADD90ROUNDEDRECTD90*%
G04:AMPARAMS|DCode=91|XSize=1.3032mm|YSize=1.9532mm|CornerRadius=0.2391mm|HoleSize=0mm|Usage=FLASHONLY|Rotation=180.000|XOffset=0mm|YOffset=0mm|HoleType=Round|Shape=RoundedRectangle|*
%AMROUNDEDRECTD91*
21,1,1.3032,1.4750,0,0,180.0*
21,1,0.8250,1.9532,0,0,180.0*
1,1,0.4782,-0.4125,0.7375*
1,1,0.4782,0.4125,0.7375*
1,1,0.4782,0.4125,-0.7375*
1,1,0.4782,-0.4125,-0.7375*
%
%ADD91ROUNDEDRECTD91*%
G04:AMPARAMS|DCode=92|XSize=1.3032mm|YSize=1.9532mm|CornerRadius=0.2391mm|HoleSize=0mm|Usage=FLASHONLY|Rotation=180.000|XOffset=0mm|YOffset=0mm|HoleType=Round|Shape=RoundedRectangle|*
%AMROUNDEDRECTD92*
21,1,1.3032,1.4750,0,0,180.0*
21,1,0.8250,1.9532,0,0,180.0*
1,1,0.4782,-0.4125,0.7375*
1,1,0.4782,0.4125,0.7375*
1,1,0.4782,0.4125,-0.7375*
1,1,0.4782,-0.4125,-0.7375*
%
%ADD92ROUNDEDRECTD92*%
%ADD93R,1.2532X1.2032*%
%ADD94R,2.4032X1.2532*%
%ADD95R,1.5032X1.7032*%
%ADD96R,4.2032X3.2032*%
%ADD97R,1.0032X0.5432*%
%ADD98R,0.8532X0.5432*%
%ADD99R,1.9132X2.4932*%
G04:AMPARAMS|DCode=100|XSize=1.5032mm|YSize=1.0032mm|CornerRadius=0.2016mm|HoleSize=0mm|Usage=FLASHONLY|Rotation=180.000|XOffset=0mm|YOffset=0mm|HoleType=Round|Shape=RoundedRectangle|*
%AMROUNDEDRECTD100*
21,1,1.5032,0.6000,0,0,180.0*
21,1,1.1000,1.0032,0,0,180.0*
1,1,0.4032,-0.5500,0.3000*
1,1,0.4032,0.5500,0.3000*
1,1,0.4032,0.5500,-0.3000*
1,1,0.4032,-0.5500,-0.3000*
%
%ADD100ROUNDEDRECTD100*%
G04:AMPARAMS|DCode=101|XSize=1.5032mm|YSize=1.0032mm|CornerRadius=0.2016mm|HoleSize=0mm|Usage=FLASHONLY|Rotation=270.000|XOffset=0mm|YOffset=0mm|HoleType=Round|Shape=RoundedRectangle|*
%AMROUNDEDRECTD101*
21,1,1.5032,0.6000,0,0,270.0*
21,1,1.1000,1.0032,0,0,270.0*
1,1,0.4032,-0.3000,-0.5500*
1,1,0.4032,-0.3000,0.5500*
1,1,0.4032,0.3000,0.5500*
1,1,0.4032,0.3000,-0.5500*
%
%ADD101ROUNDEDRECTD101*%
%ADD102R,0.9032X1.5032*%
%ADD103R,1.5032X2.6032*%
%ADD104R,1.1532X0.8032*%
%ADD105R,1.1532X1.1032*%
%ADD106R,1.1532X1.1032*%
%ADD107C,1.5532*%
%ADD108R,1.5532X1.5532*%
%ADD109C,1.7032*%
%ADD110R,1.7032X1.7032*%
%ADD111C,1.0032*%
%ADD112R,1.6032X1.6032*%
%ADD113C,1.6032*%
%ADD114C,3.7032*%
%ADD115C,1.1032*%
%ADD116C,1.2032*%
%ADD117C,0.9032*%
D13*
X150000Y-53000D02*
D03*
X162000D02*
D03*
X150000Y-67000D02*
D03*
X162000D02*
D03*
X334000Y-80000D02*
D03*
X346000D02*
D03*
D16*
X429000Y-279000D02*
D03*
X436000D02*
D03*
D78*
X106000Y-230500D02*
D03*
Y-248500D02*
D03*
X21000Y-369000D02*
D03*
Y-351000D02*
D03*
X148000Y-207000D02*
D03*
Y-189000D02*
D03*
D79*
X317500Y-266000D02*
D03*
X334500D02*
D03*
X443000Y-116000D02*
D03*
X460000D02*
D03*
X396000Y-41000D02*
D03*
X413000D02*
D03*
X266000Y-107000D02*
D03*
X283000D02*
D03*
X302500Y-88000D02*
D03*
X319500D02*
D03*
X222000Y-107000D02*
D03*
X239000D02*
D03*
X249500Y-188000D02*
D03*
X232500D02*
D03*
X262000Y-343000D02*
D03*
X279000D02*
D03*
X346500Y-461000D02*
D03*
X329500D02*
D03*
X263000Y-442000D02*
D03*
X246000D02*
D03*
X208000Y-368000D02*
D03*
X225000D02*
D03*
X208000Y-383000D02*
D03*
X225000D02*
D03*
X281000Y-288000D02*
D03*
X264000D02*
D03*
X67000Y-277000D02*
D03*
X50000D02*
D03*
X68000Y-294000D02*
D03*
X51000D02*
D03*
X58000Y-369000D02*
D03*
X41000D02*
D03*
X352000Y-249000D02*
D03*
X335000D02*
D03*
X41000Y-395000D02*
D03*
X58000D02*
D03*
X365000Y-97000D02*
D03*
X382000D02*
D03*
X460000Y-132000D02*
D03*
X443000D02*
D03*
X64250Y-173500D02*
D03*
X81250D02*
D03*
X20500Y-410000D02*
D03*
X37500D02*
D03*
X57000Y-314000D02*
D03*
X40000D02*
D03*
X352000Y-234000D02*
D03*
X335000D02*
D03*
X206000Y-339000D02*
D03*
X223000D02*
D03*
X341000Y-319000D02*
D03*
X324000D02*
D03*
X165500Y-207000D02*
D03*
X182500D02*
D03*
X194000Y-48000D02*
D03*
X177000D02*
D03*
D80*
X393000Y-197500D02*
D03*
Y-180500D02*
D03*
X197000Y-30500D02*
D03*
Y-13500D02*
D03*
X187000Y-79500D02*
D03*
Y-96500D02*
D03*
X203000Y-89000D02*
D03*
Y-106000D02*
D03*
X304000Y-55500D02*
D03*
Y-72500D02*
D03*
X95000Y-398000D02*
D03*
Y-381000D02*
D03*
X430000Y-249500D02*
D03*
Y-266500D02*
D03*
X335000Y-300500D02*
D03*
Y-283500D02*
D03*
X380000Y-59000D02*
D03*
Y-76000D02*
D03*
X68000Y-436500D02*
D03*
Y-453500D02*
D03*
X376000Y-198500D02*
D03*
Y-181500D02*
D03*
X319000Y-283500D02*
D03*
Y-300500D02*
D03*
X459000Y-84000D02*
D03*
Y-67000D02*
D03*
X80000Y-294500D02*
D03*
Y-277500D02*
D03*
X20000Y-318000D02*
D03*
Y-335000D02*
D03*
X426000Y-131500D02*
D03*
Y-148500D02*
D03*
X73000Y-377000D02*
D03*
Y-360000D02*
D03*
X410000Y-305500D02*
D03*
Y-288500D02*
D03*
X319000Y-249000D02*
D03*
Y-232000D02*
D03*
X393000Y-284500D02*
D03*
Y-301500D02*
D03*
D81*
X280380Y-94750D02*
D03*
Y-88250D02*
D03*
Y-81750D02*
D03*
Y-75250D02*
D03*
Y-68750D02*
D03*
Y-62250D02*
D03*
Y-55750D02*
D03*
Y-49250D02*
D03*
X221620D02*
D03*
Y-55750D02*
D03*
Y-62250D02*
D03*
Y-68750D02*
D03*
Y-75250D02*
D03*
Y-81750D02*
D03*
Y-88250D02*
D03*
Y-94750D02*
D03*
D82*
X251000Y-72000D02*
D03*
D83*
X150000Y-383000D02*
D03*
D84*
X125750Y-400500D02*
D03*
Y-395500D02*
D03*
Y-390500D02*
D03*
Y-385500D02*
D03*
Y-380500D02*
D03*
Y-375500D02*
D03*
Y-370500D02*
D03*
Y-365500D02*
D03*
X174250D02*
D03*
Y-370500D02*
D03*
Y-375500D02*
D03*
Y-380500D02*
D03*
Y-385500D02*
D03*
Y-390500D02*
D03*
Y-395500D02*
D03*
Y-400500D02*
D03*
D85*
X132500Y-358750D02*
D03*
X137500D02*
D03*
X142500D02*
D03*
X147500D02*
D03*
X152500D02*
D03*
X157500D02*
D03*
X162500D02*
D03*
X167500D02*
D03*
Y-407250D02*
D03*
X162500D02*
D03*
X157500D02*
D03*
X152500D02*
D03*
X147500D02*
D03*
X142500D02*
D03*
X137500D02*
D03*
X132500D02*
D03*
D86*
X440000Y-86000D02*
D03*
Y-104000D02*
D03*
X374000Y-249000D02*
D03*
Y-231000D02*
D03*
D87*
X331500Y-444500D02*
D03*
X326500D02*
D03*
X321500D02*
D03*
X316500D02*
D03*
X311500D02*
D03*
X306500D02*
D03*
X301500D02*
D03*
X296500D02*
D03*
X291500D02*
D03*
X286500D02*
D03*
X281500D02*
D03*
X276500D02*
D03*
Y-363500D02*
D03*
X281500D02*
D03*
X286500D02*
D03*
X291500D02*
D03*
X296500D02*
D03*
X301500D02*
D03*
X306500D02*
D03*
X311500D02*
D03*
X316500D02*
D03*
X321500D02*
D03*
X326500D02*
D03*
X331500D02*
D03*
D88*
X263500Y-431500D02*
D03*
Y-426500D02*
D03*
Y-421500D02*
D03*
Y-416500D02*
D03*
Y-411500D02*
D03*
Y-406500D02*
D03*
Y-401500D02*
D03*
Y-396500D02*
D03*
Y-391500D02*
D03*
Y-386500D02*
D03*
Y-381500D02*
D03*
Y-376500D02*
D03*
X344500D02*
D03*
Y-381500D02*
D03*
Y-386500D02*
D03*
Y-391500D02*
D03*
Y-396500D02*
D03*
Y-401500D02*
D03*
Y-406500D02*
D03*
Y-411500D02*
D03*
Y-416500D02*
D03*
Y-421500D02*
D03*
Y-426500D02*
D03*
Y-431500D02*
D03*
D89*
X400000Y-77000D02*
D03*
Y-58000D02*
D03*
X424000D02*
D03*
Y-67500D02*
D03*
Y-77000D02*
D03*
X37000Y-349500D02*
D03*
Y-330500D02*
D03*
X61000D02*
D03*
Y-340000D02*
D03*
Y-349500D02*
D03*
X352000Y-293000D02*
D03*
Y-274000D02*
D03*
X376000D02*
D03*
Y-283500D02*
D03*
Y-293000D02*
D03*
D90*
X276000Y-191000D02*
D03*
D91*
X253000Y-125000D02*
D03*
X276000D02*
D03*
D92*
X299000D02*
D03*
D93*
X49250Y-184250D02*
D03*
X436750Y-306250D02*
D03*
D94*
X34000Y-199000D02*
D03*
Y-169500D02*
D03*
X452000Y-291500D02*
D03*
Y-321000D02*
D03*
D95*
X421500Y-97000D02*
D03*
X402500D02*
D03*
D96*
X352000Y-37000D02*
D03*
X77000Y-30000D02*
D03*
D97*
X404045Y-216250D02*
D03*
Y-222750D02*
D03*
Y-229250D02*
D03*
Y-235750D02*
D03*
D98*
X434795Y-216250D02*
D03*
Y-222750D02*
D03*
Y-229250D02*
D03*
Y-235750D02*
D03*
D99*
X423000Y-226000D02*
D03*
D100*
X79000Y-340000D02*
D03*
Y-320000D02*
D03*
D101*
X417000Y-264000D02*
D03*
X397000D02*
D03*
D102*
X410500Y-193000D02*
D03*
X420000D02*
D03*
X429500D02*
D03*
Y-169000D02*
D03*
X420000D02*
D03*
X410500D02*
D03*
D103*
X392000Y-454001D02*
D03*
Y-410001D02*
D03*
X416000D02*
D03*
Y-454001D02*
D03*
D104*
X123000Y-228500D02*
D03*
D105*
X148000Y-219000D02*
D03*
D106*
X148000Y-238000D02*
D03*
D107*
X167000Y-82000D02*
D03*
D108*
X167000Y-32000D02*
D03*
D109*
X441000Y-397000D02*
D03*
X467000Y-384000D02*
D03*
X465730Y-412730D02*
D03*
X250000Y-29000D02*
D03*
X275400D02*
D03*
D110*
X224600D02*
D03*
D111*
X199000Y-350000D02*
D03*
X229000D02*
D03*
X109000Y-358000D02*
D03*
X124000Y-420000D02*
D03*
X191000Y-421000D02*
D03*
X95000Y-403000D02*
D03*
X244500Y-398893D02*
D03*
X152500Y-420500D02*
D03*
X109000Y-397000D02*
D03*
X75000Y-294000D02*
D03*
X74000Y-277000D02*
D03*
X79000Y-340000D02*
D03*
X73000Y-377000D02*
D03*
X234000Y-402000D02*
D03*
X241000Y-376000D02*
D03*
X222000Y-462000D02*
D03*
X248000D02*
D03*
X286999Y-461999D02*
D03*
X273000Y-462000D02*
D03*
X262500Y-439000D02*
D03*
X109000Y-382999D02*
D03*
X109000Y-371000D02*
D03*
X142500Y-345500D02*
D03*
X141000Y-420000D02*
D03*
X73000Y-350999D02*
D03*
X393000Y-420000D02*
D03*
X378500Y-399000D02*
D03*
X379500Y-420814D02*
D03*
X411000Y-388000D02*
D03*
D112*
X388000Y-227300D02*
D03*
D113*
Y-252700D02*
D03*
D114*
X43000Y-240000D02*
D03*
X243000D02*
D03*
X388000Y-340000D02*
D03*
Y-140000D02*
D03*
X450000Y-30000D02*
D03*
Y-445000D02*
D03*
X30000Y-450000D02*
D03*
Y-30000D02*
D03*
D115*
X176000Y-226000D02*
D03*
X201000Y-228000D02*
D03*
X460000Y-112000D02*
D03*
X230000Y-150000D02*
D03*
X164000D02*
D03*
X180000Y-180000D02*
D03*
X346000Y-80000D02*
D03*
X299000Y-129000D02*
D03*
Y-118000D02*
D03*
X245000Y-75000D02*
D03*
X317000Y-88000D02*
D03*
X296000Y-101000D02*
D03*
X253000Y-129000D02*
D03*
Y-118000D02*
D03*
X222000Y-102000D02*
D03*
X259000Y-328000D02*
D03*
X301000Y-343000D02*
D03*
X314000Y-342000D02*
D03*
X330000Y-336000D02*
D03*
X251000Y-84000D02*
D03*
X257000Y-75000D02*
D03*
X202000Y-76000D02*
D03*
X276000Y-122000D02*
D03*
X265000Y-188000D02*
D03*
X276000Y-195000D02*
D03*
X287000Y-188000D02*
D03*
X414000Y-41000D02*
D03*
X110000Y-340000D02*
D03*
X15000Y-146000D02*
D03*
X235000Y-211000D02*
D03*
X80000Y-407000D02*
D03*
X349000Y-111000D02*
D03*
X387000Y-97000D02*
D03*
X339999Y-358999D02*
D03*
X338000Y-446000D02*
D03*
X359000Y-439000D02*
D03*
X239000Y-363000D02*
D03*
X250000Y-355000D02*
D03*
X31000Y-384000D02*
D03*
X356000Y-80000D02*
D03*
X367000Y-111000D02*
D03*
X366000Y-80000D02*
D03*
X411000Y-115000D02*
D03*
X376000Y-211000D02*
D03*
X339000Y-208000D02*
D03*
X358000D02*
D03*
X238000Y-421000D02*
D03*
X286000Y-300000D02*
D03*
X63000Y-395000D02*
D03*
X358000Y-179000D02*
D03*
X246000Y-436000D02*
D03*
X191000Y-451000D02*
D03*
X82000Y-460000D02*
D03*
X346000Y-347000D02*
D03*
X260000Y-343000D02*
D03*
X376999Y-464999D02*
D03*
X117000Y-433000D02*
D03*
X195000Y-370000D02*
D03*
X162000D02*
D03*
Y-394000D02*
D03*
X138000D02*
D03*
Y-371000D02*
D03*
X20000Y-410000D02*
D03*
Y-350000D02*
D03*
X132000Y-68000D02*
D03*
X321000Y-28000D02*
D03*
X126000Y-37000D02*
D03*
X459000Y-67000D02*
D03*
X376000Y-181000D02*
D03*
X425000Y-204000D02*
D03*
X199000Y-289000D02*
D03*
X145000Y-213000D02*
D03*
X146000Y-192000D02*
D03*
X442000Y-415000D02*
D03*
X457000Y-346000D02*
D03*
X456000Y-366000D02*
D03*
X426000Y-148500D02*
D03*
X431000Y-163000D02*
D03*
X456000Y-164000D02*
D03*
X403000Y-242000D02*
D03*
X20000Y-220000D02*
D03*
Y-260000D02*
D03*
Y-280000D02*
D03*
Y-300000D02*
D03*
X313000Y-462000D02*
D03*
X413000Y-446000D02*
D03*
X450000Y-253000D02*
D03*
X462000Y-177000D02*
D03*
Y-216000D02*
D03*
X461000Y-238000D02*
D03*
X462000Y-197000D02*
D03*
X31000Y-112000D02*
D03*
X83000Y-38000D02*
D03*
X75000Y-31000D02*
D03*
X67000Y-39000D02*
D03*
X15000Y-125000D02*
D03*
Y-110000D02*
D03*
Y-95000D02*
D03*
Y-80000D02*
D03*
Y-65000D02*
D03*
X30000Y-55000D02*
D03*
X49000Y-146000D02*
D03*
X64000D02*
D03*
X80000D02*
D03*
X145000Y-145000D02*
D03*
X30000Y-146000D02*
D03*
X256000Y-275999D02*
D03*
X365000Y-373000D02*
D03*
X258000Y-300000D02*
D03*
X238000Y-309000D02*
D03*
Y-293000D02*
D03*
Y-325000D02*
D03*
X298000Y-320000D02*
D03*
X332750Y-28000D02*
D03*
X347000Y-28000D02*
D03*
X167000Y-67000D02*
D03*
X187000Y-101000D02*
D03*
X254000Y-151000D02*
D03*
Y-168000D02*
D03*
X293000Y-161000D02*
D03*
X110000Y-305000D02*
D03*
X130000D02*
D03*
X150000D02*
D03*
X170000D02*
D03*
X205000D02*
D03*
X90000D02*
D03*
X428000Y-355000D02*
D03*
X291000Y-389000D02*
D03*
X317000D02*
D03*
X304000Y-403000D02*
D03*
D116*
X71000Y-100000D02*
D03*
X52000Y-97000D02*
D03*
X101000Y-116000D02*
D03*
X131000Y-136000D02*
D03*
X335000Y-234000D02*
D03*
X335000Y-283500D02*
D03*
Y-266000D02*
D03*
X433000D02*
D03*
X393000Y-284500D02*
D03*
X459000Y-132000D02*
D03*
X96000Y-134000D02*
D03*
X74000Y-116000D02*
D03*
D117*
X117000Y-201000D02*
D03*
X122000Y-195000D02*
D03*
X127000Y-201000D02*
D03*
X123000Y-228000D02*
D03*
X444000Y-234000D02*
D03*
X115500Y-174500D02*
D03*
X126750Y-172250D02*
D03*
X112000Y-195000D02*
D03*
X108000Y-222000D02*
D03*
M02*
