G04 Layer_Physical_Order=3*
G04 Layer_Color=16440176*
%FSLAX44Y44*%
%MOMM*%
G71*
G01*
G75*
%ADD41C,0.5000*%
%ADD42C,0.3000*%
%ADD44C,0.2000*%
%ADD45C,0.7500*%
%ADD46C,1.0000*%
%ADD49C,0.8000*%
%ADD53C,0.9000*%
%ADD54C,1.0000*%
%ADD55C,0.6000*%
D41*
X194000Y-284000D02*
X200000Y-290000D01*
X387000Y-97000D02*
X459000D01*
X460000Y-98000D01*
X63000Y-395000D02*
X64000Y-396000D01*
Y-407000D02*
Y-396000D01*
Y-407000D02*
X108000Y-451000D01*
X191000D01*
X207515Y-446000D02*
X257999D01*
X202515Y-451000D02*
X207515Y-446000D01*
X257999D02*
X262500Y-441499D01*
X460000Y-98000D02*
Y-67000D01*
Y-132000D02*
Y-98000D01*
X194000Y-284000D02*
Y-164000D01*
X260000Y-343000D02*
X262500Y-345500D01*
Y-439000D02*
X331000D01*
X338000Y-446000D01*
X262500Y-441499D02*
Y-439000D01*
X191000Y-451000D02*
X202515D01*
X20000Y-410000D02*
Y-350000D01*
X170000Y-137000D02*
X194000Y-164000D01*
D42*
X449000Y-412000D02*
X455000D01*
X426000Y-435000D02*
X449000Y-412000D01*
X359000Y-439000D02*
X367000Y-431000D01*
X250000Y-355000D02*
Y-300000D01*
X299000Y-313000D02*
X321000Y-335000D01*
X299000Y-313000D02*
Y-233000D01*
X294000Y-324000D02*
X295000Y-325000D01*
X205000Y-255000D02*
X250000Y-300000D01*
X205000Y-255000D02*
Y-214000D01*
X213000Y-253000D02*
X258000Y-298000D01*
X213000Y-253000D02*
Y-162000D01*
X258000Y-304000D02*
Y-298000D01*
X219000Y-248000D02*
X254000Y-283000D01*
X266000D01*
X219000Y-248000D02*
Y-150000D01*
X292000Y-294686D02*
Y-228000D01*
Y-294686D02*
X294000Y-296686D01*
Y-324000D02*
Y-296686D01*
X299000Y-233000D02*
X353000Y-179000D01*
X208000Y-464000D02*
X220000Y-452000D01*
X323000D01*
X353000Y-179000D02*
X358000D01*
X168000Y-117000D02*
X213000Y-162000D01*
X171000Y-102000D02*
X219000Y-150000D01*
X266000Y-183000D02*
X280000D01*
X346000Y-347000D02*
X348000Y-349000D01*
Y-459000D02*
Y-349000D01*
X330000Y-459000D02*
X348000D01*
X323000Y-452000D02*
X330000Y-459000D01*
X86000Y-464000D02*
X208000D01*
X82000Y-460000D02*
X86000Y-464000D01*
X374999Y-456999D02*
X377000Y-454998D01*
X374500Y-456500D02*
X374999Y-456999D01*
X171000Y-102000D02*
Y-69000D01*
X140000Y-117000D02*
X168000D01*
X367000Y-431000D02*
Y-408000D01*
X377000Y-454998D02*
Y-409000D01*
X367000Y-408000D02*
X373500Y-401500D01*
X358000Y-363000D02*
X440000D01*
X457000Y-346000D01*
X359000Y-161000D02*
X413500D01*
X426000Y-148500D01*
X292000Y-228000D02*
X359000Y-161000D01*
X400000Y-383000D02*
Y-381250D01*
X373500Y-401500D02*
X381500D01*
X400000Y-383000D01*
X388000Y-469000D02*
X399000D01*
X426000Y-442000D01*
Y-435000D01*
D44*
X230000Y-324000D02*
X242000Y-312000D01*
X151000Y-324000D02*
X230000D01*
X117000Y-358000D02*
X151000Y-324000D01*
X235000Y-330000D02*
X240000Y-325000D01*
X176000Y-330000D02*
X235000D01*
X152500Y-353500D02*
X176000Y-330000D01*
X134000Y-430000D02*
X218000D01*
X124000Y-420000D02*
X134000Y-430000D01*
X218000D02*
X244500Y-403500D01*
Y-398893D01*
X152500Y-420500D02*
Y-353500D01*
X109000Y-397000D02*
Y-396999D01*
X117000Y-388999D01*
X113000Y-443000D02*
X202737D01*
X205237Y-440500D01*
X218500D01*
X238000Y-421000D01*
X234000Y-402000D02*
Y-383000D01*
X234000Y-383000D01*
X241000Y-376000D01*
X117000Y-388999D02*
Y-358000D01*
X88000Y-350000D02*
X109000Y-371000D01*
X73999Y-350000D02*
X88000D01*
X142500Y-345500D02*
X146000Y-349000D01*
Y-415000D02*
Y-349000D01*
X141000Y-420000D02*
X146000Y-415000D01*
X73000Y-350999D02*
X73999Y-350000D01*
X100000Y-174500D02*
X115500D01*
X99929Y-167500D02*
X118399D01*
X123149Y-172250D02*
X126750D01*
X118399Y-167500D02*
X123149Y-172250D01*
X75000Y-294000D02*
X79000D01*
X74000Y-281000D02*
Y-277000D01*
X75000Y-294000D02*
Y-288500D01*
X76250Y-191179D02*
X99929Y-167500D01*
X74000Y-277000D02*
X76250Y-274750D01*
Y-191179D01*
X75000Y-288500D02*
X82250Y-281250D01*
Y-192250D01*
X100000Y-174500D01*
X95000Y-425000D02*
X113000Y-443000D01*
X95000Y-425000D02*
Y-403000D01*
D45*
X262500Y-439000D02*
Y-345500D01*
X120000Y-23000D02*
X304000D01*
X108000D02*
X120000D01*
X309000Y-28000D02*
X321000D01*
X304000Y-23000D02*
X309000Y-28000D01*
X444496Y-164000D02*
X456000D01*
X435246Y-173250D02*
X444496Y-164000D01*
X377000Y-175000D02*
X378750Y-173250D01*
X435246D01*
D46*
X280000Y-325000D02*
Y-183000D01*
Y-67000D01*
X264000Y-51000D02*
X280000Y-67000D01*
X228000Y-51000D02*
X264000D01*
X262000Y-343000D02*
X280000Y-325000D01*
D49*
X124000Y-420000D02*
D03*
X95000Y-403000D02*
D03*
X244500Y-398893D02*
D03*
X152500Y-420500D02*
D03*
X109000Y-397000D02*
D03*
X75000Y-294000D02*
D03*
X74000Y-277000D02*
D03*
X234000Y-402000D02*
D03*
X241000Y-376000D02*
D03*
X262500Y-439000D02*
D03*
X109000Y-371000D02*
D03*
X142500Y-345500D02*
D03*
X141000Y-420000D02*
D03*
X73000Y-350999D02*
D03*
X377000Y-409000D02*
D03*
X400000Y-381250D02*
D03*
D53*
X455000Y-412000D02*
D03*
X387000Y-97000D02*
D03*
X338000Y-446000D02*
D03*
X359000Y-439000D02*
D03*
X250000Y-355000D02*
D03*
X266000Y-283000D02*
D03*
X242000Y-312000D02*
D03*
X238000Y-421000D02*
D03*
X286000Y-300000D02*
D03*
X63000Y-395000D02*
D03*
X358000Y-179000D02*
D03*
X321000Y-335000D02*
D03*
X258000Y-304000D02*
D03*
X240000Y-325000D02*
D03*
X205000Y-214000D02*
D03*
X266000Y-183000D02*
D03*
X191000Y-451000D02*
D03*
X82000Y-460000D02*
D03*
X346000Y-347000D02*
D03*
X260000Y-343000D02*
D03*
X358000Y-363000D02*
D03*
X374999Y-456999D02*
D03*
X263000Y-51000D02*
D03*
X228000D02*
D03*
X295000Y-325000D02*
D03*
X20000Y-410000D02*
D03*
Y-350000D02*
D03*
X171000Y-69000D02*
D03*
X321000Y-28000D02*
D03*
X120000Y-23000D02*
D03*
X309000Y-28000D02*
D03*
X108000Y-23000D02*
D03*
X460000Y-67000D02*
D03*
X377000Y-175000D02*
D03*
X199000Y-289000D02*
D03*
X457000Y-346000D02*
D03*
X426000Y-148500D02*
D03*
X456000Y-164000D02*
D03*
X388000Y-469000D02*
D03*
D54*
X140000Y-117000D02*
D03*
X170000Y-137000D02*
D03*
X460000Y-132000D02*
D03*
D55*
X115500Y-174500D02*
D03*
X126750Y-172250D02*
D03*
M02*
