G04 Layer_Color=11599871*
%FSLAX44Y44*%
%MOMM*%
G71*
G01*
G75*
%ADD42C,0.3000*%
%ADD44C,0.2000*%
%ADD64C,0.2500*%
%ADD66C,0.1270*%
%ADD68C,0.1016*%
%ADD69C,0.2540*%
%ADD70C,0.3500*%
%ADD114C,0.4064*%
%ADD115C,0.2032*%
%ADD116C,0.3556*%
D42*
X285000Y-240000D02*
X284977Y-237458D01*
X284908Y-234916D01*
X284792Y-232377D01*
X284631Y-229840D01*
X284423Y-227306D01*
X284170Y-224776D01*
X283870Y-222252D01*
X283525Y-219733D01*
X283134Y-217221D01*
X282698Y-214716D01*
X282216Y-212220D01*
X281689Y-209733D01*
X281117Y-207256D01*
X280500Y-204790D01*
X279838Y-202335D01*
X279132Y-199893D01*
X278382Y-197464D01*
X277587Y-195049D01*
X276749Y-192649D01*
X275868Y-190264D01*
X274943Y-187896D01*
X273975Y-185545D01*
X272965Y-183212D01*
X271913Y-180898D01*
X270819Y-178603D01*
X269683Y-176328D01*
X268506Y-174074D01*
X267289Y-171843D01*
X266031Y-169633D01*
X264733Y-167447D01*
X263396Y-165285D01*
X262020Y-163147D01*
X260605Y-161035D01*
X259152Y-158949D01*
X257662Y-156889D01*
X256134Y-154858D01*
X254569Y-152853D01*
X252969Y-150878D01*
X251333Y-148932D01*
X249662Y-147016D01*
X247956Y-145131D01*
X246216Y-143278D01*
X244443Y-141455D01*
X242638Y-139666D01*
X240800Y-137910D01*
X238930Y-136187D01*
X237029Y-134498D01*
X235098Y-132845D01*
X233138Y-131226D01*
X231148Y-129644D01*
X229130Y-128098D01*
X227084Y-126588D01*
X225011Y-125117D01*
X222912Y-123683D01*
X220787Y-122287D01*
X218637Y-120930D01*
X216463Y-119613D01*
X214265Y-118335D01*
X212044Y-117097D01*
X209801Y-115900D01*
X207537Y-114744D01*
X205252Y-113629D01*
X202948Y-112556D01*
X200624Y-111524D01*
X198282Y-110536D01*
X195922Y-109589D01*
X193546Y-108686D01*
X191153Y-107826D01*
X188746Y-107010D01*
X186324Y-106238D01*
X183888Y-105509D01*
X181439Y-104825D01*
X178979Y-104186D01*
X176507Y-103591D01*
X174025Y-103042D01*
X171533Y-102537D01*
X169033Y-102078D01*
X166524Y-101664D01*
X164009Y-101297D01*
X161487Y-100974D01*
X158960Y-100698D01*
X156428Y-100467D01*
X153892Y-100283D01*
X151354Y-100144D01*
X148813Y-100052D01*
X146271Y-100006D01*
X143729D01*
X141187Y-100052D01*
X138647Y-100144D01*
X136108Y-100283D01*
X133573Y-100467D01*
X131041Y-100698D01*
X128513Y-100974D01*
X125992Y-101296D01*
X123476Y-101664D01*
X120968Y-102078D01*
X118467Y-102537D01*
X115976Y-103042D01*
X113493Y-103591D01*
X111022Y-104186D01*
X108561Y-104825D01*
X106112Y-105509D01*
X103677Y-106238D01*
X101255Y-107010D01*
X98847Y-107826D01*
X96454Y-108686D01*
X94078Y-109589D01*
X91718Y-110535D01*
X89376Y-111524D01*
X87053Y-112556D01*
X84748Y-113629D01*
X82463Y-114744D01*
X80199Y-115900D01*
X77956Y-117097D01*
X75736Y-118335D01*
X73538Y-119613D01*
X71364Y-120930D01*
X69214Y-122287D01*
X67088Y-123682D01*
X64989Y-125116D01*
X62916Y-126588D01*
X60870Y-128097D01*
X58852Y-129643D01*
X56863Y-131226D01*
X54902Y-132844D01*
X52971Y-134498D01*
X51070Y-136187D01*
X49201Y-137909D01*
X47363Y-139666D01*
X45557Y-141455D01*
X43784Y-143277D01*
X42044Y-145131D01*
X40339Y-147016D01*
X38667Y-148932D01*
X37031Y-150878D01*
X35431Y-152853D01*
X33866Y-154857D01*
X32339Y-156889D01*
X30848Y-158949D01*
X29395Y-161035D01*
X27980Y-163147D01*
X26604Y-165285D01*
X25267Y-167447D01*
X23969Y-169633D01*
X22711Y-171842D01*
X21494Y-174074D01*
X20317Y-176328D01*
X19181Y-178602D01*
X18087Y-180897D01*
X17035Y-183211D01*
X16025Y-185544D01*
X15057Y-187896D01*
X14132Y-190264D01*
X13251Y-192648D01*
X12413Y-195048D01*
X11618Y-197463D01*
X10868Y-199892D01*
X10162Y-202335D01*
X9500Y-204789D01*
X8883Y-207256D01*
X8311Y-209733D01*
X7784Y-212220D01*
X7302Y-214716D01*
X6866Y-217221D01*
X6475Y-219733D01*
X6130Y-222251D01*
X5830Y-224776D01*
X5577Y-227306D01*
X5369Y-229839D01*
X5208Y-232377D01*
X5092Y-234916D01*
X5023Y-237458D01*
X5000Y-240000D01*
X5023Y-242542D01*
X5092Y-245084D01*
X5208Y-247623D01*
X5369Y-250160D01*
X5577Y-252694D01*
X5830Y-255224D01*
X6130Y-257748D01*
X6475Y-260267D01*
X6866Y-262779D01*
X7302Y-265284D01*
X7784Y-267780D01*
X8311Y-270267D01*
X8883Y-272744D01*
X9500Y-275210D01*
X10162Y-277665D01*
X10868Y-280107D01*
X11618Y-282536D01*
X12413Y-284951D01*
X13251Y-287352D01*
X14132Y-289736D01*
X15057Y-292104D01*
X16025Y-294455D01*
X17035Y-296788D01*
X18087Y-299103D01*
X19181Y-301397D01*
X20317Y-303672D01*
X21494Y-305926D01*
X22711Y-308157D01*
X23969Y-310367D01*
X25267Y-312553D01*
X26604Y-314715D01*
X27980Y-316853D01*
X29395Y-318965D01*
X30848Y-321051D01*
X32339Y-323111D01*
X33866Y-325143D01*
X35431Y-327147D01*
X37031Y-329122D01*
X38667Y-331068D01*
X40339Y-332984D01*
X42044Y-334869D01*
X43784Y-336723D01*
X45557Y-338545D01*
X47363Y-340334D01*
X49201Y-342091D01*
X51070Y-343813D01*
X52971Y-345502D01*
X54902Y-347156D01*
X56863Y-348774D01*
X58852Y-350356D01*
X60870Y-351903D01*
X62916Y-353412D01*
X64989Y-354884D01*
X67088Y-356318D01*
X69213Y-357713D01*
X71363Y-359070D01*
X73538Y-360387D01*
X75736Y-361665D01*
X77956Y-362903D01*
X80199Y-364100D01*
X82463Y-365256D01*
X84748Y-366371D01*
X87053Y-367444D01*
X89376Y-368476D01*
X91719Y-369465D01*
X94078Y-370411D01*
X96455Y-371314D01*
X98847Y-372174D01*
X101255Y-372990D01*
X103677Y-373763D01*
X106113Y-374491D01*
X108561Y-375175D01*
X111022Y-375814D01*
X113494Y-376409D01*
X115976Y-376958D01*
X118468Y-377463D01*
X120968Y-377922D01*
X123476Y-378336D01*
X125992Y-378704D01*
X128514Y-379026D01*
X131041Y-379302D01*
X133573Y-379533D01*
X136109Y-379717D01*
X138647Y-379856D01*
X141188Y-379948D01*
X143729Y-379994D01*
X146272D01*
X148814Y-379948D01*
X151354Y-379856D01*
X153893Y-379717D01*
X156428Y-379533D01*
X158960Y-379302D01*
X161488Y-379026D01*
X164009Y-378703D01*
X166525Y-378335D01*
X169033Y-377922D01*
X171534Y-377463D01*
X174025Y-376958D01*
X176508Y-376409D01*
X178979Y-375814D01*
X181440Y-375174D01*
X183889Y-374490D01*
X186324Y-373762D01*
X188746Y-372990D01*
X191154Y-372173D01*
X193547Y-371314D01*
X195923Y-370410D01*
X198283Y-369464D01*
X200625Y-368475D01*
X202949Y-367444D01*
X205253Y-366371D01*
X207538Y-365256D01*
X209802Y-364100D01*
X212045Y-362902D01*
X214266Y-361665D01*
X216463Y-360387D01*
X218638Y-359069D01*
X220788Y-357713D01*
X222913Y-356317D01*
X225012Y-354883D01*
X227085Y-353411D01*
X229131Y-351902D01*
X231149Y-350356D01*
X233139Y-348773D01*
X235099Y-347155D01*
X237030Y-345501D01*
X238931Y-343812D01*
X240800Y-342090D01*
X242638Y-340333D01*
X244444Y-338544D01*
X246217Y-336722D01*
X247957Y-334868D01*
X249662Y-332983D01*
X251334Y-331067D01*
X252970Y-329121D01*
X254570Y-327146D01*
X256135Y-325142D01*
X257662Y-323110D01*
X259153Y-321050D01*
X260606Y-318964D01*
X262021Y-316852D01*
X263397Y-314714D01*
X264734Y-312552D01*
X266032Y-310366D01*
X267290Y-308156D01*
X268507Y-305924D01*
X269684Y-303671D01*
X270819Y-301396D01*
X271914Y-299101D01*
X272966Y-296787D01*
X273976Y-294454D01*
X274943Y-292103D01*
X275868Y-289735D01*
X276750Y-287350D01*
X277588Y-284950D01*
X278382Y-282535D01*
X279132Y-280106D01*
X279839Y-277664D01*
X280500Y-275209D01*
X281117Y-272743D01*
X281689Y-270266D01*
X282216Y-267779D01*
X282698Y-265282D01*
X283135Y-262778D01*
X283525Y-260266D01*
X283871Y-257747D01*
X284170Y-255222D01*
X284423Y-252693D01*
X284631Y-250159D01*
X284792Y-247622D01*
X284908Y-245082D01*
X284977Y-242541D01*
X285000Y-240000D01*
X245000Y-260000D02*
X247507Y-259842D01*
X249974Y-259372D01*
X252362Y-258596D01*
X254635Y-257526D01*
X256756Y-256180D01*
X258691Y-254579D01*
X260410Y-252749D01*
X261887Y-250716D01*
X263097Y-248516D01*
X264021Y-246180D01*
X264646Y-243748D01*
X264960Y-241256D01*
Y-238744D01*
X264646Y-236252D01*
X264021Y-233820D01*
X263097Y-231484D01*
X261887Y-229283D01*
X260410Y-227251D01*
X258691Y-225421D01*
X256756Y-223820D01*
X254635Y-222474D01*
X252362Y-221404D01*
X249974Y-220628D01*
X247507Y-220158D01*
X245000Y-220000D01*
X45000D02*
X42493Y-220158D01*
X40026Y-220628D01*
X37638Y-221404D01*
X35365Y-222474D01*
X33244Y-223820D01*
X31309Y-225421D01*
X29590Y-227251D01*
X28113Y-229284D01*
X26904Y-231484D01*
X25979Y-233820D01*
X25354Y-236252D01*
X25039Y-238744D01*
Y-241256D01*
X25354Y-243748D01*
X25979Y-246180D01*
X26903Y-248516D01*
X28113Y-250716D01*
X29590Y-252749D01*
X31309Y-254579D01*
X33244Y-256180D01*
X35365Y-257526D01*
X37638Y-258596D01*
X40026Y-259372D01*
X42493Y-259842D01*
X45000Y-260000D01*
X133000Y-216000D02*
X135000Y-218000D01*
X199000Y-360000D02*
X229000D01*
X199000Y-440000D02*
X229000D01*
X199000D02*
Y-360000D01*
X229000Y-440000D02*
Y-360000D01*
X64000Y-159000D02*
X226000D01*
X71000Y-314000D02*
X219000D01*
X71000Y-166000D02*
X219000D01*
X71000Y-314000D02*
Y-166000D01*
X219000Y-314000D02*
Y-166000D01*
X226000Y-220000D02*
X245000D01*
X226000Y-260000D02*
X245000D01*
X64000Y-321000D02*
X226000D01*
Y-260000D01*
Y-220000D02*
Y-159000D01*
X64000Y-220000D02*
Y-159000D01*
Y-321000D02*
Y-260000D01*
X45000D02*
X64000D01*
X45000Y-220000D02*
X64000D01*
D44*
X373043Y-214573D02*
X370924Y-215944D01*
X368931Y-217492D01*
X367077Y-219204D01*
X365376Y-221068D01*
X363841Y-223071D01*
X362483Y-225198D01*
X361311Y-227432D01*
X360335Y-229760D01*
X359561Y-232161D01*
X358995Y-234621D01*
X358641Y-237119D01*
X358502Y-239639D01*
X358579Y-242161D01*
X358872Y-244668D01*
X359377Y-247140D01*
X360092Y-249560D01*
X361011Y-251910D01*
X362128Y-254174D01*
X363434Y-256333D01*
X364920Y-258373D01*
X366575Y-260278D01*
X368386Y-262035D01*
X370341Y-263631D01*
X372425Y-265053D01*
X374623Y-266293D01*
X376919Y-267340D01*
X379296Y-268187D01*
X381737Y-268828D01*
X384224Y-269257D01*
X386738Y-269473D01*
X389262D01*
X391776Y-269257D01*
X394263Y-268828D01*
X396704Y-268187D01*
X399081Y-267340D01*
X401377Y-266293D01*
X403575Y-265053D01*
X405659Y-263631D01*
X407614Y-262035D01*
X409426Y-260278D01*
X411080Y-258373D01*
X412566Y-256333D01*
X413872Y-254174D01*
X414989Y-251910D01*
X415908Y-249560D01*
X416623Y-247140D01*
X417128Y-244668D01*
X417421Y-242161D01*
X417498Y-239639D01*
X417359Y-237119D01*
X417005Y-234621D01*
X416440Y-232161D01*
X415666Y-229759D01*
X414689Y-227432D01*
X413517Y-225198D01*
X412159Y-223071D01*
X410624Y-221068D01*
X408923Y-219204D01*
X407069Y-217492D01*
X405075Y-215944D01*
X402957Y-214573D01*
X413000Y-140000D02*
X412872Y-137471D01*
X412488Y-134967D01*
X411853Y-132516D01*
X410974Y-130141D01*
X409859Y-127867D01*
X408519Y-125718D01*
X406969Y-123716D01*
X405224Y-121880D01*
X403303Y-120231D01*
X401224Y-118784D01*
X399010Y-117555D01*
X396683Y-116556D01*
X394266Y-115798D01*
X391786Y-115288D01*
X389266Y-115032D01*
X386734D01*
X384214Y-115288D01*
X381734Y-115798D01*
X379317Y-116556D01*
X376990Y-117555D01*
X374776Y-118784D01*
X372697Y-120231D01*
X370776Y-121880D01*
X369031Y-123716D01*
X367481Y-125718D01*
X366141Y-127867D01*
X365026Y-130141D01*
X364146Y-132516D01*
X363512Y-134967D01*
X363128Y-137471D01*
X363000Y-140000D01*
Y-340000D02*
X363128Y-342529D01*
X363512Y-345033D01*
X364147Y-347484D01*
X365026Y-349859D01*
X366141Y-352133D01*
X367481Y-354282D01*
X369031Y-356284D01*
X370776Y-358120D01*
X372697Y-359769D01*
X374776Y-361216D01*
X376990Y-362445D01*
X379317Y-363444D01*
X381734Y-364202D01*
X384214Y-364712D01*
X386734Y-364968D01*
X389266D01*
X391786Y-364712D01*
X394266Y-364202D01*
X396683Y-363444D01*
X399010Y-362445D01*
X401224Y-361216D01*
X403303Y-359769D01*
X405224Y-358120D01*
X406969Y-356284D01*
X408519Y-354282D01*
X409859Y-352132D01*
X410974Y-349859D01*
X411853Y-347484D01*
X412488Y-345032D01*
X412872Y-342529D01*
X413000Y-340000D01*
X152000Y-57000D02*
X160000D01*
Y-48000D01*
X130000Y-57000D02*
X138000D01*
X130000D02*
Y-48000D01*
X119000Y-88000D02*
X127000D01*
X119000Y-72000D02*
X127000D01*
X146920Y-88540D02*
X157080D01*
X373000Y-214500D02*
X403000D01*
X302000Y-326000D02*
Y-154000D01*
Y-326000D02*
X363000D01*
X413000Y-154000D02*
Y-140000D01*
X363000Y-154000D02*
Y-140000D01*
Y-340000D02*
Y-326000D01*
X413000Y-340000D02*
Y-326000D01*
X318000Y-170000D02*
X458000D01*
X474000Y-326000D02*
Y-154000D01*
X413000Y-326000D02*
X474000D01*
X413000Y-154000D02*
X474000D01*
X302000D02*
X363000D01*
X318000Y-310000D02*
X458000D01*
Y-170000D01*
X318000Y-310000D02*
Y-170000D01*
X120000Y-245000D02*
Y-242000D01*
X133000Y-222500D02*
X157000D01*
X133000Y-257500D02*
X157000D01*
X160000Y-255000D02*
Y-248000D01*
Y-232000D02*
Y-225000D01*
X120000Y-238000D02*
Y-235000D01*
D64*
X128250Y-38500D02*
X126375Y-37418D01*
Y-39583D01*
X128250Y-38500D01*
D66*
X97488Y-243496D02*
X110512D01*
X97488Y-240504D02*
X110512D01*
X140238Y-202722D02*
X149762D01*
X140238Y-206278D02*
X149762D01*
X315976Y-421064D02*
X319024D01*
X315976Y-412936D02*
X319024D01*
X384222Y-399762D02*
Y-390238D01*
X387778Y-399762D02*
Y-390238D01*
X369936Y-449024D02*
Y-445976D01*
X378064Y-449024D02*
Y-445976D01*
X385238Y-445722D02*
X394762D01*
X385238Y-449278D02*
X394762D01*
X401722Y-414762D02*
Y-405238D01*
X405278Y-414762D02*
Y-405238D01*
X402238Y-445722D02*
X411762D01*
X402238Y-449278D02*
X411762D01*
X161476Y-428936D02*
X164524D01*
X161476Y-437064D02*
X164524D01*
X181064Y-399524D02*
Y-396476D01*
X172936Y-399524D02*
Y-396476D01*
X129222Y-437762D02*
Y-428238D01*
X132778Y-437762D02*
Y-428238D01*
X172722Y-374762D02*
Y-365238D01*
X176278Y-374762D02*
Y-365238D01*
X195722Y-343762D02*
Y-334238D01*
X199278Y-343762D02*
Y-334238D01*
X233278Y-343762D02*
Y-334238D01*
X229722Y-343762D02*
Y-334238D01*
X175064Y-62024D02*
Y-58976D01*
X166936Y-62024D02*
Y-58976D01*
X142976Y-27064D02*
X146024D01*
X142976Y-18936D02*
X146024D01*
X84488Y-90496D02*
X97512D01*
X84488Y-87504D02*
X97512D01*
X146920Y-88540D02*
Y-81500D01*
X157080Y-88540D02*
Y-81500D01*
X126278Y-105762D02*
Y-96238D01*
X122722Y-105762D02*
Y-96238D01*
X122976Y-112936D02*
X126024D01*
X122976Y-121064D02*
X126024D01*
X155190Y-123350D02*
X162810D01*
X155190Y-110650D02*
X162810D01*
X150496Y-142512D02*
Y-129488D01*
X147504Y-142512D02*
Y-129488D01*
X183476Y-293064D02*
X186524D01*
X183476Y-284936D02*
X186524D01*
X183504Y-277512D02*
Y-264488D01*
X186496Y-277512D02*
Y-264488D01*
X130476Y-280064D02*
X133524D01*
X130476Y-271936D02*
X133524D01*
X177064Y-242024D02*
Y-238976D01*
X168936Y-242024D02*
Y-238976D01*
X448064Y-190024D02*
Y-186976D01*
X439936Y-190024D02*
Y-186976D01*
X439064Y-368024D02*
Y-364976D01*
X430936Y-368024D02*
Y-364976D01*
D68*
X189064Y-443524D02*
Y-440476D01*
X180936Y-443524D02*
Y-440476D01*
X112064Y-49524D02*
Y-46476D01*
X103936Y-49524D02*
Y-46476D01*
D69*
X271250Y-420000D02*
Y-413750D01*
X411465Y-38973D02*
X403468D01*
X407467D01*
Y-50969D01*
X393471Y-38973D02*
X397470D01*
X399469Y-40972D01*
Y-48970D01*
X397470Y-50969D01*
X393471D01*
X391472Y-48970D01*
Y-40972D01*
X393471Y-38973D01*
X379476D02*
X387473D01*
Y-44971D01*
X383474D01*
X387473D01*
Y-50969D01*
X363481D02*
Y-42972D01*
X361481D01*
X359482Y-44971D01*
Y-50969D01*
Y-44971D01*
X357483Y-42972D01*
X355483Y-44971D01*
Y-50969D01*
X349485D02*
X345486D01*
X343487Y-48970D01*
Y-44971D01*
X345486Y-42972D01*
X349485D01*
X351485Y-44971D01*
Y-48970D01*
X349485Y-50969D01*
X331491Y-38973D02*
Y-50969D01*
X337489D01*
X339488Y-48970D01*
Y-44971D01*
X337489Y-42972D01*
X331491D01*
X327492D02*
Y-48970D01*
X325493Y-50969D01*
X319495D01*
Y-42972D01*
X315496Y-50969D02*
X311497D01*
X313497D01*
Y-38973D01*
X315496D01*
X299501Y-50969D02*
X303500D01*
X305499Y-48970D01*
Y-44971D01*
X303500Y-42972D01*
X299501D01*
X297502Y-44971D01*
Y-46971D01*
X305499D01*
X281507Y-40972D02*
X279508Y-38973D01*
X275509D01*
X273510Y-40972D01*
Y-42972D01*
X275509Y-44971D01*
X277509D01*
X275509D01*
X273510Y-46971D01*
Y-48970D01*
X275509Y-50969D01*
X279508D01*
X281507Y-48970D01*
X380475Y-61464D02*
X378476Y-59465D01*
X374477D01*
X372478Y-61464D01*
Y-69461D01*
X374477Y-71461D01*
X378476D01*
X380475Y-69461D01*
Y-61464D01*
X368479Y-71461D02*
X364480D01*
X366480D01*
Y-59465D01*
X368479Y-61464D01*
X358482Y-71461D02*
Y-69461D01*
X356483D01*
Y-71461D01*
X358482D01*
X340488D02*
X348485D01*
X340488Y-63463D01*
Y-61464D01*
X342487Y-59465D01*
X346486D01*
X348485Y-61464D01*
X336489D02*
X334490Y-59465D01*
X330491D01*
X328492Y-61464D01*
Y-69461D01*
X330491Y-71461D01*
X334490D01*
X336489Y-69461D01*
Y-61464D01*
X316496Y-71461D02*
X324493D01*
X316496Y-63463D01*
Y-61464D01*
X318495Y-59465D01*
X322494D01*
X324493Y-61464D01*
X312497D02*
X310498Y-59465D01*
X306499D01*
X304500Y-61464D01*
Y-69461D01*
X306499Y-71461D01*
X310498D01*
X312497Y-69461D01*
Y-61464D01*
X85336Y-236332D02*
X84003Y-234999D01*
Y-232333D01*
X85336Y-231000D01*
X90667D01*
X92000Y-232333D01*
Y-234999D01*
X90667Y-236332D01*
X85336Y-238997D02*
X84003Y-240330D01*
Y-242996D01*
X85336Y-244329D01*
X86668D01*
X88001Y-242996D01*
Y-241663D01*
Y-242996D01*
X89334Y-244329D01*
X90667D01*
X92000Y-242996D01*
Y-240330D01*
X90667Y-238997D01*
X85336Y-246995D02*
X84003Y-248328D01*
Y-250994D01*
X85336Y-252326D01*
X86668D01*
X88001Y-250994D01*
Y-249661D01*
Y-250994D01*
X89334Y-252326D01*
X90667D01*
X92000Y-250994D01*
Y-248328D01*
X90667Y-246995D01*
X356000Y-421000D02*
Y-413003D01*
X352001D01*
X350668Y-414336D01*
Y-417001D01*
X352001Y-418334D01*
X356000D01*
X353334D02*
X350668Y-421000D01*
X348003Y-414336D02*
X346670Y-413003D01*
X344004D01*
X342671Y-414336D01*
Y-415668D01*
X344004Y-417001D01*
X345337D01*
X344004D01*
X342671Y-418334D01*
Y-419667D01*
X344004Y-421000D01*
X346670D01*
X348003Y-419667D01*
X340005Y-414336D02*
X338672Y-413003D01*
X336006D01*
X334674Y-414336D01*
Y-415668D01*
X336006Y-417001D01*
X337339D01*
X336006D01*
X334674Y-418334D01*
Y-419667D01*
X336006Y-421000D01*
X338672D01*
X340005Y-419667D01*
X196000Y-386000D02*
X188003D01*
Y-389999D01*
X189335Y-391332D01*
X192001D01*
X193334Y-389999D01*
Y-386000D01*
Y-388666D02*
X196000Y-391332D01*
X189335Y-393997D02*
X188003Y-395330D01*
Y-397996D01*
X189335Y-399329D01*
X190668D01*
X192001Y-397996D01*
Y-396663D01*
Y-397996D01*
X193334Y-399329D01*
X194667D01*
X196000Y-397996D01*
Y-395330D01*
X194667Y-393997D01*
X189335Y-401995D02*
X188003Y-403328D01*
Y-405993D01*
X189335Y-407326D01*
X194667D01*
X196000Y-405993D01*
Y-403328D01*
X194667Y-401995D01*
X189335D01*
X191000Y-230500D02*
X183003D01*
Y-234499D01*
X184335Y-235832D01*
X187001D01*
X188334Y-234499D01*
Y-230500D01*
Y-233166D02*
X191000Y-235832D01*
Y-243829D02*
Y-238497D01*
X185668Y-243829D01*
X184335D01*
X183003Y-242496D01*
Y-239830D01*
X184335Y-238497D01*
X189667Y-246495D02*
X191000Y-247828D01*
Y-250494D01*
X189667Y-251826D01*
X184335D01*
X183003Y-250494D01*
Y-247828D01*
X184335Y-246495D01*
X185668D01*
X187001Y-247828D01*
Y-251826D01*
X217000Y-393003D02*
X211668Y-401000D01*
Y-393003D02*
X217000Y-401000D01*
X209003D02*
X206337D01*
X207670D01*
Y-393003D01*
X209003Y-394336D01*
X170997Y-98000D02*
X165666D01*
X163000Y-95334D01*
X165666Y-92668D01*
X170997D01*
Y-90003D02*
X163000D01*
Y-86004D01*
X164333Y-84671D01*
X169664D01*
X170997Y-86004D01*
Y-90003D01*
X163000Y-82005D02*
Y-79339D01*
Y-80672D01*
X170997D01*
X169664Y-82005D01*
X173000Y-451000D02*
Y-443003D01*
X169001D01*
X167668Y-444336D01*
Y-447001D01*
X169001Y-448334D01*
X173000D01*
X170334D02*
X167668Y-451000D01*
X159671D02*
X165003D01*
X159671Y-445668D01*
Y-444336D01*
X161004Y-443003D01*
X163670D01*
X165003Y-444336D01*
X157005Y-451000D02*
X154339D01*
X155672D01*
Y-443003D01*
X157005Y-444336D01*
X104000Y-121000D02*
Y-113003D01*
X100001D01*
X98668Y-114335D01*
Y-117001D01*
X100001Y-118334D01*
X104000D01*
X101334D02*
X98668Y-121000D01*
X96003Y-119667D02*
X94670Y-121000D01*
X92004D01*
X90671Y-119667D01*
Y-114335D01*
X92004Y-113003D01*
X94670D01*
X96003Y-114335D01*
Y-115668D01*
X94670Y-117001D01*
X90671D01*
X186000Y-110000D02*
X178003D01*
Y-113999D01*
X179335Y-115332D01*
X182001D01*
X183334Y-113999D01*
Y-110000D01*
Y-112666D02*
X186000Y-115332D01*
X179335Y-117997D02*
X178003Y-119330D01*
Y-121996D01*
X179335Y-123329D01*
X180668D01*
X182001Y-121996D01*
X183334Y-123329D01*
X184667D01*
X186000Y-121996D01*
Y-119330D01*
X184667Y-117997D01*
X183334D01*
X182001Y-119330D01*
X180668Y-117997D01*
X179335D01*
X182001Y-119330D02*
Y-121996D01*
X176000Y-27000D02*
Y-19003D01*
X172001D01*
X170668Y-20336D01*
Y-23001D01*
X172001Y-24334D01*
X176000D01*
X173334D02*
X170668Y-27000D01*
X168003Y-20336D02*
X166670Y-19003D01*
X164004D01*
X162671Y-20336D01*
Y-21668D01*
X164004Y-23001D01*
X165337D01*
X164004D01*
X162671Y-24334D01*
Y-25667D01*
X164004Y-27000D01*
X166670D01*
X168003Y-25667D01*
X181000Y-68000D02*
X188997D01*
Y-64001D01*
X187665Y-62668D01*
X184999D01*
X183666Y-64001D01*
Y-68000D01*
Y-65334D02*
X181000Y-62668D01*
Y-54671D02*
Y-60003D01*
X186332Y-54671D01*
X187665D01*
X188997Y-56004D01*
Y-58670D01*
X187665Y-60003D01*
X113000Y-280000D02*
Y-272003D01*
X109001D01*
X107668Y-273335D01*
Y-276001D01*
X109001Y-277334D01*
X113000D01*
X110334D02*
X107668Y-280000D01*
X105003D02*
X102337D01*
X103670D01*
Y-272003D01*
X105003Y-273335D01*
X123667Y-51332D02*
X118336D01*
X117003Y-49999D01*
Y-47333D01*
X118336Y-46000D01*
X123667D01*
X125000Y-47333D01*
Y-49999D01*
X122334Y-48666D02*
X125000Y-51332D01*
Y-49999D02*
X123667Y-51332D01*
X125000Y-53997D02*
Y-56663D01*
Y-55330D01*
X117003D01*
X118336Y-53997D01*
X196003Y-446000D02*
X204000D01*
Y-451332D01*
X202667Y-453997D02*
X204000Y-455330D01*
Y-457996D01*
X202667Y-459329D01*
X197335D01*
X196003Y-457996D01*
Y-455330D01*
X197335Y-453997D01*
X198668D01*
X200001Y-455330D01*
Y-459329D01*
X99000Y-63003D02*
Y-71000D01*
X93668D01*
X85671Y-63003D02*
X91003D01*
Y-67001D01*
X88337Y-65668D01*
X87004D01*
X85671Y-67001D01*
Y-69667D01*
X87004Y-71000D01*
X89670D01*
X91003Y-69667D01*
X90003Y-40000D02*
X98000D01*
Y-45332D01*
Y-51996D02*
X90003D01*
X94001Y-47997D01*
Y-53329D01*
X135668Y-442836D02*
X137001Y-441503D01*
X139667D01*
X141000Y-442836D01*
Y-448167D01*
X139667Y-449500D01*
X137001D01*
X135668Y-448167D01*
X127671Y-449500D02*
X133003D01*
X127671Y-444169D01*
Y-442836D01*
X129004Y-441503D01*
X131670D01*
X133003Y-442836D01*
X125005D02*
X123672Y-441503D01*
X121006D01*
X119674Y-442836D01*
Y-448167D01*
X121006Y-449500D01*
X123672D01*
X125005Y-448167D01*
Y-442836D01*
X180668Y-353335D02*
X182001Y-352003D01*
X184667D01*
X186000Y-353335D01*
Y-358667D01*
X184667Y-360000D01*
X182001D01*
X180668Y-358667D01*
X178003Y-360000D02*
X175337D01*
X176670D01*
Y-352003D01*
X178003Y-353335D01*
X171338D02*
X170005Y-352003D01*
X167339D01*
X166006Y-353335D01*
Y-354668D01*
X167339Y-356001D01*
X166006Y-357334D01*
Y-358667D01*
X167339Y-360000D01*
X170005D01*
X171338Y-358667D01*
Y-357334D01*
X170005Y-356001D01*
X171338Y-354668D01*
Y-353335D01*
X170005Y-356001D02*
X167339D01*
X153668Y-148336D02*
X155001Y-147003D01*
X157667D01*
X159000Y-148336D01*
Y-153667D01*
X157667Y-155000D01*
X155001D01*
X153668Y-153667D01*
X151003Y-155000D02*
X148337D01*
X149670D01*
Y-147003D01*
X151003Y-148336D01*
X144338D02*
X143005Y-147003D01*
X140339D01*
X139007Y-148336D01*
Y-153667D01*
X140339Y-155000D01*
X143005D01*
X144338Y-153667D01*
Y-148336D01*
X72336Y-88332D02*
X71003Y-86999D01*
Y-84333D01*
X72336Y-83000D01*
X77667D01*
X79000Y-84333D01*
Y-86999D01*
X77667Y-88332D01*
X71003Y-96329D02*
X72336Y-93663D01*
X75001Y-90997D01*
X77667D01*
X79000Y-92330D01*
Y-94996D01*
X77667Y-96329D01*
X76334D01*
X75001Y-94996D01*
Y-90997D01*
X425000Y-358000D02*
X417003D01*
Y-361999D01*
X418335Y-363332D01*
X421001D01*
X422334Y-361999D01*
Y-358000D01*
Y-360666D02*
X425000Y-363332D01*
X418335Y-365997D02*
X417003Y-367330D01*
Y-369996D01*
X418335Y-371329D01*
X419668D01*
X421001Y-369996D01*
Y-368663D01*
Y-369996D01*
X422334Y-371329D01*
X423667D01*
X425000Y-369996D01*
Y-367330D01*
X423667Y-365997D01*
X425000Y-377994D02*
X417003D01*
X421001Y-373995D01*
Y-379326D01*
X301997Y-440000D02*
Y-434002D01*
Y-437001D01*
X293000D01*
X301997Y-431003D02*
X293000Y-425005D01*
X301997D02*
X293000Y-431003D01*
X319000Y-439000D02*
X327997D01*
Y-434501D01*
X326498Y-433002D01*
X323498D01*
X321999Y-434501D01*
Y-439000D01*
Y-436001D02*
X319000Y-433002D01*
X327997Y-430003D02*
X319000Y-424005D01*
X327997D02*
X319000Y-430003D01*
X254498Y-423002D02*
X255997Y-424501D01*
Y-427500D01*
X254498Y-429000D01*
X248500D01*
X247000Y-427500D01*
Y-424501D01*
X248500Y-423002D01*
X255997Y-420003D02*
X247000D01*
Y-414005D01*
X255997Y-411006D02*
X247000D01*
X249999D01*
X255997Y-405008D01*
X251499Y-409506D01*
X247000Y-405008D01*
X278997Y-432003D02*
X280996Y-434002D01*
Y-438001D01*
X278997Y-440000D01*
X270999D01*
X269000Y-438001D01*
Y-434002D01*
X270999Y-432003D01*
X274998D01*
Y-436001D01*
D70*
X146512Y-94619D02*
X146131Y-95000D01*
X145750Y-94619D01*
X146131Y-94238D01*
X146512Y-94619D01*
D114*
X328032Y-123350D02*
X326628Y-121417D01*
X324356Y-122156D01*
Y-124544D01*
X326628Y-125283D01*
X328032Y-123350D01*
D115*
X102000Y-219590D02*
Y-176410D01*
X136510D01*
X102000Y-219590D02*
X136510D01*
Y-176410D01*
X320920Y-128430D02*
X326000Y-123350D01*
X320920Y-118270D02*
X326000Y-123350D01*
X331080Y-128430D01*
X308220Y-123350D02*
X326000D01*
X336160D01*
X326000Y-133510D02*
Y-123350D01*
Y-113190D01*
Y-123350D02*
X331080Y-118270D01*
D116*
X326000Y-93548D02*
X353178Y-140622D01*
X298822D02*
X326000Y-93548D01*
X298822Y-140622D02*
X353178D01*
M02*
