G04 Layer_Physical_Order=1*
G04 Layer_Color=255*
%FSLAX44Y44*%
%MOMM*%
G71*
G01*
G75*
%ADD10R,1.5000X2.0000*%
G04:AMPARAMS|DCode=11|XSize=1mm|YSize=0.9mm|CornerRadius=0.1125mm|HoleSize=0mm|Usage=FLASHONLY|Rotation=180.000|XOffset=0mm|YOffset=0mm|HoleType=Round|Shape=RoundedRectangle|*
%AMROUNDEDRECTD11*
21,1,1.0000,0.6750,0,0,180.0*
21,1,0.7750,0.9000,0,0,180.0*
1,1,0.2250,-0.3875,0.3375*
1,1,0.2250,0.3875,0.3375*
1,1,0.2250,0.3875,-0.3375*
1,1,0.2250,-0.3875,-0.3375*
%
%ADD11ROUNDEDRECTD11*%
%ADD12R,0.5000X0.5000*%
G04:AMPARAMS|DCode=13|XSize=1mm|YSize=0.9mm|CornerRadius=0.1125mm|HoleSize=0mm|Usage=FLASHONLY|Rotation=90.000|XOffset=0mm|YOffset=0mm|HoleType=Round|Shape=RoundedRectangle|*
%AMROUNDEDRECTD13*
21,1,1.0000,0.6750,0,0,90.0*
21,1,0.7750,0.9000,0,0,90.0*
1,1,0.2250,0.3375,0.3875*
1,1,0.2250,0.3375,-0.3875*
1,1,0.2250,-0.3375,-0.3875*
1,1,0.2250,-0.3375,0.3875*
%
%ADD13ROUNDEDRECTD13*%
%ADD14R,3.6000X3.6000*%
%ADD15O,0.8500X0.2500*%
%ADD16O,0.2500X0.8500*%
G04:AMPARAMS|DCode=17|XSize=1.4mm|YSize=1mm|CornerRadius=0.125mm|HoleSize=0mm|Usage=FLASHONLY|Rotation=180.000|XOffset=0mm|YOffset=0mm|HoleType=Round|Shape=RoundedRectangle|*
%AMROUNDEDRECTD17*
21,1,1.4000,0.7500,0,0,180.0*
21,1,1.1500,1.0000,0,0,180.0*
1,1,0.2500,-0.5750,0.3750*
1,1,0.2500,0.5750,0.3750*
1,1,0.2500,0.5750,-0.3750*
1,1,0.2500,-0.5750,-0.3750*
%
%ADD17ROUNDEDRECTD17*%
G04:AMPARAMS|DCode=18|XSize=1.4mm|YSize=1mm|CornerRadius=0.125mm|HoleSize=0mm|Usage=FLASHONLY|Rotation=270.000|XOffset=0mm|YOffset=0mm|HoleType=Round|Shape=RoundedRectangle|*
%AMROUNDEDRECTD18*
21,1,1.4000,0.7500,0,0,270.0*
21,1,1.1500,1.0000,0,0,270.0*
1,1,0.2500,-0.3750,-0.5750*
1,1,0.2500,-0.3750,0.5750*
1,1,0.2500,0.3750,0.5750*
1,1,0.2500,0.3750,-0.5750*
%
%ADD18ROUNDEDRECTD18*%
G04:AMPARAMS|DCode=19|XSize=0.65mm|YSize=0.5mm|CornerRadius=0.05mm|HoleSize=0mm|Usage=FLASHONLY|Rotation=90.000|XOffset=0mm|YOffset=0mm|HoleType=Round|Shape=RoundedRectangle|*
%AMROUNDEDRECTD19*
21,1,0.6500,0.4000,0,0,90.0*
21,1,0.5500,0.5000,0,0,90.0*
1,1,0.1000,0.2000,0.2750*
1,1,0.1000,0.2000,-0.2750*
1,1,0.1000,-0.2000,-0.2750*
1,1,0.1000,-0.2000,0.2750*
%
%ADD19ROUNDEDRECTD19*%
%ADD20O,0.3000X1.8000*%
%ADD21O,1.8000X0.3000*%
%ADD22R,1.1000X0.6500*%
G04:AMPARAMS|DCode=23|XSize=3.5mm|YSize=1.75mm|CornerRadius=0.2188mm|HoleSize=0mm|Usage=FLASHONLY|Rotation=90.000|XOffset=0mm|YOffset=0mm|HoleType=Round|Shape=RoundedRectangle|*
%AMROUNDEDRECTD23*
21,1,3.5000,1.3125,0,0,90.0*
21,1,3.0625,1.7500,0,0,90.0*
1,1,0.4375,0.6563,1.5313*
1,1,0.4375,0.6563,-1.5313*
1,1,0.4375,-0.6563,-1.5313*
1,1,0.4375,-0.6563,1.5313*
%
%ADD23ROUNDEDRECTD23*%
G04:AMPARAMS|DCode=24|XSize=1.1mm|YSize=1.75mm|CornerRadius=0.1375mm|HoleSize=0mm|Usage=FLASHONLY|Rotation=90.000|XOffset=0mm|YOffset=0mm|HoleType=Round|Shape=RoundedRectangle|*
%AMROUNDEDRECTD24*
21,1,1.1000,1.4750,0,0,90.0*
21,1,0.8250,1.7500,0,0,90.0*
1,1,0.2750,0.7375,0.4125*
1,1,0.2750,0.7375,-0.4125*
1,1,0.2750,-0.7375,-0.4125*
1,1,0.2750,-0.7375,0.4125*
%
%ADD24ROUNDEDRECTD24*%
G04:AMPARAMS|DCode=25|XSize=1.1mm|YSize=1.75mm|CornerRadius=0.1375mm|HoleSize=0mm|Usage=FLASHONLY|Rotation=90.000|XOffset=0mm|YOffset=0mm|HoleType=Round|Shape=RoundedRectangle|*
%AMROUNDEDRECTD25*
21,1,1.1000,1.4750,0,0,90.0*
21,1,0.8250,1.7500,0,0,90.0*
1,1,0.2750,0.7375,0.4125*
1,1,0.2750,0.7375,-0.4125*
1,1,0.2750,-0.7375,-0.4125*
1,1,0.2750,-0.7375,0.4125*
%
%ADD25ROUNDEDRECTD25*%
%ADD26R,1.0500X1.0000*%
%ADD27R,2.2000X1.0500*%
%ADD28R,1.3000X1.5000*%
%ADD29R,4.0000X3.0000*%
%ADD30R,0.8000X0.3400*%
%ADD31R,0.6500X0.3400*%
%ADD32R,1.7100X2.2900*%
G04:AMPARAMS|DCode=33|XSize=1.3mm|YSize=0.8mm|CornerRadius=0.1mm|HoleSize=0mm|Usage=FLASHONLY|Rotation=180.000|XOffset=0mm|YOffset=0mm|HoleType=Round|Shape=RoundedRectangle|*
%AMROUNDEDRECTD33*
21,1,1.3000,0.6000,0,0,180.0*
21,1,1.1000,0.8000,0,0,180.0*
1,1,0.2000,-0.5500,0.3000*
1,1,0.2000,0.5500,0.3000*
1,1,0.2000,0.5500,-0.3000*
1,1,0.2000,-0.5500,-0.3000*
%
%ADD33ROUNDEDRECTD33*%
G04:AMPARAMS|DCode=34|XSize=1.3mm|YSize=0.8mm|CornerRadius=0.1mm|HoleSize=0mm|Usage=FLASHONLY|Rotation=270.000|XOffset=0mm|YOffset=0mm|HoleType=Round|Shape=RoundedRectangle|*
%AMROUNDEDRECTD34*
21,1,1.3000,0.6000,0,0,270.0*
21,1,1.1000,0.8000,0,0,270.0*
1,1,0.2000,-0.3000,-0.5500*
1,1,0.2000,-0.3000,0.5500*
1,1,0.2000,0.3000,0.5500*
1,1,0.2000,0.3000,-0.5500*
%
%ADD34ROUNDEDRECTD34*%
%ADD35R,0.7000X1.3000*%
%ADD36R,1.0000X1.0000*%
%ADD37R,1.3000X2.4000*%
%ADD38R,0.9500X0.6000*%
%ADD39R,0.9500X0.9000*%
%ADD40R,0.9500X0.9000*%
%ADD41C,0.5000*%
%ADD42C,0.3000*%
%ADD43C,0.4000*%
%ADD44C,0.2000*%
%ADD45C,0.7500*%
%ADD46C,1.0000*%
%ADD47C,0.9000*%
%ADD48C,0.8000*%
%ADD49C,0.8000*%
%ADD50R,1.4000X1.4000*%
%ADD51C,1.4000*%
%ADD52C,3.5000*%
%ADD53C,0.9000*%
%ADD54C,1.0000*%
%ADD55C,0.6000*%
G36*
X317000Y-10000D02*
Y-19419D01*
X313125D01*
X311516Y-19739D01*
X310231Y-20597D01*
X309000Y-20435D01*
X307042Y-20693D01*
X305838Y-21192D01*
X285844D01*
X285529Y-20721D01*
X284082Y-19754D01*
X282375Y-19414D01*
X267625D01*
X265918Y-19754D01*
X264471Y-20721D01*
X263504Y-22168D01*
X263164Y-23875D01*
Y-32125D01*
X263504Y-33832D01*
X264471Y-35279D01*
X265918Y-36246D01*
X267625Y-36586D01*
X282375D01*
X284082Y-36246D01*
X285529Y-35279D01*
X285844Y-34808D01*
X305838D01*
X307042Y-35307D01*
X309000Y-35565D01*
X309045Y-35559D01*
X310000Y-36396D01*
Y-38705D01*
X309673Y-39195D01*
X309388Y-40625D01*
Y-42730D01*
X317000D01*
Y-45270D01*
X309388D01*
Y-47256D01*
X309283Y-47344D01*
X307926Y-47353D01*
X307814Y-47186D01*
X306408Y-46247D01*
X304750Y-45917D01*
X293250D01*
X291592Y-46247D01*
X291189Y-46516D01*
X290146Y-45819D01*
X288000Y-45392D01*
X286541D01*
X286496Y-45168D01*
X285529Y-43721D01*
X284082Y-42754D01*
X282375Y-42414D01*
X267625D01*
X265918Y-42754D01*
X265653Y-42931D01*
X263000D01*
X260912Y-43206D01*
X258965Y-44012D01*
X257294Y-45294D01*
X256012Y-46965D01*
X255206Y-48912D01*
X254931Y-51000D01*
X255206Y-53088D01*
X256012Y-55034D01*
X257294Y-56706D01*
X258965Y-57988D01*
X260912Y-58794D01*
X263000Y-59069D01*
X265653D01*
X265918Y-59246D01*
X267625Y-59586D01*
X282375D01*
X284082Y-59246D01*
X285529Y-58279D01*
X285702Y-58021D01*
X286613Y-57931D01*
X287195Y-58072D01*
X288854Y-59181D01*
X289216Y-59253D01*
X289247Y-59408D01*
X290000Y-60536D01*
Y-66292D01*
X289680Y-66771D01*
X289386Y-68250D01*
Y-70730D01*
X299000D01*
Y-72000D01*
D01*
Y-70730D01*
X308614D01*
Y-68250D01*
X308320Y-66771D01*
X308000Y-66292D01*
Y-60536D01*
X308753Y-59408D01*
X309083Y-57750D01*
Y-50250D01*
X309072Y-50191D01*
X310268Y-49696D01*
X310483Y-50017D01*
X311695Y-50827D01*
X313125Y-51112D01*
X317000D01*
Y-77000D01*
X305000Y-89000D01*
X305000Y-117000D01*
Y-295912D01*
X292317D01*
X291349Y-294651D01*
X289782Y-293449D01*
X287958Y-292693D01*
X286000Y-292435D01*
X284042Y-292693D01*
X282218Y-293449D01*
X280651Y-294651D01*
X279449Y-296218D01*
X278693Y-298042D01*
X278435Y-300000D01*
X278693Y-301958D01*
X279449Y-303782D01*
X280651Y-305349D01*
X282218Y-306551D01*
X282460Y-306652D01*
X282208Y-307922D01*
X265868D01*
X265020Y-306652D01*
X265307Y-305958D01*
X265565Y-304000D01*
X265307Y-302042D01*
X264551Y-300218D01*
X263349Y-298651D01*
X261782Y-297449D01*
X259958Y-296693D01*
X258000Y-296435D01*
X256042Y-296693D01*
X254218Y-297449D01*
X252651Y-298651D01*
X251449Y-300218D01*
X250693Y-302042D01*
X250435Y-304000D01*
X250693Y-305958D01*
X250980Y-306652D01*
X250132Y-307922D01*
X248324D01*
X247349Y-306651D01*
X245782Y-305449D01*
X243958Y-304693D01*
X242000Y-304435D01*
X240042Y-304693D01*
X238218Y-305449D01*
X236651Y-306651D01*
X235449Y-308218D01*
X234693Y-310042D01*
X234435Y-312000D01*
X234693Y-313958D01*
X235449Y-315782D01*
X236386Y-317004D01*
X236242Y-318241D01*
X236108Y-318533D01*
X234651Y-319651D01*
X233449Y-321218D01*
X232693Y-323042D01*
X232435Y-325000D01*
X232693Y-326958D01*
X233449Y-328782D01*
X234651Y-330349D01*
X236218Y-331551D01*
X238042Y-332307D01*
X240000Y-332565D01*
X241958Y-332307D01*
X243782Y-331551D01*
X245349Y-330349D01*
X246324Y-329078D01*
X288676D01*
X289651Y-330349D01*
X291218Y-331551D01*
X293042Y-332307D01*
X295000Y-332565D01*
X296958Y-332307D01*
X298782Y-331551D01*
X300349Y-330349D01*
X301551Y-328782D01*
X302307Y-326958D01*
X302565Y-325000D01*
X302307Y-323042D01*
X301551Y-321218D01*
X300349Y-319651D01*
X298782Y-318449D01*
X296958Y-317693D01*
X295000Y-317435D01*
X293042Y-317693D01*
X291218Y-318449D01*
X289651Y-319651D01*
X288676Y-320922D01*
X246441D01*
X245620Y-319943D01*
X245758Y-318759D01*
X245892Y-318467D01*
X247349Y-317349D01*
X248324Y-316078D01*
X305000D01*
Y-330000D01*
X313947D01*
X314509Y-331139D01*
X314449Y-331218D01*
X313693Y-333042D01*
X313496Y-334541D01*
X313235Y-335100D01*
X312233Y-335598D01*
X311000Y-335435D01*
X309042Y-335693D01*
X307218Y-336449D01*
X305651Y-337651D01*
X304449Y-339218D01*
X303693Y-341042D01*
X303435Y-343000D01*
X303693Y-344958D01*
X304449Y-346782D01*
X305651Y-348349D01*
X306912Y-349317D01*
Y-351074D01*
X306500Y-351412D01*
X304744Y-351761D01*
X304000Y-352258D01*
X303256Y-351761D01*
X301500Y-351412D01*
X301088Y-351074D01*
Y-347500D01*
X300739Y-345744D01*
X299744Y-344256D01*
X299440Y-343951D01*
X299565Y-343000D01*
X299307Y-341042D01*
X298551Y-339218D01*
X297349Y-337651D01*
X295782Y-336449D01*
X293958Y-335693D01*
X292000Y-335435D01*
X290042Y-335693D01*
X288218Y-336449D01*
X287020Y-337368D01*
X286899Y-337401D01*
X285789Y-337277D01*
X285450Y-337130D01*
X285017Y-336483D01*
X283805Y-335673D01*
X282375Y-335388D01*
X280270D01*
Y-343000D01*
X277730D01*
Y-335388D01*
X275625D01*
X274195Y-335673D01*
X273705Y-336000D01*
X268123D01*
X266984Y-335239D01*
X265375Y-334919D01*
X258625D01*
X257015Y-335239D01*
X255651Y-336151D01*
X254739Y-337515D01*
X254723Y-337595D01*
X254651Y-337651D01*
X253449Y-339218D01*
X252693Y-341042D01*
X252435Y-343000D01*
X252693Y-344958D01*
X253449Y-346782D01*
X253622Y-347007D01*
X252821Y-348051D01*
X251958Y-347693D01*
X250000Y-347435D01*
X248042Y-347693D01*
X246218Y-348449D01*
X244651Y-349651D01*
X243449Y-351218D01*
X242693Y-353042D01*
X242435Y-355000D01*
X242693Y-356958D01*
X243449Y-358782D01*
X244651Y-360349D01*
X245412Y-360933D01*
Y-369108D01*
X244142Y-369725D01*
X242827Y-369180D01*
X241000Y-368940D01*
X239173Y-369180D01*
X237470Y-369885D01*
X236008Y-371008D01*
X234886Y-372470D01*
X234180Y-374173D01*
X233940Y-376000D01*
X234180Y-377827D01*
X234886Y-379530D01*
X236008Y-380993D01*
X236454Y-381335D01*
X236137Y-382693D01*
X235939Y-382732D01*
X234616Y-383616D01*
X234616Y-383616D01*
X233285Y-384947D01*
X232112Y-384461D01*
Y-384270D01*
X225000D01*
Y-381730D01*
X232112D01*
Y-379125D01*
X231828Y-377695D01*
X231071Y-376562D01*
X231020Y-376445D01*
X231104Y-375013D01*
X231349Y-374849D01*
X232261Y-373484D01*
X232581Y-371875D01*
Y-364125D01*
X232261Y-362515D01*
X231349Y-361151D01*
X229984Y-360239D01*
X228375Y-359919D01*
X226645D01*
X226119Y-358649D01*
X228708Y-356059D01*
X229000Y-356118D01*
X231341Y-355652D01*
X233326Y-354326D01*
X234652Y-352341D01*
X235117Y-350000D01*
X234652Y-347659D01*
X233326Y-345674D01*
X231341Y-344348D01*
X230328Y-344147D01*
X230581Y-342875D01*
Y-335125D01*
X230261Y-333516D01*
X229349Y-332151D01*
X227985Y-331239D01*
X226375Y-330919D01*
X219625D01*
X218015Y-331239D01*
X216877Y-332000D01*
X212123D01*
X210984Y-331239D01*
X209375Y-330919D01*
X202625D01*
X201015Y-331239D01*
X199651Y-332151D01*
X198739Y-333516D01*
X198419Y-335125D01*
Y-342875D01*
X197415Y-344198D01*
X196659Y-344348D01*
X194674Y-345674D01*
X194190Y-346398D01*
X193116Y-347116D01*
X178811Y-361422D01*
X178531D01*
X177250Y-361167D01*
X171833D01*
Y-355750D01*
X171503Y-354092D01*
X170564Y-352686D01*
X169158Y-351747D01*
X167500Y-351417D01*
X165842Y-351747D01*
X165000Y-352309D01*
X164158Y-351747D01*
X162500Y-351417D01*
X160842Y-351747D01*
X160000Y-352309D01*
X159158Y-351747D01*
X157500Y-351417D01*
X155842Y-351747D01*
X155000Y-352309D01*
X154158Y-351747D01*
X152500Y-351417D01*
X150842Y-351747D01*
X149586Y-352586D01*
X148979Y-352180D01*
X147709Y-351927D01*
X147399Y-351287D01*
X147290Y-350648D01*
X147493Y-350493D01*
X148615Y-349030D01*
X149320Y-347327D01*
X149560Y-345500D01*
X149320Y-343673D01*
X148615Y-341970D01*
X147493Y-340508D01*
X146030Y-339386D01*
X144327Y-338680D01*
X142500Y-338440D01*
X140673Y-338680D01*
X138970Y-339386D01*
X137508Y-340508D01*
X136386Y-341970D01*
X135680Y-343673D01*
X135440Y-345500D01*
X135680Y-347327D01*
X136386Y-349030D01*
X137263Y-350173D01*
X137018Y-351233D01*
X136806Y-351555D01*
X135842Y-351747D01*
X135000Y-352309D01*
X134158Y-351747D01*
X132500Y-351417D01*
X130842Y-351747D01*
X129436Y-352686D01*
X128497Y-354092D01*
X128167Y-355750D01*
Y-361167D01*
X122750D01*
X121469Y-361422D01*
X116534D01*
X115686Y-360152D01*
X115820Y-359827D01*
X116060Y-358000D01*
X115820Y-356173D01*
X115114Y-354470D01*
X113993Y-353008D01*
X112530Y-351886D01*
X110827Y-351180D01*
X109000Y-350940D01*
X107173Y-351180D01*
X105470Y-351886D01*
X104008Y-353008D01*
X102886Y-354470D01*
X102180Y-356173D01*
X101940Y-358000D01*
X102180Y-359827D01*
X102886Y-361530D01*
X104008Y-362993D01*
X104967Y-363729D01*
X105041Y-363899D01*
Y-365101D01*
X104967Y-365271D01*
X104008Y-366007D01*
X102886Y-367470D01*
X102810Y-367653D01*
X102116Y-368116D01*
X102116Y-368116D01*
X96813Y-373419D01*
X91125D01*
X89515Y-373739D01*
X88151Y-374651D01*
X87239Y-376016D01*
X86919Y-377625D01*
Y-384375D01*
X87239Y-385984D01*
X88000Y-387123D01*
Y-391877D01*
X87239Y-393016D01*
X86919Y-394625D01*
Y-401375D01*
X87239Y-402985D01*
X88109Y-404286D01*
X88180Y-404827D01*
X88885Y-406530D01*
X90007Y-407993D01*
X91470Y-409114D01*
X93173Y-409820D01*
X95000Y-410060D01*
X96827Y-409820D01*
X98530Y-409114D01*
X99992Y-407993D01*
X101115Y-406530D01*
X101820Y-404827D01*
X101891Y-404286D01*
X102761Y-402985D01*
X102844Y-402563D01*
X103381Y-402300D01*
X104220Y-402156D01*
X105470Y-403115D01*
X107173Y-403820D01*
X109000Y-404060D01*
X110827Y-403820D01*
X112530Y-403115D01*
X113993Y-401992D01*
X115114Y-400530D01*
X115820Y-398827D01*
X116060Y-397000D01*
X115910Y-395857D01*
X116970Y-394797D01*
X118348Y-394845D01*
X118886Y-395500D01*
X119180Y-396979D01*
X119586Y-397586D01*
X118747Y-398842D01*
X118417Y-400500D01*
X118747Y-402158D01*
X119686Y-403564D01*
X121092Y-404503D01*
X122750Y-404833D01*
X128167D01*
Y-410250D01*
X128302Y-410930D01*
X125986Y-413246D01*
X125827Y-413180D01*
X124000Y-412940D01*
X122173Y-413180D01*
X120470Y-413885D01*
X119008Y-415008D01*
X117886Y-416470D01*
X117180Y-418173D01*
X116940Y-420000D01*
X117180Y-421827D01*
X117886Y-423530D01*
X119008Y-424992D01*
X120470Y-426115D01*
X122173Y-426820D01*
X124000Y-427060D01*
X125827Y-426820D01*
X127530Y-426115D01*
X128993Y-424992D01*
X130114Y-423530D01*
X130820Y-421827D01*
X131060Y-420000D01*
X131026Y-419741D01*
X133007Y-417761D01*
X133558Y-417954D01*
X134148Y-418415D01*
X133940Y-420000D01*
X134180Y-421827D01*
X134886Y-423530D01*
X136008Y-424992D01*
X137470Y-426115D01*
X139173Y-426820D01*
X141000Y-427060D01*
X142827Y-426820D01*
X144530Y-426115D01*
X145923Y-425045D01*
X147251Y-425159D01*
X147508Y-425492D01*
X148970Y-426614D01*
X150673Y-427320D01*
X152500Y-427560D01*
X154327Y-427320D01*
X156030Y-426614D01*
X157493Y-425492D01*
X158615Y-424030D01*
X159320Y-422327D01*
X159560Y-420500D01*
X159320Y-418673D01*
X158615Y-416970D01*
X157738Y-415827D01*
X157982Y-414767D01*
X158194Y-414445D01*
X159158Y-414253D01*
X160000Y-413691D01*
X160842Y-414253D01*
X162500Y-414583D01*
X163422Y-415340D01*
Y-417218D01*
X163732Y-418778D01*
X164616Y-420102D01*
X165939Y-420985D01*
X167500Y-421296D01*
X183782D01*
X183782Y-421296D01*
X185343Y-420985D01*
X186666Y-420102D01*
X189689Y-417078D01*
X230132D01*
X230980Y-418348D01*
X230693Y-419042D01*
X230435Y-421000D01*
X230693Y-422958D01*
X231449Y-424782D01*
X232651Y-426349D01*
X234218Y-427551D01*
X234879Y-427825D01*
X235127Y-429071D01*
X218756Y-445442D01*
X217761Y-446930D01*
X217412Y-448686D01*
Y-456697D01*
X217008Y-457007D01*
X215886Y-458470D01*
X215180Y-460173D01*
X214940Y-462000D01*
X215180Y-463827D01*
X215886Y-465530D01*
X217008Y-466992D01*
X218470Y-468115D01*
X220173Y-468820D01*
X219870Y-470000D01*
X35619D01*
X35431Y-468730D01*
X37498Y-468103D01*
X40886Y-466292D01*
X43855Y-463855D01*
X46292Y-460886D01*
X48103Y-457498D01*
X49218Y-453823D01*
X49594Y-450000D01*
X49218Y-446177D01*
X48103Y-442502D01*
X46292Y-439114D01*
X43855Y-436145D01*
X40886Y-433708D01*
X37498Y-431897D01*
X33823Y-430782D01*
X30000Y-430406D01*
X26177Y-430782D01*
X22502Y-431897D01*
X19114Y-433708D01*
X16145Y-436145D01*
X13708Y-439114D01*
X11897Y-442502D01*
X11270Y-444569D01*
X10000Y-444381D01*
Y-356651D01*
X11247Y-356408D01*
X12000Y-357536D01*
Y-363292D01*
X11680Y-363771D01*
X11386Y-365250D01*
Y-367730D01*
X30614D01*
Y-365250D01*
X30320Y-363771D01*
X30000Y-363292D01*
Y-357536D01*
X30753Y-356408D01*
X30884Y-355750D01*
X34392D01*
Y-362538D01*
X33739Y-363516D01*
X33419Y-365125D01*
Y-372875D01*
X33739Y-374484D01*
X34651Y-375849D01*
X35392Y-376344D01*
Y-387656D01*
X34651Y-388151D01*
X33739Y-389515D01*
X33419Y-391125D01*
Y-398875D01*
X33739Y-400485D01*
X33867Y-400676D01*
X33282Y-402087D01*
X32515Y-402239D01*
X31377Y-403000D01*
X26623D01*
X25484Y-402239D01*
X23875Y-401919D01*
X17125D01*
X15516Y-402239D01*
X14151Y-403151D01*
X13239Y-404515D01*
X12919Y-406125D01*
Y-407496D01*
X12693Y-408042D01*
X12435Y-410000D01*
X12693Y-411958D01*
X12919Y-412504D01*
Y-413875D01*
X13239Y-415485D01*
X14151Y-416849D01*
X15516Y-417761D01*
X17125Y-418081D01*
X23875D01*
X25484Y-417761D01*
X26623Y-417000D01*
X31377D01*
X32515Y-417761D01*
X34125Y-418081D01*
X40875D01*
X41939Y-417869D01*
X59919Y-435850D01*
Y-439875D01*
X60239Y-441484D01*
X61151Y-442849D01*
X62000Y-443416D01*
Y-446584D01*
X61151Y-447151D01*
X60239Y-448516D01*
X59919Y-450125D01*
Y-456875D01*
X60239Y-458484D01*
X61151Y-459849D01*
X62516Y-460761D01*
X64125Y-461081D01*
X71875D01*
X73260Y-460805D01*
X74193Y-461082D01*
X74602Y-461267D01*
X74693Y-461958D01*
X75449Y-463782D01*
X76651Y-465349D01*
X78218Y-466551D01*
X80042Y-467307D01*
X82000Y-467565D01*
X83958Y-467307D01*
X85782Y-466551D01*
X87349Y-465349D01*
X88551Y-463782D01*
X89307Y-461958D01*
X89565Y-460000D01*
X89307Y-458042D01*
X88551Y-456218D01*
X87349Y-454651D01*
X85782Y-453449D01*
X83958Y-452693D01*
X82000Y-452435D01*
X81049Y-452561D01*
X78744Y-450256D01*
X77256Y-449261D01*
X75854Y-448982D01*
X75761Y-448516D01*
X74849Y-447151D01*
X74000Y-446584D01*
Y-443416D01*
X74849Y-442849D01*
X75761Y-441484D01*
X76081Y-439875D01*
Y-433125D01*
X75761Y-431516D01*
X74849Y-430151D01*
X73485Y-429239D01*
X71875Y-428919D01*
X68850D01*
X45965Y-406035D01*
X44925Y-405339D01*
X44761Y-404515D01*
X44633Y-404324D01*
X45217Y-402913D01*
X45985Y-402761D01*
X47349Y-401849D01*
X47916Y-401000D01*
X51084D01*
X51651Y-401849D01*
X53015Y-402761D01*
X54625Y-403081D01*
X61375D01*
X62984Y-402761D01*
X63346Y-402519D01*
X64958Y-402307D01*
X66782Y-401551D01*
X68349Y-400349D01*
X69551Y-398782D01*
X70307Y-396958D01*
X70565Y-395000D01*
X70307Y-393042D01*
X69551Y-391218D01*
X68349Y-389651D01*
X66782Y-388449D01*
X64958Y-387693D01*
X63346Y-387481D01*
X62984Y-387239D01*
X61375Y-386919D01*
X54625D01*
X53015Y-387239D01*
X51651Y-388151D01*
X51084Y-389000D01*
X47916D01*
X47349Y-388151D01*
X46608Y-387656D01*
Y-376344D01*
X47123Y-376000D01*
X52705D01*
X53195Y-376327D01*
X54625Y-376612D01*
X56730D01*
Y-369000D01*
X59270D01*
Y-376612D01*
X61375D01*
X62805Y-376327D01*
X64017Y-375517D01*
X64118Y-375366D01*
X65317Y-375730D01*
X73000D01*
Y-377000D01*
D01*
Y-375730D01*
X80612D01*
Y-373625D01*
X80327Y-372195D01*
X80000Y-371705D01*
Y-366123D01*
X80761Y-364985D01*
X81081Y-363375D01*
Y-356625D01*
X80761Y-355015D01*
X79849Y-353651D01*
X79559Y-353457D01*
X79820Y-352827D01*
X80060Y-350999D01*
X79820Y-349172D01*
X79284Y-347879D01*
X79914Y-346609D01*
X84500D01*
X85881Y-346335D01*
X87052Y-345552D01*
X87835Y-344381D01*
X88109Y-343000D01*
Y-341270D01*
X79000D01*
Y-338730D01*
X88109D01*
Y-337000D01*
X87835Y-335619D01*
X87500Y-335118D01*
Y-325710D01*
X88268Y-324561D01*
X88578Y-323000D01*
Y-317000D01*
X88268Y-315439D01*
X87384Y-314116D01*
X86061Y-313232D01*
X84500Y-312922D01*
X79689D01*
X76884Y-310116D01*
X75561Y-309232D01*
X74000Y-308922D01*
X74000Y-308922D01*
X64342D01*
X64261Y-308515D01*
X63349Y-307151D01*
X61985Y-306239D01*
X60375Y-305919D01*
X54687D01*
X52578Y-303811D01*
Y-302081D01*
X54375D01*
X55985Y-301761D01*
X57123Y-301000D01*
X61877D01*
X63016Y-301761D01*
X64625Y-302081D01*
X71375D01*
X72985Y-301761D01*
X73750Y-301249D01*
X74516Y-301761D01*
X76125Y-302081D01*
X83875D01*
X85485Y-301761D01*
X86849Y-300849D01*
X87761Y-299485D01*
X88081Y-297875D01*
Y-291125D01*
X87761Y-289515D01*
X87000Y-288377D01*
Y-283623D01*
X87761Y-282484D01*
X88081Y-280875D01*
Y-274125D01*
X87761Y-272516D01*
X86849Y-271151D01*
X85485Y-270239D01*
X83875Y-269919D01*
X76125D01*
X75217Y-270100D01*
X74000Y-269940D01*
X73192Y-270046D01*
X71985Y-269239D01*
X70375Y-268919D01*
X63625D01*
X62016Y-269239D01*
X60877Y-270000D01*
X56123D01*
X54984Y-269239D01*
X53375Y-268919D01*
X46625D01*
X45016Y-269239D01*
X43651Y-270151D01*
X42739Y-271516D01*
X42419Y-273125D01*
Y-278813D01*
X38116Y-283116D01*
X37232Y-284439D01*
X36922Y-286000D01*
X36922Y-286000D01*
Y-305919D01*
X36625D01*
X35015Y-306239D01*
X33651Y-307151D01*
X32739Y-308515D01*
X32460Y-309922D01*
X24000D01*
X22439Y-310232D01*
X22159Y-310419D01*
X16125D01*
X14516Y-310739D01*
X13151Y-311651D01*
X12239Y-313015D01*
X11919Y-314625D01*
Y-321375D01*
X12239Y-322985D01*
X13000Y-324123D01*
Y-328877D01*
X12239Y-330015D01*
X11919Y-331625D01*
Y-338375D01*
X12239Y-339985D01*
X13151Y-341349D01*
X13947Y-341881D01*
X13679Y-343229D01*
X13592Y-343247D01*
X12186Y-344186D01*
X11247Y-345592D01*
X10000Y-345349D01*
Y-35619D01*
X11270Y-35431D01*
X11897Y-37498D01*
X13708Y-40886D01*
X16145Y-43855D01*
X19114Y-46292D01*
X22502Y-48103D01*
X26177Y-49218D01*
X30000Y-49594D01*
X33823Y-49218D01*
X37498Y-48103D01*
X40886Y-46292D01*
X43855Y-43855D01*
X46292Y-40886D01*
X48103Y-37498D01*
X49218Y-33823D01*
X49594Y-30000D01*
X49218Y-26177D01*
X48103Y-22502D01*
X46292Y-19114D01*
X43855Y-16145D01*
X40886Y-13708D01*
X37498Y-11897D01*
X35431Y-11270D01*
X35619Y-10000D01*
X317000Y-10000D01*
D02*
G37*
G36*
X371919Y-59548D02*
Y-62375D01*
X372239Y-63984D01*
X373151Y-65349D01*
X374000Y-65916D01*
Y-69084D01*
X373151Y-69651D01*
X372239Y-71016D01*
X371919Y-72625D01*
Y-79375D01*
X372239Y-80984D01*
X373151Y-82349D01*
X374515Y-83261D01*
X376125Y-83581D01*
X383875D01*
X385485Y-83261D01*
X386462Y-82608D01*
X391500D01*
Y-83250D01*
X396892D01*
Y-86500D01*
X393000D01*
Y-90550D01*
X391730Y-91176D01*
X390782Y-90449D01*
X388958Y-89693D01*
X387346Y-89481D01*
X386984Y-89239D01*
X385375Y-88919D01*
X378625D01*
X377015Y-89239D01*
X375877Y-90000D01*
X371123D01*
X369985Y-89239D01*
X368375Y-88919D01*
X361625D01*
X360015Y-89239D01*
X358651Y-90151D01*
X357739Y-91516D01*
X357419Y-93125D01*
Y-97217D01*
X354756Y-99881D01*
X353761Y-101369D01*
X353412Y-103125D01*
Y-107500D01*
Y-173067D01*
X352651Y-173651D01*
X351449Y-175218D01*
X350693Y-177042D01*
X350435Y-179000D01*
X350693Y-180958D01*
X351449Y-182782D01*
X352651Y-184349D01*
X354218Y-185551D01*
X356042Y-186307D01*
X358000Y-186565D01*
X359958Y-186307D01*
X361782Y-185551D01*
X363349Y-184349D01*
X364551Y-182782D01*
X365307Y-180958D01*
X365565Y-179000D01*
X365307Y-177042D01*
X364551Y-175218D01*
X363349Y-173651D01*
X362588Y-173067D01*
Y-107500D01*
Y-105081D01*
X368375D01*
X369985Y-104761D01*
X371123Y-104000D01*
X375877D01*
X377015Y-104761D01*
X378625Y-105081D01*
X385375D01*
X386984Y-104761D01*
X387346Y-104519D01*
X388958Y-104307D01*
X390782Y-103551D01*
X391730Y-102824D01*
X393000Y-103450D01*
Y-107500D01*
X410730D01*
X412000Y-107500D01*
Y-107500D01*
X412000D01*
Y-107500D01*
X431000D01*
Y-91608D01*
X435500D01*
Y-98711D01*
X435477Y-98727D01*
X434703Y-99884D01*
X434431Y-101250D01*
Y-103803D01*
X434392Y-104000D01*
X434431Y-104197D01*
Y-106750D01*
X434703Y-108116D01*
X435477Y-109273D01*
X435494Y-109285D01*
X435739Y-110515D01*
X435419Y-112125D01*
Y-119875D01*
X435739Y-121484D01*
X436651Y-122849D01*
X437192Y-123210D01*
Y-124790D01*
X436651Y-125151D01*
X435739Y-126516D01*
X435419Y-128125D01*
Y-135875D01*
X435739Y-137485D01*
X436651Y-138849D01*
X437192Y-139210D01*
Y-158000D01*
X437192Y-158000D01*
X437424Y-159762D01*
X438104Y-161404D01*
X439186Y-162814D01*
X445186Y-168814D01*
X446596Y-169896D01*
X448238Y-170576D01*
X449119Y-170692D01*
X450000Y-170808D01*
X450000Y-170808D01*
X452838D01*
X454042Y-171307D01*
X456000Y-171565D01*
X457958Y-171307D01*
X459782Y-170551D01*
X461349Y-169349D01*
X462551Y-167782D01*
X463307Y-165958D01*
X463565Y-164000D01*
X463307Y-162042D01*
X462551Y-160218D01*
X461349Y-158651D01*
X459782Y-157449D01*
X457958Y-156693D01*
X456000Y-156435D01*
X454042Y-156693D01*
X452838Y-157192D01*
X452820D01*
X450808Y-155180D01*
Y-139000D01*
X453877D01*
X455015Y-139761D01*
X456625Y-140081D01*
X463375D01*
X464985Y-139761D01*
X465730Y-139263D01*
X467000Y-139941D01*
Y-242000D01*
X438883Y-242426D01*
X437731Y-241263D01*
X437747Y-240682D01*
X437814Y-240588D01*
X442328D01*
X444000Y-240808D01*
X445762Y-240576D01*
X447404Y-239896D01*
X448814Y-238814D01*
X449896Y-237404D01*
X450576Y-235762D01*
X450808Y-234000D01*
Y-229500D01*
Y-220000D01*
X450576Y-218238D01*
X449896Y-216596D01*
X448814Y-215186D01*
X448513Y-214955D01*
X448326Y-214674D01*
X446341Y-213348D01*
X445688Y-213218D01*
X444256Y-212261D01*
X442500Y-211912D01*
X441045D01*
Y-211550D01*
X429567D01*
X429136Y-210280D01*
X430349Y-209349D01*
X431551Y-207782D01*
X432307Y-205958D01*
X432509Y-204421D01*
X433465Y-203465D01*
X434110Y-202500D01*
X436000D01*
Y-183500D01*
X430042D01*
X429500Y-183392D01*
X428958Y-183500D01*
X420542D01*
X420000Y-183392D01*
X419458Y-183500D01*
X404000D01*
Y-186192D01*
X400000D01*
Y-180500D01*
X398000Y-178500D01*
X388000D01*
X386779Y-179721D01*
X385132Y-179622D01*
X384973Y-179418D01*
X385081Y-178875D01*
Y-172125D01*
X384761Y-170515D01*
X383849Y-169151D01*
X382485Y-168239D01*
X380875Y-167919D01*
X379504D01*
X378958Y-167693D01*
X377000Y-167435D01*
X375042Y-167693D01*
X374496Y-167919D01*
X373125D01*
X371516Y-168239D01*
X370151Y-169151D01*
X369239Y-170515D01*
X368919Y-172125D01*
Y-178875D01*
X369239Y-180485D01*
X370151Y-181849D01*
X371000Y-182416D01*
Y-185584D01*
X370151Y-186151D01*
X369239Y-187516D01*
X368919Y-189125D01*
Y-195875D01*
X369239Y-197484D01*
X370151Y-198849D01*
X371516Y-199761D01*
X373125Y-200081D01*
X380875D01*
X382245Y-199808D01*
X386838D01*
X387515Y-200261D01*
X389125Y-200581D01*
X396875D01*
X398484Y-200261D01*
X399162Y-199808D01*
X404000D01*
Y-202500D01*
X415724D01*
X416035Y-202965D01*
X417491Y-204421D01*
X417693Y-205958D01*
X418449Y-207782D01*
X419651Y-209349D01*
X420864Y-210280D01*
X420433Y-211550D01*
X411450D01*
X411450Y-211550D01*
X411045D01*
Y-211550D01*
X410180Y-211550D01*
X397045D01*
Y-211902D01*
X396494Y-212011D01*
X395006Y-213006D01*
X394011Y-214494D01*
X393662Y-216250D01*
Y-216454D01*
X391816Y-218300D01*
X379000D01*
Y-224518D01*
X377730Y-225197D01*
X377366Y-224953D01*
X376000Y-224681D01*
X372000D01*
X370634Y-224953D01*
X369477Y-225727D01*
X368703Y-226884D01*
X368431Y-228250D01*
Y-233750D01*
X368703Y-235116D01*
X369477Y-236273D01*
X369500Y-236289D01*
Y-243711D01*
X369477Y-243727D01*
X368703Y-244884D01*
X368431Y-246250D01*
Y-251750D01*
X368703Y-253116D01*
X369477Y-254273D01*
X370634Y-255047D01*
X372000Y-255319D01*
X376000D01*
X377366Y-255047D01*
X377903Y-254688D01*
X378670Y-254897D01*
X379302Y-255220D01*
X380139Y-257239D01*
X380419Y-257605D01*
X380566Y-258137D01*
X380820Y-258570D01*
X381012Y-259035D01*
X381350Y-259475D01*
X381631Y-259954D01*
X388631Y-268954D01*
X389387Y-269700D01*
X389290Y-271187D01*
X389055Y-271412D01*
X384500D01*
Y-267750D01*
X367500D01*
Y-280250D01*
X376300D01*
X378000Y-280588D01*
X399412D01*
Y-282500D01*
X399761Y-284256D01*
X400756Y-285744D01*
X401000Y-285989D01*
Y-288348D01*
X399730Y-288730D01*
X398000Y-287000D01*
X388000D01*
X386242Y-288758D01*
X384500Y-288412D01*
Y-286750D01*
X367500D01*
Y-299250D01*
X384261D01*
X384919Y-299908D01*
Y-303092D01*
X382599Y-305412D01*
X350000D01*
X348244Y-305761D01*
X346756Y-306756D01*
X342592Y-310919D01*
X337625D01*
X336016Y-311239D01*
X334877Y-312000D01*
X330123D01*
X328984Y-311239D01*
X327375Y-310919D01*
X321687D01*
X320118Y-309351D01*
X320358Y-308433D01*
X320603Y-308081D01*
X322875D01*
X324484Y-307761D01*
X325849Y-306849D01*
X326236Y-306269D01*
X327764D01*
X328151Y-306849D01*
X329515Y-307761D01*
X331125Y-308081D01*
X338875D01*
X340485Y-307761D01*
X341849Y-306849D01*
X342761Y-305484D01*
X343081Y-303875D01*
Y-301408D01*
X345239Y-299250D01*
X360500D01*
Y-286750D01*
X343500D01*
Y-287607D01*
X343185Y-287796D01*
X342000Y-288000D01*
X340000Y-286000D01*
X330000D01*
X328190Y-287810D01*
X326974Y-287409D01*
X327081Y-286875D01*
Y-280125D01*
X326761Y-278515D01*
X325849Y-277151D01*
X324608Y-276322D01*
Y-275000D01*
X330750D01*
X332750Y-273000D01*
Y-259000D01*
X330750Y-257000D01*
X325664D01*
X325279Y-255730D01*
X325849Y-255349D01*
X326761Y-253985D01*
X327081Y-252375D01*
Y-245625D01*
X326761Y-244016D01*
X326000Y-242877D01*
Y-238123D01*
X326761Y-236985D01*
X327081Y-235375D01*
Y-230408D01*
X329901Y-227588D01*
X337253D01*
X337738Y-228762D01*
X337500Y-229000D01*
Y-239000D01*
X339309Y-240809D01*
X339420Y-241500D01*
X339309Y-242191D01*
X337500Y-244000D01*
Y-254000D01*
X339500Y-256000D01*
X345877D01*
X347015Y-256761D01*
X347412Y-256840D01*
Y-267750D01*
X343500D01*
Y-280250D01*
X360500D01*
Y-267750D01*
X356588D01*
Y-256840D01*
X356984Y-256761D01*
X358349Y-255849D01*
X359261Y-254485D01*
X359581Y-252875D01*
Y-245125D01*
X359261Y-243515D01*
X358453Y-242307D01*
X358325Y-241799D01*
Y-241201D01*
X358453Y-240693D01*
X359261Y-239485D01*
X359581Y-237875D01*
Y-230125D01*
X359261Y-228515D01*
X358349Y-227151D01*
X356984Y-226239D01*
X355375Y-225919D01*
X353408D01*
X347244Y-219756D01*
X345756Y-218761D01*
X344000Y-218412D01*
X328000D01*
X326244Y-218761D01*
X324756Y-219756D01*
X320092Y-224419D01*
X315125D01*
X313515Y-224739D01*
X312151Y-225651D01*
X311239Y-227015D01*
X311236Y-227030D01*
X309966Y-226905D01*
Y-200000D01*
X340000Y-169966D01*
X340000Y-86450D01*
X341270Y-85824D01*
X342218Y-86551D01*
X344042Y-87307D01*
X346000Y-87565D01*
X347958Y-87307D01*
X349782Y-86551D01*
X351349Y-85349D01*
X352551Y-83782D01*
X353307Y-81958D01*
X353565Y-80000D01*
X357000D01*
X369734Y-58777D01*
X370994Y-58622D01*
X371919Y-59548D01*
D02*
G37*
G36*
X398250Y-228250D02*
X399250Y-229250D01*
X401000Y-231000D01*
X392000Y-231000D01*
Y-221000D01*
X396750Y-216250D01*
X398250D01*
Y-228250D01*
D02*
G37*
G36*
X281911Y-371000D02*
X282261Y-372756D01*
X282770Y-373518D01*
Y-374866D01*
X283076Y-374806D01*
X283586Y-374465D01*
X284744Y-375239D01*
X286500Y-375588D01*
X288256Y-375239D01*
X289000Y-374742D01*
X289744Y-375239D01*
X291500Y-375588D01*
X293256Y-375239D01*
X294000Y-374742D01*
X294744Y-375239D01*
X296500Y-375588D01*
X298256Y-375239D01*
X299000Y-374742D01*
X299744Y-375239D01*
X301500Y-375588D01*
X303256Y-375239D01*
X304000Y-374742D01*
X304744Y-375239D01*
X306500Y-375588D01*
X308256Y-375239D01*
X309000Y-374742D01*
X309744Y-375239D01*
X311500Y-375588D01*
X313256Y-375239D01*
X314000Y-374742D01*
X314744Y-375239D01*
X316500Y-375588D01*
X318256Y-375239D01*
X319000Y-374742D01*
X319744Y-375239D01*
X321500Y-375588D01*
X323256Y-375239D01*
X324000Y-374742D01*
X324744Y-375239D01*
X326500Y-375588D01*
X328256Y-375239D01*
X329000Y-374742D01*
X329744Y-375239D01*
X331306Y-375550D01*
X331771Y-375839D01*
X332161Y-376229D01*
X332450Y-376694D01*
X332761Y-378256D01*
X333258Y-379000D01*
X332761Y-379744D01*
X332412Y-381500D01*
X332761Y-383256D01*
X333258Y-384000D01*
X332761Y-384744D01*
X332412Y-386500D01*
X332761Y-388256D01*
X333258Y-389000D01*
X332761Y-389744D01*
X332412Y-391500D01*
X332761Y-393256D01*
X333535Y-394414D01*
X333194Y-394924D01*
X333134Y-395230D01*
X334482D01*
X335244Y-395739D01*
X337000Y-396089D01*
X344500D01*
Y-396911D01*
X337000D01*
X335244Y-397261D01*
X334482Y-397770D01*
X333134D01*
X333194Y-398076D01*
X333535Y-398586D01*
X332761Y-399744D01*
X332412Y-401500D01*
X332761Y-403256D01*
X333258Y-404000D01*
X332761Y-404744D01*
X332412Y-406500D01*
X332761Y-408256D01*
X333258Y-409000D01*
X332761Y-409744D01*
X332412Y-411500D01*
X332761Y-413256D01*
X333258Y-414000D01*
X332761Y-414744D01*
X332412Y-416500D01*
X332761Y-418256D01*
X333258Y-419000D01*
X332761Y-419744D01*
X332412Y-421500D01*
X332761Y-423256D01*
X333258Y-424000D01*
X332761Y-424744D01*
X332412Y-426500D01*
X332761Y-428256D01*
X333258Y-429000D01*
X332761Y-429744D01*
X332450Y-431306D01*
X332161Y-431771D01*
X331771Y-432161D01*
X331306Y-432450D01*
X329744Y-432761D01*
X328586Y-433535D01*
X328076Y-433194D01*
X327770Y-433134D01*
Y-434482D01*
X327261Y-435244D01*
X326911Y-437000D01*
Y-444500D01*
X326089D01*
Y-437000D01*
X325739Y-435244D01*
X325230Y-434482D01*
Y-433134D01*
X324924Y-433194D01*
X324414Y-433535D01*
X323256Y-432761D01*
X321500Y-432412D01*
X319744Y-432761D01*
X319000Y-433258D01*
X318256Y-432761D01*
X316500Y-432412D01*
X314744Y-432761D01*
X313586Y-433535D01*
X313076Y-433194D01*
X312770Y-433134D01*
Y-434482D01*
X312261Y-435244D01*
X311911Y-437000D01*
Y-444500D01*
X311089D01*
Y-437000D01*
X310739Y-435244D01*
X310230Y-434482D01*
Y-433134D01*
X309924Y-433194D01*
X309414Y-433535D01*
X308256Y-432761D01*
X306500Y-432412D01*
X304744Y-432761D01*
X304000Y-433258D01*
X303256Y-432761D01*
X301500Y-432412D01*
X299744Y-432761D01*
X299000Y-433258D01*
X298256Y-432761D01*
X296500Y-432412D01*
X294744Y-432761D01*
X294000Y-433258D01*
X293256Y-432761D01*
X291500Y-432412D01*
X289744Y-432761D01*
X289000Y-433258D01*
X288256Y-432761D01*
X286500Y-432412D01*
X284744Y-432761D01*
X284000Y-433258D01*
X283256Y-432761D01*
X281500Y-432412D01*
X279744Y-432761D01*
X279000Y-433258D01*
X278256Y-432761D01*
X276694Y-432450D01*
X276229Y-432161D01*
X275839Y-431771D01*
X275550Y-431306D01*
X275239Y-429744D01*
X274465Y-428586D01*
X274806Y-428076D01*
X274867Y-427770D01*
X273518D01*
X272756Y-427261D01*
X271000Y-426911D01*
X263500D01*
Y-426089D01*
X271000D01*
X272756Y-425739D01*
X273518Y-425230D01*
X274867D01*
X274806Y-424924D01*
X274465Y-424414D01*
X275239Y-423256D01*
X275588Y-421500D01*
X275239Y-419744D01*
X274742Y-419000D01*
X275239Y-418256D01*
X275588Y-416500D01*
X275239Y-414744D01*
X274742Y-414000D01*
X275239Y-413256D01*
X275588Y-411500D01*
X275239Y-409744D01*
X274742Y-409000D01*
X275239Y-408256D01*
X275588Y-406500D01*
X275239Y-404744D01*
X274742Y-404000D01*
X275239Y-403256D01*
X275588Y-401500D01*
X275239Y-399744D01*
X274742Y-399000D01*
X275239Y-398256D01*
X275588Y-396500D01*
X275239Y-394744D01*
X274742Y-394000D01*
X275239Y-393256D01*
X275588Y-391500D01*
X275239Y-389744D01*
X274742Y-389000D01*
X275239Y-388256D01*
X275588Y-386500D01*
X275239Y-384744D01*
X274742Y-384000D01*
X275239Y-383256D01*
X275588Y-381500D01*
X275239Y-379744D01*
X274742Y-379000D01*
X275239Y-378256D01*
X275550Y-376694D01*
X275839Y-376229D01*
X276229Y-375839D01*
X276694Y-375550D01*
X278256Y-375239D01*
X279414Y-374465D01*
X279924Y-374806D01*
X280230Y-374866D01*
Y-373518D01*
X280739Y-372756D01*
X281089Y-371000D01*
Y-363500D01*
X281911D01*
Y-371000D01*
D02*
G37*
G36*
X447474Y-383703D02*
X447435Y-384000D01*
X447693Y-385958D01*
X448449Y-387782D01*
X449651Y-389349D01*
X451218Y-390551D01*
X453042Y-391307D01*
X455000Y-391565D01*
X456958Y-391307D01*
X458782Y-390551D01*
X460349Y-389349D01*
X461142Y-388316D01*
X462412Y-388747D01*
Y-391919D01*
X459625D01*
X458016Y-392239D01*
X456877Y-393000D01*
X451295D01*
X450805Y-392673D01*
X449375Y-392388D01*
X447270D01*
Y-400000D01*
Y-407612D01*
X447395D01*
X448174Y-408882D01*
X447693Y-410042D01*
X447435Y-412000D01*
X447693Y-413958D01*
X448449Y-415782D01*
X449651Y-417349D01*
X451218Y-418551D01*
X453042Y-419307D01*
X455000Y-419565D01*
X456958Y-419307D01*
X458782Y-418551D01*
X460349Y-417349D01*
X461551Y-415782D01*
X462307Y-413958D01*
X462565Y-412000D01*
X462307Y-410042D01*
X462021Y-409351D01*
X462869Y-408081D01*
X466375D01*
X467985Y-407761D01*
X468730Y-407262D01*
X470000Y-407941D01*
Y-439381D01*
X468730Y-439569D01*
X468103Y-437502D01*
X466292Y-434114D01*
X463855Y-431145D01*
X460886Y-428708D01*
X457498Y-426897D01*
X453823Y-425782D01*
X450000Y-425406D01*
X446177Y-425782D01*
X442502Y-426897D01*
X439114Y-428708D01*
X436145Y-431145D01*
X433708Y-434114D01*
X431897Y-437502D01*
X430782Y-441177D01*
X430406Y-445000D01*
X430782Y-448823D01*
X431897Y-452498D01*
X433708Y-455886D01*
X436145Y-458855D01*
X439114Y-461292D01*
X442502Y-463103D01*
X446177Y-464218D01*
X450000Y-464594D01*
X453823Y-464218D01*
X457498Y-463103D01*
X460886Y-461292D01*
X463855Y-458855D01*
X466292Y-455886D01*
X468103Y-452498D01*
X468730Y-450431D01*
X470000Y-450619D01*
Y-470000D01*
X396396D01*
X395559Y-469045D01*
X395565Y-469000D01*
X395307Y-467042D01*
X394551Y-465218D01*
X393349Y-463651D01*
X391782Y-462449D01*
X391352Y-462271D01*
X391605Y-461001D01*
X399500D01*
Y-460000D01*
X404500D01*
Y-461001D01*
X423500D01*
Y-431001D01*
X422940D01*
Y-417001D01*
X423500D01*
Y-387001D01*
X406012D01*
X405385Y-385731D01*
X406115Y-384780D01*
X406820Y-383077D01*
X406835Y-382962D01*
X407357Y-382588D01*
X446472D01*
X447474Y-383703D01*
D02*
G37*
%LPC*%
G36*
X167040Y-12460D02*
X158270D01*
Y-23730D01*
X167040D01*
Y-12460D01*
D02*
G37*
G36*
X155730D02*
X146960D01*
Y-23730D01*
X155730D01*
Y-12460D01*
D02*
G37*
G36*
X75730D02*
X54460D01*
Y-28730D01*
X75730D01*
Y-12460D01*
D02*
G37*
G36*
X99540D02*
X78270D01*
Y-28730D01*
X99540D01*
Y-25493D01*
X100810Y-25240D01*
X101449Y-26782D01*
X102651Y-28349D01*
X104218Y-29551D01*
X106042Y-30307D01*
X108000Y-30565D01*
X109958Y-30307D01*
X111782Y-29551D01*
X113161Y-28493D01*
X113863Y-28328D01*
X114137D01*
X114839Y-28493D01*
X116218Y-29551D01*
X118042Y-30307D01*
X120000Y-30565D01*
X121958Y-30307D01*
X123782Y-29551D01*
X125349Y-28349D01*
X126551Y-26782D01*
X127307Y-24958D01*
X127565Y-23000D01*
X127307Y-21042D01*
X126551Y-19218D01*
X125349Y-17651D01*
X123782Y-16449D01*
X121958Y-15693D01*
X120000Y-15435D01*
X118042Y-15693D01*
X116218Y-16449D01*
X114839Y-17507D01*
X114137Y-17672D01*
X113863D01*
X113161Y-17507D01*
X111782Y-16449D01*
X109958Y-15693D01*
X108000Y-15435D01*
X106042Y-15693D01*
X104218Y-16449D01*
X102651Y-17651D01*
X101449Y-19218D01*
X100810Y-20760D01*
X99540Y-20507D01*
Y-12460D01*
D02*
G37*
G36*
X167040Y-26270D02*
X158270D01*
Y-37540D01*
X167040D01*
Y-26270D01*
D02*
G37*
G36*
X155730D02*
X146960D01*
Y-37540D01*
X155730D01*
Y-26270D01*
D02*
G37*
G36*
X99540Y-31270D02*
X78270D01*
Y-47540D01*
X99540D01*
Y-31270D01*
D02*
G37*
G36*
X75730D02*
X54460D01*
Y-47540D01*
X75730D01*
Y-31270D01*
D02*
G37*
G36*
X282375Y-65883D02*
X276270D01*
Y-72730D01*
X286367D01*
Y-69875D01*
X286063Y-68348D01*
X285198Y-67052D01*
X283903Y-66187D01*
X282375Y-65883D01*
D02*
G37*
G36*
X273730D02*
X267625D01*
X266098Y-66187D01*
X264802Y-67052D01*
X263937Y-68348D01*
X263633Y-69875D01*
Y-72730D01*
X273730D01*
Y-65883D01*
D02*
G37*
G36*
X171000Y-61435D02*
X169042Y-61693D01*
X167218Y-62449D01*
X165651Y-63651D01*
X164449Y-65218D01*
X163693Y-67042D01*
X163435Y-69000D01*
X163693Y-70958D01*
X164449Y-72782D01*
X165651Y-74349D01*
X167218Y-75551D01*
X169042Y-76307D01*
X171000Y-76565D01*
X172958Y-76307D01*
X174782Y-75551D01*
X176349Y-74349D01*
X177551Y-72782D01*
X178307Y-70958D01*
X178565Y-69000D01*
X178307Y-67042D01*
X177551Y-65218D01*
X176349Y-63651D01*
X174782Y-62449D01*
X172958Y-61693D01*
X171000Y-61435D01*
D02*
G37*
G36*
X308614Y-73270D02*
X300270D01*
Y-79614D01*
X304750D01*
X306229Y-79320D01*
X307482Y-78482D01*
X308320Y-77229D01*
X308614Y-75750D01*
Y-73270D01*
D02*
G37*
G36*
X297730D02*
X289386D01*
Y-75750D01*
X289680Y-77229D01*
X290518Y-78482D01*
X291771Y-79320D01*
X293250Y-79614D01*
X297730D01*
Y-73270D01*
D02*
G37*
G36*
X286367Y-75270D02*
X276270D01*
Y-82117D01*
X282375D01*
X283903Y-81813D01*
X285198Y-80948D01*
X286063Y-79653D01*
X286367Y-78125D01*
Y-75270D01*
D02*
G37*
G36*
X273730D02*
X263633D01*
Y-78125D01*
X263937Y-79653D01*
X264802Y-80948D01*
X266098Y-81813D01*
X267625Y-82117D01*
X273730D01*
Y-75270D01*
D02*
G37*
G36*
X140000Y-108931D02*
X137912Y-109206D01*
X135965Y-110012D01*
X134294Y-111294D01*
X133012Y-112965D01*
X132206Y-114912D01*
X131931Y-117000D01*
X132206Y-119088D01*
X133012Y-121034D01*
X134294Y-122706D01*
X135965Y-123988D01*
X137912Y-124794D01*
X140000Y-125069D01*
X142088Y-124794D01*
X144035Y-123988D01*
X145706Y-122706D01*
X146988Y-121034D01*
X147794Y-119088D01*
X148069Y-117000D01*
X147794Y-114912D01*
X146988Y-112965D01*
X145706Y-111294D01*
X144035Y-110012D01*
X142088Y-109206D01*
X140000Y-108931D01*
D02*
G37*
G36*
X170000Y-128931D02*
X167912Y-129206D01*
X165965Y-130012D01*
X164294Y-131294D01*
X163012Y-132965D01*
X162206Y-134912D01*
X161931Y-137000D01*
X162206Y-139088D01*
X163012Y-141034D01*
X164294Y-142706D01*
X165965Y-143988D01*
X167912Y-144794D01*
X170000Y-145069D01*
X172088Y-144794D01*
X174035Y-143988D01*
X175706Y-142706D01*
X176988Y-141034D01*
X177794Y-139088D01*
X178069Y-137000D01*
X177794Y-134912D01*
X176988Y-132965D01*
X175706Y-131294D01*
X174035Y-130012D01*
X172088Y-129206D01*
X170000Y-128931D01*
D02*
G37*
G36*
X84625Y-165419D02*
X77875D01*
X76266Y-165739D01*
X75127Y-166500D01*
X70373D01*
X69234Y-165739D01*
X67625Y-165419D01*
X60875D01*
X59265Y-165739D01*
X57901Y-166651D01*
X56989Y-168015D01*
X56669Y-169625D01*
Y-176250D01*
X47540D01*
Y-170770D01*
X35270D01*
Y-177290D01*
X41000D01*
Y-191210D01*
X35270D01*
Y-197730D01*
X47540D01*
Y-192250D01*
X57500D01*
Y-187891D01*
X58634Y-187134D01*
X64187Y-181581D01*
X67625D01*
X69234Y-181261D01*
X70373Y-180500D01*
X75127D01*
X76266Y-181261D01*
X77875Y-181581D01*
X84625D01*
X86235Y-181261D01*
X87599Y-180349D01*
X88511Y-178985D01*
X88790Y-177578D01*
X110341D01*
X111174Y-178826D01*
X113159Y-180152D01*
X115500Y-180618D01*
X117841Y-180152D01*
X119826Y-178826D01*
X121152Y-176841D01*
X121161Y-176797D01*
X122406Y-176549D01*
X122424Y-176576D01*
X124409Y-177902D01*
X126750Y-178368D01*
X129091Y-177902D01*
X131076Y-176576D01*
X132402Y-174591D01*
X132867Y-172250D01*
X132402Y-169909D01*
X131076Y-167924D01*
X129091Y-166598D01*
X126750Y-166133D01*
X124409Y-166598D01*
X122424Y-167924D01*
X121098Y-169909D01*
X121089Y-169953D01*
X119844Y-170201D01*
X119826Y-170174D01*
X117841Y-168848D01*
X115500Y-168382D01*
X113159Y-168848D01*
X112301Y-169422D01*
X88790D01*
X88511Y-168015D01*
X87599Y-166651D01*
X86235Y-165739D01*
X84625Y-165419D01*
D02*
G37*
G36*
X47540Y-161710D02*
X35270D01*
Y-168230D01*
X47540D01*
Y-161710D01*
D02*
G37*
G36*
X32730D02*
X20460D01*
Y-168230D01*
X32730D01*
Y-161710D01*
D02*
G37*
G36*
X255875Y-174919D02*
X249125D01*
X247516Y-175239D01*
X246377Y-176000D01*
X241623D01*
X240485Y-175239D01*
X238875Y-174919D01*
X232125D01*
X230515Y-175239D01*
X229151Y-176151D01*
X228239Y-177516D01*
X227919Y-179125D01*
Y-184092D01*
X205509Y-206502D01*
X205000Y-206435D01*
X203042Y-206693D01*
X201218Y-207449D01*
X199651Y-208651D01*
X199067Y-209412D01*
X184000D01*
X182244Y-209761D01*
X180756Y-210756D01*
X170660Y-220851D01*
X169218Y-221449D01*
X167651Y-222651D01*
X166449Y-224218D01*
X165693Y-226042D01*
X165435Y-228000D01*
X165693Y-229958D01*
X166449Y-231782D01*
X167651Y-233349D01*
X169218Y-234551D01*
X171042Y-235307D01*
X173000Y-235565D01*
X174958Y-235307D01*
X176782Y-234551D01*
X178349Y-233349D01*
X179551Y-231782D01*
X180307Y-229958D01*
X180565Y-228000D01*
X180307Y-226042D01*
X179762Y-224727D01*
X185900Y-218588D01*
X199067D01*
X199651Y-219349D01*
X201218Y-220551D01*
X203042Y-221307D01*
X205000Y-221565D01*
X206958Y-221307D01*
X208782Y-220551D01*
X210349Y-219349D01*
X211551Y-217782D01*
X212307Y-215958D01*
X212565Y-214000D01*
X212381Y-212607D01*
X233908Y-191081D01*
X238875D01*
X240485Y-190761D01*
X241623Y-190000D01*
X246377D01*
X247516Y-190761D01*
X249125Y-191081D01*
X255875D01*
X257484Y-190761D01*
X258849Y-189849D01*
X259478Y-188907D01*
X259797Y-188755D01*
X260743Y-188603D01*
X261025Y-188636D01*
X262218Y-189551D01*
X264042Y-190307D01*
X266000Y-190565D01*
X267958Y-190307D01*
X269782Y-189551D01*
X271349Y-188349D01*
X272551Y-186782D01*
X273307Y-184958D01*
X273565Y-183000D01*
X273307Y-181042D01*
X272551Y-179218D01*
X271349Y-177651D01*
X269782Y-176449D01*
X267958Y-175693D01*
X266000Y-175435D01*
X264042Y-175693D01*
X262218Y-176449D01*
X261025Y-177364D01*
X260743Y-177397D01*
X259797Y-177245D01*
X259478Y-177093D01*
X258849Y-176151D01*
X257484Y-175239D01*
X255875Y-174919D01*
D02*
G37*
G36*
X32730Y-170770D02*
X20460D01*
Y-177290D01*
X32730D01*
Y-170770D01*
D02*
G37*
G36*
X187000Y-26435D02*
X185042Y-26693D01*
X183217Y-27449D01*
X182422Y-28059D01*
X181516Y-28239D01*
X180151Y-29151D01*
X179239Y-30515D01*
X178919Y-32125D01*
Y-38875D01*
X179239Y-40484D01*
X180000Y-41623D01*
Y-46377D01*
X179239Y-47516D01*
X178919Y-49125D01*
Y-55875D01*
X179239Y-57484D01*
X180151Y-58849D01*
X181516Y-59761D01*
X183125Y-60081D01*
X190875D01*
X192484Y-59761D01*
X193849Y-58849D01*
X194761Y-57484D01*
X194839Y-57088D01*
X197148D01*
Y-66312D01*
X197551Y-68337D01*
X198697Y-70052D01*
X200413Y-71199D01*
X202437Y-71602D01*
X203392D01*
Y-127677D01*
X161035Y-170035D01*
X159819Y-171854D01*
X159392Y-174000D01*
Y-181822D01*
X158151Y-182651D01*
X158125Y-182690D01*
X156598D01*
X156482Y-182518D01*
X155229Y-181680D01*
X153750Y-181386D01*
X149270D01*
Y-189000D01*
X148000D01*
Y-190270D01*
X138386D01*
Y-192750D01*
X138680Y-194229D01*
X139000Y-194708D01*
Y-200464D01*
X138247Y-201592D01*
X137917Y-203250D01*
Y-210502D01*
X137693Y-211042D01*
X137435Y-213000D01*
X137693Y-214958D01*
X138449Y-216782D01*
X139651Y-218349D01*
X140250Y-218809D01*
Y-226500D01*
X155750D01*
Y-214525D01*
X156814Y-213814D01*
X157620Y-212608D01*
X158538D01*
X159515Y-213261D01*
X161125Y-213581D01*
X168875D01*
X170485Y-213261D01*
X171849Y-212349D01*
X172761Y-210984D01*
X173081Y-209375D01*
Y-202625D01*
X172761Y-201015D01*
X171849Y-199651D01*
X171000Y-199084D01*
Y-195916D01*
X171849Y-195349D01*
X172761Y-193985D01*
X173081Y-192375D01*
Y-185625D01*
X172761Y-184016D01*
X171849Y-182651D01*
X170608Y-181822D01*
Y-176323D01*
X212965Y-133965D01*
X214181Y-132146D01*
X214608Y-130000D01*
Y-71602D01*
X215562D01*
X217587Y-71199D01*
X219303Y-70052D01*
X220449Y-68337D01*
X220852Y-66312D01*
Y-59069D01*
X228000D01*
X230088Y-58794D01*
X232034Y-57988D01*
X233706Y-56706D01*
X234988Y-55034D01*
X235794Y-53088D01*
X236069Y-51000D01*
X235794Y-48912D01*
X234988Y-46965D01*
X233706Y-45294D01*
X232034Y-44012D01*
X230088Y-43206D01*
X228000Y-42931D01*
X220852D01*
Y-35687D01*
X220449Y-33663D01*
X219303Y-31948D01*
X217587Y-30801D01*
X215562Y-30398D01*
X202437D01*
X200413Y-30801D01*
X198697Y-31948D01*
X197551Y-33663D01*
X197148Y-35687D01*
Y-47912D01*
X194839D01*
X194761Y-47516D01*
X194000Y-46377D01*
Y-41623D01*
X194761Y-40484D01*
X195081Y-38875D01*
Y-32125D01*
X194761Y-30515D01*
X193849Y-29151D01*
X192484Y-28239D01*
X191577Y-28059D01*
X190782Y-27449D01*
X188958Y-26693D01*
X187000Y-26435D01*
D02*
G37*
G36*
X146730Y-181386D02*
X142250D01*
X140771Y-181680D01*
X139518Y-182518D01*
X138680Y-183771D01*
X138386Y-185250D01*
Y-187730D01*
X146730D01*
Y-181386D01*
D02*
G37*
G36*
X32730Y-191210D02*
X20460D01*
Y-197730D01*
X32730D01*
Y-191210D01*
D02*
G37*
G36*
X47540Y-200270D02*
X35270D01*
Y-206790D01*
X47540D01*
Y-200270D01*
D02*
G37*
G36*
X32730D02*
X20460D01*
Y-206790D01*
X32730D01*
Y-200270D01*
D02*
G37*
G36*
X155290Y-230960D02*
X149270D01*
Y-236730D01*
X155290D01*
Y-230960D01*
D02*
G37*
G36*
X146730D02*
X140710D01*
Y-236730D01*
X146730D01*
Y-230960D01*
D02*
G37*
G36*
X155290Y-239270D02*
X149270D01*
Y-245040D01*
X155290D01*
Y-239270D01*
D02*
G37*
G36*
X146730D02*
X140710D01*
Y-245040D01*
X146730D01*
Y-239270D01*
D02*
G37*
G36*
X108000Y-216882D02*
X105659Y-217348D01*
X103674Y-218674D01*
X102348Y-220659D01*
X101882Y-223000D01*
X101972Y-223450D01*
X100515Y-223739D01*
X99151Y-224651D01*
X98239Y-226015D01*
X97919Y-227625D01*
Y-234375D01*
X98239Y-235984D01*
X99000Y-237123D01*
Y-242705D01*
X98673Y-243195D01*
X98388Y-244625D01*
Y-246730D01*
X106000D01*
X113612D01*
Y-244625D01*
X113327Y-243195D01*
X113000Y-242705D01*
Y-237123D01*
X113761Y-235984D01*
X114031Y-234624D01*
X115250Y-234500D01*
X115302Y-234500D01*
X130750D01*
Y-222500D01*
X125568D01*
X125341Y-222348D01*
X123000Y-221882D01*
X120659Y-222348D01*
X120432Y-222500D01*
X115669D01*
X114420Y-222459D01*
X114061Y-222441D01*
X113779Y-221297D01*
X113652Y-220659D01*
X112326Y-218674D01*
X110341Y-217348D01*
X108000Y-216882D01*
D02*
G37*
G36*
X113612Y-249270D02*
X107270D01*
Y-255112D01*
X109875D01*
X111305Y-254828D01*
X112517Y-254018D01*
X113327Y-252805D01*
X113612Y-251375D01*
Y-249270D01*
D02*
G37*
G36*
X104730D02*
X98388D01*
Y-251375D01*
X98673Y-252805D01*
X99483Y-254018D01*
X100695Y-254828D01*
X102125Y-255112D01*
X104730D01*
Y-249270D01*
D02*
G37*
G36*
X245000Y-220406D02*
X241177Y-220782D01*
X237502Y-221897D01*
X234114Y-223708D01*
X231145Y-226145D01*
X228708Y-229114D01*
X226897Y-232502D01*
X225782Y-236177D01*
X225406Y-240000D01*
X225782Y-243823D01*
X226897Y-247498D01*
X228708Y-250886D01*
X231145Y-253855D01*
X234114Y-256292D01*
X237502Y-258103D01*
X241177Y-259218D01*
X245000Y-259594D01*
X248823Y-259218D01*
X252498Y-258103D01*
X255886Y-256292D01*
X258855Y-253855D01*
X261292Y-250886D01*
X263103Y-247498D01*
X264218Y-243823D01*
X264594Y-240000D01*
X264218Y-236177D01*
X263103Y-232502D01*
X261292Y-229114D01*
X258855Y-226145D01*
X255886Y-223708D01*
X252498Y-221897D01*
X248823Y-220782D01*
X245000Y-220406D01*
D02*
G37*
G36*
X45000D02*
X41177Y-220782D01*
X37502Y-221897D01*
X34114Y-223708D01*
X31145Y-226145D01*
X28708Y-229114D01*
X26897Y-232502D01*
X25782Y-236177D01*
X25406Y-240000D01*
X25782Y-243823D01*
X26897Y-247498D01*
X28708Y-250886D01*
X31145Y-253855D01*
X34114Y-256292D01*
X37502Y-258103D01*
X41177Y-259218D01*
X45000Y-259594D01*
X48823Y-259218D01*
X52498Y-258103D01*
X55886Y-256292D01*
X58855Y-253855D01*
X61292Y-250886D01*
X63103Y-247498D01*
X64218Y-243823D01*
X64594Y-240000D01*
X64218Y-236177D01*
X63103Y-232502D01*
X61292Y-229114D01*
X58855Y-226145D01*
X55886Y-223708D01*
X52498Y-221897D01*
X48823Y-220782D01*
X45000Y-220406D01*
D02*
G37*
G36*
X266000Y-275435D02*
X264042Y-275693D01*
X262218Y-276449D01*
X260651Y-277651D01*
X259449Y-279218D01*
X258693Y-281042D01*
X258435Y-283000D01*
X258693Y-284958D01*
X259449Y-286782D01*
X260651Y-288349D01*
X262218Y-289551D01*
X264042Y-290307D01*
X266000Y-290565D01*
X267958Y-290307D01*
X269782Y-289551D01*
X271349Y-288349D01*
X272551Y-286782D01*
X273307Y-284958D01*
X273565Y-283000D01*
X273307Y-281042D01*
X272551Y-279218D01*
X271349Y-277651D01*
X269782Y-276449D01*
X267958Y-275693D01*
X266000Y-275435D01*
D02*
G37*
G36*
X199000Y-281435D02*
X197042Y-281693D01*
X195218Y-282449D01*
X193651Y-283651D01*
X192449Y-285218D01*
X191693Y-287042D01*
X191435Y-289000D01*
X191693Y-290958D01*
X192449Y-292782D01*
X193651Y-294349D01*
X195218Y-295551D01*
X197042Y-296307D01*
X199000Y-296565D01*
X200958Y-296307D01*
X202782Y-295551D01*
X204349Y-294349D01*
X205551Y-292782D01*
X206307Y-290958D01*
X206565Y-289000D01*
X206307Y-287042D01*
X205551Y-285218D01*
X204349Y-283651D01*
X202782Y-282449D01*
X200958Y-281693D01*
X199000Y-281435D01*
D02*
G37*
G36*
X30614Y-370270D02*
X22270D01*
Y-376614D01*
X26750D01*
X28229Y-376320D01*
X29482Y-375482D01*
X30320Y-374229D01*
X30614Y-372750D01*
Y-370270D01*
D02*
G37*
G36*
X19730D02*
X11386D01*
Y-372750D01*
X11680Y-374229D01*
X12518Y-375482D01*
X13771Y-376320D01*
X15250Y-376614D01*
X19730D01*
Y-370270D01*
D02*
G37*
G36*
X80612Y-378270D02*
X74270D01*
Y-384112D01*
X76875D01*
X78305Y-383827D01*
X79517Y-383017D01*
X80327Y-381805D01*
X80612Y-380375D01*
Y-378270D01*
D02*
G37*
G36*
X71730D02*
X65388D01*
Y-380375D01*
X65673Y-381805D01*
X66483Y-383017D01*
X67695Y-383827D01*
X69125Y-384112D01*
X71730D01*
Y-378270D01*
D02*
G37*
G36*
X191000Y-443435D02*
X189042Y-443693D01*
X187218Y-444449D01*
X185651Y-445651D01*
X184449Y-447218D01*
X183693Y-449042D01*
X183435Y-451000D01*
X183693Y-452958D01*
X184449Y-454782D01*
X185651Y-456349D01*
X187218Y-457551D01*
X189042Y-458307D01*
X191000Y-458565D01*
X192958Y-458307D01*
X194782Y-457551D01*
X196349Y-456349D01*
X197551Y-454782D01*
X198307Y-452958D01*
X198565Y-451000D01*
X198307Y-449042D01*
X197551Y-447218D01*
X196349Y-445651D01*
X194782Y-444449D01*
X192958Y-443693D01*
X191000Y-443435D01*
D02*
G37*
G36*
X388000Y-120406D02*
X384177Y-120782D01*
X380502Y-121897D01*
X377114Y-123708D01*
X374145Y-126145D01*
X371708Y-129114D01*
X369897Y-132502D01*
X368782Y-136177D01*
X368406Y-140000D01*
X368782Y-143823D01*
X369897Y-147498D01*
X371708Y-150886D01*
X374145Y-153855D01*
X377114Y-156292D01*
X380502Y-158103D01*
X384177Y-159218D01*
X388000Y-159594D01*
X391823Y-159218D01*
X395499Y-158103D01*
X398886Y-156292D01*
X401855Y-153855D01*
X404292Y-150886D01*
X406103Y-147498D01*
X407218Y-143823D01*
X407594Y-140000D01*
X407218Y-136177D01*
X406103Y-132502D01*
X404292Y-129114D01*
X401855Y-126145D01*
X398886Y-123708D01*
X395499Y-121897D01*
X391823Y-120782D01*
X388000Y-120406D01*
D02*
G37*
G36*
X431000Y-134000D02*
X421000D01*
X419000Y-136000D01*
Y-142377D01*
X418239Y-143516D01*
X417919Y-145125D01*
Y-150092D01*
X413161Y-154850D01*
X411806Y-155756D01*
X409756Y-157806D01*
X408850Y-159161D01*
X408511Y-159500D01*
X404000D01*
Y-178500D01*
X417000D01*
Y-176000D01*
X435000D01*
Y-161000D01*
X421648D01*
X421162Y-159827D01*
X424908Y-156081D01*
X429875D01*
X431484Y-155761D01*
X432849Y-154849D01*
X433761Y-153484D01*
X434081Y-151875D01*
Y-145125D01*
X433761Y-143516D01*
X433000Y-142377D01*
Y-136000D01*
X431000Y-134000D01*
D02*
G37*
G36*
X444730Y-392388D02*
X442625D01*
X441195Y-392673D01*
X439983Y-393483D01*
X439173Y-394695D01*
X438888Y-396125D01*
Y-398730D01*
X444730D01*
Y-392388D01*
D02*
G37*
G36*
Y-401270D02*
X438888D01*
Y-403875D01*
X439173Y-405305D01*
X439983Y-406517D01*
X441195Y-407327D01*
X442625Y-407612D01*
X444730D01*
Y-401270D01*
D02*
G37*
%LPD*%
D10*
X157000Y-25000D02*
D03*
D11*
X187000Y-52500D02*
D03*
Y-35500D02*
D03*
X95000Y-398000D02*
D03*
Y-381000D02*
D03*
X317000Y-27000D02*
D03*
Y-44000D02*
D03*
X393000Y-193000D02*
D03*
Y-176000D02*
D03*
X430000Y-249500D02*
D03*
Y-266500D02*
D03*
X335000Y-300500D02*
D03*
Y-283500D02*
D03*
X380000Y-59000D02*
D03*
Y-76000D02*
D03*
X68000Y-436500D02*
D03*
Y-453500D02*
D03*
X377000Y-192500D02*
D03*
Y-175500D02*
D03*
X319000Y-283500D02*
D03*
Y-300500D02*
D03*
X459000Y-84000D02*
D03*
Y-67000D02*
D03*
X80000Y-294500D02*
D03*
Y-277500D02*
D03*
X20000Y-318000D02*
D03*
Y-335000D02*
D03*
X426000Y-131500D02*
D03*
Y-148500D02*
D03*
X73000Y-377000D02*
D03*
Y-360000D02*
D03*
X410000Y-305500D02*
D03*
Y-288500D02*
D03*
X319000Y-249000D02*
D03*
Y-232000D02*
D03*
X393000Y-284500D02*
D03*
Y-301500D02*
D03*
X106000Y-231000D02*
D03*
Y-248000D02*
D03*
X165000Y-206000D02*
D03*
Y-189000D02*
D03*
D12*
X429000Y-279000D02*
D03*
X436000D02*
D03*
D13*
X446000Y-400000D02*
D03*
X463000D02*
D03*
X262000Y-343000D02*
D03*
X279000D02*
D03*
X346500Y-461000D02*
D03*
X329500D02*
D03*
X263000Y-442000D02*
D03*
X246000D02*
D03*
X208000Y-368000D02*
D03*
X225000D02*
D03*
X208000Y-383000D02*
D03*
X225000D02*
D03*
X252500Y-183000D02*
D03*
X235500D02*
D03*
X396000Y-41000D02*
D03*
X413000D02*
D03*
X443000Y-116000D02*
D03*
X460000D02*
D03*
X67000Y-277000D02*
D03*
X50000D02*
D03*
X68000Y-294000D02*
D03*
X51000D02*
D03*
X58000Y-369000D02*
D03*
X41000D02*
D03*
X352000Y-249000D02*
D03*
X335000D02*
D03*
X41000Y-395000D02*
D03*
X58000D02*
D03*
X365000Y-97000D02*
D03*
X382000D02*
D03*
X460000Y-132000D02*
D03*
X443000D02*
D03*
X64250Y-173500D02*
D03*
X81250D02*
D03*
X20500Y-410000D02*
D03*
X37500D02*
D03*
X57000Y-314000D02*
D03*
X40000D02*
D03*
X352000Y-234000D02*
D03*
X335000D02*
D03*
X206000Y-339000D02*
D03*
X223000D02*
D03*
X341000Y-319000D02*
D03*
X324000D02*
D03*
D14*
X150000Y-383000D02*
D03*
D15*
X125750Y-400500D02*
D03*
Y-395500D02*
D03*
Y-390500D02*
D03*
Y-385500D02*
D03*
Y-380500D02*
D03*
Y-375500D02*
D03*
Y-370500D02*
D03*
Y-365500D02*
D03*
X174250D02*
D03*
Y-370500D02*
D03*
Y-375500D02*
D03*
Y-380500D02*
D03*
Y-385500D02*
D03*
Y-390500D02*
D03*
Y-395500D02*
D03*
Y-400500D02*
D03*
D16*
X132500Y-358750D02*
D03*
X137500D02*
D03*
X142500D02*
D03*
X147500D02*
D03*
X152500D02*
D03*
X157500D02*
D03*
X162500D02*
D03*
X167500D02*
D03*
Y-407250D02*
D03*
X162500D02*
D03*
X157500D02*
D03*
X152500D02*
D03*
X147500D02*
D03*
X142500D02*
D03*
X137500D02*
D03*
X132500D02*
D03*
D17*
X299000Y-54000D02*
D03*
Y-72000D02*
D03*
X21000Y-369000D02*
D03*
Y-351000D02*
D03*
X148000Y-207000D02*
D03*
Y-189000D02*
D03*
D18*
X317000Y-266000D02*
D03*
X335000D02*
D03*
D19*
X440000Y-86000D02*
D03*
Y-104000D02*
D03*
X374000Y-249000D02*
D03*
Y-231000D02*
D03*
D20*
X331500Y-444500D02*
D03*
X326500D02*
D03*
X321500D02*
D03*
X316500D02*
D03*
X311500D02*
D03*
X306500D02*
D03*
X301500D02*
D03*
X296500D02*
D03*
X291500D02*
D03*
X286500D02*
D03*
X281500D02*
D03*
X276500D02*
D03*
Y-363500D02*
D03*
X281500D02*
D03*
X286500D02*
D03*
X291500D02*
D03*
X296500D02*
D03*
X301500D02*
D03*
X306500D02*
D03*
X311500D02*
D03*
X316500D02*
D03*
X321500D02*
D03*
X326500D02*
D03*
X331500D02*
D03*
D21*
X263500Y-431500D02*
D03*
Y-426500D02*
D03*
Y-421500D02*
D03*
Y-416500D02*
D03*
Y-411500D02*
D03*
Y-406500D02*
D03*
Y-401500D02*
D03*
Y-396500D02*
D03*
Y-391500D02*
D03*
Y-386500D02*
D03*
Y-381500D02*
D03*
Y-376500D02*
D03*
X344500D02*
D03*
Y-381500D02*
D03*
Y-386500D02*
D03*
Y-391500D02*
D03*
Y-396500D02*
D03*
Y-401500D02*
D03*
Y-406500D02*
D03*
Y-411500D02*
D03*
Y-416500D02*
D03*
Y-421500D02*
D03*
Y-426500D02*
D03*
Y-431500D02*
D03*
D22*
X400000Y-77000D02*
D03*
Y-58000D02*
D03*
X424000D02*
D03*
Y-67500D02*
D03*
Y-77000D02*
D03*
X37000Y-349500D02*
D03*
Y-330500D02*
D03*
X61000D02*
D03*
Y-340000D02*
D03*
Y-349500D02*
D03*
X352000Y-293000D02*
D03*
Y-274000D02*
D03*
X376000D02*
D03*
Y-283500D02*
D03*
Y-293000D02*
D03*
D23*
X209000Y-51000D02*
D03*
D24*
X275000Y-28000D02*
D03*
Y-51000D02*
D03*
D25*
Y-74000D02*
D03*
D26*
X49250Y-184250D02*
D03*
X436750Y-306250D02*
D03*
D27*
X34000Y-199000D02*
D03*
Y-169500D02*
D03*
X452000Y-291500D02*
D03*
Y-321000D02*
D03*
D28*
X421500Y-97000D02*
D03*
X402500D02*
D03*
D29*
X348000Y-33000D02*
D03*
X77000Y-30000D02*
D03*
D30*
X404045Y-216250D02*
D03*
Y-222750D02*
D03*
Y-229250D02*
D03*
Y-235750D02*
D03*
D31*
X434795Y-216250D02*
D03*
Y-222750D02*
D03*
Y-229250D02*
D03*
Y-235750D02*
D03*
D32*
X423000Y-226000D02*
D03*
D33*
X79000Y-340000D02*
D03*
Y-320000D02*
D03*
D34*
X417000Y-264000D02*
D03*
X397000D02*
D03*
D35*
X410500Y-193000D02*
D03*
X420000D02*
D03*
X429500D02*
D03*
Y-169000D02*
D03*
X420000D02*
D03*
X410500D02*
D03*
D36*
X346000Y-68000D02*
D03*
Y-80000D02*
D03*
D37*
X390000Y-446001D02*
D03*
Y-402001D02*
D03*
X414000D02*
D03*
Y-446001D02*
D03*
D38*
X123000Y-228500D02*
D03*
D39*
X148000Y-219000D02*
D03*
D40*
X148000Y-238000D02*
D03*
D41*
X444000Y-58000D02*
X453000Y-67000D01*
X424000Y-58000D02*
X444000D01*
X453000Y-67000D02*
X459000D01*
X438500Y-67500D02*
X458000Y-87000D01*
X424000Y-67500D02*
X438500D01*
X458000Y-114000D02*
Y-87000D01*
X21000Y-369000D02*
X31000Y-379000D01*
Y-384000D02*
Y-379000D01*
X289000Y-72000D02*
X299000D01*
X317000Y-68000D02*
Y-44000D01*
X313000Y-72000D02*
X317000Y-68000D01*
X41000Y-395000D02*
Y-369000D01*
X37500Y-410000D02*
X42000D01*
X68250Y-436250D01*
X20000Y-350000D02*
X21000Y-351000D01*
X20000Y-350000D02*
Y-335000D01*
X37000Y-349500D02*
X40000Y-352500D01*
Y-368500D02*
Y-352500D01*
X382000Y-77000D02*
X392000D01*
Y-45000D01*
X396000Y-41000D01*
X412500Y-67500D02*
Y-43500D01*
Y-67500D02*
X424000D01*
X291000Y-54000D02*
X299000D01*
X288000Y-51000D02*
X291000Y-54000D01*
X275000Y-51000D02*
X288000D01*
X287000Y-74000D02*
X289000Y-72000D01*
X275000Y-74000D02*
X287000D01*
X319000Y-264000D02*
Y-249000D01*
X317000Y-266000D02*
X319000Y-264000D01*
X335000Y-249000D02*
Y-234000D01*
X335000Y-266000D02*
Y-249000D01*
X319000Y-283500D02*
Y-268000D01*
X335000Y-283500D02*
Y-266000D01*
X337500Y-283500D02*
X376000D01*
X392000D01*
X392000Y-77000D02*
X400000D01*
X458000Y-114000D02*
X460000Y-116000D01*
X440000Y-104000D02*
X444000Y-108000D01*
X424000Y-94500D02*
Y-77000D01*
X424250Y-86000D02*
X440000D01*
X421500Y-97000D02*
X424000Y-94500D01*
X402500Y-97000D02*
Y-79500D01*
X419000Y-180000D02*
X419500Y-180500D01*
X429500D01*
X425000Y-204000D02*
X429500Y-199500D01*
Y-189000D01*
X420000Y-199000D02*
X425000Y-204000D01*
X420000Y-199000D02*
Y-189000D01*
X393000Y-176000D02*
X397000Y-180000D01*
X419000D01*
X420000Y-179000D01*
Y-169000D01*
X147000Y-207000D02*
X165000D01*
Y-189000D02*
Y-174000D01*
X209000Y-130000D01*
Y-51000D01*
X429500Y-180500D02*
Y-169000D01*
X439000Y-279000D02*
X451500Y-291500D01*
X452000D01*
X403000Y-242000D02*
Y-238250D01*
X403500Y-237750D01*
X53000Y-30000D02*
X100000D01*
D42*
X187000Y-35500D02*
Y-33000D01*
X187000Y-34000D02*
Y-33000D01*
X187000Y-33000D01*
X207500Y-52500D02*
X209000Y-51000D01*
X187000Y-52500D02*
X207500D01*
X467000Y-396000D02*
Y-377000D01*
X463000Y-400000D02*
X467000Y-396000D01*
X456000Y-366000D02*
X467000Y-377000D01*
X358000Y-103125D02*
X364125Y-97000D01*
X358000Y-107500D02*
Y-103125D01*
X413000Y-161500D02*
Y-161050D01*
X410500Y-164000D02*
X413000Y-161500D01*
X410500Y-169000D02*
Y-164000D01*
X331500Y-363500D02*
Y-354571D01*
X339999Y-358999D02*
Y-353999D01*
X339035Y-353036D02*
X339999Y-353999D01*
X333036Y-353036D02*
X339035D01*
X331535Y-354535D02*
X333036Y-353036D01*
X233500Y-368500D02*
X239000Y-363000D01*
X233500Y-374500D02*
Y-368500D01*
X225000Y-383000D02*
X233500Y-374500D01*
X250000Y-374000D02*
Y-355000D01*
Y-374000D02*
X252500Y-376500D01*
X276500Y-454500D02*
Y-444500D01*
X249186Y-421500D02*
X263500D01*
X222000Y-462000D02*
Y-448686D01*
X249186Y-421500D01*
X253571Y-426500D02*
X263500D01*
X248000Y-432071D02*
X253571Y-426500D01*
X248000Y-442500D02*
Y-432071D01*
X285000Y-300000D02*
X286000D01*
X284500Y-300500D02*
X285000Y-300000D01*
X284500Y-300500D02*
X319000D01*
X358000Y-179000D02*
Y-107500D01*
X321500Y-363500D02*
Y-335500D01*
X321000Y-335000D02*
X321500Y-335500D01*
X311500Y-363500D02*
Y-343500D01*
X311000Y-343000D02*
X311500Y-343500D01*
X296500Y-363500D02*
Y-347500D01*
X292000Y-343000D02*
X296500Y-347500D01*
X252500Y-376500D02*
X263500D01*
X205000Y-213500D02*
X235500Y-183000D01*
X205000Y-214000D02*
Y-213500D01*
X252500Y-183000D02*
X266000D01*
X262000Y-350000D02*
Y-343000D01*
X338000Y-452000D02*
X346500D01*
X332000D02*
X338000D01*
Y-446000D01*
X257000Y-454500D02*
X276500D01*
X249500Y-462000D02*
X257000Y-454500D01*
X75500Y-453500D02*
X82000Y-460000D01*
X68000Y-453500D02*
X75500D01*
X332000Y-347000D02*
X346000D01*
X326500Y-352500D02*
X332000Y-347000D01*
X326500Y-363500D02*
Y-352500D01*
X291500Y-454071D02*
Y-444500D01*
X286500Y-458500D02*
Y-444500D01*
X262500Y-439000D02*
Y-432500D01*
X322500Y-396500D02*
X344500D01*
X311500Y-444500D02*
Y-425500D01*
X326500Y-444500D02*
Y-425500D01*
X263500Y-426500D02*
X283500D01*
X281500Y-383500D02*
Y-363500D01*
X262000Y-350000D02*
X265000Y-353000D01*
X276500D01*
Y-363500D02*
Y-353000D01*
X281500Y-363500D02*
Y-345500D01*
X246000Y-444500D02*
X248000Y-442500D01*
X358000Y-371000D02*
Y-363000D01*
X346500Y-461000D02*
Y-452000D01*
X326500Y-458000D02*
Y-444500D01*
X346500Y-461000D02*
X352000D01*
X358500Y-454500D01*
Y-431500D01*
X344500D02*
X358500D01*
X344500Y-391500D02*
X344500Y-391500D01*
X348500Y-411500D02*
X348500Y-411500D01*
X210000Y-383000D02*
X225000Y-368000D01*
X208000Y-383000D02*
X210000D01*
X197000Y-368000D02*
X208000D01*
X195000Y-370000D02*
X197000Y-368000D01*
X195000Y-370000D02*
X195000D01*
X223000Y-344000D02*
Y-339000D01*
Y-344000D02*
X229000Y-350000D01*
X206000Y-343000D02*
Y-339000D01*
X199000Y-350000D02*
X206000Y-343000D01*
X384500Y-310000D02*
X393000Y-301500D01*
X350000Y-310000D02*
X384500D01*
X341000Y-319000D02*
X350000Y-310000D01*
X48500Y-359500D02*
X58000Y-369000D01*
X61000Y-340000D02*
X79000D01*
X48500Y-359500D02*
Y-340500D01*
X49000Y-340000D01*
X61000D01*
X319000Y-232000D02*
X328000Y-223000D01*
X344000D01*
X352000Y-231000D01*
Y-234000D02*
Y-231000D01*
Y-249000D02*
Y-234000D01*
Y-274000D02*
Y-249000D01*
X336250Y-301750D02*
X345000Y-293000D01*
X319000Y-300500D02*
X335000D01*
X345000Y-293000D02*
X352000D01*
X384500D02*
X393000Y-301500D01*
X376000Y-293000D02*
X384500D01*
X437750Y-216500D02*
X442500D01*
X385300Y-231000D02*
X388000Y-228300D01*
X374000Y-231000D02*
X385300D01*
X374000Y-249000D02*
X383300D01*
X173000Y-228000D02*
Y-225000D01*
X184000Y-214000D01*
X205000D01*
X148000Y-219000D02*
Y-207000D01*
X348500Y-401500D02*
X364571D01*
X372071Y-409000D01*
X348500Y-376500D02*
X352500D01*
X358000Y-371000D01*
X348500Y-411500D02*
X356500D01*
X367000Y-422000D01*
X348500Y-406500D02*
X361500D01*
X371500Y-416500D01*
X372071Y-409000D02*
X377000D01*
X367000Y-422000D02*
X400000D01*
X371500Y-416500D02*
X386500D01*
X391000Y-412000D01*
X344500Y-396500D02*
X376000D01*
X108000Y-229000D02*
Y-223000D01*
X108000Y-229000D02*
X108000Y-229000D01*
X106000Y-231000D02*
X108000Y-229000D01*
X388000Y-228300D02*
Y-227300D01*
Y-226000D01*
X398250Y-216250D02*
X404045D01*
X398250Y-222500D02*
Y-216250D01*
Y-222500D02*
X398500Y-222750D01*
X404045D01*
X398250Y-228250D02*
Y-222500D01*
Y-228250D02*
X399250Y-229250D01*
X404045D01*
X437750Y-223000D02*
X441000D01*
X442500Y-216500D02*
X444000Y-218000D01*
X383300Y-249000D02*
X388000Y-253700D01*
X411250Y-306250D02*
X436750D01*
X437750Y-236000D02*
X444000D01*
X437750Y-229500D02*
X444000D01*
X413000Y-161050D02*
X415050Y-159000D01*
X415500D01*
X426000Y-148500D01*
X375000Y-274000D02*
X376000D01*
X378000Y-276000D01*
X404000D01*
Y-282500D02*
Y-276000D01*
Y-282500D02*
X410000Y-288500D01*
X414000Y-279000D02*
X427000D01*
X409000Y-274000D02*
X414000Y-279000D01*
X409000Y-274000D02*
Y-264000D01*
X417000D01*
X397000D02*
X404000D01*
Y-276000D02*
Y-264000D01*
X344500Y-386500D02*
X357000D01*
X344500Y-381500D02*
X354929D01*
X344500Y-391500D02*
X362500D01*
X372750Y-381250D02*
X400000D01*
X362500Y-391500D02*
X372750Y-381250D01*
X299429Y-462000D02*
X313000D01*
X291500Y-454071D02*
X299429Y-462000D01*
X321500Y-455209D02*
Y-444500D01*
X321500Y-455209D02*
X321500Y-455209D01*
X321500Y-470500D02*
Y-455209D01*
X400000Y-422000D02*
X411000Y-433000D01*
Y-438000D02*
Y-433000D01*
X321500Y-470500D02*
X386500D01*
X388000Y-469000D01*
X449000Y-378000D02*
X455000Y-384000D01*
X394393Y-376250D02*
X396893Y-373750D01*
X403107D01*
X407357Y-378000D01*
X449000D01*
X392322Y-371250D02*
X394822Y-368750D01*
X405178D01*
X365179Y-371250D02*
X392322D01*
X357000Y-386500D02*
X367250Y-376250D01*
X394393D01*
X354929Y-381500D02*
X365179Y-371250D01*
X405178Y-368750D02*
X408428Y-372000D01*
X450000D01*
X456000Y-366000D01*
D43*
X429000Y-279000D02*
X434000D01*
D44*
X125000Y-420000D02*
X132500Y-412500D01*
X124000Y-420000D02*
X125000D01*
X95000Y-403000D02*
Y-396000D01*
X132500Y-412500D02*
Y-407250D01*
X244500Y-398893D02*
X244606Y-399000D01*
X245000D01*
X247500Y-396500D01*
X263500D01*
X152500Y-420500D02*
Y-407250D01*
X109000Y-397000D02*
Y-396999D01*
X115499Y-390500D01*
X317000Y-312000D02*
X324000Y-319000D01*
X242000Y-312000D02*
X317000D01*
X95000Y-381000D02*
X105000Y-371000D01*
X109000D01*
X242000Y-417000D02*
X263500D01*
X238000Y-421000D02*
X242000Y-417000D01*
X263500D02*
Y-416500D01*
X188000Y-413000D02*
X246657D01*
X253157Y-406500D01*
X245000Y-409000D02*
X252500Y-401500D01*
X188000Y-409000D02*
X245000D01*
X179500Y-400500D02*
X188000Y-409000D01*
X181500Y-395500D02*
X188000Y-402000D01*
X234000D01*
X235000Y-395000D02*
X239000Y-391000D01*
X263000D01*
X263500Y-391500D01*
X253157Y-406500D02*
X263500D01*
X188000Y-395000D02*
X235000D01*
X233000Y-391000D02*
X237500Y-386500D01*
X192000Y-391000D02*
X233000D01*
X237500Y-386500D02*
X263500D01*
X241000Y-376000D02*
X246500Y-381500D01*
X240000Y-325000D02*
X295000D01*
X252500Y-401500D02*
X263500D01*
X267500D01*
X183500Y-390500D02*
X188000Y-395000D01*
X186500Y-385500D02*
X192000Y-391000D01*
X174250Y-385500D02*
X186500D01*
X246500Y-381500D02*
X263500D01*
X174250Y-395500D02*
X181500D01*
X174250Y-400500D02*
X179500D01*
X174250Y-380500D02*
X208000D01*
X222000Y-357000D02*
X229000Y-350000D01*
X196000Y-357000D02*
X222000D01*
X182500Y-370500D02*
X196000Y-357000D01*
X189500Y-375500D02*
X195000Y-370000D01*
X174250Y-375500D02*
X189500D01*
X174250Y-390500D02*
X183500D01*
X73000Y-360000D02*
X74000Y-359000D01*
Y-351999D01*
X109000Y-382999D02*
X111501Y-385500D01*
X125750D01*
X109000Y-371000D02*
X113500Y-375500D01*
X125750D01*
X115499Y-390500D02*
X125750D01*
X174250Y-370500D02*
X182500D01*
X180500Y-365500D02*
X196000Y-350000D01*
X174250Y-365500D02*
X180500D01*
X125750Y-395500D02*
X136500D01*
X142500Y-358750D02*
Y-345500D01*
X141000Y-420000D02*
X142500Y-418500D01*
Y-407250D01*
X147500Y-380500D02*
Y-358750D01*
X125750Y-380500D02*
X147500D01*
X147500Y-407250D02*
Y-385500D01*
X61000Y-349500D02*
X71501D01*
X24000Y-314000D02*
X40000D01*
X20000Y-318000D02*
X24000Y-314000D01*
X57000D02*
X58000Y-313000D01*
X74000D01*
X79000Y-318000D01*
Y-320000D02*
Y-318000D01*
X36000Y-329500D02*
X37000Y-330500D01*
X36000Y-329500D02*
Y-318000D01*
X40000Y-314000D01*
X61000Y-330500D02*
Y-322000D01*
X57000Y-318000D02*
X61000Y-322000D01*
X57000Y-318000D02*
Y-314000D01*
X444000Y-321000D02*
X466000D01*
X468000Y-319000D01*
X454000Y-292000D02*
X466000D01*
X468000Y-294000D01*
Y-319000D02*
Y-294000D01*
X41000Y-286000D02*
X50000Y-277000D01*
X41000Y-313000D02*
Y-286000D01*
X40000Y-314000D02*
X41000Y-313000D01*
X48500Y-305500D02*
X57000Y-314000D01*
X48500Y-305500D02*
Y-296500D01*
X51000Y-294000D01*
X49250Y-184250D02*
X55750D01*
X66250Y-173750D01*
X81250Y-173500D02*
X114500D01*
X115500Y-174500D01*
X109000Y-361000D02*
Y-358000D01*
X118500Y-370500D02*
X125750D01*
X113500Y-365500D02*
X125750D01*
X109000Y-361000D02*
X113500Y-365500D01*
X118500Y-370500D01*
X167500Y-417218D02*
Y-407250D01*
Y-417218D02*
X183782D01*
X188000Y-413000D01*
D45*
X299000Y-72000D02*
X313000D01*
X299000Y-91000D02*
Y-72000D01*
X275000Y-94000D02*
Y-74000D01*
X346000Y-80000D02*
X366000D01*
X346000Y-85000D02*
Y-80000D01*
X313000Y-72000D02*
X329000D01*
X333000Y-68000D01*
X346000D01*
X321000Y-28000D02*
X350000D01*
X275000D02*
X309000D01*
X350000D02*
X380000Y-58000D01*
X377000Y-175500D02*
Y-175000D01*
X377500Y-193000D02*
X393000D01*
X408000D01*
X419000Y-266000D02*
X429500D01*
X444000Y-234000D02*
Y-229500D01*
Y-220000D01*
X436500Y-266500D02*
X457000Y-246000D01*
Y-191000D01*
X430000Y-266500D02*
X436500D01*
X445000Y-179000D02*
X457000Y-191000D01*
X450000Y-164000D02*
X456000D01*
X444000Y-158000D02*
X450000Y-164000D01*
X432000Y-179000D02*
X445000D01*
X444000Y-158000D02*
Y-108000D01*
X76000Y-53000D02*
Y-15000D01*
D46*
X263000Y-51000D02*
X275000D01*
X209000D02*
X228000D01*
X388000Y-253700D02*
X388300Y-254000D01*
X388000Y-253700D02*
Y-252700D01*
Y-255000D02*
Y-253700D01*
Y-255000D02*
X395000Y-264000D01*
D47*
X346000Y-80000D02*
Y-68000D01*
D48*
X423000Y-233000D02*
X430000Y-240000D01*
Y-249500D02*
Y-240000D01*
D49*
X199000Y-350000D02*
D03*
X229000D02*
D03*
X109000Y-358000D02*
D03*
X124000Y-420000D02*
D03*
X191000Y-421000D02*
D03*
X95000Y-403000D02*
D03*
X244500Y-398893D02*
D03*
X152500Y-420500D02*
D03*
X109000Y-397000D02*
D03*
X75000Y-294000D02*
D03*
X74000Y-277000D02*
D03*
X79000Y-340000D02*
D03*
X73000Y-377000D02*
D03*
X234000Y-402000D02*
D03*
X241000Y-376000D02*
D03*
X222000Y-462000D02*
D03*
X248000D02*
D03*
X286999Y-461999D02*
D03*
X273000Y-462000D02*
D03*
X262500Y-439000D02*
D03*
X109000Y-382999D02*
D03*
X109000Y-371000D02*
D03*
X142500Y-345500D02*
D03*
X141000Y-420000D02*
D03*
X73000Y-350999D02*
D03*
X391000Y-412000D02*
D03*
X377000Y-409000D02*
D03*
X400000Y-381250D02*
D03*
X376500Y-391000D02*
D03*
D50*
X388000Y-227300D02*
D03*
D51*
Y-252700D02*
D03*
D52*
X45000Y-240000D02*
D03*
X245000D02*
D03*
X388000Y-340000D02*
D03*
Y-140000D02*
D03*
X450000Y-30000D02*
D03*
Y-445000D02*
D03*
X30000Y-450000D02*
D03*
Y-30000D02*
D03*
D53*
X414000Y-41000D02*
D03*
X187000Y-34000D02*
D03*
X455000Y-412000D02*
D03*
X110000Y-340000D02*
D03*
X60000Y-140000D02*
D03*
X40000D02*
D03*
X20000D02*
D03*
Y-120000D02*
D03*
Y-100000D02*
D03*
Y-80000D02*
D03*
Y-60000D02*
D03*
X260000Y-170000D02*
D03*
Y-270000D02*
D03*
Y-210000D02*
D03*
Y-150000D02*
D03*
Y-130000D02*
D03*
X220000Y-110000D02*
D03*
X240000D02*
D03*
X260000D02*
D03*
X80000Y-407000D02*
D03*
X347000Y-115000D02*
D03*
X387000Y-97000D02*
D03*
X339999Y-358999D02*
D03*
X338000Y-446000D02*
D03*
X359000Y-439000D02*
D03*
X239000Y-363000D02*
D03*
X250000Y-355000D02*
D03*
X31000Y-384000D02*
D03*
X430000Y-415000D02*
D03*
X266000Y-283000D02*
D03*
X242000Y-312000D02*
D03*
X356000Y-80000D02*
D03*
X369000Y-114000D02*
D03*
X366000Y-80000D02*
D03*
X411000Y-115000D02*
D03*
X376000Y-205000D02*
D03*
X340000Y-211000D02*
D03*
X358000Y-208000D02*
D03*
X346000Y-80000D02*
D03*
X238000Y-421000D02*
D03*
X286000Y-300000D02*
D03*
X63000Y-395000D02*
D03*
X358000Y-179000D02*
D03*
X321000Y-335000D02*
D03*
X311000Y-343000D02*
D03*
X292000D02*
D03*
X258000Y-304000D02*
D03*
X240000Y-325000D02*
D03*
X205000Y-214000D02*
D03*
X266000Y-183000D02*
D03*
X246000Y-436000D02*
D03*
X191000Y-451000D02*
D03*
X82000Y-460000D02*
D03*
X346000Y-347000D02*
D03*
X304000Y-403000D02*
D03*
X260000Y-343000D02*
D03*
X358000Y-363000D02*
D03*
X374999Y-456999D02*
D03*
X263000Y-51000D02*
D03*
X228000D02*
D03*
X117000Y-433000D02*
D03*
X295000Y-325000D02*
D03*
X195000Y-370000D02*
D03*
X162000D02*
D03*
Y-394000D02*
D03*
X138000D02*
D03*
Y-371000D02*
D03*
X20000Y-410000D02*
D03*
Y-350000D02*
D03*
X171000Y-69000D02*
D03*
X321000Y-28000D02*
D03*
X120000Y-23000D02*
D03*
X309000Y-28000D02*
D03*
X108000Y-23000D02*
D03*
X165000Y-38000D02*
D03*
X460000Y-67000D02*
D03*
X377000Y-175000D02*
D03*
X425000Y-204000D02*
D03*
X173000Y-228000D02*
D03*
X199000Y-289000D02*
D03*
X145000Y-213000D02*
D03*
X146000Y-192000D02*
D03*
X430000Y-390000D02*
D03*
X457000Y-346000D02*
D03*
X456000Y-366000D02*
D03*
X455000Y-384000D02*
D03*
X426000Y-148500D02*
D03*
X431000Y-163000D02*
D03*
X456000Y-164000D02*
D03*
X403000Y-242000D02*
D03*
X80000Y-140000D02*
D03*
X100000D02*
D03*
X120000D02*
D03*
X20000Y-220000D02*
D03*
Y-260000D02*
D03*
Y-280000D02*
D03*
Y-300000D02*
D03*
X313000Y-462000D02*
D03*
X388000Y-469000D02*
D03*
X411000Y-438000D02*
D03*
X195000Y-110000D02*
D03*
D54*
X110000Y-101000D02*
D03*
X113000Y-117000D02*
D03*
X135000Y-135000D02*
D03*
X91000Y-98000D02*
D03*
X140000Y-117000D02*
D03*
X170000Y-137000D02*
D03*
X335000Y-234000D02*
D03*
X335000Y-283500D02*
D03*
Y-266000D02*
D03*
X433000D02*
D03*
X393000Y-284500D02*
D03*
X460000Y-132000D02*
D03*
D55*
X117000Y-201000D02*
D03*
X122000Y-195000D02*
D03*
X127000Y-201000D02*
D03*
X123000Y-228000D02*
D03*
X108000Y-223000D02*
D03*
X444000Y-234000D02*
D03*
Y-219000D02*
D03*
Y-226000D02*
D03*
X115500Y-174500D02*
D03*
X126750Y-172250D02*
D03*
X112000Y-195000D02*
D03*
M02*
