M48
;Layer_Color=9474304
;FILE_FORMAT=4:4
METRIC,LZ
;TYPE=PLATED
T1F00S00C0.3000
T2F00S00C0.4000
T3F00S00C0.5000
T4F00S00C0.9000
T5F00S00C2.3000
T6F00S00C3.0000
%
T01
X00108Y-00223
X00123Y-00228
X00127Y-00201
X00117
X00112Y-00195
X00122
X001155Y-001745
X0012675Y-0017225
X00444Y-00219
Y-00226
Y-00234
T02
X00286999Y-00461999
X00273Y-00462
X00248
X00222
X002625Y-00439
X002445Y-00398893
X00234Y-00402
X00241Y-00376
X00229Y-0035
X00199
X001425Y-003455
X00109Y-00358
Y-00371
X00109Y-00382999
X00109Y-00397
X00095Y-00403
X00124Y-0042
X00141
X001525Y-004205
X00191Y-00421
X00073Y-00377
X00073Y-00350999
X00079Y-0034
X00075Y-00294
X00074Y-00277
X003765Y-00391
X00377Y-00409
X00391Y-00412
X004Y-0038125
T03
X00313Y-00462
X00374999Y-00456999
X00388Y-00469
X00191Y-00451
X00082Y-0046
X0008Y-00407
X00063Y-00395
X00031Y-00384
X0002Y-0041
Y-0035
Y-003
Y-0028
Y-0026
Y-0022
Y-0014
X0004
X0006
X0008
X001
X0012
X00135Y-00135
X0014Y-00117
X00113Y-00117
X0011Y-00101
X00091Y-00098
X0002Y-001
Y-0012
Y-0008
Y-0006
X00171Y-00069
X00195Y-0011
X0022
X0024
X0026
Y-0013
Y-0015
Y-0017
X00266Y-00183
X0026Y-0021
X00205Y-00214
X00173Y-00228
X00145Y-00213
X00146Y-00192
X0017Y-00137
X00199Y-00289
X00242Y-00312
X0024Y-00325
X0026Y-00343
X0025Y-00355
X00239Y-00363
X00195Y-0037
X00162
Y-00394
X00138
Y-00371
X0011Y-0034
X00117Y-00433
X00246Y-00436
X00238Y-00421
X00258Y-00304
X00266Y-00283
X0026Y-0027
X00286Y-003
X00295Y-00325
X00292Y-00343
X00311
X00321Y-00335
X00346Y-00347
X00339999Y-00358999
X00358Y-00363
X00359Y-00439
X00338Y-00446
X00304Y-00403
X0043Y-00415
Y-0039
X00455Y-00384
X00456Y-00366
X00457Y-00346
X00455Y-00412
X00411Y-00438
X00393Y-002845
X00403Y-00242
X00433Y-00266
X00425Y-00204
X00431Y-00163
X00426Y-001485
X00456Y-00164
X0046Y-00132
Y-00067
X00411Y-00115
X00387Y-00097
X00369Y-00114
X00347Y-00115
X00346Y-0008
X00356
X00366
X00377Y-00175
X00358Y-00179
Y-00208
X00376Y-00205
X0034Y-00211
X00335Y-00234
X00335Y-00266
Y-002835
X00321Y-00028
X00309
X00414Y-00041
X00263Y-00051
X00228
X00187Y-00034
X00165Y-00038
X0012Y-00023
X00108
T04
X00388Y-002527
Y-002273
T05
X00045Y-0024
X00245
T06
X0003Y-0045
X0045Y-00445
X00388Y-0034
Y-0014
X0045Y-0003
X0003
M30
