G04 Layer_Physical_Order=3*
G04 Layer_Color=16440176*
%FSLAX44Y44*%
%MOMM*%
G71*
G01*
G75*
%ADD39C,0.2000*%
%ADD40C,0.3000*%
%ADD41C,1.0000*%
%ADD42C,0.5000*%
%ADD43C,0.7500*%
%ADD45C,0.8000*%
%ADD46C,1.0000*%
%ADD50C,0.9000*%
D39*
X128000Y-430000D02*
X218000D01*
X114000Y-416000D02*
X128000Y-430000D01*
X81157Y-217843D02*
X85314Y-222000D01*
X81157Y-217843D02*
X82000Y-217000D01*
X85314Y-222000D02*
X90000Y-226686D01*
Y-240000D02*
Y-226686D01*
X82000Y-236000D02*
Y-230000D01*
X92000Y-406000D02*
X95000Y-403000D01*
X92000Y-422000D02*
Y-406000D01*
Y-422000D02*
X113000Y-443000D01*
X218000Y-430000D02*
X244500Y-403500D01*
Y-398893D01*
X152500Y-420500D02*
Y-353500D01*
X109000Y-397000D02*
Y-396999D01*
X117000Y-388999D01*
X57000Y-273000D02*
X90000Y-240000D01*
X82000Y-240000D02*
Y-236000D01*
X44000Y-278000D02*
X82000Y-240000D01*
X163000Y-312000D02*
X242000D01*
X57000Y-277000D02*
Y-273000D01*
X40000Y-278000D02*
X44000D01*
X113000Y-443000D02*
X202737D01*
X205237Y-440500D01*
X218500D01*
X238000Y-421000D01*
X234000Y-402000D02*
Y-383000D01*
X234000Y-383000D01*
X241000Y-376000D01*
X117000Y-358000D02*
X163000Y-312000D01*
X181000Y-325000D02*
X240000D01*
X117000Y-388999D02*
Y-358000D01*
X152500Y-353500D02*
X181000Y-325000D01*
X88000Y-350000D02*
X109000Y-371000D01*
X73999Y-350000D02*
X88000D01*
X142500Y-345500D02*
X146000Y-349000D01*
Y-415000D02*
Y-349000D01*
X141000Y-420000D02*
X146000Y-415000D01*
X73000Y-350999D02*
X73999Y-350000D01*
D40*
X367000Y-431000D02*
Y-388000D01*
X359000Y-439000D02*
X367000Y-431000D01*
Y-388000D02*
X377000Y-378000D01*
X250000Y-355000D02*
Y-300000D01*
X299000Y-313000D02*
X321000Y-335000D01*
X299000Y-313000D02*
Y-233000D01*
X294000Y-324000D02*
X295000Y-325000D01*
X205000Y-255000D02*
X250000Y-300000D01*
X205000Y-255000D02*
Y-214000D01*
X213000Y-253000D02*
X258000Y-298000D01*
X213000Y-253000D02*
Y-162000D01*
X258000Y-304000D02*
Y-298000D01*
X219000Y-248000D02*
X254000Y-283000D01*
X266000D01*
X219000Y-248000D02*
Y-150000D01*
X292000Y-294686D02*
Y-228000D01*
Y-294686D02*
X294000Y-296686D01*
Y-324000D02*
Y-296686D01*
X292000Y-228000D02*
X357000Y-163000D01*
X299000Y-233000D02*
X353000Y-179000D01*
X208000Y-464000D02*
X220000Y-452000D01*
X323000D01*
X353000Y-179000D02*
X358000D01*
X411500Y-163000D02*
X426000Y-148500D01*
X357000Y-163000D02*
X411500D01*
X168000Y-117000D02*
X213000Y-162000D01*
X171000Y-102000D02*
X219000Y-150000D01*
X266000Y-183000D02*
X280000D01*
X346000Y-347000D02*
X348000Y-349000D01*
Y-459000D02*
Y-349000D01*
X330000Y-459000D02*
X348000D01*
X323000Y-452000D02*
X330000Y-459000D01*
X86000Y-464000D02*
X208000D01*
X82000Y-460000D02*
X86000Y-464000D01*
X447000Y-363000D02*
X455000Y-355000D01*
X358000Y-363000D02*
X447000D01*
X374999Y-456999D02*
X377000Y-454998D01*
X374500Y-456500D02*
X374999Y-456999D01*
X377000Y-454998D02*
Y-409000D01*
X171000Y-102000D02*
Y-69000D01*
X140000Y-117000D02*
X168000D01*
D41*
X280000Y-325000D02*
Y-183000D01*
Y-67000D01*
X264000Y-51000D02*
X280000Y-67000D01*
X228000Y-51000D02*
X264000D01*
X262000Y-343000D02*
X280000Y-325000D01*
D42*
X387000Y-97000D02*
X459000D01*
X460000Y-98000D01*
X99000Y-203000D02*
X121500Y-180500D01*
X99000Y-278000D02*
Y-203000D01*
X93000Y-284000D02*
X99000Y-278000D01*
X121500Y-180500D02*
X178500D01*
X63000Y-395000D02*
X64000Y-396000D01*
Y-407000D02*
Y-396000D01*
Y-407000D02*
X108000Y-451000D01*
X191000D01*
X207515Y-446000D02*
X257999D01*
X202515Y-451000D02*
X207515Y-446000D01*
X257999D02*
X262500Y-441499D01*
X460000Y-98000D02*
Y-67000D01*
Y-132000D02*
Y-98000D01*
X194000Y-260000D02*
Y-164000D01*
X187000Y-267000D02*
X194000Y-260000D01*
X260000Y-343000D02*
X262500Y-345500D01*
Y-439000D02*
X331000D01*
X338000Y-446000D01*
X262500Y-441499D02*
Y-439000D01*
X191000Y-451000D02*
X202515D01*
X20000Y-410000D02*
Y-350000D01*
X170000Y-137000D02*
X194000Y-164000D01*
D43*
X262500Y-439000D02*
Y-345500D01*
X120000Y-23000D02*
X304000D01*
X108000D02*
X120000D01*
X309000Y-28000D02*
X321000D01*
X304000Y-23000D02*
X309000Y-28000D01*
X377000Y-175000D02*
X449000D01*
D45*
X82000Y-217000D02*
D03*
Y-230000D02*
D03*
X95000Y-403000D02*
D03*
X244500Y-398893D02*
D03*
X152500Y-420500D02*
D03*
X109000Y-397000D02*
D03*
X57000Y-277000D02*
D03*
X40000Y-278000D02*
D03*
X234000Y-402000D02*
D03*
X241000Y-376000D02*
D03*
X262500Y-439000D02*
D03*
X377000Y-409000D02*
D03*
X109000Y-371000D02*
D03*
X142500Y-345500D02*
D03*
X141000Y-420000D02*
D03*
X73000Y-350999D02*
D03*
D46*
X140000Y-117000D02*
D03*
X170000Y-137000D02*
D03*
X460000Y-132000D02*
D03*
D50*
X114000Y-416000D02*
D03*
X387000Y-97000D02*
D03*
X338000Y-446000D02*
D03*
X359000Y-439000D02*
D03*
X250000Y-355000D02*
D03*
X93000Y-284000D02*
D03*
X178500Y-180500D02*
D03*
X266000Y-283000D02*
D03*
X242000Y-312000D02*
D03*
X238000Y-421000D02*
D03*
X286000Y-300000D02*
D03*
X63000Y-395000D02*
D03*
X358000Y-179000D02*
D03*
X321000Y-335000D02*
D03*
X258000Y-304000D02*
D03*
X240000Y-325000D02*
D03*
X205000Y-214000D02*
D03*
X266000Y-183000D02*
D03*
X191000Y-451000D02*
D03*
X82000Y-460000D02*
D03*
X346000Y-347000D02*
D03*
X260000Y-343000D02*
D03*
X455000Y-355000D02*
D03*
X358000Y-363000D02*
D03*
X377000Y-378000D02*
D03*
X374999Y-456999D02*
D03*
X263000Y-51000D02*
D03*
X228000D02*
D03*
X295000Y-325000D02*
D03*
X426000Y-148500D02*
D03*
X20000Y-410000D02*
D03*
Y-350000D02*
D03*
X187000Y-267000D02*
D03*
X171000Y-69000D02*
D03*
X321000Y-28000D02*
D03*
X120000Y-23000D02*
D03*
X309000Y-28000D02*
D03*
X108000Y-23000D02*
D03*
X460000Y-67000D02*
D03*
X449000Y-175000D02*
D03*
X377000D02*
D03*
M02*
