M48
;Layer_Color=9474304
;FILE_FORMAT=4:4
METRIC,LZ
;TYPE=PLATED
T1F00S00C0.4000
T2F00S00C0.5000
T3F00S00C0.9000
T4F00S00C2.3000
T5F00S00C2.6000
T6F00S00C3.0000
%
T01
X00286999Y-00461999
X00273Y-00462
X00248
X00222
X002625Y-00439
X002445Y-00398893
X00234Y-00402
X00241Y-00376
X00229Y-0035
X00199
X001425Y-003455
X00109Y-00371
X00109Y-00382999
X00109Y-00397
X00095Y-00403
X00073Y-00377
X00073Y-00350999
X00079Y-0034
X00057Y-00277
X0004Y-00278
X00082Y-0023
Y-00217
X00141Y-0042
X001525Y-004205
X00191Y-00421
X00377Y-00409
Y-003955
X00391Y-00412
T02
X00316999Y-00461999
X00374999Y-00456999
X00191Y-00451
X00082Y-0046
X0008Y-00407
X00063Y-00395
X00031Y-00384
X0002Y-0041
Y-0035
X00109Y-00358
X0011Y-0034
X00138Y-00371
Y-00394
X00162
Y-0037
X00195
X00239Y-00363
X0025Y-00355
X0026Y-00343
X0024Y-00325
X00242Y-00312
X00258Y-00304
X00266Y-00283
X0026Y-0027
Y-0021
X00266Y-00183
X0026Y-0017
Y-0015
Y-0013
Y-0011
X0024
X0022
X0017Y-00137
X00135Y-00135
X0014Y-00117
X00113Y-00117
X0011Y-00101
X00091Y-00098
X0009Y-0014
X0006
X0003
Y-0012
Y-001
Y-0008
Y-0006
X00171Y-00069
X001785Y-001805
X0017Y-002
X00205Y-00214
X00187Y-00267
X001577Y-0024
X00145Y-002273
Y-002527
X00109Y-00224
X0009Y-0018
X00093Y-00284
X00114Y-00416
X00117Y-00433
X00246Y-00436
X00238Y-00421
X00304Y-00403
X00311Y-00343
X00321Y-00335
X00295Y-00325
X00292Y-00343
X00286Y-003
X00335Y-002835
Y-00266
X00335Y-00234
X0034Y-00211
X00358Y-00208
X00376Y-00205
X00377Y-00175
X00358Y-00179
X00347Y-00115
X00369Y-00114
X00387Y-00097
X00366Y-0008
X00356
X00346
X00411Y-00115
X00426Y-001485
X00431Y-00163
X00449Y-00175
X00425Y-00204
X00407Y-00241
X00393Y-002845
X00449Y-00261
X00455Y-00355
X00457Y-00377
X00458Y-00397
X00437Y-00419
X00416Y-00438
X00359Y-00439
X00338Y-00446
X00339999Y-00358999
X00346Y-00347
X00358Y-00363
X00377Y-00378
X00426Y-00381
X0046Y-00132
Y-00067
X0042Y-00041
X00321Y-00028
X00309
X00263Y-00051
X00228
X00165Y-00038
X0012Y-00023
X00108
X00087
X00064
T03
X00388Y-002537
Y-002283
T04
X00045Y-0024
X00245
T05
X00388Y-0034
Y-0014
T06
X0003Y-0045
X0045Y-00445
Y-0003
X0003
M30
