G04 Layer_Color=8388736*
%FSLAX44Y44*%
%MOMM*%
G71*
G01*
G75*
%ADD36R,1.0000X1.0000*%
%ADD38R,1.0000X1.0000*%
G04:AMPARAMS|DCode=64|XSize=1.2032mm|YSize=1.1032mm|CornerRadius=0.2141mm|HoleSize=0mm|Usage=FLASHONLY|Rotation=180.000|XOffset=0mm|YOffset=0mm|HoleType=Round|Shape=RoundedRectangle|*
%AMROUNDEDRECTD64*
21,1,1.2032,0.6750,0,0,180.0*
21,1,0.7750,1.1032,0,0,180.0*
1,1,0.4282,-0.3875,0.3375*
1,1,0.4282,0.3875,0.3375*
1,1,0.4282,0.3875,-0.3375*
1,1,0.4282,-0.3875,-0.3375*
%
%ADD64ROUNDEDRECTD64*%
G04:AMPARAMS|DCode=65|XSize=1.2032mm|YSize=1.1032mm|CornerRadius=0.2141mm|HoleSize=0mm|Usage=FLASHONLY|Rotation=270.000|XOffset=0mm|YOffset=0mm|HoleType=Round|Shape=RoundedRectangle|*
%AMROUNDEDRECTD65*
21,1,1.2032,0.6750,0,0,270.0*
21,1,0.7750,1.1032,0,0,270.0*
1,1,0.4282,-0.3375,-0.3875*
1,1,0.4282,-0.3375,0.3875*
1,1,0.4282,0.3375,0.3875*
1,1,0.4282,0.3375,-0.3875*
%
%ADD65ROUNDEDRECTD65*%
%ADD66R,3.8032X3.8032*%
%ADD67O,1.0532X0.4532*%
%ADD68O,0.4532X1.0532*%
G04:AMPARAMS|DCode=69|XSize=1.6032mm|YSize=1.2032mm|CornerRadius=0.2266mm|HoleSize=0mm|Usage=FLASHONLY|Rotation=90.000|XOffset=0mm|YOffset=0mm|HoleType=Round|Shape=RoundedRectangle|*
%AMROUNDEDRECTD69*
21,1,1.6032,0.7500,0,0,90.0*
21,1,1.1500,1.2032,0,0,90.0*
1,1,0.4532,0.3750,0.5750*
1,1,0.4532,0.3750,-0.5750*
1,1,0.4532,-0.3750,-0.5750*
1,1,0.4532,-0.3750,0.5750*
%
%ADD69ROUNDEDRECTD69*%
G04:AMPARAMS|DCode=70|XSize=1.6032mm|YSize=1.2032mm|CornerRadius=0.2266mm|HoleSize=0mm|Usage=FLASHONLY|Rotation=180.000|XOffset=0mm|YOffset=0mm|HoleType=Round|Shape=RoundedRectangle|*
%AMROUNDEDRECTD70*
21,1,1.6032,0.7500,0,0,180.0*
21,1,1.1500,1.2032,0,0,180.0*
1,1,0.4532,-0.5750,0.3750*
1,1,0.4532,0.5750,0.3750*
1,1,0.4532,0.5750,-0.3750*
1,1,0.4532,-0.5750,-0.3750*
%
%ADD70ROUNDEDRECTD70*%
G04:AMPARAMS|DCode=71|XSize=0.8532mm|YSize=0.7032mm|CornerRadius=0.1516mm|HoleSize=0mm|Usage=FLASHONLY|Rotation=90.000|XOffset=0mm|YOffset=0mm|HoleType=Round|Shape=RoundedRectangle|*
%AMROUNDEDRECTD71*
21,1,0.8532,0.4000,0,0,90.0*
21,1,0.5500,0.7032,0,0,90.0*
1,1,0.3032,0.2000,0.2750*
1,1,0.3032,0.2000,-0.2750*
1,1,0.3032,-0.2000,-0.2750*
1,1,0.3032,-0.2000,0.2750*
%
%ADD71ROUNDEDRECTD71*%
%ADD72O,0.5032X2.0032*%
%ADD73O,2.0032X0.5032*%
%ADD74R,1.3032X0.8532*%
G04:AMPARAMS|DCode=75|XSize=3.7032mm|YSize=1.9532mm|CornerRadius=0.3204mm|HoleSize=0mm|Usage=FLASHONLY|Rotation=90.000|XOffset=0mm|YOffset=0mm|HoleType=Round|Shape=RoundedRectangle|*
%AMROUNDEDRECTD75*
21,1,3.7032,1.3125,0,0,90.0*
21,1,3.0625,1.9532,0,0,90.0*
1,1,0.6407,0.6563,1.5313*
1,1,0.6407,0.6563,-1.5313*
1,1,0.6407,-0.6563,-1.5313*
1,1,0.6407,-0.6563,1.5313*
%
%ADD75ROUNDEDRECTD75*%
G04:AMPARAMS|DCode=76|XSize=1.3032mm|YSize=1.9532mm|CornerRadius=0.2391mm|HoleSize=0mm|Usage=FLASHONLY|Rotation=90.000|XOffset=0mm|YOffset=0mm|HoleType=Round|Shape=RoundedRectangle|*
%AMROUNDEDRECTD76*
21,1,1.3032,1.4750,0,0,90.0*
21,1,0.8250,1.9532,0,0,90.0*
1,1,0.4782,0.7375,0.4125*
1,1,0.4782,0.7375,-0.4125*
1,1,0.4782,-0.7375,-0.4125*
1,1,0.4782,-0.7375,0.4125*
%
%ADD76ROUNDEDRECTD76*%
G04:AMPARAMS|DCode=77|XSize=1.3032mm|YSize=1.9532mm|CornerRadius=0.2391mm|HoleSize=0mm|Usage=FLASHONLY|Rotation=90.000|XOffset=0mm|YOffset=0mm|HoleType=Round|Shape=RoundedRectangle|*
%AMROUNDEDRECTD77*
21,1,1.3032,1.4750,0,0,90.0*
21,1,0.8250,1.9532,0,0,90.0*
1,1,0.4782,0.7375,0.4125*
1,1,0.4782,0.7375,-0.4125*
1,1,0.4782,-0.7375,-0.4125*
1,1,0.4782,-0.7375,0.4125*
%
%ADD77ROUNDEDRECTD77*%
%ADD78R,0.9032X0.4532*%
%ADD79R,1.7032X2.5032*%
%ADD80R,1.2532X1.2032*%
%ADD81R,2.4032X1.2532*%
%ADD82R,1.5032X1.7032*%
%ADD83R,4.2032X3.2032*%
%ADD84R,1.0032X0.5432*%
%ADD85R,0.8532X0.5432*%
%ADD86R,1.9132X2.4932*%
G04:AMPARAMS|DCode=87|XSize=1.5032mm|YSize=1.0032mm|CornerRadius=0.2016mm|HoleSize=0mm|Usage=FLASHONLY|Rotation=180.000|XOffset=0mm|YOffset=0mm|HoleType=Round|Shape=RoundedRectangle|*
%AMROUNDEDRECTD87*
21,1,1.5032,0.6000,0,0,180.0*
21,1,1.1000,1.0032,0,0,180.0*
1,1,0.4032,-0.5500,0.3000*
1,1,0.4032,0.5500,0.3000*
1,1,0.4032,0.5500,-0.3000*
1,1,0.4032,-0.5500,-0.3000*
%
%ADD87ROUNDEDRECTD87*%
G04:AMPARAMS|DCode=88|XSize=1.5032mm|YSize=1.0032mm|CornerRadius=0.2016mm|HoleSize=0mm|Usage=FLASHONLY|Rotation=270.000|XOffset=0mm|YOffset=0mm|HoleType=Round|Shape=RoundedRectangle|*
%AMROUNDEDRECTD88*
21,1,1.5032,0.6000,0,0,270.0*
21,1,1.1000,1.0032,0,0,270.0*
1,1,0.4032,-0.3000,-0.5500*
1,1,0.4032,-0.3000,0.5500*
1,1,0.4032,0.3000,0.5500*
1,1,0.4032,0.3000,-0.5500*
%
%ADD88ROUNDEDRECTD88*%
%ADD89R,0.9032X1.5032*%
%ADD90R,1.5032X2.6032*%
%ADD91C,1.0032*%
%ADD92C,1.2032*%
%ADD93R,1.6032X1.6032*%
%ADD94C,1.6032*%
%ADD95C,3.7032*%
%ADD96C,1.1032*%
D36*
X346000Y-68000D02*
D03*
Y-80000D02*
D03*
D38*
X437000Y-270000D02*
D03*
X425000D02*
D03*
D64*
X95000Y-398000D02*
D03*
Y-381000D02*
D03*
X317000Y-27000D02*
D03*
Y-44000D02*
D03*
X139000Y-213000D02*
D03*
Y-196000D02*
D03*
X40000Y-285000D02*
D03*
Y-302000D02*
D03*
X57000Y-284000D02*
D03*
Y-301000D02*
D03*
X393000Y-193000D02*
D03*
Y-176000D02*
D03*
X449000Y-236500D02*
D03*
Y-253500D02*
D03*
X335000Y-300500D02*
D03*
Y-283500D02*
D03*
X380000Y-59000D02*
D03*
Y-76000D02*
D03*
X68000Y-436500D02*
D03*
Y-453500D02*
D03*
X377000Y-192500D02*
D03*
Y-175500D02*
D03*
X319000Y-283500D02*
D03*
Y-300500D02*
D03*
X459000Y-84000D02*
D03*
Y-67000D02*
D03*
X69000Y-180000D02*
D03*
Y-197000D02*
D03*
X20000Y-318000D02*
D03*
Y-335000D02*
D03*
X426000Y-131500D02*
D03*
Y-148500D02*
D03*
X73000Y-377000D02*
D03*
Y-360000D02*
D03*
X449000Y-207000D02*
D03*
Y-190000D02*
D03*
X410000Y-291000D02*
D03*
Y-274000D02*
D03*
X319000Y-249000D02*
D03*
Y-232000D02*
D03*
X393000Y-284500D02*
D03*
Y-301500D02*
D03*
D65*
X262000Y-343000D02*
D03*
X279000D02*
D03*
X346500Y-461000D02*
D03*
X329500D02*
D03*
X263000Y-442000D02*
D03*
X246000D02*
D03*
X208000Y-368000D02*
D03*
X225000D02*
D03*
X208000Y-383000D02*
D03*
X225000D02*
D03*
X252500Y-183000D02*
D03*
X235500D02*
D03*
X396000Y-41000D02*
D03*
X413000D02*
D03*
X126000Y-250000D02*
D03*
X109000D02*
D03*
X443000Y-116000D02*
D03*
X460000D02*
D03*
X58000Y-369000D02*
D03*
X41000D02*
D03*
X352000Y-249000D02*
D03*
X335000D02*
D03*
X125500Y-284000D02*
D03*
X108500D02*
D03*
X41000Y-395000D02*
D03*
X58000D02*
D03*
X365000Y-97000D02*
D03*
X382000D02*
D03*
X460000Y-132000D02*
D03*
X443000D02*
D03*
X57500Y-272000D02*
D03*
X40500D02*
D03*
X20500Y-410000D02*
D03*
X37500D02*
D03*
X57000Y-314000D02*
D03*
X40000D02*
D03*
X352000Y-234000D02*
D03*
X335000D02*
D03*
X206000Y-339000D02*
D03*
X223000D02*
D03*
X341000Y-319000D02*
D03*
X324000D02*
D03*
D66*
X150000Y-383000D02*
D03*
D67*
X125750Y-400500D02*
D03*
Y-395500D02*
D03*
Y-390500D02*
D03*
Y-385500D02*
D03*
Y-380500D02*
D03*
Y-375500D02*
D03*
Y-370500D02*
D03*
Y-365500D02*
D03*
X174250D02*
D03*
Y-370500D02*
D03*
Y-375500D02*
D03*
Y-380500D02*
D03*
Y-385500D02*
D03*
Y-390500D02*
D03*
Y-395500D02*
D03*
Y-400500D02*
D03*
D68*
X132500Y-358750D02*
D03*
X137500D02*
D03*
X142500D02*
D03*
X147500D02*
D03*
X152500D02*
D03*
X157500D02*
D03*
X162500D02*
D03*
X167500D02*
D03*
Y-407250D02*
D03*
X162500D02*
D03*
X157500D02*
D03*
X152500D02*
D03*
X147500D02*
D03*
X142500D02*
D03*
X137500D02*
D03*
X132500D02*
D03*
D69*
X127000Y-267000D02*
D03*
X109000D02*
D03*
X317000Y-266000D02*
D03*
X335000D02*
D03*
D70*
X299000Y-54000D02*
D03*
Y-72000D02*
D03*
X21000Y-369000D02*
D03*
Y-351000D02*
D03*
D71*
X440000Y-86000D02*
D03*
Y-104000D02*
D03*
X374000Y-249000D02*
D03*
Y-231000D02*
D03*
D72*
X331500Y-444500D02*
D03*
X326500D02*
D03*
X321500D02*
D03*
X316500D02*
D03*
X311500D02*
D03*
X306500D02*
D03*
X301500D02*
D03*
X296500D02*
D03*
X291500D02*
D03*
X286500D02*
D03*
X281500D02*
D03*
X276500D02*
D03*
Y-363500D02*
D03*
X281500D02*
D03*
X286500D02*
D03*
X291500D02*
D03*
X296500D02*
D03*
X301500D02*
D03*
X306500D02*
D03*
X311500D02*
D03*
X316500D02*
D03*
X321500D02*
D03*
X326500D02*
D03*
X331500D02*
D03*
D73*
X263500Y-431500D02*
D03*
Y-426500D02*
D03*
Y-421500D02*
D03*
Y-416500D02*
D03*
Y-411500D02*
D03*
Y-406500D02*
D03*
Y-401500D02*
D03*
Y-396500D02*
D03*
Y-391500D02*
D03*
Y-386500D02*
D03*
Y-381500D02*
D03*
Y-376500D02*
D03*
X344500D02*
D03*
Y-381500D02*
D03*
Y-386500D02*
D03*
Y-391500D02*
D03*
Y-396500D02*
D03*
Y-401500D02*
D03*
Y-406500D02*
D03*
Y-411500D02*
D03*
Y-416500D02*
D03*
Y-421500D02*
D03*
Y-426500D02*
D03*
Y-431500D02*
D03*
D74*
X400000Y-77000D02*
D03*
Y-58000D02*
D03*
X424000D02*
D03*
Y-67500D02*
D03*
Y-77000D02*
D03*
X37000Y-349500D02*
D03*
Y-330500D02*
D03*
X61000D02*
D03*
Y-340000D02*
D03*
Y-349500D02*
D03*
X352000Y-293000D02*
D03*
Y-274000D02*
D03*
X376000D02*
D03*
Y-283500D02*
D03*
Y-293000D02*
D03*
D75*
X209000Y-51000D02*
D03*
D76*
X275000Y-28000D02*
D03*
Y-51000D02*
D03*
D77*
Y-74000D02*
D03*
D78*
X122970Y-214500D02*
D03*
Y-221000D02*
D03*
Y-227500D02*
D03*
X123000Y-234000D02*
D03*
X94970Y-214500D02*
D03*
Y-221000D02*
D03*
Y-227500D02*
D03*
X95000Y-234000D02*
D03*
D79*
X109000Y-224000D02*
D03*
D80*
X49250Y-184250D02*
D03*
X428750Y-297000D02*
D03*
D81*
X34000Y-199000D02*
D03*
Y-169500D02*
D03*
X444000Y-282250D02*
D03*
Y-311750D02*
D03*
D82*
X421500Y-97000D02*
D03*
X402500D02*
D03*
D83*
X348000Y-33000D02*
D03*
X77000Y-30000D02*
D03*
D84*
X407000Y-216500D02*
D03*
Y-223000D02*
D03*
Y-229500D02*
D03*
Y-236000D02*
D03*
D85*
X437750Y-216500D02*
D03*
Y-223000D02*
D03*
Y-229500D02*
D03*
Y-236000D02*
D03*
D86*
X425955Y-226250D02*
D03*
D87*
X79000Y-340000D02*
D03*
Y-320000D02*
D03*
D88*
X424000Y-254000D02*
D03*
X404000D02*
D03*
D89*
X410500Y-193000D02*
D03*
X420000D02*
D03*
X429500D02*
D03*
Y-169000D02*
D03*
X420000D02*
D03*
X410500D02*
D03*
D90*
X390000Y-446001D02*
D03*
Y-402001D02*
D03*
X414000D02*
D03*
Y-446001D02*
D03*
D91*
X199000Y-350000D02*
D03*
X229000D02*
D03*
X191000Y-421000D02*
D03*
X391000Y-412000D02*
D03*
X82000Y-217000D02*
D03*
Y-230000D02*
D03*
X95000Y-403000D02*
D03*
X244500Y-398893D02*
D03*
X152500Y-420500D02*
D03*
X109000Y-397000D02*
D03*
X57000Y-277000D02*
D03*
X40000Y-278000D02*
D03*
X79000Y-340000D02*
D03*
X73000Y-377000D02*
D03*
X234000Y-402000D02*
D03*
X241000Y-376000D02*
D03*
X222000Y-462000D02*
D03*
X248000D02*
D03*
X286999Y-461999D02*
D03*
X273000Y-462000D02*
D03*
X262500Y-439000D02*
D03*
X377000Y-409000D02*
D03*
Y-395500D02*
D03*
X109000Y-382999D02*
D03*
X109000Y-371000D02*
D03*
X142500Y-345500D02*
D03*
X141000Y-420000D02*
D03*
X73000Y-350999D02*
D03*
D92*
X157700Y-240000D02*
D03*
X145000Y-227300D02*
D03*
Y-252700D02*
D03*
X110000Y-101000D02*
D03*
X113000Y-117000D02*
D03*
X135000Y-135000D02*
D03*
X91000Y-98000D02*
D03*
X140000Y-117000D02*
D03*
X170000Y-137000D02*
D03*
X109000Y-224000D02*
D03*
X335000Y-234000D02*
D03*
X335000Y-283500D02*
D03*
Y-266000D02*
D03*
X449000Y-261000D02*
D03*
X393000Y-284500D02*
D03*
X460000Y-132000D02*
D03*
D93*
X388000Y-228300D02*
D03*
D94*
Y-253700D02*
D03*
D95*
X45000Y-240000D02*
D03*
X245000D02*
D03*
X388000Y-340000D02*
D03*
Y-140000D02*
D03*
X450000Y-30000D02*
D03*
Y-445000D02*
D03*
X30000Y-450000D02*
D03*
Y-30000D02*
D03*
D96*
X114000Y-416000D02*
D03*
X109000Y-358000D02*
D03*
X110000Y-340000D02*
D03*
X90000Y-140000D02*
D03*
X60000D02*
D03*
X90000Y-180000D02*
D03*
X170000Y-200000D02*
D03*
X30000Y-140000D02*
D03*
Y-120000D02*
D03*
Y-100000D02*
D03*
Y-80000D02*
D03*
Y-60000D02*
D03*
X260000Y-170000D02*
D03*
Y-270000D02*
D03*
Y-210000D02*
D03*
Y-150000D02*
D03*
Y-130000D02*
D03*
X220000Y-110000D02*
D03*
X240000D02*
D03*
X260000D02*
D03*
X80000Y-407000D02*
D03*
X347000Y-115000D02*
D03*
X387000Y-97000D02*
D03*
X339999Y-358999D02*
D03*
X338000Y-446000D02*
D03*
X359000Y-439000D02*
D03*
X239000Y-363000D02*
D03*
X250000Y-355000D02*
D03*
X31000Y-384000D02*
D03*
X426000Y-381000D02*
D03*
X437000Y-419000D02*
D03*
X93000Y-284000D02*
D03*
X178500Y-180500D02*
D03*
X266000Y-283000D02*
D03*
X242000Y-312000D02*
D03*
X356000Y-80000D02*
D03*
X369000Y-114000D02*
D03*
X366000Y-80000D02*
D03*
X411000Y-115000D02*
D03*
X431000Y-163000D02*
D03*
X376000Y-205000D02*
D03*
X340000Y-211000D02*
D03*
X358000Y-208000D02*
D03*
X346000Y-80000D02*
D03*
X420000Y-41000D02*
D03*
X238000Y-421000D02*
D03*
X286000Y-300000D02*
D03*
X63000Y-395000D02*
D03*
X358000Y-179000D02*
D03*
X321000Y-335000D02*
D03*
X311000Y-343000D02*
D03*
X292000D02*
D03*
X258000Y-304000D02*
D03*
X240000Y-325000D02*
D03*
X205000Y-214000D02*
D03*
X266000Y-183000D02*
D03*
X246000Y-436000D02*
D03*
X191000Y-451000D02*
D03*
X316999Y-461999D02*
D03*
X82000Y-460000D02*
D03*
X346000Y-347000D02*
D03*
X304000Y-403000D02*
D03*
X260000Y-343000D02*
D03*
X455000Y-355000D02*
D03*
X358000Y-363000D02*
D03*
X377000Y-378000D02*
D03*
X457000Y-377000D02*
D03*
X458000Y-397000D02*
D03*
X374999Y-456999D02*
D03*
X416000Y-438000D02*
D03*
X263000Y-51000D02*
D03*
X228000D02*
D03*
X117000Y-433000D02*
D03*
X295000Y-325000D02*
D03*
X195000Y-370000D02*
D03*
X87000Y-23000D02*
D03*
X64000D02*
D03*
X162000Y-370000D02*
D03*
Y-394000D02*
D03*
X138000D02*
D03*
Y-371000D02*
D03*
X426000Y-148500D02*
D03*
X20000Y-410000D02*
D03*
Y-350000D02*
D03*
X187000Y-267000D02*
D03*
X171000Y-69000D02*
D03*
X321000Y-28000D02*
D03*
X120000Y-23000D02*
D03*
X309000Y-28000D02*
D03*
X108000Y-23000D02*
D03*
X165000Y-38000D02*
D03*
X460000Y-67000D02*
D03*
X449000Y-175000D02*
D03*
X377000D02*
D03*
X425000Y-204000D02*
D03*
X407000Y-241000D02*
D03*
M02*
