G04 Layer_Physical_Order=2*
G04 Layer_Color=3407718*
%FSLAX44Y44*%
%MOMM*%
G71*
G01*
G75*
%ADD45C,0.8000*%
%ADD46C,1.0000*%
%ADD50C,0.9000*%
G36*
X317000Y-10000D02*
Y-21616D01*
X315651Y-22651D01*
X315635Y-22672D01*
X314863D01*
X314161Y-22507D01*
X312782Y-21449D01*
X310958Y-20693D01*
X309000Y-20435D01*
X307042Y-20693D01*
X305218Y-21449D01*
X303651Y-22651D01*
X302449Y-24218D01*
X301693Y-26042D01*
X301435Y-28000D01*
X301693Y-29958D01*
X302449Y-31782D01*
X303651Y-33349D01*
X305218Y-34551D01*
X307042Y-35307D01*
X309000Y-35565D01*
X310958Y-35307D01*
X312782Y-34551D01*
X314161Y-33493D01*
X314863Y-33328D01*
X315635D01*
X315651Y-33349D01*
X317000Y-34384D01*
Y-77000D01*
X305000Y-89000D01*
X305000Y-117000D01*
Y-330000D01*
X313947D01*
X314509Y-331139D01*
X314449Y-331218D01*
X313693Y-333042D01*
X313496Y-334541D01*
X313235Y-335100D01*
X312233Y-335598D01*
X311000Y-335435D01*
X309042Y-335693D01*
X307218Y-336449D01*
X305651Y-337651D01*
X304449Y-339218D01*
X303693Y-341042D01*
X303435Y-343000D01*
X303693Y-344958D01*
X304449Y-346782D01*
X305651Y-348349D01*
X307218Y-349551D01*
X309042Y-350307D01*
X311000Y-350565D01*
X312958Y-350307D01*
X314782Y-349551D01*
X316349Y-348349D01*
X317551Y-346782D01*
X318307Y-344958D01*
X318504Y-343459D01*
X318765Y-342900D01*
X319767Y-342402D01*
X321000Y-342565D01*
X322958Y-342307D01*
X324782Y-341551D01*
X326349Y-340349D01*
X327551Y-338782D01*
X328307Y-336958D01*
X328565Y-335000D01*
X328307Y-333042D01*
X327551Y-331218D01*
X327491Y-331139D01*
X328053Y-330000D01*
X369999D01*
X370652Y-331089D01*
X369897Y-332502D01*
X368782Y-336177D01*
X368406Y-340000D01*
X368782Y-343823D01*
X369897Y-347498D01*
X371708Y-350886D01*
X374145Y-353855D01*
X377114Y-356292D01*
X380502Y-358103D01*
X384177Y-359218D01*
X388000Y-359594D01*
X391823Y-359218D01*
X395499Y-358103D01*
X398886Y-356292D01*
X401855Y-353855D01*
X404292Y-350886D01*
X406103Y-347498D01*
X407218Y-343823D01*
X407594Y-340000D01*
X407218Y-336177D01*
X406103Y-332502D01*
X405348Y-331089D01*
X406001Y-330000D01*
X454000D01*
X465000Y-341000D01*
X470000Y-346000D01*
Y-439381D01*
X468730Y-439569D01*
X468103Y-437502D01*
X466292Y-434114D01*
X463855Y-431145D01*
X460886Y-428708D01*
X457498Y-426897D01*
X453823Y-425782D01*
X450000Y-425406D01*
X446177Y-425782D01*
X442502Y-426897D01*
X439114Y-428708D01*
X436145Y-431145D01*
X433708Y-434114D01*
X431897Y-437502D01*
X430782Y-441177D01*
X430406Y-445000D01*
X430782Y-448823D01*
X431897Y-452498D01*
X433708Y-455886D01*
X436145Y-458855D01*
X439114Y-461292D01*
X442502Y-463103D01*
X446177Y-464218D01*
X450000Y-464594D01*
X453823Y-464218D01*
X457498Y-463103D01*
X460886Y-461292D01*
X463855Y-458855D01*
X466292Y-455886D01*
X468103Y-452498D01*
X468730Y-450431D01*
X470000Y-450619D01*
Y-470000D01*
X320601D01*
X320348Y-468730D01*
X320782Y-468550D01*
X322348Y-467348D01*
X323551Y-465781D01*
X324306Y-463957D01*
X324564Y-461999D01*
X324306Y-460041D01*
X323551Y-458217D01*
X322348Y-456650D01*
X320782Y-455448D01*
X318957Y-454692D01*
X316999Y-454434D01*
X315042Y-454692D01*
X313217Y-455448D01*
X311650Y-456650D01*
X310448Y-458217D01*
X309692Y-460041D01*
X309435Y-461999D01*
X309692Y-463957D01*
X310448Y-465781D01*
X311650Y-467348D01*
X313217Y-468550D01*
X313651Y-468730D01*
X313398Y-470000D01*
X289128D01*
X288827Y-468819D01*
X290530Y-468114D01*
X291992Y-466992D01*
X293114Y-465529D01*
X293819Y-463826D01*
X294060Y-461999D01*
X293819Y-460172D01*
X293114Y-458469D01*
X291992Y-457007D01*
X290530Y-455885D01*
X288827Y-455179D01*
X286999Y-454939D01*
X285172Y-455179D01*
X283469Y-455885D01*
X282007Y-457007D01*
X280885Y-458469D01*
X280180Y-460172D01*
X279939Y-461999D01*
X280180Y-463826D01*
X280885Y-465529D01*
X282007Y-466992D01*
X283469Y-468114D01*
X285172Y-468819D01*
X284871Y-470000D01*
X250130D01*
X249827Y-468820D01*
X251530Y-468115D01*
X252992Y-466992D01*
X254114Y-465530D01*
X254820Y-463827D01*
X255060Y-462000D01*
X254820Y-460173D01*
X254114Y-458470D01*
X252992Y-457007D01*
X251530Y-455886D01*
X249827Y-455180D01*
X248000Y-454940D01*
X246173Y-455180D01*
X244470Y-455886D01*
X243008Y-457007D01*
X241886Y-458470D01*
X241180Y-460173D01*
X240940Y-462000D01*
X241180Y-463827D01*
X241886Y-465530D01*
X243008Y-466992D01*
X244470Y-468115D01*
X246173Y-468820D01*
X245870Y-470000D01*
X224130D01*
X223827Y-468820D01*
X225530Y-468115D01*
X226992Y-466992D01*
X228114Y-465530D01*
X228820Y-463827D01*
X229060Y-462000D01*
X228820Y-460173D01*
X228114Y-458470D01*
X226992Y-457007D01*
X225530Y-455886D01*
X223827Y-455180D01*
X222000Y-454940D01*
X220173Y-455180D01*
X218470Y-455886D01*
X217008Y-457007D01*
X215886Y-458470D01*
X215180Y-460173D01*
X214940Y-462000D01*
X215180Y-463827D01*
X215886Y-465530D01*
X217008Y-466992D01*
X218470Y-468115D01*
X220173Y-468820D01*
X219870Y-470000D01*
X35619D01*
X35431Y-468730D01*
X37498Y-468103D01*
X40886Y-466292D01*
X43855Y-463855D01*
X46292Y-460886D01*
X48103Y-457498D01*
X49218Y-453823D01*
X49594Y-450000D01*
X49218Y-446177D01*
X48103Y-442502D01*
X46292Y-439114D01*
X43855Y-436145D01*
X40886Y-433708D01*
X37498Y-431897D01*
X33823Y-430782D01*
X30000Y-430406D01*
X26177Y-430782D01*
X22502Y-431897D01*
X19114Y-433708D01*
X16145Y-436145D01*
X13708Y-439114D01*
X11897Y-442502D01*
X11270Y-444569D01*
X10000Y-444381D01*
Y-35619D01*
X11270Y-35431D01*
X11897Y-37498D01*
X13708Y-40886D01*
X16145Y-43855D01*
X19114Y-46292D01*
X22502Y-48103D01*
X26177Y-49218D01*
X30000Y-49594D01*
X33823Y-49218D01*
X37498Y-48103D01*
X40886Y-46292D01*
X43855Y-43855D01*
X46292Y-40886D01*
X48103Y-37498D01*
X49218Y-33823D01*
X49594Y-30000D01*
X49218Y-26177D01*
X48103Y-22502D01*
X46292Y-19114D01*
X43855Y-16145D01*
X40886Y-13708D01*
X37498Y-11897D01*
X35431Y-11270D01*
X35619Y-10000D01*
X317000Y-10000D01*
D02*
G37*
G36*
X434000Y-51000D02*
X458000D01*
X467000Y-60000D01*
Y-61716D01*
X465730Y-62147D01*
X465349Y-61651D01*
X463782Y-60449D01*
X461958Y-59693D01*
X460000Y-59435D01*
X458042Y-59693D01*
X456218Y-60449D01*
X454651Y-61651D01*
X453449Y-63218D01*
X452693Y-65042D01*
X452435Y-67000D01*
X452693Y-68958D01*
X453449Y-70782D01*
X454651Y-72349D01*
X456218Y-73551D01*
X458042Y-74307D01*
X460000Y-74565D01*
X461958Y-74307D01*
X463782Y-73551D01*
X465349Y-72349D01*
X465730Y-71853D01*
X467000Y-72284D01*
Y-125895D01*
X465730Y-126326D01*
X465706Y-126294D01*
X464035Y-125012D01*
X462088Y-124206D01*
X460000Y-123931D01*
X457912Y-124206D01*
X455965Y-125012D01*
X454294Y-126294D01*
X453012Y-127965D01*
X452206Y-129912D01*
X451931Y-132000D01*
X452206Y-134088D01*
X453012Y-136034D01*
X454294Y-137706D01*
X455965Y-138988D01*
X457912Y-139794D01*
X460000Y-140069D01*
X462088Y-139794D01*
X464035Y-138988D01*
X465706Y-137706D01*
X465730Y-137674D01*
X467000Y-138105D01*
Y-275000D01*
Y-324885D01*
X400320D01*
X398886Y-323708D01*
X395499Y-321897D01*
X391823Y-320782D01*
X388000Y-320406D01*
X384177Y-320782D01*
X380502Y-321897D01*
X377114Y-323708D01*
X375680Y-324885D01*
X309966D01*
Y-200000D01*
X340000Y-169966D01*
X340000Y-80000D01*
X357000D01*
X387000Y-30000D01*
X420000D01*
X434000Y-51000D01*
D02*
G37*
%LPC*%
G36*
X120000Y-15435D02*
X118042Y-15693D01*
X116218Y-16449D01*
X114839Y-17507D01*
X114137Y-17672D01*
X113863D01*
X113161Y-17507D01*
X111782Y-16449D01*
X109958Y-15693D01*
X108000Y-15435D01*
X106042Y-15693D01*
X104218Y-16449D01*
X102651Y-17651D01*
X101449Y-19218D01*
X100693Y-21042D01*
X100435Y-23000D01*
X100693Y-24958D01*
X101449Y-26782D01*
X102651Y-28349D01*
X104218Y-29551D01*
X106042Y-30307D01*
X108000Y-30565D01*
X109958Y-30307D01*
X111782Y-29551D01*
X113161Y-28493D01*
X113863Y-28328D01*
X114137D01*
X114839Y-28493D01*
X116218Y-29551D01*
X118042Y-30307D01*
X120000Y-30565D01*
X121958Y-30307D01*
X123782Y-29551D01*
X125349Y-28349D01*
X126551Y-26782D01*
X127307Y-24958D01*
X127565Y-23000D01*
X127307Y-21042D01*
X126551Y-19218D01*
X125349Y-17651D01*
X123782Y-16449D01*
X121958Y-15693D01*
X120000Y-15435D01*
D02*
G37*
G36*
X263000Y-43435D02*
X261042Y-43693D01*
X259218Y-44449D01*
X257651Y-45651D01*
X256449Y-47218D01*
X255693Y-49042D01*
X255435Y-51000D01*
X255693Y-52958D01*
X256449Y-54782D01*
X257651Y-56349D01*
X259218Y-57551D01*
X261042Y-58307D01*
X263000Y-58565D01*
X264958Y-58307D01*
X266782Y-57551D01*
X268349Y-56349D01*
X269551Y-54782D01*
X270307Y-52958D01*
X270565Y-51000D01*
X270307Y-49042D01*
X269551Y-47218D01*
X268349Y-45651D01*
X266782Y-44449D01*
X264958Y-43693D01*
X263000Y-43435D01*
D02*
G37*
G36*
X228000D02*
X226042Y-43693D01*
X224218Y-44449D01*
X222651Y-45651D01*
X221449Y-47218D01*
X220693Y-49042D01*
X220435Y-51000D01*
X220693Y-52958D01*
X221449Y-54782D01*
X222651Y-56349D01*
X224218Y-57551D01*
X226042Y-58307D01*
X228000Y-58565D01*
X229958Y-58307D01*
X231782Y-57551D01*
X233349Y-56349D01*
X234551Y-54782D01*
X235307Y-52958D01*
X235565Y-51000D01*
X235307Y-49042D01*
X234551Y-47218D01*
X233349Y-45651D01*
X231782Y-44449D01*
X229958Y-43693D01*
X228000Y-43435D01*
D02*
G37*
G36*
X171000Y-61435D02*
X169042Y-61693D01*
X167218Y-62449D01*
X165651Y-63651D01*
X164449Y-65218D01*
X163693Y-67042D01*
X163435Y-69000D01*
X163693Y-70958D01*
X164449Y-72782D01*
X165651Y-74349D01*
X167218Y-75551D01*
X169042Y-76307D01*
X171000Y-76565D01*
X172958Y-76307D01*
X174782Y-75551D01*
X176349Y-74349D01*
X177551Y-72782D01*
X178307Y-70958D01*
X178565Y-69000D01*
X178307Y-67042D01*
X177551Y-65218D01*
X176349Y-63651D01*
X174782Y-62449D01*
X172958Y-61693D01*
X171000Y-61435D01*
D02*
G37*
G36*
X140000Y-108931D02*
X137912Y-109206D01*
X135965Y-110012D01*
X134294Y-111294D01*
X133012Y-112965D01*
X132206Y-114912D01*
X131931Y-117000D01*
X132206Y-119088D01*
X133012Y-121034D01*
X134294Y-122706D01*
X135965Y-123988D01*
X137912Y-124794D01*
X140000Y-125069D01*
X142088Y-124794D01*
X144035Y-123988D01*
X145706Y-122706D01*
X146988Y-121034D01*
X147794Y-119088D01*
X148069Y-117000D01*
X147794Y-114912D01*
X146988Y-112965D01*
X145706Y-111294D01*
X144035Y-110012D01*
X142088Y-109206D01*
X140000Y-108931D01*
D02*
G37*
G36*
X170000Y-128931D02*
X167912Y-129206D01*
X165965Y-130012D01*
X164294Y-131294D01*
X163012Y-132965D01*
X162206Y-134912D01*
X161931Y-137000D01*
X162206Y-139088D01*
X163012Y-141034D01*
X164294Y-142706D01*
X165965Y-143988D01*
X167912Y-144794D01*
X170000Y-145069D01*
X172088Y-144794D01*
X174035Y-143988D01*
X175706Y-142706D01*
X176988Y-141034D01*
X177794Y-139088D01*
X178069Y-137000D01*
X177794Y-134912D01*
X176988Y-132965D01*
X175706Y-131294D01*
X174035Y-130012D01*
X172088Y-129206D01*
X170000Y-128931D01*
D02*
G37*
G36*
X178500Y-172935D02*
X176542Y-173193D01*
X174718Y-173949D01*
X173151Y-175151D01*
X171949Y-176718D01*
X171193Y-178542D01*
X170935Y-180500D01*
X171193Y-182458D01*
X171949Y-184282D01*
X173151Y-185849D01*
X174718Y-187051D01*
X176542Y-187807D01*
X178500Y-188065D01*
X180458Y-187807D01*
X182282Y-187051D01*
X183849Y-185849D01*
X185051Y-184282D01*
X185807Y-182458D01*
X186065Y-180500D01*
X185807Y-178542D01*
X185051Y-176718D01*
X183849Y-175151D01*
X182282Y-173949D01*
X180458Y-173193D01*
X178500Y-172935D01*
D02*
G37*
G36*
X266000Y-175435D02*
X264042Y-175693D01*
X262218Y-176449D01*
X260651Y-177651D01*
X259449Y-179218D01*
X258693Y-181042D01*
X258435Y-183000D01*
X258693Y-184958D01*
X259449Y-186782D01*
X260651Y-188349D01*
X262218Y-189551D01*
X264042Y-190307D01*
X266000Y-190565D01*
X267958Y-190307D01*
X269782Y-189551D01*
X271349Y-188349D01*
X272551Y-186782D01*
X273307Y-184958D01*
X273565Y-183000D01*
X273307Y-181042D01*
X272551Y-179218D01*
X271349Y-177651D01*
X269782Y-176449D01*
X267958Y-175693D01*
X266000Y-175435D01*
D02*
G37*
G36*
X205000Y-206435D02*
X203042Y-206693D01*
X201218Y-207449D01*
X199651Y-208651D01*
X198449Y-210218D01*
X197693Y-212042D01*
X197435Y-214000D01*
X197693Y-215958D01*
X198449Y-217782D01*
X199651Y-219349D01*
X201218Y-220551D01*
X203042Y-221307D01*
X205000Y-221565D01*
X206958Y-221307D01*
X208782Y-220551D01*
X210349Y-219349D01*
X211551Y-217782D01*
X212307Y-215958D01*
X212565Y-214000D01*
X212307Y-212042D01*
X211551Y-210218D01*
X210349Y-208651D01*
X208782Y-207449D01*
X206958Y-206693D01*
X205000Y-206435D01*
D02*
G37*
G36*
X145000Y-220240D02*
X143173Y-220480D01*
X141470Y-221185D01*
X140007Y-222308D01*
X138885Y-223770D01*
X138180Y-225473D01*
X137940Y-227300D01*
X138180Y-229127D01*
X138885Y-230830D01*
X140007Y-232292D01*
X141470Y-233414D01*
X143173Y-234120D01*
X145000Y-234360D01*
X146827Y-234120D01*
X148530Y-233414D01*
X149992Y-232292D01*
X151115Y-230830D01*
X151820Y-229127D01*
X152060Y-227300D01*
X151820Y-225473D01*
X151115Y-223770D01*
X149992Y-222308D01*
X148530Y-221185D01*
X146827Y-220480D01*
X145000Y-220240D01*
D02*
G37*
G36*
X82000Y-209940D02*
X80173Y-210180D01*
X78470Y-210886D01*
X77007Y-212008D01*
X75886Y-213470D01*
X75180Y-215173D01*
X74940Y-217000D01*
X75180Y-218827D01*
X75886Y-220530D01*
X77007Y-221992D01*
X77967Y-222729D01*
X78041Y-222899D01*
Y-224101D01*
X77967Y-224271D01*
X77007Y-225008D01*
X75886Y-226470D01*
X75180Y-228173D01*
X74940Y-230000D01*
X75180Y-231827D01*
X75886Y-233530D01*
X77007Y-234992D01*
X78470Y-236115D01*
X80173Y-236820D01*
X82000Y-237060D01*
X83827Y-236820D01*
X85530Y-236115D01*
X86992Y-234992D01*
X88115Y-233530D01*
X88820Y-231827D01*
X89060Y-230000D01*
X88820Y-228173D01*
X88115Y-226470D01*
X86992Y-225008D01*
X86033Y-224271D01*
X85959Y-224101D01*
Y-222899D01*
X86033Y-222729D01*
X86992Y-221992D01*
X88115Y-220530D01*
X88820Y-218827D01*
X89060Y-217000D01*
X88820Y-215173D01*
X88115Y-213470D01*
X86992Y-212008D01*
X85530Y-210886D01*
X83827Y-210180D01*
X82000Y-209940D01*
D02*
G37*
G36*
X158970Y-232562D02*
Y-238730D01*
X165138D01*
X165046Y-238032D01*
X164286Y-236197D01*
X163078Y-234622D01*
X161502Y-233414D01*
X159668Y-232654D01*
X158970Y-232562D01*
D02*
G37*
G36*
X156430D02*
X155732Y-232654D01*
X153897Y-233414D01*
X152322Y-234622D01*
X151114Y-236197D01*
X150354Y-238032D01*
X150262Y-238730D01*
X156430D01*
Y-232562D01*
D02*
G37*
G36*
X165138Y-241270D02*
X158970D01*
Y-247438D01*
X159668Y-247346D01*
X161502Y-246586D01*
X163078Y-245378D01*
X164286Y-243803D01*
X165046Y-241968D01*
X165138Y-241270D01*
D02*
G37*
G36*
X156430D02*
X150262D01*
X150354Y-241968D01*
X151114Y-243803D01*
X152322Y-245378D01*
X153897Y-246586D01*
X155732Y-247346D01*
X156430Y-247438D01*
Y-241270D01*
D02*
G37*
G36*
X245000Y-220406D02*
X241177Y-220782D01*
X237502Y-221897D01*
X234114Y-223708D01*
X231145Y-226145D01*
X228708Y-229114D01*
X226897Y-232502D01*
X225782Y-236177D01*
X225406Y-240000D01*
X225782Y-243823D01*
X226897Y-247498D01*
X228708Y-250886D01*
X231145Y-253855D01*
X234114Y-256292D01*
X237502Y-258103D01*
X241177Y-259218D01*
X245000Y-259594D01*
X248823Y-259218D01*
X252498Y-258103D01*
X255886Y-256292D01*
X258855Y-253855D01*
X261292Y-250886D01*
X263103Y-247498D01*
X264218Y-243823D01*
X264594Y-240000D01*
X264218Y-236177D01*
X263103Y-232502D01*
X261292Y-229114D01*
X258855Y-226145D01*
X255886Y-223708D01*
X252498Y-221897D01*
X248823Y-220782D01*
X245000Y-220406D01*
D02*
G37*
G36*
X45000D02*
X41177Y-220782D01*
X37502Y-221897D01*
X34114Y-223708D01*
X31145Y-226145D01*
X28708Y-229114D01*
X26897Y-232502D01*
X25782Y-236177D01*
X25406Y-240000D01*
X25782Y-243823D01*
X26897Y-247498D01*
X28708Y-250886D01*
X31145Y-253855D01*
X34114Y-256292D01*
X37502Y-258103D01*
X41177Y-259218D01*
X45000Y-259594D01*
X48823Y-259218D01*
X52498Y-258103D01*
X55886Y-256292D01*
X58855Y-253855D01*
X61292Y-250886D01*
X63103Y-247498D01*
X64218Y-243823D01*
X64594Y-240000D01*
X64218Y-236177D01*
X63103Y-232502D01*
X61292Y-229114D01*
X58855Y-226145D01*
X55886Y-223708D01*
X52498Y-221897D01*
X48823Y-220782D01*
X45000Y-220406D01*
D02*
G37*
G36*
X145000Y-245640D02*
X143173Y-245880D01*
X141470Y-246586D01*
X140007Y-247708D01*
X138885Y-249170D01*
X138180Y-250873D01*
X137940Y-252700D01*
X138180Y-254527D01*
X138885Y-256230D01*
X140007Y-257692D01*
X141470Y-258815D01*
X143173Y-259520D01*
X145000Y-259760D01*
X146827Y-259520D01*
X148530Y-258815D01*
X149992Y-257692D01*
X151115Y-256230D01*
X151820Y-254527D01*
X152060Y-252700D01*
X151820Y-250873D01*
X151115Y-249170D01*
X149992Y-247708D01*
X148530Y-246586D01*
X146827Y-245880D01*
X145000Y-245640D01*
D02*
G37*
G36*
X187000Y-259435D02*
X185042Y-259693D01*
X183218Y-260449D01*
X181651Y-261651D01*
X180449Y-263218D01*
X179693Y-265042D01*
X179435Y-267000D01*
X179693Y-268958D01*
X180449Y-270782D01*
X181651Y-272349D01*
X183218Y-273551D01*
X185042Y-274307D01*
X187000Y-274565D01*
X188958Y-274307D01*
X190782Y-273551D01*
X192349Y-272349D01*
X193551Y-270782D01*
X194307Y-268958D01*
X194565Y-267000D01*
X194307Y-265042D01*
X193551Y-263218D01*
X192349Y-261651D01*
X190782Y-260449D01*
X188958Y-259693D01*
X187000Y-259435D01*
D02*
G37*
G36*
X57000Y-269940D02*
X55173Y-270180D01*
X53470Y-270886D01*
X52007Y-272008D01*
X50886Y-273470D01*
X50180Y-275173D01*
X49940Y-277000D01*
X50180Y-278827D01*
X50886Y-280530D01*
X52007Y-281992D01*
X53470Y-283114D01*
X55173Y-283820D01*
X57000Y-284060D01*
X58827Y-283820D01*
X60530Y-283114D01*
X61992Y-281992D01*
X63115Y-280530D01*
X63820Y-278827D01*
X64060Y-277000D01*
X63820Y-275173D01*
X63115Y-273470D01*
X61992Y-272008D01*
X60530Y-270886D01*
X58827Y-270180D01*
X57000Y-269940D01*
D02*
G37*
G36*
X40000Y-270940D02*
X38173Y-271180D01*
X36470Y-271886D01*
X35008Y-273008D01*
X33886Y-274470D01*
X33180Y-276173D01*
X32940Y-278000D01*
X33180Y-279827D01*
X33886Y-281530D01*
X35008Y-282992D01*
X36470Y-284114D01*
X38173Y-284820D01*
X40000Y-285060D01*
X41827Y-284820D01*
X43530Y-284114D01*
X44992Y-282992D01*
X46115Y-281530D01*
X46820Y-279827D01*
X47060Y-278000D01*
X46820Y-276173D01*
X46115Y-274470D01*
X44992Y-273008D01*
X43530Y-271886D01*
X41827Y-271180D01*
X40000Y-270940D01*
D02*
G37*
G36*
X266000Y-275435D02*
X264042Y-275693D01*
X262218Y-276449D01*
X260651Y-277651D01*
X259449Y-279218D01*
X258693Y-281042D01*
X258435Y-283000D01*
X258693Y-284958D01*
X259449Y-286782D01*
X260651Y-288349D01*
X262218Y-289551D01*
X264042Y-290307D01*
X266000Y-290565D01*
X267958Y-290307D01*
X269782Y-289551D01*
X271349Y-288349D01*
X272551Y-286782D01*
X273307Y-284958D01*
X273565Y-283000D01*
X273307Y-281042D01*
X272551Y-279218D01*
X271349Y-277651D01*
X269782Y-276449D01*
X267958Y-275693D01*
X266000Y-275435D01*
D02*
G37*
G36*
X93000Y-276435D02*
X91042Y-276693D01*
X89218Y-277449D01*
X87651Y-278651D01*
X86449Y-280218D01*
X85693Y-282042D01*
X85435Y-284000D01*
X85693Y-285958D01*
X86449Y-287782D01*
X87651Y-289349D01*
X89218Y-290551D01*
X91042Y-291307D01*
X93000Y-291565D01*
X94958Y-291307D01*
X96782Y-290551D01*
X98349Y-289349D01*
X99551Y-287782D01*
X100307Y-285958D01*
X100565Y-284000D01*
X100307Y-282042D01*
X99551Y-280218D01*
X98349Y-278651D01*
X96782Y-277449D01*
X94958Y-276693D01*
X93000Y-276435D01*
D02*
G37*
G36*
X286000Y-292435D02*
X284042Y-292693D01*
X282218Y-293449D01*
X280651Y-294651D01*
X279449Y-296218D01*
X278693Y-298042D01*
X278435Y-300000D01*
X278693Y-301958D01*
X279449Y-303782D01*
X280651Y-305349D01*
X282218Y-306551D01*
X284042Y-307307D01*
X286000Y-307565D01*
X287958Y-307307D01*
X289782Y-306551D01*
X291349Y-305349D01*
X292551Y-303782D01*
X293307Y-301958D01*
X293565Y-300000D01*
X293307Y-298042D01*
X292551Y-296218D01*
X291349Y-294651D01*
X289782Y-293449D01*
X287958Y-292693D01*
X286000Y-292435D01*
D02*
G37*
G36*
X258000Y-296435D02*
X256042Y-296693D01*
X254218Y-297449D01*
X252651Y-298651D01*
X251449Y-300218D01*
X250693Y-302042D01*
X250435Y-304000D01*
X250693Y-305958D01*
X251449Y-307782D01*
X252651Y-309349D01*
X254218Y-310551D01*
X256042Y-311307D01*
X258000Y-311565D01*
X259958Y-311307D01*
X261782Y-310551D01*
X263349Y-309349D01*
X264551Y-307782D01*
X265307Y-305958D01*
X265565Y-304000D01*
X265307Y-302042D01*
X264551Y-300218D01*
X263349Y-298651D01*
X261782Y-297449D01*
X259958Y-296693D01*
X258000Y-296435D01*
D02*
G37*
G36*
X295000Y-317435D02*
X293042Y-317693D01*
X291218Y-318449D01*
X289651Y-319651D01*
X288449Y-321218D01*
X287693Y-323042D01*
X287435Y-325000D01*
X287693Y-326958D01*
X288449Y-328782D01*
X289651Y-330349D01*
X291218Y-331551D01*
X293042Y-332307D01*
X295000Y-332565D01*
X296958Y-332307D01*
X298782Y-331551D01*
X300349Y-330349D01*
X301551Y-328782D01*
X302307Y-326958D01*
X302565Y-325000D01*
X302307Y-323042D01*
X301551Y-321218D01*
X300349Y-319651D01*
X298782Y-318449D01*
X296958Y-317693D01*
X295000Y-317435D01*
D02*
G37*
G36*
X242000Y-304435D02*
X240042Y-304693D01*
X238218Y-305449D01*
X236651Y-306651D01*
X235449Y-308218D01*
X234693Y-310042D01*
X234435Y-312000D01*
X234693Y-313958D01*
X235449Y-315782D01*
X236386Y-317004D01*
X236242Y-318241D01*
X236108Y-318533D01*
X234651Y-319651D01*
X233449Y-321218D01*
X232693Y-323042D01*
X232435Y-325000D01*
X232693Y-326958D01*
X233449Y-328782D01*
X234651Y-330349D01*
X236218Y-331551D01*
X238042Y-332307D01*
X240000Y-332565D01*
X241958Y-332307D01*
X243782Y-331551D01*
X245349Y-330349D01*
X246551Y-328782D01*
X247307Y-326958D01*
X247565Y-325000D01*
X247307Y-323042D01*
X246551Y-321218D01*
X245614Y-319996D01*
X245758Y-318759D01*
X245892Y-318467D01*
X247349Y-317349D01*
X248551Y-315782D01*
X249307Y-313958D01*
X249565Y-312000D01*
X249307Y-310042D01*
X248551Y-308218D01*
X247349Y-306651D01*
X245782Y-305449D01*
X243958Y-304693D01*
X242000Y-304435D01*
D02*
G37*
G36*
X260000Y-335435D02*
X258042Y-335693D01*
X256218Y-336449D01*
X254651Y-337651D01*
X253449Y-339218D01*
X252693Y-341042D01*
X252435Y-343000D01*
X252693Y-344958D01*
X253449Y-346782D01*
X253622Y-347007D01*
X252821Y-348051D01*
X251958Y-347693D01*
X250000Y-347435D01*
X248042Y-347693D01*
X246218Y-348449D01*
X244651Y-349651D01*
X243449Y-351218D01*
X242693Y-353042D01*
X242435Y-355000D01*
X242693Y-356958D01*
X243449Y-358782D01*
X244651Y-360349D01*
X246218Y-361551D01*
X248042Y-362307D01*
X250000Y-362565D01*
X251958Y-362307D01*
X253782Y-361551D01*
X255349Y-360349D01*
X256551Y-358782D01*
X257307Y-356958D01*
X257565Y-355000D01*
X257307Y-353042D01*
X256551Y-351218D01*
X256378Y-350993D01*
X257179Y-349949D01*
X258042Y-350307D01*
X260000Y-350565D01*
X261958Y-350307D01*
X263782Y-349551D01*
X265349Y-348349D01*
X266551Y-346782D01*
X267307Y-344958D01*
X267565Y-343000D01*
X267307Y-341042D01*
X266551Y-339218D01*
X265349Y-337651D01*
X263782Y-336449D01*
X261958Y-335693D01*
X260000Y-335435D01*
D02*
G37*
G36*
X292000D02*
X290042Y-335693D01*
X288218Y-336449D01*
X286651Y-337651D01*
X285449Y-339218D01*
X284693Y-341042D01*
X284435Y-343000D01*
X284693Y-344958D01*
X285449Y-346782D01*
X286651Y-348349D01*
X288218Y-349551D01*
X290042Y-350307D01*
X292000Y-350565D01*
X293958Y-350307D01*
X295782Y-349551D01*
X297349Y-348349D01*
X298551Y-346782D01*
X299307Y-344958D01*
X299565Y-343000D01*
X299307Y-341042D01*
X298551Y-339218D01*
X297349Y-337651D01*
X295782Y-336449D01*
X293958Y-335693D01*
X292000Y-335435D01*
D02*
G37*
G36*
X142500Y-338440D02*
X140673Y-338680D01*
X138970Y-339386D01*
X137508Y-340508D01*
X136386Y-341970D01*
X135680Y-343673D01*
X135440Y-345500D01*
X135680Y-347327D01*
X136386Y-349030D01*
X137508Y-350493D01*
X138970Y-351614D01*
X140673Y-352320D01*
X142500Y-352560D01*
X144327Y-352320D01*
X146030Y-351614D01*
X147493Y-350493D01*
X148615Y-349030D01*
X149320Y-347327D01*
X149560Y-345500D01*
X149320Y-343673D01*
X148615Y-341970D01*
X147493Y-340508D01*
X146030Y-339386D01*
X144327Y-338680D01*
X142500Y-338440D01*
D02*
G37*
G36*
X229000Y-343882D02*
X226659Y-344348D01*
X224674Y-345674D01*
X223348Y-347659D01*
X222882Y-350000D01*
X223348Y-352341D01*
X224674Y-354326D01*
X226659Y-355652D01*
X229000Y-356118D01*
X231341Y-355652D01*
X233326Y-354326D01*
X234652Y-352341D01*
X235117Y-350000D01*
X234652Y-347659D01*
X233326Y-345674D01*
X231341Y-344348D01*
X229000Y-343882D01*
D02*
G37*
G36*
X199000D02*
X196659Y-344348D01*
X194674Y-345674D01*
X193348Y-347659D01*
X192882Y-350000D01*
X193348Y-352341D01*
X194674Y-354326D01*
X196659Y-355652D01*
X199000Y-356118D01*
X201341Y-355652D01*
X203326Y-354326D01*
X204652Y-352341D01*
X205117Y-350000D01*
X204652Y-347659D01*
X203326Y-345674D01*
X201341Y-344348D01*
X199000Y-343882D01*
D02*
G37*
G36*
X20000Y-342435D02*
X18042Y-342693D01*
X16218Y-343449D01*
X14651Y-344651D01*
X13449Y-346218D01*
X12693Y-348042D01*
X12435Y-350000D01*
X12693Y-351958D01*
X13449Y-353782D01*
X14651Y-355349D01*
X16218Y-356551D01*
X18042Y-357307D01*
X20000Y-357565D01*
X21958Y-357307D01*
X23782Y-356551D01*
X25349Y-355349D01*
X26551Y-353782D01*
X27307Y-351958D01*
X27565Y-350000D01*
X27307Y-348042D01*
X26551Y-346218D01*
X25349Y-344651D01*
X23782Y-343449D01*
X21958Y-342693D01*
X20000Y-342435D01*
D02*
G37*
G36*
X73000Y-343939D02*
X71172Y-344179D01*
X69470Y-344885D01*
X68007Y-346007D01*
X66885Y-347469D01*
X66180Y-349172D01*
X65939Y-350999D01*
X66180Y-352827D01*
X66885Y-354529D01*
X68007Y-355992D01*
X69470Y-357114D01*
X71172Y-357819D01*
X73000Y-358060D01*
X74827Y-357819D01*
X76530Y-357114D01*
X77992Y-355992D01*
X79114Y-354529D01*
X79820Y-352827D01*
X80060Y-350999D01*
X79820Y-349172D01*
X79114Y-347469D01*
X77992Y-346007D01*
X76530Y-344885D01*
X74827Y-344179D01*
X73000Y-343939D01*
D02*
G37*
G36*
X455000Y-347435D02*
X453042Y-347693D01*
X451218Y-348449D01*
X449651Y-349651D01*
X448449Y-351218D01*
X447693Y-353042D01*
X447435Y-355000D01*
X447693Y-356958D01*
X448449Y-358782D01*
X449651Y-360349D01*
X451218Y-361551D01*
X453042Y-362307D01*
X455000Y-362565D01*
X456958Y-362307D01*
X458782Y-361551D01*
X460349Y-360349D01*
X461551Y-358782D01*
X462307Y-356958D01*
X462565Y-355000D01*
X462307Y-353042D01*
X461551Y-351218D01*
X460349Y-349651D01*
X458782Y-348449D01*
X456958Y-347693D01*
X455000Y-347435D01*
D02*
G37*
G36*
X346000Y-339435D02*
X344042Y-339693D01*
X342218Y-340449D01*
X340651Y-341651D01*
X339449Y-343218D01*
X338693Y-345042D01*
X338435Y-347000D01*
X338693Y-348958D01*
X339230Y-350255D01*
X338623Y-351616D01*
X338041Y-351692D01*
X336217Y-352448D01*
X334650Y-353650D01*
X333448Y-355217D01*
X332692Y-357041D01*
X332435Y-358999D01*
X332692Y-360957D01*
X333448Y-362782D01*
X334650Y-364348D01*
X336217Y-365550D01*
X338041Y-366306D01*
X339999Y-366564D01*
X341957Y-366306D01*
X343782Y-365550D01*
X345348Y-364348D01*
X346550Y-362782D01*
X347306Y-360957D01*
X347564Y-358999D01*
X347306Y-357041D01*
X346769Y-355744D01*
X347376Y-354384D01*
X347958Y-354307D01*
X349782Y-353551D01*
X351349Y-352349D01*
X352551Y-350782D01*
X353307Y-348958D01*
X353565Y-347000D01*
X353307Y-345042D01*
X352551Y-343218D01*
X351349Y-341651D01*
X349782Y-340449D01*
X347958Y-339693D01*
X346000Y-339435D01*
D02*
G37*
G36*
X358000Y-355435D02*
X356042Y-355693D01*
X354218Y-356449D01*
X352651Y-357651D01*
X351449Y-359218D01*
X350693Y-361042D01*
X350435Y-363000D01*
X350693Y-364958D01*
X351449Y-366782D01*
X352651Y-368349D01*
X354218Y-369551D01*
X356042Y-370307D01*
X358000Y-370565D01*
X359958Y-370307D01*
X361782Y-369551D01*
X363349Y-368349D01*
X364551Y-366782D01*
X365307Y-364958D01*
X365565Y-363000D01*
X365307Y-361042D01*
X364551Y-359218D01*
X363349Y-357651D01*
X361782Y-356449D01*
X359958Y-355693D01*
X358000Y-355435D01*
D02*
G37*
G36*
X195000Y-362435D02*
X193042Y-362693D01*
X191218Y-363449D01*
X189651Y-364651D01*
X188449Y-366218D01*
X187693Y-368042D01*
X187435Y-370000D01*
X187693Y-371958D01*
X188449Y-373782D01*
X189651Y-375349D01*
X191218Y-376551D01*
X193042Y-377307D01*
X195000Y-377565D01*
X196958Y-377307D01*
X198782Y-376551D01*
X200349Y-375349D01*
X201551Y-373782D01*
X202307Y-371958D01*
X202565Y-370000D01*
X202307Y-368042D01*
X201551Y-366218D01*
X200349Y-364651D01*
X198782Y-363449D01*
X196958Y-362693D01*
X195000Y-362435D01*
D02*
G37*
G36*
X241000Y-368940D02*
X239173Y-369180D01*
X237470Y-369885D01*
X236008Y-371008D01*
X234886Y-372470D01*
X234180Y-374173D01*
X233940Y-376000D01*
X234180Y-377827D01*
X234886Y-379530D01*
X236008Y-380993D01*
X237470Y-382114D01*
X239173Y-382820D01*
X241000Y-383060D01*
X242827Y-382820D01*
X244530Y-382114D01*
X245992Y-380993D01*
X247115Y-379530D01*
X247820Y-377827D01*
X248060Y-376000D01*
X247820Y-374173D01*
X247115Y-372470D01*
X245992Y-371008D01*
X244530Y-369885D01*
X242827Y-369180D01*
X241000Y-368940D01*
D02*
G37*
G36*
X457000Y-369435D02*
X455042Y-369693D01*
X453218Y-370449D01*
X451651Y-371651D01*
X450449Y-373218D01*
X449693Y-375042D01*
X449435Y-377000D01*
X449693Y-378958D01*
X450449Y-380782D01*
X451651Y-382349D01*
X453218Y-383551D01*
X455042Y-384307D01*
X457000Y-384565D01*
X458958Y-384307D01*
X460782Y-383551D01*
X462349Y-382349D01*
X463551Y-380782D01*
X464307Y-378958D01*
X464565Y-377000D01*
X464307Y-375042D01*
X463551Y-373218D01*
X462349Y-371651D01*
X460782Y-370449D01*
X458958Y-369693D01*
X457000Y-369435D01*
D02*
G37*
G36*
X377000Y-370435D02*
X375042Y-370693D01*
X373218Y-371449D01*
X371651Y-372651D01*
X370449Y-374218D01*
X369693Y-376042D01*
X369435Y-378000D01*
X369693Y-379958D01*
X370449Y-381782D01*
X371651Y-383349D01*
X373218Y-384551D01*
X375042Y-385307D01*
X377000Y-385565D01*
X378958Y-385307D01*
X380782Y-384551D01*
X382349Y-383349D01*
X383551Y-381782D01*
X384307Y-379958D01*
X384565Y-378000D01*
X384307Y-376042D01*
X383551Y-374218D01*
X382349Y-372651D01*
X380782Y-371449D01*
X378958Y-370693D01*
X377000Y-370435D01*
D02*
G37*
G36*
X244500Y-391833D02*
X242673Y-392074D01*
X240970Y-392779D01*
X239508Y-393901D01*
X238589Y-395098D01*
X238185Y-395399D01*
X236902Y-395625D01*
X235827Y-395180D01*
X234000Y-394940D01*
X232173Y-395180D01*
X230470Y-395886D01*
X229007Y-397008D01*
X227885Y-398470D01*
X227180Y-400173D01*
X226940Y-402000D01*
X227180Y-403827D01*
X227885Y-405530D01*
X229007Y-406992D01*
X230470Y-408115D01*
X232173Y-408820D01*
X234000Y-409060D01*
X235827Y-408820D01*
X237530Y-408115D01*
X238992Y-406992D01*
X239911Y-405796D01*
X240315Y-405495D01*
X241598Y-405268D01*
X242673Y-405713D01*
X244500Y-405954D01*
X246327Y-405713D01*
X248030Y-405008D01*
X249492Y-403886D01*
X250614Y-402424D01*
X251320Y-400721D01*
X251560Y-398893D01*
X251320Y-397066D01*
X250614Y-395363D01*
X249492Y-393901D01*
X248030Y-392779D01*
X246327Y-392074D01*
X244500Y-391833D01*
D02*
G37*
G36*
X109000Y-350435D02*
X107042Y-350693D01*
X105218Y-351449D01*
X103651Y-352651D01*
X102449Y-354218D01*
X101693Y-356042D01*
X101435Y-358000D01*
X101693Y-359958D01*
X102449Y-361782D01*
X103651Y-363349D01*
X104518Y-364015D01*
X104554Y-365588D01*
X104008Y-366007D01*
X102886Y-367470D01*
X102180Y-369173D01*
X101940Y-371000D01*
X102180Y-372827D01*
X102886Y-374530D01*
X104008Y-375992D01*
X104493Y-376365D01*
Y-377635D01*
X104007Y-378007D01*
X102885Y-379469D01*
X102180Y-381172D01*
X101939Y-382999D01*
X102180Y-384827D01*
X102885Y-386529D01*
X104007Y-387992D01*
X105470Y-389114D01*
X105949Y-389312D01*
Y-390687D01*
X105470Y-390886D01*
X104008Y-392007D01*
X102886Y-393470D01*
X102180Y-395173D01*
X101940Y-397000D01*
X102180Y-398827D01*
X102215Y-398911D01*
X101115Y-399470D01*
X99992Y-398008D01*
X98530Y-396885D01*
X96827Y-396180D01*
X95000Y-395940D01*
X93173Y-396180D01*
X91470Y-396885D01*
X90007Y-398008D01*
X88885Y-399470D01*
X88180Y-401173D01*
X87940Y-403000D01*
X88180Y-404827D01*
X88885Y-406530D01*
X90007Y-407993D01*
X91470Y-409114D01*
X93173Y-409820D01*
X95000Y-410060D01*
X96827Y-409820D01*
X98530Y-409114D01*
X99992Y-407993D01*
X101115Y-406530D01*
X101820Y-404827D01*
X102060Y-403000D01*
X101820Y-401173D01*
X101785Y-401089D01*
X102886Y-400530D01*
X104008Y-401992D01*
X105470Y-403115D01*
X107173Y-403820D01*
X109000Y-404060D01*
X110827Y-403820D01*
X112530Y-403115D01*
X113993Y-401992D01*
X115114Y-400530D01*
X115820Y-398827D01*
X116060Y-397000D01*
X115820Y-395173D01*
X115114Y-393470D01*
X113993Y-392007D01*
X112530Y-390886D01*
X112051Y-390687D01*
Y-389312D01*
X112530Y-389114D01*
X113992Y-387992D01*
X115114Y-386529D01*
X115820Y-384827D01*
X116060Y-382999D01*
X115820Y-381172D01*
X115114Y-379469D01*
X113992Y-378007D01*
X113507Y-377635D01*
Y-376365D01*
X113993Y-375992D01*
X115114Y-374530D01*
X115820Y-372827D01*
X116060Y-371000D01*
X115820Y-369173D01*
X115114Y-367470D01*
X113993Y-366007D01*
X113446Y-365588D01*
X113482Y-364015D01*
X114349Y-363349D01*
X115551Y-361782D01*
X116307Y-359958D01*
X116565Y-358000D01*
X116307Y-356042D01*
X115551Y-354218D01*
X114349Y-352651D01*
X112782Y-351449D01*
X110958Y-350693D01*
X109000Y-350435D01*
D02*
G37*
G36*
X63000Y-387435D02*
X61042Y-387693D01*
X59218Y-388449D01*
X57651Y-389651D01*
X56449Y-391218D01*
X55693Y-393042D01*
X55435Y-395000D01*
X55693Y-396958D01*
X56449Y-398782D01*
X57651Y-400349D01*
X59218Y-401551D01*
X61042Y-402307D01*
X63000Y-402565D01*
X64958Y-402307D01*
X66782Y-401551D01*
X68349Y-400349D01*
X69551Y-398782D01*
X70307Y-396958D01*
X70565Y-395000D01*
X70307Y-393042D01*
X69551Y-391218D01*
X68349Y-389651D01*
X66782Y-388449D01*
X64958Y-387693D01*
X63000Y-387435D01*
D02*
G37*
G36*
X458000Y-389435D02*
X456042Y-389693D01*
X454218Y-390449D01*
X452651Y-391651D01*
X451449Y-393218D01*
X450693Y-395042D01*
X450435Y-397000D01*
X450693Y-398958D01*
X451449Y-400782D01*
X452651Y-402349D01*
X454218Y-403551D01*
X456042Y-404307D01*
X458000Y-404565D01*
X459958Y-404307D01*
X461782Y-403551D01*
X463349Y-402349D01*
X464551Y-400782D01*
X465307Y-398958D01*
X465565Y-397000D01*
X465307Y-395042D01*
X464551Y-393218D01*
X463349Y-391651D01*
X461782Y-390449D01*
X459958Y-389693D01*
X458000Y-389435D01*
D02*
G37*
G36*
X20000Y-402435D02*
X18042Y-402693D01*
X16218Y-403449D01*
X14651Y-404651D01*
X13449Y-406218D01*
X12693Y-408042D01*
X12435Y-410000D01*
X12693Y-411958D01*
X13449Y-413782D01*
X14651Y-415349D01*
X16218Y-416551D01*
X18042Y-417307D01*
X20000Y-417565D01*
X21958Y-417307D01*
X23782Y-416551D01*
X25349Y-415349D01*
X26551Y-413782D01*
X27307Y-411958D01*
X27565Y-410000D01*
X27307Y-408042D01*
X26551Y-406218D01*
X25349Y-404651D01*
X23782Y-403449D01*
X21958Y-402693D01*
X20000Y-402435D01*
D02*
G37*
G36*
X377000Y-401940D02*
X375173Y-402180D01*
X373470Y-402886D01*
X372008Y-404008D01*
X370886Y-405470D01*
X370180Y-407173D01*
X369940Y-409000D01*
X370180Y-410827D01*
X370886Y-412530D01*
X372008Y-413993D01*
X373470Y-415115D01*
X375173Y-415820D01*
X377000Y-416060D01*
X378827Y-415820D01*
X380530Y-415115D01*
X381992Y-413993D01*
X382785Y-412960D01*
X384113Y-413315D01*
X384180Y-413827D01*
X384885Y-415530D01*
X386008Y-416992D01*
X387470Y-418115D01*
X389173Y-418820D01*
X391000Y-419060D01*
X392827Y-418820D01*
X394530Y-418115D01*
X395993Y-416992D01*
X397114Y-415530D01*
X397820Y-413827D01*
X398060Y-412000D01*
X397820Y-410173D01*
X397114Y-408470D01*
X395993Y-407007D01*
X394530Y-405886D01*
X392827Y-405180D01*
X391000Y-404940D01*
X389173Y-405180D01*
X387470Y-405886D01*
X386008Y-407007D01*
X385215Y-408040D01*
X383887Y-407685D01*
X383820Y-407173D01*
X383115Y-405470D01*
X381992Y-404008D01*
X380530Y-402886D01*
X378827Y-402180D01*
X377000Y-401940D01*
D02*
G37*
G36*
X114000Y-408435D02*
X112042Y-408693D01*
X110218Y-409449D01*
X108651Y-410651D01*
X107449Y-412218D01*
X106693Y-414042D01*
X106435Y-416000D01*
X106693Y-417958D01*
X107449Y-419782D01*
X108651Y-421349D01*
X110218Y-422551D01*
X112042Y-423307D01*
X114000Y-423565D01*
X115958Y-423307D01*
X117782Y-422551D01*
X119349Y-421349D01*
X120551Y-419782D01*
X121307Y-417958D01*
X121565Y-416000D01*
X121307Y-414042D01*
X120551Y-412218D01*
X119349Y-410651D01*
X117782Y-409449D01*
X115958Y-408693D01*
X114000Y-408435D01*
D02*
G37*
G36*
X141000Y-412940D02*
X139173Y-413180D01*
X137470Y-413885D01*
X136008Y-415008D01*
X134886Y-416470D01*
X134180Y-418173D01*
X133940Y-420000D01*
X134180Y-421827D01*
X134886Y-423530D01*
X136008Y-424992D01*
X137470Y-426115D01*
X139173Y-426820D01*
X141000Y-427060D01*
X142827Y-426820D01*
X144530Y-426115D01*
X145697Y-425219D01*
X147251Y-425159D01*
X147508Y-425492D01*
X148970Y-426614D01*
X150673Y-427320D01*
X152500Y-427560D01*
X154327Y-427320D01*
X156030Y-426614D01*
X157493Y-425492D01*
X158615Y-424030D01*
X159320Y-422327D01*
X159560Y-420500D01*
X159320Y-418673D01*
X158615Y-416970D01*
X157493Y-415508D01*
X156030Y-414385D01*
X154327Y-413680D01*
X152500Y-413440D01*
X150673Y-413680D01*
X148970Y-414385D01*
X147803Y-415281D01*
X146249Y-415341D01*
X145992Y-415008D01*
X144530Y-413885D01*
X142827Y-413180D01*
X141000Y-412940D01*
D02*
G37*
G36*
X238000Y-413435D02*
X236042Y-413693D01*
X234218Y-414449D01*
X232651Y-415651D01*
X231449Y-417218D01*
X230693Y-419042D01*
X230435Y-421000D01*
X230693Y-422958D01*
X231449Y-424782D01*
X232651Y-426349D01*
X234218Y-427551D01*
X236042Y-428307D01*
X238000Y-428565D01*
X239958Y-428307D01*
X241782Y-427551D01*
X243349Y-426349D01*
X244551Y-424782D01*
X245307Y-422958D01*
X245565Y-421000D01*
X245307Y-419042D01*
X244551Y-417218D01*
X243349Y-415651D01*
X241782Y-414449D01*
X239958Y-413693D01*
X238000Y-413435D01*
D02*
G37*
G36*
X416000Y-430435D02*
X414042Y-430693D01*
X412218Y-431449D01*
X410651Y-432651D01*
X409449Y-434218D01*
X408693Y-436042D01*
X408435Y-438000D01*
X408693Y-439958D01*
X409449Y-441782D01*
X410651Y-443349D01*
X412218Y-444551D01*
X414042Y-445307D01*
X416000Y-445565D01*
X417958Y-445307D01*
X419782Y-444551D01*
X421349Y-443349D01*
X422551Y-441782D01*
X423307Y-439958D01*
X423565Y-438000D01*
X423307Y-436042D01*
X422551Y-434218D01*
X421349Y-432651D01*
X419782Y-431449D01*
X417958Y-430693D01*
X416000Y-430435D01*
D02*
G37*
G36*
X262500Y-431940D02*
X260672Y-432180D01*
X258970Y-432886D01*
X257507Y-434008D01*
X256385Y-435470D01*
X255680Y-437173D01*
X255439Y-439000D01*
X255680Y-440827D01*
X256385Y-442530D01*
X257507Y-443993D01*
X258970Y-445115D01*
X260672Y-445820D01*
X262500Y-446060D01*
X264327Y-445820D01*
X266030Y-445115D01*
X267492Y-443993D01*
X268614Y-442530D01*
X269320Y-440827D01*
X269560Y-439000D01*
X269320Y-437173D01*
X268614Y-435470D01*
X267492Y-434008D01*
X266030Y-432886D01*
X264327Y-432180D01*
X262500Y-431940D01*
D02*
G37*
G36*
X359000Y-431435D02*
X357042Y-431693D01*
X355218Y-432449D01*
X353651Y-433651D01*
X352449Y-435218D01*
X351693Y-437042D01*
X351435Y-439000D01*
X351693Y-440958D01*
X352449Y-442782D01*
X353651Y-444349D01*
X355218Y-445551D01*
X357042Y-446307D01*
X359000Y-446565D01*
X360958Y-446307D01*
X362782Y-445551D01*
X364349Y-444349D01*
X365551Y-442782D01*
X366307Y-440958D01*
X366565Y-439000D01*
X366307Y-437042D01*
X365551Y-435218D01*
X364349Y-433651D01*
X362782Y-432449D01*
X360958Y-431693D01*
X359000Y-431435D01*
D02*
G37*
G36*
X338000Y-438435D02*
X336042Y-438693D01*
X334218Y-439449D01*
X332651Y-440651D01*
X331449Y-442218D01*
X330693Y-444042D01*
X330435Y-446000D01*
X330693Y-447958D01*
X331449Y-449782D01*
X332651Y-451349D01*
X334218Y-452551D01*
X336042Y-453307D01*
X338000Y-453565D01*
X339958Y-453307D01*
X341782Y-452551D01*
X343349Y-451349D01*
X344551Y-449782D01*
X345307Y-447958D01*
X345565Y-446000D01*
X345307Y-444042D01*
X344551Y-442218D01*
X343349Y-440651D01*
X341782Y-439449D01*
X339958Y-438693D01*
X338000Y-438435D01*
D02*
G37*
G36*
X191000Y-443435D02*
X189042Y-443693D01*
X187218Y-444449D01*
X185651Y-445651D01*
X184449Y-447218D01*
X183693Y-449042D01*
X183435Y-451000D01*
X183693Y-452958D01*
X184449Y-454782D01*
X185651Y-456349D01*
X187218Y-457551D01*
X189042Y-458307D01*
X191000Y-458565D01*
X192958Y-458307D01*
X194782Y-457551D01*
X196349Y-456349D01*
X197551Y-454782D01*
X198307Y-452958D01*
X198565Y-451000D01*
X198307Y-449042D01*
X197551Y-447218D01*
X196349Y-445651D01*
X194782Y-444449D01*
X192958Y-443693D01*
X191000Y-443435D01*
D02*
G37*
G36*
X374999Y-449434D02*
X373041Y-449692D01*
X371217Y-450448D01*
X369650Y-451650D01*
X368448Y-453217D01*
X367692Y-455041D01*
X367435Y-456999D01*
X367692Y-458957D01*
X368448Y-460781D01*
X369650Y-462348D01*
X371217Y-463550D01*
X373041Y-464306D01*
X374999Y-464564D01*
X376957Y-464306D01*
X378782Y-463550D01*
X380348Y-462348D01*
X381550Y-460781D01*
X382306Y-458957D01*
X382564Y-456999D01*
X382306Y-455041D01*
X381550Y-453217D01*
X380348Y-451650D01*
X378782Y-450448D01*
X376957Y-449692D01*
X374999Y-449434D01*
D02*
G37*
G36*
X82000Y-452435D02*
X80042Y-452693D01*
X78218Y-453449D01*
X76651Y-454651D01*
X75449Y-456218D01*
X74693Y-458042D01*
X74435Y-460000D01*
X74693Y-461958D01*
X75449Y-463782D01*
X76651Y-465349D01*
X78218Y-466551D01*
X80042Y-467307D01*
X82000Y-467565D01*
X83958Y-467307D01*
X85782Y-466551D01*
X87349Y-465349D01*
X88551Y-463782D01*
X89307Y-461958D01*
X89565Y-460000D01*
X89307Y-458042D01*
X88551Y-456218D01*
X87349Y-454651D01*
X85782Y-453449D01*
X83958Y-452693D01*
X82000Y-452435D01*
D02*
G37*
G36*
X387000Y-89435D02*
X385042Y-89693D01*
X383218Y-90449D01*
X381651Y-91651D01*
X380449Y-93218D01*
X379693Y-95042D01*
X379435Y-97000D01*
X379693Y-98958D01*
X380449Y-100782D01*
X381651Y-102349D01*
X383218Y-103551D01*
X385042Y-104307D01*
X387000Y-104565D01*
X388958Y-104307D01*
X390782Y-103551D01*
X392349Y-102349D01*
X393551Y-100782D01*
X394307Y-98958D01*
X394565Y-97000D01*
X394307Y-95042D01*
X393551Y-93218D01*
X392349Y-91651D01*
X390782Y-90449D01*
X388958Y-89693D01*
X387000Y-89435D01*
D02*
G37*
G36*
X426000Y-140935D02*
X424042Y-141193D01*
X422218Y-141949D01*
X420651Y-143151D01*
X419449Y-144718D01*
X418693Y-146542D01*
X418435Y-148500D01*
X418693Y-150458D01*
X419449Y-152282D01*
X420651Y-153849D01*
X422218Y-155051D01*
X424042Y-155807D01*
X426000Y-156065D01*
X427958Y-155807D01*
X429782Y-155051D01*
X431349Y-153849D01*
X432551Y-152282D01*
X433307Y-150458D01*
X433565Y-148500D01*
X433307Y-146542D01*
X432551Y-144718D01*
X431349Y-143151D01*
X429782Y-141949D01*
X427958Y-141193D01*
X426000Y-140935D01*
D02*
G37*
G36*
X388000Y-120406D02*
X384177Y-120782D01*
X380502Y-121897D01*
X377114Y-123708D01*
X374145Y-126145D01*
X371708Y-129114D01*
X369897Y-132502D01*
X368782Y-136177D01*
X368406Y-140000D01*
X368782Y-143823D01*
X369897Y-147498D01*
X371708Y-150886D01*
X374145Y-153855D01*
X377114Y-156292D01*
X380502Y-158103D01*
X384177Y-159218D01*
X388000Y-159594D01*
X391823Y-159218D01*
X395499Y-158103D01*
X398886Y-156292D01*
X401855Y-153855D01*
X404292Y-150886D01*
X406103Y-147498D01*
X407218Y-143823D01*
X407594Y-140000D01*
X407218Y-136177D01*
X406103Y-132502D01*
X404292Y-129114D01*
X401855Y-126145D01*
X398886Y-123708D01*
X395499Y-121897D01*
X391823Y-120782D01*
X388000Y-120406D01*
D02*
G37*
G36*
X449000Y-167435D02*
X447042Y-167693D01*
X445218Y-168449D01*
X443651Y-169651D01*
X442449Y-171218D01*
X441693Y-173042D01*
X441435Y-175000D01*
X441693Y-176958D01*
X442449Y-178782D01*
X443651Y-180349D01*
X445218Y-181551D01*
X447042Y-182307D01*
X449000Y-182565D01*
X450958Y-182307D01*
X452782Y-181551D01*
X454349Y-180349D01*
X455551Y-178782D01*
X456307Y-176958D01*
X456565Y-175000D01*
X456307Y-173042D01*
X455551Y-171218D01*
X454349Y-169651D01*
X452782Y-168449D01*
X450958Y-167693D01*
X449000Y-167435D01*
D02*
G37*
G36*
X377000D02*
X375042Y-167693D01*
X373218Y-168449D01*
X371651Y-169651D01*
X370449Y-171218D01*
X369693Y-173042D01*
X369435Y-175000D01*
X369693Y-176958D01*
X370449Y-178782D01*
X371651Y-180349D01*
X373218Y-181551D01*
X375042Y-182307D01*
X377000Y-182565D01*
X378958Y-182307D01*
X380782Y-181551D01*
X382349Y-180349D01*
X383551Y-178782D01*
X384307Y-176958D01*
X384565Y-175000D01*
X384307Y-173042D01*
X383551Y-171218D01*
X382349Y-169651D01*
X380782Y-168449D01*
X378958Y-167693D01*
X377000Y-167435D01*
D02*
G37*
G36*
X358000Y-171435D02*
X356042Y-171693D01*
X354218Y-172449D01*
X352651Y-173651D01*
X351449Y-175218D01*
X350693Y-177042D01*
X350435Y-179000D01*
X350693Y-180958D01*
X351449Y-182782D01*
X352651Y-184349D01*
X354218Y-185551D01*
X356042Y-186307D01*
X358000Y-186565D01*
X359958Y-186307D01*
X361782Y-185551D01*
X363349Y-184349D01*
X364551Y-182782D01*
X365307Y-180958D01*
X365565Y-179000D01*
X365307Y-177042D01*
X364551Y-175218D01*
X363349Y-173651D01*
X361782Y-172449D01*
X359958Y-171693D01*
X358000Y-171435D01*
D02*
G37*
G36*
X425000Y-196435D02*
X423042Y-196693D01*
X421218Y-197449D01*
X419651Y-198651D01*
X418449Y-200218D01*
X417693Y-202042D01*
X417435Y-204000D01*
X417693Y-205958D01*
X418449Y-207782D01*
X419651Y-209349D01*
X421218Y-210551D01*
X423042Y-211307D01*
X425000Y-211565D01*
X426958Y-211307D01*
X428782Y-210551D01*
X430349Y-209349D01*
X431551Y-207782D01*
X432307Y-205958D01*
X432565Y-204000D01*
X432307Y-202042D01*
X431551Y-200218D01*
X430349Y-198651D01*
X428782Y-197449D01*
X426958Y-196693D01*
X425000Y-196435D01*
D02*
G37*
G36*
X397000Y-219300D02*
X379000D01*
Y-237300D01*
X397000D01*
Y-219300D01*
D02*
G37*
G36*
X407000Y-233435D02*
X405042Y-233693D01*
X403218Y-234449D01*
X401651Y-235651D01*
X400449Y-237218D01*
X399693Y-239042D01*
X399435Y-241000D01*
X399693Y-242958D01*
X400449Y-244782D01*
X401651Y-246349D01*
X403218Y-247551D01*
X405042Y-248307D01*
X407000Y-248565D01*
X408958Y-248307D01*
X410782Y-247551D01*
X412349Y-246349D01*
X413551Y-244782D01*
X414307Y-242958D01*
X414565Y-241000D01*
X414307Y-239042D01*
X413551Y-237218D01*
X412349Y-235651D01*
X410782Y-234449D01*
X408958Y-233693D01*
X407000Y-233435D01*
D02*
G37*
G36*
X388000Y-244622D02*
X385650Y-244932D01*
X383461Y-245839D01*
X381581Y-247281D01*
X380139Y-249161D01*
X379232Y-251350D01*
X378922Y-253700D01*
X379232Y-256049D01*
X380139Y-258239D01*
X381581Y-260119D01*
X383461Y-261562D01*
X385650Y-262468D01*
X388000Y-262778D01*
X390350Y-262468D01*
X392539Y-261562D01*
X394419Y-260119D01*
X395862Y-258239D01*
X396768Y-256049D01*
X397078Y-253700D01*
X396768Y-251350D01*
X395862Y-249161D01*
X394419Y-247281D01*
X392539Y-245839D01*
X390350Y-244932D01*
X388000Y-244622D01*
D02*
G37*
%LPD*%
D45*
X191000Y-421000D02*
D03*
X79000Y-340000D02*
D03*
X73000Y-377000D02*
D03*
X273000Y-462000D02*
D03*
X377000Y-395500D02*
D03*
D46*
X157700Y-240000D02*
D03*
X110000Y-101000D02*
D03*
X113000Y-117000D02*
D03*
X135000Y-135000D02*
D03*
X91000Y-98000D02*
D03*
X109000Y-224000D02*
D03*
X335000Y-234000D02*
D03*
X335000Y-283500D02*
D03*
Y-266000D02*
D03*
X449000Y-261000D02*
D03*
X393000Y-284500D02*
D03*
D50*
X110000Y-340000D02*
D03*
X90000Y-140000D02*
D03*
X60000D02*
D03*
X90000Y-180000D02*
D03*
X170000Y-200000D02*
D03*
X30000Y-140000D02*
D03*
Y-120000D02*
D03*
Y-100000D02*
D03*
Y-80000D02*
D03*
Y-60000D02*
D03*
X260000Y-170000D02*
D03*
Y-270000D02*
D03*
Y-210000D02*
D03*
Y-150000D02*
D03*
Y-130000D02*
D03*
X220000Y-110000D02*
D03*
X240000D02*
D03*
X260000D02*
D03*
X80000Y-407000D02*
D03*
X347000Y-115000D02*
D03*
X239000Y-363000D02*
D03*
X31000Y-384000D02*
D03*
X426000Y-381000D02*
D03*
X437000Y-419000D02*
D03*
X356000Y-80000D02*
D03*
X369000Y-114000D02*
D03*
X366000Y-80000D02*
D03*
X411000Y-115000D02*
D03*
X431000Y-163000D02*
D03*
X376000Y-205000D02*
D03*
X340000Y-211000D02*
D03*
X358000Y-208000D02*
D03*
X346000Y-80000D02*
D03*
X420000Y-41000D02*
D03*
X246000Y-436000D02*
D03*
X304000Y-403000D02*
D03*
X117000Y-433000D02*
D03*
X87000Y-23000D02*
D03*
X64000D02*
D03*
X162000Y-370000D02*
D03*
Y-394000D02*
D03*
X138000D02*
D03*
Y-371000D02*
D03*
X165000Y-38000D02*
D03*
M02*
