G04 Layer_Color=11599871*
%FSLAX44Y44*%
%MOMM*%
G71*
G01*
G75*
%ADD39C,0.2000*%
%ADD40C,0.3000*%
%ADD56C,0.2500*%
%ADD58C,0.1270*%
%ADD60C,0.2032*%
%ADD61C,0.1016*%
%ADD62C,0.2540*%
%ADD63C,0.3500*%
%ADD102C,0.4064*%
%ADD103C,0.3556*%
D39*
X172000Y-240000D02*
X171881Y-237472D01*
X171527Y-234966D01*
X170938Y-232504D01*
X170123Y-230108D01*
X169086Y-227799D01*
X167838Y-225597D01*
X166388Y-223522D01*
X164751Y-221591D01*
X162941Y-219823D01*
X160972Y-218231D01*
X158864Y-216831D01*
X156633Y-215635D01*
X154301Y-214653D01*
X151886Y-213893D01*
X149411Y-213363D01*
X146897Y-213067D01*
X144367Y-213007D01*
X141842Y-213185D01*
X139345Y-213599D01*
X136898Y-214244D01*
X134522Y-215116D01*
X132237Y-216207D01*
X130065Y-217506D01*
X128025Y-219004D01*
X126133Y-220686D01*
X124408Y-222537D01*
X122863Y-224542D01*
X121512Y-226683D01*
X120369Y-228941D01*
X119441Y-231296D01*
X118739Y-233728D01*
X118267Y-236215D01*
X118030Y-238734D01*
Y-241266D01*
X118267Y-243785D01*
X118739Y-246272D01*
X119441Y-248704D01*
X120369Y-251059D01*
X121512Y-253317D01*
X122863Y-255458D01*
X124408Y-257463D01*
X126133Y-259314D01*
X128025Y-260996D01*
X130065Y-262494D01*
X132237Y-263793D01*
X134522Y-264884D01*
X136898Y-265756D01*
X139345Y-266401D01*
X141842Y-266815D01*
X144367Y-266993D01*
X146897Y-266933D01*
X149411Y-266637D01*
X151886Y-266107D01*
X154301Y-265348D01*
X156633Y-264365D01*
X158864Y-263169D01*
X160972Y-261769D01*
X162941Y-260177D01*
X164751Y-258409D01*
X166388Y-256478D01*
X167838Y-254403D01*
X169086Y-252201D01*
X170123Y-249892D01*
X170938Y-247496D01*
X171527Y-245034D01*
X171881Y-242528D01*
X172000Y-240000D01*
X373043Y-215573D02*
X370924Y-216944D01*
X368931Y-218492D01*
X367077Y-220204D01*
X365376Y-222068D01*
X363841Y-224071D01*
X362483Y-226197D01*
X361311Y-228433D01*
X360335Y-230760D01*
X359561Y-233161D01*
X358995Y-235621D01*
X358641Y-238119D01*
X358502Y-240639D01*
X358579Y-243161D01*
X358872Y-245668D01*
X359377Y-248140D01*
X360092Y-250560D01*
X361011Y-252910D01*
X362128Y-255174D01*
X363434Y-257333D01*
X364920Y-259373D01*
X366575Y-261278D01*
X368386Y-263035D01*
X370341Y-264631D01*
X372425Y-266053D01*
X374623Y-267293D01*
X376919Y-268340D01*
X379296Y-269187D01*
X381737Y-269828D01*
X384224Y-270257D01*
X386738Y-270473D01*
X389262D01*
X391776Y-270257D01*
X394263Y-269828D01*
X396704Y-269187D01*
X399081Y-268340D01*
X401377Y-267293D01*
X403575Y-266053D01*
X405659Y-264631D01*
X407614Y-263035D01*
X409426Y-261278D01*
X411080Y-259373D01*
X412566Y-257333D01*
X413872Y-255173D01*
X414989Y-252910D01*
X415908Y-250560D01*
X416623Y-248140D01*
X417128Y-245668D01*
X417421Y-243161D01*
X417498Y-240639D01*
X417359Y-238119D01*
X417005Y-235621D01*
X416440Y-233161D01*
X415666Y-230759D01*
X414689Y-228433D01*
X413517Y-226197D01*
X412159Y-224071D01*
X410624Y-222068D01*
X408923Y-220204D01*
X407069Y-218492D01*
X405075Y-216944D01*
X402957Y-215573D01*
X413000Y-140000D02*
X412872Y-137471D01*
X412488Y-134967D01*
X411853Y-132516D01*
X410974Y-130141D01*
X409859Y-127867D01*
X408519Y-125718D01*
X406969Y-123716D01*
X405224Y-121880D01*
X403303Y-120231D01*
X401224Y-118784D01*
X399010Y-117555D01*
X396683Y-116556D01*
X394266Y-115798D01*
X391786Y-115288D01*
X389266Y-115032D01*
X386734D01*
X384214Y-115288D01*
X381734Y-115798D01*
X379317Y-116556D01*
X376990Y-117555D01*
X374776Y-118784D01*
X372697Y-120231D01*
X370776Y-121880D01*
X369031Y-123716D01*
X367481Y-125718D01*
X366141Y-127867D01*
X365026Y-130141D01*
X364146Y-132516D01*
X363512Y-134967D01*
X363128Y-137471D01*
X363000Y-140000D01*
Y-340000D02*
X363128Y-342529D01*
X363512Y-345033D01*
X364147Y-347484D01*
X365026Y-349859D01*
X366141Y-352133D01*
X367481Y-354282D01*
X369031Y-356284D01*
X370776Y-358120D01*
X372697Y-359769D01*
X374776Y-361216D01*
X376990Y-362445D01*
X379317Y-363444D01*
X381734Y-364202D01*
X384214Y-364712D01*
X386734Y-364968D01*
X389266D01*
X391786Y-364712D01*
X394266Y-364202D01*
X396683Y-363444D01*
X399010Y-362445D01*
X401224Y-361216D01*
X403303Y-359769D01*
X405224Y-358120D01*
X406969Y-356284D01*
X408519Y-354282D01*
X409859Y-352132D01*
X410974Y-349859D01*
X411853Y-347484D01*
X412488Y-345032D01*
X412872Y-342529D01*
X413000Y-340000D01*
X152000Y-57000D02*
X160000D01*
Y-48000D01*
X130000Y-57000D02*
X138000D01*
X130000D02*
Y-48000D01*
X119000Y-88000D02*
X127000D01*
X119000Y-72000D02*
X127000D01*
X146920Y-88540D02*
X157080D01*
X373000Y-215500D02*
X403000D01*
X302000Y-326000D02*
Y-154000D01*
Y-326000D02*
X363000D01*
X413000Y-154000D02*
Y-140000D01*
X363000Y-154000D02*
Y-140000D01*
Y-340000D02*
Y-326000D01*
X413000Y-340000D02*
Y-326000D01*
X318000Y-170000D02*
X458000D01*
X474000Y-326000D02*
Y-154000D01*
X413000Y-326000D02*
X474000D01*
X413000Y-154000D02*
X474000D01*
X302000D02*
X363000D01*
X318000Y-310000D02*
X458000D01*
Y-170000D01*
X318000Y-310000D02*
Y-170000D01*
D40*
X285000Y-240000D02*
X284977Y-237458D01*
X284908Y-234916D01*
X284792Y-232377D01*
X284631Y-229840D01*
X284423Y-227306D01*
X284170Y-224776D01*
X283870Y-222252D01*
X283525Y-219733D01*
X283134Y-217221D01*
X282698Y-214716D01*
X282216Y-212220D01*
X281689Y-209733D01*
X281117Y-207256D01*
X280500Y-204790D01*
X279838Y-202335D01*
X279132Y-199893D01*
X278382Y-197464D01*
X277587Y-195049D01*
X276749Y-192649D01*
X275868Y-190264D01*
X274943Y-187896D01*
X273975Y-185545D01*
X272965Y-183212D01*
X271913Y-180898D01*
X270819Y-178603D01*
X269683Y-176328D01*
X268506Y-174074D01*
X267289Y-171843D01*
X266031Y-169633D01*
X264733Y-167447D01*
X263396Y-165285D01*
X262020Y-163147D01*
X260605Y-161035D01*
X259152Y-158949D01*
X257662Y-156889D01*
X256134Y-154858D01*
X254569Y-152853D01*
X252969Y-150878D01*
X251333Y-148932D01*
X249662Y-147016D01*
X247956Y-145131D01*
X246216Y-143278D01*
X244443Y-141455D01*
X242638Y-139666D01*
X240800Y-137910D01*
X238930Y-136187D01*
X237029Y-134498D01*
X235098Y-132845D01*
X233138Y-131226D01*
X231148Y-129644D01*
X229130Y-128098D01*
X227084Y-126588D01*
X225011Y-125117D01*
X222912Y-123683D01*
X220787Y-122287D01*
X218637Y-120930D01*
X216463Y-119613D01*
X214265Y-118335D01*
X212044Y-117097D01*
X209801Y-115900D01*
X207537Y-114744D01*
X205252Y-113629D01*
X202948Y-112556D01*
X200624Y-111524D01*
X198282Y-110536D01*
X195922Y-109589D01*
X193546Y-108686D01*
X191153Y-107826D01*
X188746Y-107010D01*
X186324Y-106238D01*
X183888Y-105509D01*
X181439Y-104825D01*
X178979Y-104186D01*
X176507Y-103591D01*
X174025Y-103042D01*
X171533Y-102537D01*
X169033Y-102078D01*
X166524Y-101664D01*
X164009Y-101297D01*
X161487Y-100974D01*
X158960Y-100698D01*
X156428Y-100467D01*
X153892Y-100283D01*
X151354Y-100144D01*
X148813Y-100052D01*
X146271Y-100006D01*
X143729D01*
X141187Y-100052D01*
X138647Y-100144D01*
X136108Y-100283D01*
X133573Y-100467D01*
X131041Y-100698D01*
X128513Y-100974D01*
X125992Y-101296D01*
X123476Y-101664D01*
X120968Y-102078D01*
X118467Y-102537D01*
X115976Y-103042D01*
X113493Y-103591D01*
X111022Y-104186D01*
X108561Y-104825D01*
X106112Y-105509D01*
X103677Y-106238D01*
X101255Y-107010D01*
X98847Y-107826D01*
X96454Y-108686D01*
X94078Y-109589D01*
X91718Y-110535D01*
X89376Y-111524D01*
X87053Y-112556D01*
X84748Y-113629D01*
X82463Y-114744D01*
X80199Y-115900D01*
X77956Y-117097D01*
X75736Y-118335D01*
X73538Y-119613D01*
X71364Y-120930D01*
X69214Y-122287D01*
X67088Y-123682D01*
X64989Y-125116D01*
X62916Y-126588D01*
X60870Y-128097D01*
X58852Y-129643D01*
X56863Y-131226D01*
X54902Y-132844D01*
X52971Y-134498D01*
X51070Y-136187D01*
X49201Y-137909D01*
X47363Y-139666D01*
X45557Y-141455D01*
X43784Y-143277D01*
X42044Y-145131D01*
X40339Y-147016D01*
X38667Y-148932D01*
X37031Y-150878D01*
X35431Y-152853D01*
X33866Y-154857D01*
X32339Y-156889D01*
X30848Y-158949D01*
X29395Y-161035D01*
X27980Y-163147D01*
X26604Y-165285D01*
X25267Y-167447D01*
X23969Y-169633D01*
X22711Y-171842D01*
X21494Y-174074D01*
X20317Y-176328D01*
X19181Y-178602D01*
X18087Y-180897D01*
X17035Y-183211D01*
X16025Y-185544D01*
X15057Y-187896D01*
X14132Y-190264D01*
X13251Y-192648D01*
X12413Y-195048D01*
X11618Y-197463D01*
X10868Y-199892D01*
X10162Y-202335D01*
X9500Y-204789D01*
X8883Y-207256D01*
X8311Y-209733D01*
X7784Y-212220D01*
X7302Y-214716D01*
X6866Y-217221D01*
X6475Y-219733D01*
X6130Y-222251D01*
X5830Y-224776D01*
X5577Y-227306D01*
X5369Y-229839D01*
X5208Y-232377D01*
X5092Y-234916D01*
X5023Y-237458D01*
X5000Y-240000D01*
X5023Y-242542D01*
X5092Y-245084D01*
X5208Y-247623D01*
X5369Y-250160D01*
X5577Y-252694D01*
X5830Y-255224D01*
X6130Y-257748D01*
X6475Y-260267D01*
X6866Y-262779D01*
X7302Y-265284D01*
X7784Y-267780D01*
X8311Y-270267D01*
X8883Y-272744D01*
X9500Y-275210D01*
X10162Y-277665D01*
X10868Y-280107D01*
X11618Y-282536D01*
X12413Y-284951D01*
X13251Y-287352D01*
X14132Y-289736D01*
X15057Y-292104D01*
X16025Y-294455D01*
X17035Y-296788D01*
X18087Y-299103D01*
X19181Y-301397D01*
X20317Y-303672D01*
X21494Y-305926D01*
X22711Y-308157D01*
X23969Y-310367D01*
X25267Y-312553D01*
X26604Y-314715D01*
X27980Y-316853D01*
X29395Y-318965D01*
X30848Y-321051D01*
X32339Y-323111D01*
X33866Y-325143D01*
X35431Y-327147D01*
X37031Y-329122D01*
X38667Y-331068D01*
X40339Y-332984D01*
X42044Y-334869D01*
X43784Y-336723D01*
X45557Y-338545D01*
X47363Y-340334D01*
X49201Y-342091D01*
X51070Y-343813D01*
X52971Y-345502D01*
X54902Y-347156D01*
X56863Y-348774D01*
X58852Y-350356D01*
X60870Y-351903D01*
X62916Y-353412D01*
X64989Y-354884D01*
X67088Y-356318D01*
X69213Y-357713D01*
X71363Y-359070D01*
X73538Y-360387D01*
X75736Y-361665D01*
X77956Y-362903D01*
X80199Y-364100D01*
X82463Y-365256D01*
X84748Y-366371D01*
X87053Y-367444D01*
X89376Y-368476D01*
X91719Y-369465D01*
X94078Y-370411D01*
X96455Y-371314D01*
X98847Y-372174D01*
X101255Y-372990D01*
X103677Y-373763D01*
X106113Y-374491D01*
X108561Y-375175D01*
X111022Y-375814D01*
X113494Y-376409D01*
X115976Y-376958D01*
X118468Y-377463D01*
X120968Y-377922D01*
X123476Y-378336D01*
X125992Y-378704D01*
X128514Y-379026D01*
X131041Y-379302D01*
X133573Y-379533D01*
X136109Y-379717D01*
X138647Y-379856D01*
X141188Y-379948D01*
X143729Y-379994D01*
X146272D01*
X148814Y-379948D01*
X151354Y-379856D01*
X153893Y-379717D01*
X156428Y-379533D01*
X158960Y-379302D01*
X161488Y-379026D01*
X164009Y-378703D01*
X166525Y-378335D01*
X169033Y-377922D01*
X171534Y-377463D01*
X174025Y-376958D01*
X176508Y-376409D01*
X178979Y-375814D01*
X181440Y-375174D01*
X183889Y-374490D01*
X186324Y-373762D01*
X188746Y-372990D01*
X191154Y-372173D01*
X193547Y-371314D01*
X195923Y-370410D01*
X198283Y-369464D01*
X200625Y-368475D01*
X202949Y-367444D01*
X205253Y-366371D01*
X207538Y-365256D01*
X209802Y-364100D01*
X212045Y-362902D01*
X214266Y-361665D01*
X216463Y-360387D01*
X218638Y-359069D01*
X220788Y-357713D01*
X222913Y-356317D01*
X225012Y-354883D01*
X227085Y-353411D01*
X229131Y-351902D01*
X231149Y-350356D01*
X233139Y-348773D01*
X235099Y-347155D01*
X237030Y-345501D01*
X238931Y-343812D01*
X240800Y-342090D01*
X242638Y-340333D01*
X244444Y-338544D01*
X246217Y-336722D01*
X247957Y-334868D01*
X249662Y-332983D01*
X251334Y-331067D01*
X252970Y-329121D01*
X254570Y-327146D01*
X256135Y-325142D01*
X257662Y-323110D01*
X259153Y-321050D01*
X260606Y-318964D01*
X262021Y-316852D01*
X263397Y-314714D01*
X264734Y-312552D01*
X266032Y-310366D01*
X267290Y-308156D01*
X268507Y-305924D01*
X269684Y-303671D01*
X270819Y-301396D01*
X271914Y-299101D01*
X272966Y-296787D01*
X273976Y-294454D01*
X274943Y-292103D01*
X275868Y-289735D01*
X276750Y-287350D01*
X277588Y-284950D01*
X278382Y-282535D01*
X279132Y-280106D01*
X279839Y-277664D01*
X280500Y-275209D01*
X281117Y-272743D01*
X281689Y-270266D01*
X282216Y-267779D01*
X282698Y-265282D01*
X283135Y-262778D01*
X283525Y-260266D01*
X283871Y-257747D01*
X284170Y-255222D01*
X284423Y-252693D01*
X284631Y-250159D01*
X284792Y-247622D01*
X284908Y-245082D01*
X284977Y-242541D01*
X285000Y-240000D01*
X245000Y-260000D02*
X247507Y-259842D01*
X249974Y-259372D01*
X252362Y-258596D01*
X254635Y-257526D01*
X256756Y-256180D01*
X258691Y-254579D01*
X260410Y-252749D01*
X261887Y-250716D01*
X263097Y-248516D01*
X264021Y-246180D01*
X264646Y-243748D01*
X264960Y-241256D01*
Y-238744D01*
X264646Y-236252D01*
X264021Y-233820D01*
X263097Y-231484D01*
X261887Y-229283D01*
X260410Y-227251D01*
X258691Y-225421D01*
X256756Y-223820D01*
X254635Y-222474D01*
X252362Y-221404D01*
X249974Y-220628D01*
X247507Y-220158D01*
X245000Y-220000D01*
X45000D02*
X42493Y-220158D01*
X40026Y-220628D01*
X37638Y-221404D01*
X35365Y-222474D01*
X33244Y-223820D01*
X31309Y-225421D01*
X29590Y-227251D01*
X28113Y-229284D01*
X26904Y-231484D01*
X25979Y-233820D01*
X25354Y-236252D01*
X25039Y-238744D01*
Y-241256D01*
X25354Y-243748D01*
X25979Y-246180D01*
X26903Y-248516D01*
X28113Y-250716D01*
X29590Y-252749D01*
X31309Y-254579D01*
X33244Y-256180D01*
X35365Y-257526D01*
X37638Y-258596D01*
X40026Y-259372D01*
X42493Y-259842D01*
X45000Y-260000D01*
X199000Y-360000D02*
X229000D01*
X199000Y-440000D02*
X229000D01*
X199000D02*
Y-360000D01*
X229000Y-440000D02*
Y-360000D01*
X167000Y-256000D02*
X171785Y-260435D01*
X158970Y-264130D02*
X162780Y-267940D01*
X171785Y-260435D01*
X64000Y-159000D02*
X226000D01*
X71000Y-314000D02*
X219000D01*
X71000Y-166000D02*
X219000D01*
X71000Y-314000D02*
Y-166000D01*
X219000Y-314000D02*
Y-166000D01*
X226000Y-220000D02*
X245000D01*
X226000Y-260000D02*
X245000D01*
X64000Y-321000D02*
X226000D01*
Y-260000D01*
Y-220000D02*
Y-159000D01*
X64000Y-220000D02*
Y-159000D01*
Y-321000D02*
Y-260000D01*
X45000D02*
X64000D01*
X45000Y-220000D02*
X64000D01*
D56*
X128250Y-38500D02*
X126375Y-37418D01*
Y-39583D01*
X128250Y-38500D01*
D58*
X315976Y-421064D02*
X319024D01*
X315976Y-412936D02*
X319024D01*
X372238Y-388778D02*
X381762D01*
X372238Y-385222D02*
X381762D01*
X369936Y-449024D02*
Y-445976D01*
X378064Y-449024D02*
Y-445976D01*
X385238Y-445722D02*
X394762D01*
X385238Y-449278D02*
X394762D01*
X387238Y-404778D02*
X396762D01*
X387238Y-401222D02*
X396762D01*
X411238Y-445722D02*
X420762D01*
X411238Y-449278D02*
X420762D01*
X161476Y-428936D02*
X164524D01*
X161476Y-437064D02*
X164524D01*
X181064Y-399524D02*
Y-396476D01*
X172936Y-399524D02*
Y-396476D01*
X129222Y-437762D02*
Y-428238D01*
X132778Y-437762D02*
Y-428238D01*
X172722Y-374762D02*
Y-365238D01*
X176278Y-374762D02*
Y-365238D01*
X195722Y-343762D02*
Y-334238D01*
X199278Y-343762D02*
Y-334238D01*
X233278Y-343762D02*
Y-334238D01*
X229722Y-343762D02*
Y-334238D01*
X175064Y-62024D02*
Y-58976D01*
X166936Y-62024D02*
Y-58976D01*
X142976Y-27064D02*
X146024D01*
X142976Y-18936D02*
X146024D01*
X84488Y-90496D02*
X97512D01*
X84488Y-87504D02*
X97512D01*
X146920Y-88540D02*
Y-81500D01*
X157080Y-88540D02*
Y-81500D01*
X126278Y-105762D02*
Y-96238D01*
X122722Y-105762D02*
Y-96238D01*
X122976Y-112936D02*
X126024D01*
X122976Y-121064D02*
X126024D01*
X155190Y-123350D02*
X162810D01*
X155190Y-110650D02*
X162810D01*
X150496Y-142512D02*
Y-129488D01*
X147504Y-142512D02*
Y-129488D01*
X191064Y-289024D02*
Y-285976D01*
X182936Y-289024D02*
Y-285976D01*
X158488Y-288496D02*
X171512D01*
X158488Y-285504D02*
X171512D01*
X140936Y-289524D02*
Y-286476D01*
X149064Y-289524D02*
Y-286476D01*
X185064Y-240524D02*
Y-237476D01*
X176936Y-240524D02*
Y-237476D01*
D60*
X320920Y-128430D02*
X326000Y-123350D01*
X320920Y-118270D02*
X326000Y-123350D01*
X331080Y-128430D01*
X308220Y-123350D02*
X326000D01*
X336160D01*
X326000Y-133510D02*
Y-123350D01*
Y-113190D01*
Y-123350D02*
X331080Y-118270D01*
D61*
X189064Y-443524D02*
Y-440476D01*
X180936Y-443524D02*
Y-440476D01*
X112064Y-49524D02*
Y-46476D01*
X103936Y-49524D02*
Y-46476D01*
D62*
X271250Y-420000D02*
Y-413750D01*
X399469Y-38973D02*
X391472D01*
X395470D01*
Y-50969D01*
X381475Y-38973D02*
X385474D01*
X387473Y-40972D01*
Y-48970D01*
X385474Y-50969D01*
X381475D01*
X379476Y-48970D01*
Y-40972D01*
X381475Y-38973D01*
X367479D02*
X375477D01*
Y-44971D01*
X371478D01*
X375477D01*
Y-50969D01*
X351485D02*
Y-42972D01*
X349485D01*
X347486Y-44971D01*
Y-50969D01*
Y-44971D01*
X345486Y-42972D01*
X343487Y-44971D01*
Y-50969D01*
X337489D02*
X333490D01*
X331491Y-48970D01*
Y-44971D01*
X333490Y-42972D01*
X337489D01*
X339488Y-44971D01*
Y-48970D01*
X337489Y-50969D01*
X319495Y-38973D02*
Y-50969D01*
X325493D01*
X327492Y-48970D01*
Y-44971D01*
X325493Y-42972D01*
X319495D01*
X315496D02*
Y-48970D01*
X313497Y-50969D01*
X307499D01*
Y-42972D01*
X303500Y-50969D02*
X299501D01*
X301501D01*
Y-38973D01*
X303500D01*
X287505Y-50969D02*
X291504D01*
X293503Y-48970D01*
Y-44971D01*
X291504Y-42972D01*
X287505D01*
X285506Y-44971D01*
Y-46971D01*
X293503D01*
X403468Y-61464D02*
X401468Y-59465D01*
X397470D01*
X395470Y-61464D01*
Y-69461D01*
X397470Y-71461D01*
X401468D01*
X403468Y-69461D01*
Y-61464D01*
X383474Y-59465D02*
X391472D01*
Y-65463D01*
X387473Y-63463D01*
X385474D01*
X383474Y-65463D01*
Y-69461D01*
X385474Y-71461D01*
X389472D01*
X391472Y-69461D01*
X379476Y-71461D02*
Y-69461D01*
X377476D01*
Y-71461D01*
X379476D01*
X361481D02*
X369479D01*
X361481Y-63463D01*
Y-61464D01*
X363481Y-59465D01*
X367479D01*
X369479Y-61464D01*
X357483D02*
X355483Y-59465D01*
X351485D01*
X349485Y-61464D01*
Y-69461D01*
X351485Y-71461D01*
X355483D01*
X357483Y-69461D01*
Y-61464D01*
X345486Y-71461D02*
X341488D01*
X343487D01*
Y-59465D01*
X345486Y-61464D01*
X335490Y-69461D02*
X333490Y-71461D01*
X329492D01*
X327492Y-69461D01*
Y-61464D01*
X329492Y-59465D01*
X333490D01*
X335490Y-61464D01*
Y-63463D01*
X333490Y-65463D01*
X327492D01*
X311497Y-63463D02*
X307499Y-71461D01*
X303500Y-63463D01*
X299501Y-71461D02*
X295503D01*
X297502D01*
Y-59465D01*
X299501Y-61464D01*
X289505Y-59465D02*
Y-71461D01*
X283507D01*
X281507Y-69461D01*
Y-67462D01*
X283507Y-65463D01*
X289505D01*
X283507D01*
X281507Y-63463D01*
Y-61464D01*
X283507Y-59465D01*
X289505D01*
X356000Y-421000D02*
Y-413003D01*
X352001D01*
X350668Y-414336D01*
Y-417001D01*
X352001Y-418334D01*
X356000D01*
X353334D02*
X350668Y-421000D01*
X348003Y-414336D02*
X346670Y-413003D01*
X344004D01*
X342671Y-414336D01*
Y-415668D01*
X344004Y-417001D01*
X345337D01*
X344004D01*
X342671Y-418334D01*
Y-419667D01*
X344004Y-421000D01*
X346670D01*
X348003Y-419667D01*
X340005Y-414336D02*
X338672Y-413003D01*
X336006D01*
X334674Y-414336D01*
Y-415668D01*
X336006Y-417001D01*
X337339D01*
X336006D01*
X334674Y-418334D01*
Y-419667D01*
X336006Y-421000D01*
X338672D01*
X340005Y-419667D01*
X196000Y-386000D02*
X188003D01*
Y-389999D01*
X189335Y-391332D01*
X192001D01*
X193334Y-389999D01*
Y-386000D01*
Y-388666D02*
X196000Y-391332D01*
X189335Y-393997D02*
X188003Y-395330D01*
Y-397996D01*
X189335Y-399329D01*
X190668D01*
X192001Y-397996D01*
Y-396663D01*
Y-397996D01*
X193334Y-399329D01*
X194667D01*
X196000Y-397996D01*
Y-395330D01*
X194667Y-393997D01*
X189335Y-401995D02*
X188003Y-403328D01*
Y-405993D01*
X189335Y-407326D01*
X194667D01*
X196000Y-405993D01*
Y-403328D01*
X194667Y-401995D01*
X189335D01*
X199000Y-229000D02*
X191003D01*
Y-232999D01*
X192335Y-234332D01*
X195001D01*
X196334Y-232999D01*
Y-229000D01*
Y-231666D02*
X199000Y-234332D01*
Y-242329D02*
Y-236997D01*
X193668Y-242329D01*
X192335D01*
X191003Y-240996D01*
Y-238330D01*
X192335Y-236997D01*
X197667Y-244995D02*
X199000Y-246328D01*
Y-248994D01*
X197667Y-250326D01*
X192335D01*
X191003Y-248994D01*
Y-246328D01*
X192335Y-244995D01*
X193668D01*
X195001Y-246328D01*
Y-250326D01*
X217000Y-393003D02*
X211668Y-401000D01*
Y-393003D02*
X217000Y-401000D01*
X209003D02*
X206337D01*
X207670D01*
Y-393003D01*
X209003Y-394336D01*
X170997Y-98000D02*
X165666D01*
X163000Y-95334D01*
X165666Y-92668D01*
X170997D01*
Y-90003D02*
X163000D01*
Y-86004D01*
X164333Y-84671D01*
X169664D01*
X170997Y-86004D01*
Y-90003D01*
X163000Y-82005D02*
Y-79339D01*
Y-80672D01*
X170997D01*
X169664Y-82005D01*
X173000Y-451000D02*
Y-443003D01*
X169001D01*
X167668Y-444336D01*
Y-447001D01*
X169001Y-448334D01*
X173000D01*
X170334D02*
X167668Y-451000D01*
X159671D02*
X165003D01*
X159671Y-445668D01*
Y-444336D01*
X161004Y-443003D01*
X163670D01*
X165003Y-444336D01*
X157005Y-451000D02*
X154339D01*
X155672D01*
Y-443003D01*
X157005Y-444336D01*
X104000Y-121000D02*
Y-113003D01*
X100001D01*
X98668Y-114335D01*
Y-117001D01*
X100001Y-118334D01*
X104000D01*
X101334D02*
X98668Y-121000D01*
X96003Y-119667D02*
X94670Y-121000D01*
X92004D01*
X90671Y-119667D01*
Y-114335D01*
X92004Y-113003D01*
X94670D01*
X96003Y-114335D01*
Y-115668D01*
X94670Y-117001D01*
X90671D01*
X186000Y-110000D02*
X178003D01*
Y-113999D01*
X179335Y-115332D01*
X182001D01*
X183334Y-113999D01*
Y-110000D01*
Y-112666D02*
X186000Y-115332D01*
X179335Y-117997D02*
X178003Y-119330D01*
Y-121996D01*
X179335Y-123329D01*
X180668D01*
X182001Y-121996D01*
X183334Y-123329D01*
X184667D01*
X186000Y-121996D01*
Y-119330D01*
X184667Y-117997D01*
X183334D01*
X182001Y-119330D01*
X180668Y-117997D01*
X179335D01*
X182001Y-119330D02*
Y-121996D01*
X176000Y-27000D02*
Y-19003D01*
X172001D01*
X170668Y-20336D01*
Y-23001D01*
X172001Y-24334D01*
X176000D01*
X173334D02*
X170668Y-27000D01*
X168003Y-20336D02*
X166670Y-19003D01*
X164004D01*
X162671Y-20336D01*
Y-21668D01*
X164004Y-23001D01*
X165337D01*
X164004D01*
X162671Y-24334D01*
Y-25667D01*
X164004Y-27000D01*
X166670D01*
X168003Y-25667D01*
X181000Y-67000D02*
X188997D01*
Y-63001D01*
X187665Y-61668D01*
X184999D01*
X183666Y-63001D01*
Y-67000D01*
Y-64334D02*
X181000Y-61668D01*
Y-53671D02*
Y-59003D01*
X186332Y-53671D01*
X187665D01*
X188997Y-55004D01*
Y-57670D01*
X187665Y-59003D01*
X121667Y-36832D02*
X116335D01*
X115003Y-35499D01*
Y-32833D01*
X116335Y-31500D01*
X121667D01*
X123000Y-32833D01*
Y-35499D01*
X120334Y-34166D02*
X123000Y-36832D01*
Y-35499D02*
X121667Y-36832D01*
X123000Y-39497D02*
Y-42163D01*
Y-40830D01*
X115003D01*
X116335Y-39497D01*
X196003Y-446000D02*
X204000D01*
Y-451332D01*
X202667Y-453997D02*
X204000Y-455330D01*
Y-457996D01*
X202667Y-459329D01*
X197335D01*
X196003Y-457996D01*
Y-455330D01*
X197335Y-453997D01*
X198668D01*
X200001Y-455330D01*
Y-459329D01*
X99000Y-63003D02*
Y-71000D01*
X93668D01*
X85671Y-63003D02*
X91003D01*
Y-67001D01*
X88337Y-65668D01*
X87004D01*
X85671Y-67001D01*
Y-69667D01*
X87004Y-71000D01*
X89670D01*
X91003Y-69667D01*
X90003Y-40000D02*
X98000D01*
Y-45332D01*
Y-51996D02*
X90003D01*
X94001Y-47997D01*
Y-53329D01*
X135668Y-442836D02*
X137001Y-441503D01*
X139667D01*
X141000Y-442836D01*
Y-448167D01*
X139667Y-449500D01*
X137001D01*
X135668Y-448167D01*
X127671Y-449500D02*
X133003D01*
X127671Y-444169D01*
Y-442836D01*
X129004Y-441503D01*
X131670D01*
X133003Y-442836D01*
X125005D02*
X123672Y-441503D01*
X121006D01*
X119674Y-442836D01*
Y-448167D01*
X121006Y-449500D01*
X123672D01*
X125005Y-448167D01*
Y-442836D01*
X180668Y-353335D02*
X182001Y-352003D01*
X184667D01*
X186000Y-353335D01*
Y-358667D01*
X184667Y-360000D01*
X182001D01*
X180668Y-358667D01*
X178003Y-360000D02*
X175337D01*
X176670D01*
Y-352003D01*
X178003Y-353335D01*
X171338D02*
X170005Y-352003D01*
X167339D01*
X166006Y-353335D01*
Y-354668D01*
X167339Y-356001D01*
X166006Y-357334D01*
Y-358667D01*
X167339Y-360000D01*
X170005D01*
X171338Y-358667D01*
Y-357334D01*
X170005Y-356001D01*
X171338Y-354668D01*
Y-353335D01*
X170005Y-356001D02*
X167339D01*
X121668Y-132336D02*
X123001Y-131003D01*
X125667D01*
X127000Y-132336D01*
Y-137667D01*
X125667Y-139000D01*
X123001D01*
X121668Y-137667D01*
X119003Y-139000D02*
X116337D01*
X117670D01*
Y-131003D01*
X119003Y-132336D01*
X112338D02*
X111005Y-131003D01*
X108339D01*
X107006Y-132336D01*
Y-137667D01*
X108339Y-139000D01*
X111005D01*
X112338Y-137667D01*
Y-132336D01*
X72336Y-88332D02*
X71003Y-86999D01*
Y-84333D01*
X72336Y-83000D01*
X77667D01*
X79000Y-84333D01*
Y-86999D01*
X77667Y-88332D01*
X71003Y-96329D02*
X72336Y-93663D01*
X75001Y-90997D01*
X77667D01*
X79000Y-92330D01*
Y-94996D01*
X77667Y-96329D01*
X76334D01*
X75001Y-94996D01*
Y-90997D01*
X301997Y-440000D02*
Y-434002D01*
Y-437001D01*
X293000D01*
X301997Y-431003D02*
X293000Y-425005D01*
X301997D02*
X293000Y-431003D01*
X319000Y-439000D02*
X327997D01*
Y-434501D01*
X326498Y-433002D01*
X323498D01*
X321999Y-434501D01*
Y-439000D01*
Y-436001D02*
X319000Y-433002D01*
X327997Y-430003D02*
X319000Y-424005D01*
X327997D02*
X319000Y-430003D01*
X257498Y-426002D02*
X258997Y-427501D01*
Y-430500D01*
X257498Y-432000D01*
X251500D01*
X250000Y-430500D01*
Y-427501D01*
X251500Y-426002D01*
X258997Y-423003D02*
X250000D01*
Y-417005D01*
X258997Y-414006D02*
X250000D01*
X252999D01*
X258997Y-408008D01*
X254499Y-412506D01*
X250000Y-408008D01*
D63*
X146512Y-94619D02*
X146131Y-95000D01*
X145750Y-94619D01*
X146131Y-94238D01*
X146512Y-94619D01*
D102*
X328032Y-123350D02*
X326628Y-121417D01*
X324356Y-122156D01*
Y-124544D01*
X326628Y-125283D01*
X328032Y-123350D01*
D103*
X326000Y-93548D02*
X353178Y-140622D01*
X298822D02*
X326000Y-93548D01*
X298822Y-140622D02*
X353178D01*
M02*
