G04 Layer_Physical_Order=4*
G04 Layer_Color=16711680*
%FSLAX44Y44*%
%MOMM*%
G71*
G01*
G75*
G04:AMPARAMS|DCode=10|XSize=1mm|YSize=0.9mm|CornerRadius=0.1125mm|HoleSize=0mm|Usage=FLASHONLY|Rotation=180.000|XOffset=0mm|YOffset=0mm|HoleType=Round|Shape=RoundedRectangle|*
%AMROUNDEDRECTD10*
21,1,1.0000,0.6750,0,0,180.0*
21,1,0.7750,0.9000,0,0,180.0*
1,1,0.2250,-0.3875,0.3375*
1,1,0.2250,0.3875,0.3375*
1,1,0.2250,0.3875,-0.3375*
1,1,0.2250,-0.3875,-0.3375*
%
%ADD10ROUNDEDRECTD10*%
G04:AMPARAMS|DCode=11|XSize=1mm|YSize=0.9mm|CornerRadius=0.1125mm|HoleSize=0mm|Usage=FLASHONLY|Rotation=270.000|XOffset=0mm|YOffset=0mm|HoleType=Round|Shape=RoundedRectangle|*
%AMROUNDEDRECTD11*
21,1,1.0000,0.6750,0,0,270.0*
21,1,0.7750,0.9000,0,0,270.0*
1,1,0.2250,-0.3375,-0.3875*
1,1,0.2250,-0.3375,0.3875*
1,1,0.2250,0.3375,0.3875*
1,1,0.2250,0.3375,-0.3875*
%
%ADD11ROUNDEDRECTD11*%
G04:AMPARAMS|DCode=15|XSize=1.4mm|YSize=1mm|CornerRadius=0.125mm|HoleSize=0mm|Usage=FLASHONLY|Rotation=90.000|XOffset=0mm|YOffset=0mm|HoleType=Round|Shape=RoundedRectangle|*
%AMROUNDEDRECTD15*
21,1,1.4000,0.7500,0,0,90.0*
21,1,1.1500,1.0000,0,0,90.0*
1,1,0.2500,0.3750,0.5750*
1,1,0.2500,0.3750,-0.5750*
1,1,0.2500,-0.3750,-0.5750*
1,1,0.2500,-0.3750,0.5750*
%
%ADD15ROUNDEDRECTD15*%
G04:AMPARAMS|DCode=16|XSize=1.4mm|YSize=1mm|CornerRadius=0.125mm|HoleSize=0mm|Usage=FLASHONLY|Rotation=180.000|XOffset=0mm|YOffset=0mm|HoleType=Round|Shape=RoundedRectangle|*
%AMROUNDEDRECTD16*
21,1,1.4000,0.7500,0,0,180.0*
21,1,1.1500,1.0000,0,0,180.0*
1,1,0.2500,-0.5750,0.3750*
1,1,0.2500,0.5750,0.3750*
1,1,0.2500,0.5750,-0.3750*
1,1,0.2500,-0.5750,-0.3750*
%
%ADD16ROUNDEDRECTD16*%
G04:AMPARAMS|DCode=17|XSize=0.65mm|YSize=0.5mm|CornerRadius=0.05mm|HoleSize=0mm|Usage=FLASHONLY|Rotation=90.000|XOffset=0mm|YOffset=0mm|HoleType=Round|Shape=RoundedRectangle|*
%AMROUNDEDRECTD17*
21,1,0.6500,0.4000,0,0,90.0*
21,1,0.5500,0.5000,0,0,90.0*
1,1,0.1000,0.2000,0.2750*
1,1,0.1000,0.2000,-0.2750*
1,1,0.1000,-0.2000,-0.2750*
1,1,0.1000,-0.2000,0.2750*
%
%ADD17ROUNDEDRECTD17*%
G04:AMPARAMS|DCode=34|XSize=1.3mm|YSize=0.8mm|CornerRadius=0.1mm|HoleSize=0mm|Usage=FLASHONLY|Rotation=270.000|XOffset=0mm|YOffset=0mm|HoleType=Round|Shape=RoundedRectangle|*
%AMROUNDEDRECTD34*
21,1,1.3000,0.6000,0,0,270.0*
21,1,1.1000,0.8000,0,0,270.0*
1,1,0.2000,-0.3000,-0.5500*
1,1,0.2000,-0.3000,0.5500*
1,1,0.2000,0.3000,0.5500*
1,1,0.2000,0.3000,-0.5500*
%
%ADD34ROUNDEDRECTD34*%
%ADD38R,1.0000X1.0000*%
%ADD39C,0.2000*%
%ADD40C,0.3000*%
%ADD42C,0.5000*%
%ADD43C,0.7500*%
%ADD44C,0.9000*%
%ADD45C,0.8000*%
%ADD46C,1.0000*%
%ADD47R,1.4000X1.4000*%
%ADD48C,1.4000*%
%ADD49C,3.5000*%
%ADD50C,0.9000*%
G04:AMPARAMS|DCode=51|XSize=0.8mm|YSize=0.8mm|CornerRadius=0.1mm|HoleSize=0mm|Usage=FLASHONLY|Rotation=180.000|XOffset=0mm|YOffset=0mm|HoleType=Round|Shape=RoundedRectangle|*
%AMROUNDEDRECTD51*
21,1,0.8000,0.6000,0,0,180.0*
21,1,0.6000,0.8000,0,0,180.0*
1,1,0.2000,-0.3000,0.3000*
1,1,0.2000,0.3000,0.3000*
1,1,0.2000,0.3000,-0.3000*
1,1,0.2000,-0.3000,-0.3000*
%
%ADD51ROUNDEDRECTD51*%
%ADD52R,1.5000X2.0000*%
%ADD53R,2.0000X1.5000*%
%ADD54R,0.6000X1.0500*%
%ADD55R,1.1000X1.8000*%
G36*
X317000Y-10000D02*
Y-21616D01*
X315651Y-22651D01*
X315635Y-22672D01*
X314863D01*
X314161Y-22507D01*
X312782Y-21449D01*
X310958Y-20693D01*
X309000Y-20435D01*
X307042Y-20693D01*
X305218Y-21449D01*
X303651Y-22651D01*
X302449Y-24218D01*
X301693Y-26042D01*
X301435Y-28000D01*
X301693Y-29958D01*
X302449Y-31782D01*
X303651Y-33349D01*
X305218Y-34551D01*
X307042Y-35307D01*
X309000Y-35565D01*
X310958Y-35307D01*
X312782Y-34551D01*
X314161Y-33493D01*
X314863Y-33328D01*
X315635D01*
X315651Y-33349D01*
X317000Y-34384D01*
Y-77000D01*
X305000Y-89000D01*
X305000Y-117000D01*
Y-263435D01*
X302000D01*
X301812Y-263460D01*
X294460D01*
Y-270812D01*
X294435Y-271000D01*
X294460Y-271188D01*
Y-278540D01*
X301812D01*
X302000Y-278565D01*
X305000D01*
Y-329065D01*
X303756Y-329761D01*
X302567Y-329525D01*
X302441Y-329433D01*
X301856Y-328417D01*
X301817Y-328142D01*
X302307Y-326958D01*
X302565Y-325000D01*
X302307Y-323042D01*
X301551Y-321218D01*
X300349Y-319651D01*
X298782Y-318449D01*
X296958Y-317693D01*
X295000Y-317435D01*
X293042Y-317693D01*
X291218Y-318449D01*
X289651Y-319651D01*
X288449Y-321218D01*
X287693Y-323042D01*
X287534Y-324249D01*
X286193Y-324705D01*
X273588Y-312099D01*
Y-286000D01*
X273336Y-284734D01*
X273565Y-283000D01*
X273307Y-281042D01*
X272551Y-279218D01*
X271349Y-277651D01*
X269782Y-276449D01*
X267958Y-275693D01*
X266000Y-275435D01*
X264042Y-275693D01*
X262218Y-276449D01*
X260651Y-277651D01*
X259449Y-279218D01*
X258693Y-281042D01*
X258435Y-283000D01*
X258693Y-284958D01*
X259449Y-286782D01*
X260651Y-288349D01*
X262218Y-289551D01*
X264042Y-290307D01*
X264412Y-290356D01*
Y-298145D01*
X263142Y-298492D01*
X261782Y-297449D01*
X259958Y-296693D01*
X258000Y-296435D01*
X256042Y-296693D01*
X254218Y-297449D01*
X252651Y-298651D01*
X251449Y-300218D01*
X250693Y-302042D01*
X250435Y-304000D01*
X250693Y-305958D01*
X251449Y-307782D01*
X252651Y-309349D01*
X253412Y-309933D01*
Y-323000D01*
X253761Y-324756D01*
X254756Y-326244D01*
X263446Y-334935D01*
X262727Y-336012D01*
X261958Y-335693D01*
X260000Y-335435D01*
X258042Y-335693D01*
X256218Y-336449D01*
X254651Y-337651D01*
X253449Y-339218D01*
X252693Y-341042D01*
X252435Y-343000D01*
X252693Y-344958D01*
X253449Y-346782D01*
X253622Y-347007D01*
X252821Y-348051D01*
X251958Y-347693D01*
X250000Y-347435D01*
X248042Y-347693D01*
X246218Y-348449D01*
X244651Y-349651D01*
X243449Y-351218D01*
X242693Y-353042D01*
X242435Y-355000D01*
X242693Y-356958D01*
X243449Y-358782D01*
X244651Y-360349D01*
X246218Y-361551D01*
X248042Y-362307D01*
X250000Y-362565D01*
X251958Y-362307D01*
X253782Y-361551D01*
X255349Y-360349D01*
X256551Y-358782D01*
X257307Y-356958D01*
X257565Y-355000D01*
X257307Y-353042D01*
X256551Y-351218D01*
X256378Y-350993D01*
X257179Y-349949D01*
X258042Y-350307D01*
X260000Y-350565D01*
X261958Y-350307D01*
X263782Y-349551D01*
X265349Y-348349D01*
X266551Y-346782D01*
X267307Y-344958D01*
X267565Y-343000D01*
X267307Y-341042D01*
X266988Y-340273D01*
X268065Y-339554D01*
X274756Y-346244D01*
X276244Y-347239D01*
X278000Y-347588D01*
X286067D01*
X286651Y-348349D01*
X288218Y-349551D01*
X290042Y-350307D01*
X292000Y-350565D01*
X293958Y-350307D01*
X295782Y-349551D01*
X297349Y-348349D01*
X298551Y-346782D01*
X299307Y-344958D01*
X299565Y-343000D01*
X299307Y-341042D01*
X299100Y-340541D01*
X299870Y-339252D01*
X300680Y-339169D01*
X303561Y-342049D01*
X303435Y-343000D01*
X303693Y-344958D01*
X304449Y-346782D01*
X305651Y-348349D01*
X307218Y-349551D01*
X309042Y-350307D01*
X311000Y-350565D01*
X312958Y-350307D01*
X314782Y-349551D01*
X316349Y-348349D01*
X317551Y-346782D01*
X318307Y-344958D01*
X318504Y-343459D01*
X318765Y-342900D01*
X319767Y-342402D01*
X321000Y-342565D01*
X322958Y-342307D01*
X324782Y-341551D01*
X326349Y-340349D01*
X327551Y-338782D01*
X328307Y-336958D01*
X328565Y-335000D01*
X328307Y-333042D01*
X327551Y-331218D01*
X327491Y-331139D01*
X328053Y-330000D01*
X369999D01*
X370652Y-331089D01*
X369897Y-332502D01*
X368782Y-336177D01*
X368406Y-340000D01*
X368782Y-343823D01*
X369897Y-347498D01*
X371708Y-350886D01*
X374145Y-353855D01*
X377114Y-356292D01*
X380502Y-358103D01*
X384177Y-359218D01*
X388000Y-359594D01*
X391823Y-359218D01*
X395499Y-358103D01*
X398886Y-356292D01*
X401855Y-353855D01*
X404292Y-350886D01*
X406103Y-347498D01*
X407218Y-343823D01*
X407594Y-340000D01*
X407218Y-336177D01*
X406103Y-332502D01*
X405348Y-331089D01*
X406001Y-330000D01*
X454000D01*
X465327Y-341327D01*
X464841Y-342500D01*
X441000D01*
Y-363500D01*
X467000D01*
Y-344659D01*
X468173Y-344173D01*
X470000Y-346000D01*
Y-439381D01*
X468730Y-439569D01*
X468103Y-437502D01*
X466292Y-434114D01*
X463855Y-431145D01*
X460886Y-428708D01*
X457498Y-426897D01*
X453823Y-425782D01*
X450000Y-425406D01*
X446177Y-425782D01*
X442502Y-426897D01*
X439114Y-428708D01*
X436145Y-431145D01*
X433708Y-434114D01*
X431897Y-437502D01*
X430782Y-441177D01*
X430406Y-445000D01*
X430782Y-448823D01*
X431897Y-452498D01*
X433708Y-455886D01*
X436145Y-458855D01*
X439114Y-461292D01*
X442502Y-463103D01*
X446177Y-464218D01*
X450000Y-464594D01*
X453823Y-464218D01*
X457498Y-463103D01*
X460886Y-461292D01*
X463855Y-458855D01*
X466292Y-455886D01*
X468103Y-452498D01*
X468730Y-450431D01*
X470000Y-450619D01*
Y-470000D01*
X334152D01*
X333500Y-469000D01*
X333500Y-468730D01*
Y-453493D01*
X334770Y-452780D01*
X336042Y-453307D01*
X338000Y-453565D01*
X339958Y-453307D01*
X341782Y-452551D01*
X343349Y-451349D01*
X344551Y-449782D01*
X345307Y-447958D01*
X345565Y-446000D01*
X345439Y-445049D01*
X346900Y-443588D01*
X353067D01*
X353651Y-444349D01*
X355218Y-445551D01*
X357042Y-446307D01*
X359000Y-446565D01*
X360958Y-446307D01*
X362782Y-445551D01*
X364349Y-444349D01*
X364933Y-443588D01*
X366161D01*
X366239Y-443984D01*
X367000Y-445123D01*
Y-449877D01*
X366239Y-451016D01*
X365919Y-452625D01*
Y-459375D01*
X366239Y-460984D01*
X367151Y-462349D01*
X368516Y-463261D01*
X370125Y-463581D01*
X371291D01*
X373041Y-464306D01*
X374999Y-464564D01*
X376957Y-464306D01*
X378782Y-463550D01*
X379045Y-463348D01*
X379484Y-463261D01*
X380849Y-462349D01*
X381358Y-461587D01*
X382642D01*
X383151Y-462349D01*
X384515Y-463261D01*
X386125Y-463581D01*
X393875D01*
X395485Y-463261D01*
X396849Y-462349D01*
X397761Y-460984D01*
X398081Y-459375D01*
Y-452625D01*
X397761Y-451016D01*
X397000Y-449877D01*
Y-444295D01*
X397327Y-443805D01*
X397612Y-442375D01*
Y-440270D01*
X390000D01*
Y-439000D01*
X388730D01*
Y-431888D01*
X386125D01*
X384695Y-432172D01*
X383483Y-432982D01*
X382982Y-433732D01*
X382658Y-433807D01*
X381569Y-433729D01*
X380849Y-432651D01*
X379484Y-431739D01*
X377875Y-431419D01*
X370125D01*
X368516Y-431739D01*
X367151Y-432651D01*
X366239Y-434016D01*
X366161Y-434412D01*
X364933D01*
X364349Y-433651D01*
X362782Y-432449D01*
X360958Y-431693D01*
X359000Y-431435D01*
X357042Y-431693D01*
X355218Y-432449D01*
X353651Y-433651D01*
X353067Y-434412D01*
X345000D01*
X343244Y-434761D01*
X341756Y-435756D01*
X338951Y-438560D01*
X338000Y-438435D01*
X336042Y-438693D01*
X334218Y-439449D01*
X332651Y-440651D01*
X331449Y-442218D01*
X331125Y-443000D01*
X312500D01*
Y-455998D01*
X311650Y-456650D01*
X310448Y-458217D01*
X309692Y-460041D01*
X308500Y-459760D01*
Y-443000D01*
X287500D01*
Y-454500D01*
X286999Y-454939D01*
X285172Y-455179D01*
X283469Y-455885D01*
X283179Y-456107D01*
X282040Y-455546D01*
Y-443460D01*
X273270D01*
Y-456000D01*
X270730D01*
Y-443460D01*
X269344D01*
X268755Y-442190D01*
X269320Y-440827D01*
X269560Y-439000D01*
X269320Y-437173D01*
X268614Y-435470D01*
X267492Y-434008D01*
X266030Y-432886D01*
X264327Y-432180D01*
X262500Y-431940D01*
X260672Y-432180D01*
X258970Y-432886D01*
X257507Y-434008D01*
X256385Y-435470D01*
X255680Y-437173D01*
X255439Y-439000D01*
X255680Y-440827D01*
X256137Y-441930D01*
X255396Y-443200D01*
X237500D01*
Y-468730D01*
X237500Y-469200D01*
X236561Y-470000D01*
X234039D01*
X233100Y-469200D01*
X233100Y-468730D01*
Y-443200D01*
X212100D01*
Y-468730D01*
X212100Y-469200D01*
X211161Y-470000D01*
X35619D01*
X35431Y-468730D01*
X37498Y-468103D01*
X40886Y-466292D01*
X43855Y-463855D01*
X46292Y-460886D01*
X48103Y-457498D01*
X49218Y-453823D01*
X49594Y-450000D01*
X49218Y-446177D01*
X48103Y-442502D01*
X46292Y-439114D01*
X43855Y-436145D01*
X40886Y-433708D01*
X37498Y-431897D01*
X33823Y-430782D01*
X30000Y-430406D01*
X26177Y-430782D01*
X22502Y-431897D01*
X19114Y-433708D01*
X16145Y-436145D01*
X13708Y-439114D01*
X11897Y-442502D01*
X11270Y-444569D01*
X10000Y-444381D01*
Y-35619D01*
X11270Y-35431D01*
X11897Y-37498D01*
X13708Y-40886D01*
X16145Y-43855D01*
X19114Y-46292D01*
X22502Y-48103D01*
X26177Y-49218D01*
X30000Y-49594D01*
X33823Y-49218D01*
X37498Y-48103D01*
X40886Y-46292D01*
X43855Y-43855D01*
X46292Y-40886D01*
X48103Y-37498D01*
X49218Y-33823D01*
X49594Y-30000D01*
X49218Y-26177D01*
X48103Y-22502D01*
X46292Y-19114D01*
X43855Y-16145D01*
X40886Y-13708D01*
X37498Y-11897D01*
X35431Y-11270D01*
X35619Y-10000D01*
X317000Y-10000D01*
D02*
G37*
G36*
X434000Y-51000D02*
X458000D01*
X467000Y-60000D01*
Y-61716D01*
X465730Y-62147D01*
X465349Y-61651D01*
X463782Y-60449D01*
X461958Y-59693D01*
X460000Y-59435D01*
X458042Y-59693D01*
X456218Y-60449D01*
X454651Y-61651D01*
X453449Y-63218D01*
X452693Y-65042D01*
X452435Y-67000D01*
X452693Y-68958D01*
X453449Y-70782D01*
X454651Y-72349D01*
X456218Y-73551D01*
X458042Y-74307D01*
X460000Y-74565D01*
X461958Y-74307D01*
X463782Y-73551D01*
X465349Y-72349D01*
X465730Y-71853D01*
X467000Y-72284D01*
Y-125895D01*
X465730Y-126326D01*
X465706Y-126294D01*
X464035Y-125012D01*
X462088Y-124206D01*
X460000Y-123931D01*
X457912Y-124206D01*
X455965Y-125012D01*
X454294Y-126294D01*
X453012Y-127965D01*
X452206Y-129912D01*
X451931Y-132000D01*
X452206Y-134088D01*
X453012Y-136034D01*
X454294Y-137706D01*
X455965Y-138988D01*
X457912Y-139794D01*
X460000Y-140069D01*
X462088Y-139794D01*
X464035Y-138988D01*
X465706Y-137706D01*
X465730Y-137674D01*
X467000Y-138105D01*
Y-275000D01*
Y-324885D01*
X400320D01*
X398886Y-323708D01*
X395499Y-321897D01*
X391823Y-320782D01*
X388000Y-320406D01*
X384177Y-320782D01*
X380502Y-321897D01*
X377114Y-323708D01*
X375680Y-324885D01*
X309966D01*
Y-279000D01*
X310000D01*
Y-278565D01*
X314000D01*
X315958Y-278307D01*
X317782Y-277551D01*
X319349Y-276349D01*
X320551Y-274782D01*
X321307Y-272958D01*
X321565Y-271000D01*
X321307Y-269042D01*
X320551Y-267218D01*
X319349Y-265651D01*
X317782Y-264449D01*
X315958Y-263693D01*
X314000Y-263435D01*
X310000D01*
Y-263000D01*
X309966D01*
Y-200000D01*
X340000Y-169966D01*
X340000Y-80000D01*
X357000D01*
X387000Y-30000D01*
X420000D01*
X434000Y-51000D01*
D02*
G37*
%LPC*%
G36*
X139375Y-14919D02*
X132625D01*
X131016Y-15239D01*
X129651Y-16151D01*
X128739Y-17515D01*
X128419Y-19125D01*
Y-20409D01*
X127149Y-20661D01*
X126551Y-19218D01*
X125349Y-17651D01*
X123782Y-16449D01*
X121958Y-15693D01*
X120000Y-15435D01*
X118042Y-15693D01*
X116838Y-16192D01*
X111162D01*
X109958Y-15693D01*
X108000Y-15435D01*
X106042Y-15693D01*
X104218Y-16449D01*
X102651Y-17651D01*
X101449Y-19218D01*
X100693Y-21042D01*
X100435Y-23000D01*
X100693Y-24958D01*
X101192Y-26162D01*
Y-33124D01*
X101151Y-33151D01*
X100239Y-34516D01*
X99919Y-36125D01*
Y-42875D01*
X100239Y-44485D01*
X101151Y-45849D01*
X102000Y-46416D01*
Y-49584D01*
X101151Y-50151D01*
X100239Y-51515D01*
X99919Y-53125D01*
Y-59875D01*
X100239Y-61484D01*
X101151Y-62849D01*
X102515Y-63761D01*
X103892Y-64035D01*
Y-68000D01*
X101000D01*
Y-72675D01*
X100170Y-73032D01*
X99730Y-73130D01*
X98408Y-72247D01*
X96750Y-71917D01*
X85250D01*
X83592Y-72247D01*
X82186Y-73186D01*
X81247Y-74592D01*
X80917Y-76250D01*
Y-83750D01*
X81247Y-85408D01*
X82000Y-86536D01*
Y-92292D01*
X81680Y-92771D01*
X81386Y-94250D01*
Y-96730D01*
X91000D01*
X100614D01*
Y-94250D01*
X100367Y-93008D01*
X101008Y-92247D01*
X101332Y-92000D01*
X118000D01*
Y-68000D01*
X115108D01*
Y-62462D01*
X115761Y-61484D01*
X116081Y-59875D01*
Y-53125D01*
X115761Y-51515D01*
X114849Y-50151D01*
X114000Y-49584D01*
Y-46416D01*
X114849Y-45849D01*
X115761Y-44485D01*
X116081Y-42875D01*
Y-36125D01*
X115761Y-34516D01*
X114849Y-33151D01*
X114808Y-33124D01*
Y-29808D01*
X116838D01*
X118042Y-30307D01*
X120000Y-30565D01*
X121958Y-30307D01*
X123782Y-29551D01*
X125349Y-28349D01*
X126551Y-26782D01*
X127149Y-25339D01*
X128419Y-25591D01*
Y-26875D01*
X128739Y-28484D01*
X129164Y-29119D01*
X129500Y-30250D01*
X129500Y-30250D01*
X129500D01*
X129500Y-30250D01*
Y-46750D01*
X130912D01*
Y-47500D01*
X131261Y-49256D01*
X132256Y-50744D01*
X133756Y-52244D01*
X135244Y-53239D01*
X137000Y-53588D01*
X139000D01*
Y-68000D01*
X128000D01*
Y-92000D01*
X128000D01*
X128014Y-93098D01*
X127981Y-93262D01*
X126877Y-94000D01*
X121295D01*
X120805Y-93673D01*
X119375Y-93388D01*
X117270D01*
Y-101000D01*
X116000D01*
Y-102270D01*
X108888D01*
Y-104875D01*
X109172Y-106305D01*
X109983Y-107517D01*
X111195Y-108327D01*
X111322Y-108352D01*
Y-109647D01*
X111195Y-109673D01*
X109983Y-110483D01*
X109173Y-111695D01*
X108888Y-113125D01*
Y-115730D01*
X116000D01*
Y-117000D01*
X117270D01*
Y-124612D01*
X119375D01*
X120805Y-124327D01*
X121295Y-124000D01*
X126877D01*
X128015Y-124761D01*
X129625Y-125081D01*
X136375D01*
X137881Y-124781D01*
X137912Y-124794D01*
X140000Y-125069D01*
X141687Y-124847D01*
X141977Y-125116D01*
X141485Y-126370D01*
X141465Y-126386D01*
X141270D01*
Y-136000D01*
Y-145614D01*
X143750D01*
X145229Y-145320D01*
X145708Y-145000D01*
X151464D01*
X152592Y-145753D01*
X154250Y-146083D01*
X161750D01*
X163408Y-145753D01*
X164814Y-144814D01*
X165292Y-144099D01*
X165965Y-143988D01*
X167912Y-144794D01*
X170000Y-145069D01*
X172088Y-144794D01*
X174035Y-143988D01*
X175706Y-142706D01*
X176988Y-141034D01*
X177794Y-139088D01*
X178069Y-137000D01*
X177794Y-134912D01*
X176988Y-132965D01*
X175706Y-131294D01*
X175364Y-131032D01*
X175114Y-125039D01*
X175768Y-124061D01*
X176078Y-122500D01*
Y-111500D01*
X175768Y-109939D01*
X174884Y-108616D01*
X173561Y-107732D01*
X172000Y-107422D01*
X171352D01*
X157569Y-93638D01*
Y-92250D01*
X157297Y-90884D01*
X156523Y-89727D01*
X156500Y-89711D01*
Y-82289D01*
X156523Y-82273D01*
X157297Y-81116D01*
X157569Y-79750D01*
Y-77197D01*
X157608Y-77000D01*
X157569Y-76803D01*
Y-74250D01*
X157297Y-72884D01*
X156523Y-71727D01*
X155366Y-70953D01*
X154000Y-70681D01*
X151817D01*
X151000Y-69750D01*
Y-53588D01*
X159100D01*
X160756Y-55244D01*
X162244Y-56239D01*
X163126Y-56414D01*
X163239Y-56985D01*
X164000Y-58123D01*
Y-62877D01*
X163239Y-64015D01*
X162919Y-65625D01*
Y-72375D01*
X163239Y-73984D01*
X164151Y-75349D01*
X165515Y-76261D01*
X167125Y-76581D01*
X174875D01*
X176485Y-76261D01*
X177849Y-75349D01*
X178761Y-73984D01*
X179081Y-72375D01*
Y-65625D01*
X178761Y-64015D01*
X178000Y-62877D01*
Y-58123D01*
X178761Y-56985D01*
X179081Y-55375D01*
Y-48625D01*
X178761Y-47016D01*
X177849Y-45651D01*
X176485Y-44739D01*
X174875Y-44419D01*
X167125D01*
X165515Y-44739D01*
X164151Y-45651D01*
X164132Y-45680D01*
X162756Y-44761D01*
X161000Y-44412D01*
X160040D01*
Y-39770D01*
X154500D01*
Y-37230D01*
X160040D01*
Y-30710D01*
X159518D01*
X159159Y-29854D01*
X159069Y-29440D01*
X159827Y-28305D01*
X160112Y-26875D01*
Y-24270D01*
X153000D01*
Y-23000D01*
X151730D01*
Y-15388D01*
X149625D01*
X148195Y-15673D01*
X147705Y-16000D01*
X142123D01*
X140984Y-15239D01*
X139375Y-14919D01*
D02*
G37*
G36*
X156375Y-15388D02*
X154270D01*
Y-21730D01*
X160112D01*
Y-19125D01*
X159827Y-17695D01*
X159017Y-16483D01*
X157805Y-15673D01*
X156375Y-15388D01*
D02*
G37*
G36*
X263000Y-43435D02*
X261042Y-43693D01*
X259218Y-44449D01*
X257651Y-45651D01*
X256449Y-47218D01*
X255693Y-49042D01*
X255435Y-51000D01*
X255693Y-52958D01*
X256449Y-54782D01*
X257651Y-56349D01*
X259218Y-57551D01*
X261042Y-58307D01*
X263000Y-58565D01*
X264958Y-58307D01*
X266782Y-57551D01*
X268349Y-56349D01*
X269551Y-54782D01*
X270307Y-52958D01*
X270565Y-51000D01*
X270307Y-49042D01*
X269551Y-47218D01*
X268349Y-45651D01*
X266782Y-44449D01*
X264958Y-43693D01*
X263000Y-43435D01*
D02*
G37*
G36*
X228000D02*
X226042Y-43693D01*
X224218Y-44449D01*
X222651Y-45651D01*
X221449Y-47218D01*
X220693Y-49042D01*
X220435Y-51000D01*
X220693Y-52958D01*
X221449Y-54782D01*
X222651Y-56349D01*
X224218Y-57551D01*
X226042Y-58307D01*
X228000Y-58565D01*
X229958Y-58307D01*
X231782Y-57551D01*
X233349Y-56349D01*
X234551Y-54782D01*
X235307Y-52958D01*
X235565Y-51000D01*
X235307Y-49042D01*
X234551Y-47218D01*
X233349Y-45651D01*
X231782Y-44449D01*
X229958Y-43693D01*
X228000Y-43435D01*
D02*
G37*
G36*
X114730Y-93388D02*
X112625D01*
X111195Y-93673D01*
X109983Y-94483D01*
X109172Y-95695D01*
X108888Y-97125D01*
Y-99730D01*
X114730D01*
Y-93388D01*
D02*
G37*
G36*
X100614Y-99270D02*
X92270D01*
Y-105614D01*
X96750D01*
X98229Y-105320D01*
X99482Y-104482D01*
X100320Y-103229D01*
X100614Y-101750D01*
Y-99270D01*
D02*
G37*
G36*
X89730D02*
X81386D01*
Y-101750D01*
X81680Y-103229D01*
X82518Y-104482D01*
X83771Y-105320D01*
X85250Y-105614D01*
X89730D01*
Y-99270D01*
D02*
G37*
G36*
X114730Y-118270D02*
X108888D01*
Y-120875D01*
X109173Y-122305D01*
X109983Y-123517D01*
X111195Y-124327D01*
X112625Y-124612D01*
X114730D01*
Y-118270D01*
D02*
G37*
G36*
X138730Y-126386D02*
X136250D01*
X134771Y-126680D01*
X133518Y-127518D01*
X132680Y-128771D01*
X132386Y-130250D01*
Y-134730D01*
X138730D01*
Y-126386D01*
D02*
G37*
G36*
Y-137270D02*
X132386D01*
Y-141750D01*
X132680Y-143229D01*
X133518Y-144482D01*
X134771Y-145320D01*
X136250Y-145614D01*
X138730D01*
Y-137270D01*
D02*
G37*
G36*
X178500Y-172935D02*
X176542Y-173193D01*
X174718Y-173949D01*
X173151Y-175151D01*
X171949Y-176718D01*
X171193Y-178542D01*
X170935Y-180500D01*
X171193Y-182458D01*
X171949Y-184282D01*
X173151Y-185849D01*
X174718Y-187051D01*
X176542Y-187807D01*
X178500Y-188065D01*
X180458Y-187807D01*
X182282Y-187051D01*
X183849Y-185849D01*
X185051Y-184282D01*
X185807Y-182458D01*
X186065Y-180500D01*
X185807Y-178542D01*
X185051Y-176718D01*
X183849Y-175151D01*
X182282Y-173949D01*
X180458Y-173193D01*
X178500Y-172935D01*
D02*
G37*
G36*
X266000Y-175435D02*
X264042Y-175693D01*
X262218Y-176449D01*
X260651Y-177651D01*
X259449Y-179218D01*
X258693Y-181042D01*
X258435Y-183000D01*
X258693Y-184958D01*
X259449Y-186782D01*
X260651Y-188349D01*
X262218Y-189551D01*
X264042Y-190307D01*
X266000Y-190565D01*
X267958Y-190307D01*
X269782Y-189551D01*
X271349Y-188349D01*
X272551Y-186782D01*
X273307Y-184958D01*
X273565Y-183000D01*
X273307Y-181042D01*
X272551Y-179218D01*
X271349Y-177651D01*
X269782Y-176449D01*
X267958Y-175693D01*
X266000Y-175435D01*
D02*
G37*
G36*
X205000Y-206435D02*
X203042Y-206693D01*
X201218Y-207449D01*
X199988Y-208392D01*
X197500D01*
X195354Y-208819D01*
X193535Y-210035D01*
X180650Y-222919D01*
X177125D01*
X175515Y-223239D01*
X174151Y-224151D01*
X173239Y-225515D01*
X172919Y-227125D01*
Y-233875D01*
X173239Y-235485D01*
X174000Y-236623D01*
Y-242205D01*
X173673Y-242695D01*
X173388Y-244125D01*
Y-246230D01*
X188612D01*
Y-244125D01*
X188327Y-242695D01*
X188000Y-242205D01*
Y-236623D01*
X188761Y-235485D01*
X189081Y-233875D01*
Y-230350D01*
X199823Y-219608D01*
X199988D01*
X201218Y-220551D01*
X203042Y-221307D01*
X205000Y-221565D01*
X206958Y-221307D01*
X208782Y-220551D01*
X210349Y-219349D01*
X211551Y-217782D01*
X212307Y-215958D01*
X212565Y-214000D01*
X212307Y-212042D01*
X211551Y-210218D01*
X210349Y-208651D01*
X208782Y-207449D01*
X206958Y-206693D01*
X205000Y-206435D01*
D02*
G37*
G36*
X145000Y-220240D02*
X143173Y-220480D01*
X141470Y-221185D01*
X140007Y-222308D01*
X138885Y-223770D01*
X138180Y-225473D01*
X137940Y-227300D01*
X138180Y-229127D01*
X138885Y-230830D01*
X140007Y-232292D01*
X141470Y-233414D01*
X143173Y-234120D01*
X145000Y-234360D01*
X146827Y-234120D01*
X148530Y-233414D01*
X149992Y-232292D01*
X151115Y-230830D01*
X151820Y-229127D01*
X152060Y-227300D01*
X151820Y-225473D01*
X151115Y-223770D01*
X149992Y-222308D01*
X148530Y-221185D01*
X146827Y-220480D01*
X145000Y-220240D01*
D02*
G37*
G36*
X82000Y-209940D02*
X80173Y-210180D01*
X78470Y-210886D01*
X77007Y-212008D01*
X75886Y-213470D01*
X75180Y-215173D01*
X74940Y-217000D01*
X75180Y-218827D01*
X75886Y-220530D01*
X77007Y-221992D01*
X77967Y-222729D01*
X78041Y-222899D01*
Y-224101D01*
X77967Y-224271D01*
X77007Y-225008D01*
X75886Y-226470D01*
X75180Y-228173D01*
X74940Y-230000D01*
X75180Y-231827D01*
X75886Y-233530D01*
X77007Y-234992D01*
X78470Y-236115D01*
X80173Y-236820D01*
X82000Y-237060D01*
X83827Y-236820D01*
X85530Y-236115D01*
X86992Y-234992D01*
X88115Y-233530D01*
X88820Y-231827D01*
X89060Y-230000D01*
X88820Y-228173D01*
X88115Y-226470D01*
X86992Y-225008D01*
X86033Y-224271D01*
X85959Y-224101D01*
Y-222899D01*
X86033Y-222729D01*
X86992Y-221992D01*
X88115Y-220530D01*
X88820Y-218827D01*
X89060Y-217000D01*
X88820Y-215173D01*
X88115Y-213470D01*
X86992Y-212008D01*
X85530Y-210886D01*
X83827Y-210180D01*
X82000Y-209940D01*
D02*
G37*
G36*
X158970Y-232562D02*
Y-238730D01*
X165138D01*
X165046Y-238032D01*
X164286Y-236197D01*
X163078Y-234622D01*
X161502Y-233414D01*
X159668Y-232654D01*
X158970Y-232562D01*
D02*
G37*
G36*
X156430D02*
X155732Y-232654D01*
X153897Y-233414D01*
X152322Y-234622D01*
X151114Y-236197D01*
X150354Y-238032D01*
X150262Y-238730D01*
X156430D01*
Y-232562D01*
D02*
G37*
G36*
X165138Y-241270D02*
X158970D01*
Y-247438D01*
X159668Y-247346D01*
X161502Y-246586D01*
X163078Y-245378D01*
X164286Y-243803D01*
X165046Y-241968D01*
X165138Y-241270D01*
D02*
G37*
G36*
X156430D02*
X150262D01*
X150354Y-241968D01*
X151114Y-243803D01*
X152322Y-245378D01*
X153897Y-246586D01*
X155732Y-247346D01*
X156430Y-247438D01*
Y-241270D01*
D02*
G37*
G36*
X188612Y-248770D02*
X182270D01*
Y-254612D01*
X184875D01*
X186305Y-254327D01*
X187517Y-253517D01*
X188327Y-252305D01*
X188612Y-250875D01*
Y-248770D01*
D02*
G37*
G36*
X179730D02*
X173388D01*
Y-250875D01*
X173673Y-252305D01*
X174483Y-253517D01*
X175695Y-254327D01*
X177125Y-254612D01*
X179730D01*
Y-248770D01*
D02*
G37*
G36*
X245000Y-220406D02*
X241177Y-220782D01*
X237502Y-221897D01*
X234114Y-223708D01*
X231145Y-226145D01*
X228708Y-229114D01*
X226897Y-232502D01*
X225782Y-236177D01*
X225406Y-240000D01*
X225782Y-243823D01*
X226897Y-247498D01*
X228708Y-250886D01*
X231145Y-253855D01*
X234114Y-256292D01*
X237502Y-258103D01*
X241177Y-259218D01*
X245000Y-259594D01*
X248823Y-259218D01*
X252498Y-258103D01*
X255886Y-256292D01*
X258855Y-253855D01*
X261292Y-250886D01*
X263103Y-247498D01*
X264218Y-243823D01*
X264594Y-240000D01*
X264218Y-236177D01*
X263103Y-232502D01*
X261292Y-229114D01*
X258855Y-226145D01*
X255886Y-223708D01*
X252498Y-221897D01*
X248823Y-220782D01*
X245000Y-220406D01*
D02*
G37*
G36*
X45000D02*
X41177Y-220782D01*
X37502Y-221897D01*
X34114Y-223708D01*
X31145Y-226145D01*
X28708Y-229114D01*
X26897Y-232502D01*
X25782Y-236177D01*
X25406Y-240000D01*
X25782Y-243823D01*
X26897Y-247498D01*
X28708Y-250886D01*
X31145Y-253855D01*
X34114Y-256292D01*
X37502Y-258103D01*
X41177Y-259218D01*
X45000Y-259594D01*
X48823Y-259218D01*
X52498Y-258103D01*
X55886Y-256292D01*
X58855Y-253855D01*
X61292Y-250886D01*
X63103Y-247498D01*
X64218Y-243823D01*
X64594Y-240000D01*
X64218Y-236177D01*
X63103Y-232502D01*
X61292Y-229114D01*
X58855Y-226145D01*
X55886Y-223708D01*
X52498Y-221897D01*
X48823Y-220782D01*
X45000Y-220406D01*
D02*
G37*
G36*
X170750Y-270386D02*
X166270D01*
Y-276730D01*
X174614D01*
Y-274250D01*
X174320Y-272771D01*
X173482Y-271518D01*
X172229Y-270680D01*
X170750Y-270386D01*
D02*
G37*
G36*
X163730D02*
X159250D01*
X157771Y-270680D01*
X156518Y-271518D01*
X155680Y-272771D01*
X155386Y-274250D01*
Y-276730D01*
X163730D01*
Y-270386D01*
D02*
G37*
G36*
X57000Y-269940D02*
X55173Y-270180D01*
X53470Y-270886D01*
X52007Y-272008D01*
X50886Y-273470D01*
X50180Y-275173D01*
X49940Y-277000D01*
X50180Y-278827D01*
X50886Y-280530D01*
X52007Y-281992D01*
X53470Y-283114D01*
X55173Y-283820D01*
X57000Y-284060D01*
X58827Y-283820D01*
X60530Y-283114D01*
X61992Y-281992D01*
X63115Y-280530D01*
X63820Y-278827D01*
X64060Y-277000D01*
X63820Y-275173D01*
X63115Y-273470D01*
X61992Y-272008D01*
X60530Y-270886D01*
X58827Y-270180D01*
X57000Y-269940D01*
D02*
G37*
G36*
X40000Y-270940D02*
X38173Y-271180D01*
X36470Y-271886D01*
X35008Y-273008D01*
X33886Y-274470D01*
X33180Y-276173D01*
X32940Y-278000D01*
X33180Y-279827D01*
X33886Y-281530D01*
X35008Y-282992D01*
X36470Y-284114D01*
X38173Y-284820D01*
X40000Y-285060D01*
X41827Y-284820D01*
X43530Y-284114D01*
X44992Y-282992D01*
X46115Y-281530D01*
X46820Y-279827D01*
X47060Y-278000D01*
X46820Y-276173D01*
X46115Y-274470D01*
X44992Y-273008D01*
X43530Y-271886D01*
X41827Y-271180D01*
X40000Y-270940D01*
D02*
G37*
G36*
X93000Y-276435D02*
X91042Y-276693D01*
X89218Y-277449D01*
X87651Y-278651D01*
X86449Y-280218D01*
X85693Y-282042D01*
X85435Y-284000D01*
X85693Y-285958D01*
X86449Y-287782D01*
X87651Y-289349D01*
X89218Y-290551D01*
X91042Y-291307D01*
X93000Y-291565D01*
X94958Y-291307D01*
X96782Y-290551D01*
X98349Y-289349D01*
X99551Y-287782D01*
X100307Y-285958D01*
X100565Y-284000D01*
X100307Y-282042D01*
X99551Y-280218D01*
X98349Y-278651D01*
X96782Y-277449D01*
X94958Y-276693D01*
X93000Y-276435D01*
D02*
G37*
G36*
X145000Y-245640D02*
X143173Y-245880D01*
X141470Y-246586D01*
X140007Y-247708D01*
X138885Y-249170D01*
X138180Y-250873D01*
X137940Y-252700D01*
X138180Y-254527D01*
X138885Y-256230D01*
X140007Y-257692D01*
X140412Y-258003D01*
Y-272061D01*
X139515Y-272239D01*
X138151Y-273151D01*
X137239Y-274515D01*
X136919Y-276125D01*
Y-282875D01*
X137239Y-284485D01*
X138000Y-285623D01*
Y-290377D01*
X137239Y-291516D01*
X136919Y-293125D01*
Y-299875D01*
X137239Y-301485D01*
X138151Y-302849D01*
X139515Y-303761D01*
X141125Y-304081D01*
X148875D01*
X150485Y-303761D01*
X151849Y-302849D01*
X152761Y-301485D01*
X152839Y-301088D01*
X155183D01*
X155247Y-301408D01*
X156186Y-302814D01*
X157592Y-303753D01*
X159250Y-304083D01*
X170750D01*
X172408Y-303753D01*
X173814Y-302814D01*
X174753Y-301408D01*
X174916Y-300588D01*
X179160D01*
X179239Y-300984D01*
X180151Y-302349D01*
X181516Y-303261D01*
X183125Y-303581D01*
X190875D01*
X192484Y-303261D01*
X193849Y-302349D01*
X194761Y-300984D01*
X195081Y-299375D01*
Y-292625D01*
X194761Y-291015D01*
X194000Y-289877D01*
Y-285123D01*
X194761Y-283985D01*
X195081Y-282375D01*
Y-275625D01*
X194761Y-274016D01*
X193849Y-272651D01*
X193477Y-272402D01*
X193270Y-271149D01*
X193551Y-270782D01*
X194307Y-268958D01*
X194565Y-267000D01*
X194307Y-265042D01*
X193551Y-263218D01*
X192349Y-261651D01*
X190782Y-260449D01*
X188958Y-259693D01*
X187000Y-259435D01*
X185042Y-259693D01*
X183218Y-260449D01*
X181651Y-261651D01*
X180449Y-263218D01*
X179693Y-265042D01*
X179435Y-267000D01*
X179693Y-268958D01*
X180449Y-270782D01*
X180730Y-271149D01*
X180523Y-272402D01*
X180151Y-272651D01*
X179239Y-274016D01*
X178919Y-275625D01*
Y-282375D01*
X179239Y-283985D01*
X180000Y-285123D01*
Y-289877D01*
X179239Y-291015D01*
X179160Y-291412D01*
X174916D01*
X174753Y-290592D01*
X174000Y-289464D01*
Y-283708D01*
X174320Y-283229D01*
X174614Y-281750D01*
Y-279270D01*
X165000D01*
X155386D01*
Y-281750D01*
X155680Y-283229D01*
X156000Y-283708D01*
Y-289464D01*
X155247Y-290592D01*
X154984Y-291912D01*
X152839D01*
X152761Y-291516D01*
X152000Y-290377D01*
Y-285623D01*
X152761Y-284485D01*
X153081Y-282875D01*
Y-276125D01*
X152761Y-274515D01*
X151849Y-273151D01*
X150485Y-272239D01*
X149588Y-272061D01*
Y-258003D01*
X149992Y-257692D01*
X151115Y-256230D01*
X151820Y-254527D01*
X152060Y-252700D01*
X151820Y-250873D01*
X151115Y-249170D01*
X149992Y-247708D01*
X148530Y-246586D01*
X146827Y-245880D01*
X145000Y-245640D01*
D02*
G37*
G36*
X286000Y-292435D02*
X284042Y-292693D01*
X282218Y-293449D01*
X280651Y-294651D01*
X279449Y-296218D01*
X278693Y-298042D01*
X278435Y-300000D01*
X278693Y-301958D01*
X279449Y-303782D01*
X280651Y-305349D01*
X282218Y-306551D01*
X284042Y-307307D01*
X286000Y-307565D01*
X287958Y-307307D01*
X289782Y-306551D01*
X291349Y-305349D01*
X292551Y-303782D01*
X293307Y-301958D01*
X293565Y-300000D01*
X293307Y-298042D01*
X292551Y-296218D01*
X291349Y-294651D01*
X289782Y-293449D01*
X287958Y-292693D01*
X286000Y-292435D01*
D02*
G37*
G36*
X209375Y-330919D02*
X202625D01*
X201016Y-331239D01*
X199877Y-332000D01*
X194295D01*
X193805Y-331673D01*
X192375Y-331388D01*
X190270D01*
Y-339000D01*
Y-346612D01*
X192375D01*
X192543Y-346578D01*
X193348Y-347659D01*
X192882Y-350000D01*
X193348Y-352341D01*
X194674Y-354326D01*
X196659Y-355652D01*
X199000Y-356118D01*
X201341Y-355652D01*
X203326Y-354326D01*
X203327Y-354324D01*
X203756Y-354239D01*
X205244Y-353244D01*
X209244Y-349244D01*
X210239Y-347756D01*
X210415Y-346874D01*
X210985Y-346761D01*
X212349Y-345849D01*
X213261Y-344484D01*
X213581Y-342875D01*
Y-335125D01*
X213261Y-333516D01*
X212349Y-332151D01*
X210985Y-331239D01*
X209375Y-330919D01*
D02*
G37*
G36*
X242000Y-304435D02*
X240042Y-304693D01*
X238218Y-305449D01*
X236651Y-306651D01*
X235449Y-308218D01*
X234693Y-310042D01*
X234435Y-312000D01*
X234693Y-313958D01*
X235449Y-315782D01*
X236386Y-317004D01*
X236242Y-318241D01*
X236108Y-318533D01*
X234651Y-319651D01*
X233449Y-321218D01*
X232693Y-323042D01*
X232435Y-325000D01*
X232693Y-326958D01*
X233449Y-328782D01*
X234651Y-330349D01*
X234895Y-330536D01*
X234711Y-331996D01*
X234705Y-332000D01*
X229123D01*
X227984Y-331239D01*
X226375Y-330919D01*
X219625D01*
X218015Y-331239D01*
X216651Y-332151D01*
X215739Y-333516D01*
X215419Y-335125D01*
Y-342875D01*
X215739Y-344484D01*
X216651Y-345849D01*
X218015Y-346761D01*
X219625Y-347081D01*
X219646D01*
X219755Y-347244D01*
X222975Y-350463D01*
X223348Y-352341D01*
X224674Y-354326D01*
X226659Y-355652D01*
X229000Y-356118D01*
X231341Y-355652D01*
X233326Y-354326D01*
X234652Y-352341D01*
X235117Y-350000D01*
X234652Y-347659D01*
X234450Y-347357D01*
X235007Y-346588D01*
X235304Y-346349D01*
X236625Y-346612D01*
X238730D01*
Y-339000D01*
X240000D01*
Y-337730D01*
X247112D01*
Y-335125D01*
X246827Y-333695D01*
X246017Y-332483D01*
X245289Y-331996D01*
X245105Y-330536D01*
X245349Y-330349D01*
X246551Y-328782D01*
X247307Y-326958D01*
X247565Y-325000D01*
X247307Y-323042D01*
X246551Y-321218D01*
X245614Y-319996D01*
X245758Y-318759D01*
X245892Y-318467D01*
X247349Y-317349D01*
X248551Y-315782D01*
X249307Y-313958D01*
X249565Y-312000D01*
X249307Y-310042D01*
X248551Y-308218D01*
X247349Y-306651D01*
X245782Y-305449D01*
X243958Y-304693D01*
X242000Y-304435D01*
D02*
G37*
G36*
X187730Y-331388D02*
X185625D01*
X184195Y-331673D01*
X182983Y-332483D01*
X182173Y-333695D01*
X181888Y-335125D01*
Y-337730D01*
X187730D01*
Y-331388D01*
D02*
G37*
G36*
X247112Y-340270D02*
X241270D01*
Y-346612D01*
X243375D01*
X244805Y-346327D01*
X246017Y-345517D01*
X246827Y-344305D01*
X247112Y-342875D01*
Y-340270D01*
D02*
G37*
G36*
X187730D02*
X181888D01*
Y-342875D01*
X182173Y-344305D01*
X182983Y-345517D01*
X184195Y-346327D01*
X185625Y-346612D01*
X187730D01*
Y-340270D01*
D02*
G37*
G36*
X142500Y-338440D02*
X140673Y-338680D01*
X138970Y-339386D01*
X137508Y-340508D01*
X136386Y-341970D01*
X135680Y-343673D01*
X135440Y-345500D01*
X135680Y-347327D01*
X136386Y-349030D01*
X137508Y-350493D01*
X138970Y-351614D01*
X140673Y-352320D01*
X142500Y-352560D01*
X144327Y-352320D01*
X146030Y-351614D01*
X147493Y-350493D01*
X148615Y-349030D01*
X149320Y-347327D01*
X149560Y-345500D01*
X149320Y-343673D01*
X148615Y-341970D01*
X147493Y-340508D01*
X146030Y-339386D01*
X144327Y-338680D01*
X142500Y-338440D01*
D02*
G37*
G36*
X20000Y-342435D02*
X18042Y-342693D01*
X16218Y-343449D01*
X14651Y-344651D01*
X13449Y-346218D01*
X12693Y-348042D01*
X12435Y-350000D01*
X12693Y-351958D01*
X13449Y-353782D01*
X14651Y-355349D01*
X16218Y-356551D01*
X18042Y-357307D01*
X20000Y-357565D01*
X21958Y-357307D01*
X23782Y-356551D01*
X25349Y-355349D01*
X26551Y-353782D01*
X27307Y-351958D01*
X27565Y-350000D01*
X27307Y-348042D01*
X26551Y-346218D01*
X25349Y-344651D01*
X23782Y-343449D01*
X21958Y-342693D01*
X20000Y-342435D01*
D02*
G37*
G36*
X73000Y-343939D02*
X71172Y-344179D01*
X69470Y-344885D01*
X68007Y-346007D01*
X66885Y-347469D01*
X66180Y-349172D01*
X65939Y-350999D01*
X66180Y-352827D01*
X66885Y-354529D01*
X68007Y-355992D01*
X69470Y-357114D01*
X71172Y-357819D01*
X73000Y-358060D01*
X74827Y-357819D01*
X76530Y-357114D01*
X77992Y-355992D01*
X79114Y-354529D01*
X79820Y-352827D01*
X80060Y-350999D01*
X79820Y-349172D01*
X79114Y-347469D01*
X77992Y-346007D01*
X76530Y-344885D01*
X74827Y-344179D01*
X73000Y-343939D01*
D02*
G37*
G36*
X346000Y-339435D02*
X344042Y-339693D01*
X342218Y-340449D01*
X340651Y-341651D01*
X339449Y-343218D01*
X338693Y-345042D01*
X338435Y-347000D01*
X338693Y-348958D01*
X339230Y-350255D01*
X338623Y-351616D01*
X338041Y-351692D01*
X336217Y-352448D01*
X334650Y-353650D01*
X333448Y-355217D01*
X332692Y-357041D01*
X332435Y-358999D01*
X332676Y-360834D01*
X322756Y-370754D01*
X321761Y-372243D01*
X321412Y-373999D01*
Y-409160D01*
X321016Y-409239D01*
X319877Y-410000D01*
X315123D01*
X313985Y-409239D01*
X312375Y-408919D01*
X305625D01*
X304016Y-409239D01*
X302651Y-410151D01*
X302459Y-410439D01*
X301384Y-411116D01*
X300061Y-410232D01*
X298500Y-409921D01*
X292500D01*
X290939Y-410232D01*
X289616Y-411116D01*
X289025Y-412000D01*
X284422D01*
X284052Y-411447D01*
X282881Y-410665D01*
X281500Y-410390D01*
X279770D01*
Y-416999D01*
Y-423609D01*
X281500D01*
X282881Y-423334D01*
X284052Y-422552D01*
X284421Y-422000D01*
X289026D01*
X289616Y-422883D01*
X290939Y-423767D01*
X292500Y-424078D01*
X298500D01*
X300061Y-423767D01*
X301384Y-422883D01*
X302458Y-423561D01*
X302651Y-423849D01*
X304016Y-424761D01*
X305625Y-425081D01*
X312375D01*
X313985Y-424761D01*
X315123Y-424000D01*
X319877D01*
X321016Y-424761D01*
X322625Y-425081D01*
X329375D01*
X330984Y-424761D01*
X332349Y-423849D01*
X333261Y-422485D01*
X333581Y-420875D01*
Y-413125D01*
X333261Y-411516D01*
X332349Y-410151D01*
X330984Y-409239D01*
X330588Y-409160D01*
Y-375899D01*
X339932Y-366555D01*
X339999Y-366564D01*
X341957Y-366306D01*
X343782Y-365550D01*
X345348Y-364348D01*
X346550Y-362782D01*
X347306Y-360957D01*
X347564Y-358999D01*
X347306Y-357041D01*
X346769Y-355744D01*
X347376Y-354384D01*
X347958Y-354307D01*
X349782Y-353551D01*
X351349Y-352349D01*
X352551Y-350782D01*
X353307Y-348958D01*
X353565Y-347000D01*
X353307Y-345042D01*
X352551Y-343218D01*
X351349Y-341651D01*
X349782Y-340449D01*
X347958Y-339693D01*
X346000Y-339435D01*
D02*
G37*
G36*
X164730Y-362388D02*
X162625D01*
X161195Y-362673D01*
X159983Y-363483D01*
X159172Y-364695D01*
X158888Y-366125D01*
Y-368730D01*
X164730D01*
Y-362388D01*
D02*
G37*
G36*
X358000Y-355435D02*
X356042Y-355693D01*
X354218Y-356449D01*
X352651Y-357651D01*
X351449Y-359218D01*
X350693Y-361042D01*
X350435Y-363000D01*
X350693Y-364958D01*
X351449Y-366782D01*
X352651Y-368349D01*
X354218Y-369551D01*
X356042Y-370307D01*
X358000Y-370565D01*
X359958Y-370307D01*
X361782Y-369551D01*
X363349Y-368349D01*
X364551Y-366782D01*
X365307Y-364958D01*
X365565Y-363000D01*
X365307Y-361042D01*
X364551Y-359218D01*
X363349Y-357651D01*
X361782Y-356449D01*
X359958Y-355693D01*
X358000Y-355435D01*
D02*
G37*
G36*
X109000Y-350435D02*
X107042Y-350693D01*
X105218Y-351449D01*
X103651Y-352651D01*
X102449Y-354218D01*
X101693Y-356042D01*
X101435Y-358000D01*
X101693Y-359958D01*
X102449Y-361782D01*
X103651Y-363349D01*
X104518Y-364015D01*
X104554Y-365588D01*
X104008Y-366007D01*
X102886Y-367470D01*
X102180Y-369173D01*
X101940Y-371000D01*
X102180Y-372827D01*
X102886Y-374530D01*
X104008Y-375992D01*
X104493Y-376365D01*
Y-377635D01*
X104007Y-378007D01*
X102885Y-379469D01*
X102180Y-381172D01*
X101939Y-382999D01*
X102180Y-384827D01*
X102885Y-386529D01*
X104007Y-387992D01*
X105470Y-389114D01*
X105949Y-389312D01*
Y-390687D01*
X105470Y-390886D01*
X104008Y-392007D01*
X102886Y-393470D01*
X102180Y-395173D01*
X101940Y-397000D01*
X102180Y-398827D01*
X102215Y-398911D01*
X101115Y-399470D01*
X99992Y-398008D01*
X98530Y-396885D01*
X96827Y-396180D01*
X95000Y-395940D01*
X93173Y-396180D01*
X91470Y-396885D01*
X90007Y-398008D01*
X88885Y-399470D01*
X88180Y-401173D01*
X87940Y-403000D01*
X88180Y-404827D01*
X88885Y-406530D01*
X90007Y-407993D01*
X91470Y-409114D01*
X93173Y-409820D01*
X95000Y-410060D01*
X96827Y-409820D01*
X98530Y-409114D01*
X99992Y-407993D01*
X101115Y-406530D01*
X101820Y-404827D01*
X102060Y-403000D01*
X101820Y-401173D01*
X101785Y-401089D01*
X102886Y-400530D01*
X104008Y-401992D01*
X105470Y-403115D01*
X107173Y-403820D01*
X109000Y-404060D01*
X110827Y-403820D01*
X112530Y-403115D01*
X113993Y-401992D01*
X115114Y-400530D01*
X115820Y-398827D01*
X116060Y-397000D01*
X115820Y-395173D01*
X115114Y-393470D01*
X113993Y-392007D01*
X113798Y-391858D01*
X114229Y-390588D01*
X168919D01*
Y-392875D01*
X169239Y-394484D01*
X170000Y-395623D01*
Y-400377D01*
X169239Y-401516D01*
X168919Y-403125D01*
Y-408092D01*
X168256Y-408756D01*
X167261Y-410244D01*
X166912Y-412000D01*
Y-425160D01*
X166516Y-425239D01*
X165377Y-426000D01*
X160623D01*
X159485Y-425239D01*
X159134Y-425170D01*
X158714Y-423791D01*
X159320Y-422327D01*
X159560Y-420500D01*
X159320Y-418673D01*
X158615Y-416970D01*
X157493Y-415508D01*
X156030Y-414385D01*
X154327Y-413680D01*
X152500Y-413440D01*
X150673Y-413680D01*
X148970Y-414385D01*
X147803Y-415281D01*
X146249Y-415341D01*
X145992Y-415008D01*
X144530Y-413885D01*
X142827Y-413180D01*
X141000Y-412940D01*
X139173Y-413180D01*
X137470Y-413885D01*
X136008Y-415008D01*
X134886Y-416470D01*
X134180Y-418173D01*
X133940Y-420000D01*
X134180Y-421827D01*
X134886Y-423530D01*
X135242Y-423995D01*
X134795Y-425184D01*
X134515Y-425239D01*
X133377Y-426000D01*
X127795D01*
X127305Y-425673D01*
X125875Y-425388D01*
X123770D01*
Y-433000D01*
Y-440612D01*
X125875D01*
X127305Y-440327D01*
X127795Y-440000D01*
X133377D01*
X134515Y-440761D01*
X136125Y-441081D01*
X142875D01*
X144485Y-440761D01*
X145849Y-439849D01*
X146236Y-439269D01*
X147764D01*
X148151Y-439849D01*
X149515Y-440761D01*
X151125Y-441081D01*
X157875D01*
X159485Y-440761D01*
X160623Y-440000D01*
X165377D01*
X166516Y-440761D01*
X168125Y-441081D01*
X174875D01*
X176485Y-440761D01*
X177002Y-440415D01*
X177917Y-439964D01*
X179000Y-440563D01*
Y-443584D01*
X178151Y-444151D01*
X177239Y-445516D01*
X176919Y-447125D01*
Y-453875D01*
X177239Y-455485D01*
X178151Y-456849D01*
X179515Y-457761D01*
X181125Y-458081D01*
X188496D01*
X189042Y-458307D01*
X191000Y-458565D01*
X192958Y-458307D01*
X194782Y-457551D01*
X196349Y-456349D01*
X197551Y-454782D01*
X198307Y-452958D01*
X198565Y-451000D01*
X198307Y-449042D01*
X197551Y-447218D01*
X196349Y-445651D01*
X194782Y-444449D01*
X192958Y-443693D01*
X191000Y-443435D01*
Y-440416D01*
X191849Y-439849D01*
X192761Y-438484D01*
X193081Y-436875D01*
Y-430125D01*
X192761Y-428516D01*
X191849Y-427151D01*
X190485Y-426239D01*
X188875Y-425919D01*
X181125D01*
X179515Y-426239D01*
X178404Y-426982D01*
X177849Y-426151D01*
X176485Y-425239D01*
X176088Y-425160D01*
Y-414081D01*
X180875D01*
X182484Y-413761D01*
X183849Y-412849D01*
X184761Y-411484D01*
X185081Y-409875D01*
Y-403125D01*
X184761Y-401516D01*
X184000Y-400377D01*
Y-395623D01*
X184761Y-394484D01*
X185081Y-392875D01*
Y-387408D01*
X194933Y-377556D01*
X195000Y-377565D01*
X196958Y-377307D01*
X198782Y-376551D01*
X200349Y-375349D01*
X201551Y-373782D01*
X202307Y-371958D01*
X202565Y-370000D01*
X202307Y-368042D01*
X201551Y-366218D01*
X200349Y-364651D01*
X198782Y-363449D01*
X196958Y-362693D01*
X195000Y-362435D01*
X193042Y-362693D01*
X191218Y-363449D01*
X190851Y-363730D01*
X189598Y-363523D01*
X189349Y-363151D01*
X187985Y-362239D01*
X186375Y-361919D01*
X179625D01*
X178015Y-362239D01*
X176877Y-363000D01*
X171295D01*
X170805Y-362673D01*
X169375Y-362388D01*
X167270D01*
Y-370000D01*
Y-377612D01*
X169375D01*
X170805Y-377327D01*
X171295Y-377000D01*
X176877D01*
X178015Y-377761D01*
X179625Y-378081D01*
X179771D01*
X180257Y-379254D01*
X178099Y-381412D01*
X123588D01*
Y-368000D01*
X123239Y-366244D01*
X122244Y-364756D01*
X116440Y-358951D01*
X116565Y-358000D01*
X116307Y-356042D01*
X115551Y-354218D01*
X114349Y-352651D01*
X112782Y-351449D01*
X110958Y-350693D01*
X109000Y-350435D01*
D02*
G37*
G36*
X164730Y-371270D02*
X158888D01*
Y-373875D01*
X159172Y-375305D01*
X159983Y-376517D01*
X161195Y-377327D01*
X162625Y-377612D01*
X164730D01*
Y-371270D01*
D02*
G37*
G36*
X241000Y-368940D02*
X239173Y-369180D01*
X237470Y-369885D01*
X236008Y-371008D01*
X234886Y-372470D01*
X234180Y-374173D01*
X233940Y-376000D01*
X234180Y-377827D01*
X234886Y-379530D01*
X236008Y-380993D01*
X237470Y-382114D01*
X239173Y-382820D01*
X241000Y-383060D01*
X242827Y-382820D01*
X244530Y-382114D01*
X245992Y-380993D01*
X247115Y-379530D01*
X247820Y-377827D01*
X248060Y-376000D01*
X247820Y-374173D01*
X247115Y-372470D01*
X245992Y-371008D01*
X244530Y-369885D01*
X242827Y-369180D01*
X241000Y-368940D01*
D02*
G37*
G36*
X467000Y-365500D02*
X441000D01*
Y-386500D01*
X467000D01*
Y-365500D01*
D02*
G37*
G36*
X395875Y-387388D02*
X393270D01*
Y-393230D01*
X399612D01*
Y-391125D01*
X399327Y-389695D01*
X398517Y-388483D01*
X397305Y-387673D01*
X395875Y-387388D01*
D02*
G37*
G36*
X244500Y-391833D02*
X242673Y-392074D01*
X240970Y-392779D01*
X239508Y-393901D01*
X238589Y-395098D01*
X238185Y-395399D01*
X236902Y-395625D01*
X235827Y-395180D01*
X234000Y-394940D01*
X232173Y-395180D01*
X230470Y-395886D01*
X229007Y-397008D01*
X227885Y-398470D01*
X227180Y-400173D01*
X226940Y-402000D01*
X227180Y-403827D01*
X227885Y-405530D01*
X229007Y-406992D01*
X230470Y-408115D01*
X232173Y-408820D01*
X234000Y-409060D01*
X235827Y-408820D01*
X237530Y-408115D01*
X238992Y-406992D01*
X239911Y-405796D01*
X240315Y-405495D01*
X241598Y-405268D01*
X242673Y-405713D01*
X244500Y-405954D01*
X246327Y-405713D01*
X248030Y-405008D01*
X249492Y-403886D01*
X250614Y-402424D01*
X251320Y-400721D01*
X251560Y-398893D01*
X251320Y-397066D01*
X250614Y-395363D01*
X249492Y-393901D01*
X248030Y-392779D01*
X246327Y-392074D01*
X244500Y-391833D01*
D02*
G37*
G36*
X63000Y-387435D02*
X61042Y-387693D01*
X59218Y-388449D01*
X57651Y-389651D01*
X56449Y-391218D01*
X55693Y-393042D01*
X55435Y-395000D01*
X55693Y-396958D01*
X56449Y-398782D01*
X57651Y-400349D01*
X59218Y-401551D01*
X61042Y-402307D01*
X63000Y-402565D01*
X64958Y-402307D01*
X66782Y-401551D01*
X68349Y-400349D01*
X69551Y-398782D01*
X70307Y-396958D01*
X70565Y-395000D01*
X70307Y-393042D01*
X69551Y-391218D01*
X68349Y-389651D01*
X66782Y-388449D01*
X64958Y-387693D01*
X63000Y-387435D01*
D02*
G37*
G36*
X467000Y-388500D02*
X441000D01*
Y-409500D01*
X467000D01*
Y-388500D01*
D02*
G37*
G36*
X277230Y-410390D02*
X275500D01*
X274119Y-410665D01*
X272948Y-411447D01*
X272166Y-412618D01*
X271891Y-413999D01*
Y-415729D01*
X277230D01*
Y-410390D01*
D02*
G37*
G36*
X20000Y-402435D02*
X18042Y-402693D01*
X16218Y-403449D01*
X14651Y-404651D01*
X13449Y-406218D01*
X12693Y-408042D01*
X12435Y-410000D01*
X12693Y-411958D01*
X13449Y-413782D01*
X14651Y-415349D01*
X16218Y-416551D01*
X18042Y-417307D01*
X20000Y-417565D01*
X21958Y-417307D01*
X23782Y-416551D01*
X25349Y-415349D01*
X26551Y-413782D01*
X27307Y-411958D01*
X27565Y-410000D01*
X27307Y-408042D01*
X26551Y-406218D01*
X25349Y-404651D01*
X23782Y-403449D01*
X21958Y-402693D01*
X20000Y-402435D01*
D02*
G37*
G36*
X377000Y-370435D02*
X375042Y-370693D01*
X374496Y-370919D01*
X373125D01*
X371516Y-371240D01*
X370151Y-372151D01*
X369239Y-373516D01*
X368919Y-375125D01*
Y-381875D01*
X369239Y-383485D01*
X370000Y-384623D01*
Y-390206D01*
X369673Y-390695D01*
X369388Y-392125D01*
Y-394230D01*
X377000D01*
Y-396770D01*
X369388D01*
Y-398875D01*
X369673Y-400305D01*
X370483Y-401518D01*
X371695Y-402328D01*
X372025Y-402393D01*
X372342Y-403751D01*
X372008Y-404008D01*
X370886Y-405470D01*
X370180Y-407173D01*
X369940Y-409000D01*
X370180Y-410827D01*
X370886Y-412530D01*
X372008Y-413993D01*
X373470Y-415115D01*
X375173Y-415820D01*
X377000Y-416060D01*
X378827Y-415820D01*
X380530Y-415115D01*
X381992Y-413993D01*
X382649Y-413137D01*
X383919Y-413568D01*
Y-414875D01*
X384239Y-416485D01*
X385151Y-417849D01*
X386516Y-418761D01*
X388125Y-419081D01*
X395875D01*
X397485Y-418761D01*
X398849Y-417849D01*
X399761Y-416485D01*
X400081Y-414875D01*
Y-408125D01*
X399761Y-406516D01*
X399000Y-405378D01*
Y-399795D01*
X399327Y-399305D01*
X399612Y-397875D01*
Y-395770D01*
X392000D01*
Y-394500D01*
X390730D01*
Y-387388D01*
X388125D01*
X386695Y-387673D01*
X385483Y-388483D01*
X385270Y-388801D01*
X384000Y-388416D01*
Y-384623D01*
X384761Y-383485D01*
X385081Y-381875D01*
Y-375125D01*
X384761Y-373516D01*
X383849Y-372151D01*
X382485Y-371240D01*
X380875Y-370919D01*
X379504D01*
X378958Y-370693D01*
X377000Y-370435D01*
D02*
G37*
G36*
X114000Y-408435D02*
X112042Y-408693D01*
X110218Y-409449D01*
X108651Y-410651D01*
X107449Y-412218D01*
X106693Y-414042D01*
X106435Y-416000D01*
X106693Y-417958D01*
X107449Y-419782D01*
X108651Y-421349D01*
X110218Y-422551D01*
X112042Y-423307D01*
X114000Y-423565D01*
X115958Y-423307D01*
X117782Y-422551D01*
X119349Y-421349D01*
X120551Y-419782D01*
X121307Y-417958D01*
X121565Y-416000D01*
X121307Y-414042D01*
X120551Y-412218D01*
X119349Y-410651D01*
X117782Y-409449D01*
X115958Y-408693D01*
X114000Y-408435D01*
D02*
G37*
G36*
X277230Y-418269D02*
X271891D01*
Y-420000D01*
X272166Y-421381D01*
X272948Y-422552D01*
X274119Y-423334D01*
X275500Y-423609D01*
X277230D01*
Y-418269D01*
D02*
G37*
G36*
X238000Y-413435D02*
X236042Y-413693D01*
X234218Y-414449D01*
X232651Y-415651D01*
X231449Y-417218D01*
X230693Y-419042D01*
X230435Y-421000D01*
X230693Y-422958D01*
X231449Y-424782D01*
X232651Y-426349D01*
X234218Y-427551D01*
X236042Y-428307D01*
X238000Y-428565D01*
X239958Y-428307D01*
X241782Y-427551D01*
X243349Y-426349D01*
X244551Y-424782D01*
X245307Y-422958D01*
X245565Y-421000D01*
X245307Y-419042D01*
X244551Y-417218D01*
X243349Y-415651D01*
X241782Y-414449D01*
X239958Y-413693D01*
X238000Y-413435D01*
D02*
G37*
G36*
X121230Y-425388D02*
X119125D01*
X117695Y-425673D01*
X116482Y-426483D01*
X115672Y-427695D01*
X115388Y-429125D01*
Y-431730D01*
X121230D01*
Y-425388D01*
D02*
G37*
G36*
X393875Y-431888D02*
X391270D01*
Y-437730D01*
X397612D01*
Y-435625D01*
X397327Y-434195D01*
X396517Y-432982D01*
X395305Y-432172D01*
X393875Y-431888D01*
D02*
G37*
G36*
X121230Y-434270D02*
X115388D01*
Y-436875D01*
X115672Y-438305D01*
X116482Y-439517D01*
X117695Y-440327D01*
X119125Y-440612D01*
X121230D01*
Y-434270D01*
D02*
G37*
G36*
X416000Y-430435D02*
X414042Y-430693D01*
X412289Y-431419D01*
X412125D01*
X410516Y-431739D01*
X409151Y-432651D01*
X408239Y-434016D01*
X407919Y-435625D01*
Y-442375D01*
X408239Y-443984D01*
X409000Y-445123D01*
Y-450705D01*
X408673Y-451195D01*
X408388Y-452625D01*
Y-454730D01*
X416000D01*
X423612D01*
Y-452625D01*
X423327Y-451195D01*
X423000Y-450705D01*
Y-445123D01*
X423761Y-443984D01*
X424081Y-442375D01*
Y-435625D01*
X423761Y-434016D01*
X422849Y-432651D01*
X421484Y-431739D01*
X419875Y-431419D01*
X419711D01*
X417958Y-430693D01*
X416000Y-430435D01*
D02*
G37*
G36*
X423612Y-457270D02*
X417270D01*
Y-463112D01*
X419875D01*
X421305Y-462828D01*
X422517Y-462018D01*
X423327Y-460805D01*
X423612Y-459375D01*
Y-457270D01*
D02*
G37*
G36*
X414730D02*
X408388D01*
Y-459375D01*
X408673Y-460805D01*
X409483Y-462018D01*
X410695Y-462828D01*
X412125Y-463112D01*
X414730D01*
Y-457270D01*
D02*
G37*
G36*
X82000Y-452435D02*
X80042Y-452693D01*
X78218Y-453449D01*
X76651Y-454651D01*
X75449Y-456218D01*
X74693Y-458042D01*
X74435Y-460000D01*
X74693Y-461958D01*
X75449Y-463782D01*
X76651Y-465349D01*
X78218Y-466551D01*
X80042Y-467307D01*
X82000Y-467565D01*
X83958Y-467307D01*
X85782Y-466551D01*
X87349Y-465349D01*
X88551Y-463782D01*
X89307Y-461958D01*
X89565Y-460000D01*
X89307Y-458042D01*
X88551Y-456218D01*
X87349Y-454651D01*
X85782Y-453449D01*
X83958Y-452693D01*
X82000Y-452435D01*
D02*
G37*
G36*
X387000Y-89435D02*
X385042Y-89693D01*
X383218Y-90449D01*
X381651Y-91651D01*
X380449Y-93218D01*
X379693Y-95042D01*
X379435Y-97000D01*
X379693Y-98958D01*
X380449Y-100782D01*
X381651Y-102349D01*
X383218Y-103551D01*
X385042Y-104307D01*
X387000Y-104565D01*
X388958Y-104307D01*
X390782Y-103551D01*
X392349Y-102349D01*
X393551Y-100782D01*
X394307Y-98958D01*
X394565Y-97000D01*
X394307Y-95042D01*
X393551Y-93218D01*
X392349Y-91651D01*
X390782Y-90449D01*
X388958Y-89693D01*
X387000Y-89435D01*
D02*
G37*
G36*
X426000Y-140935D02*
X424042Y-141193D01*
X422218Y-141949D01*
X420651Y-143151D01*
X419449Y-144718D01*
X418693Y-146542D01*
X418435Y-148500D01*
X418693Y-150458D01*
X419449Y-152282D01*
X420651Y-153849D01*
X422218Y-155051D01*
X424042Y-155807D01*
X426000Y-156065D01*
X427958Y-155807D01*
X429782Y-155051D01*
X431349Y-153849D01*
X432551Y-152282D01*
X433307Y-150458D01*
X433565Y-148500D01*
X433307Y-146542D01*
X432551Y-144718D01*
X431349Y-143151D01*
X429782Y-141949D01*
X427958Y-141193D01*
X426000Y-140935D01*
D02*
G37*
G36*
X388000Y-120406D02*
X384177Y-120782D01*
X380502Y-121897D01*
X377114Y-123708D01*
X374145Y-126145D01*
X371708Y-129114D01*
X369897Y-132502D01*
X368782Y-136177D01*
X368406Y-140000D01*
X368782Y-143823D01*
X369897Y-147498D01*
X371708Y-150886D01*
X374145Y-153855D01*
X377114Y-156292D01*
X380502Y-158103D01*
X384177Y-159218D01*
X388000Y-159594D01*
X391823Y-159218D01*
X395499Y-158103D01*
X398886Y-156292D01*
X401855Y-153855D01*
X404292Y-150886D01*
X406103Y-147498D01*
X407218Y-143823D01*
X407594Y-140000D01*
X407218Y-136177D01*
X406103Y-132502D01*
X404292Y-129114D01*
X401855Y-126145D01*
X398886Y-123708D01*
X395499Y-121897D01*
X391823Y-120782D01*
X388000Y-120406D01*
D02*
G37*
G36*
X449000Y-167435D02*
X447042Y-167693D01*
X445218Y-168449D01*
X443651Y-169651D01*
X442449Y-171218D01*
X441693Y-173042D01*
X441435Y-175000D01*
X441693Y-176958D01*
X442449Y-178782D01*
X443651Y-180349D01*
X445218Y-181551D01*
X447042Y-182307D01*
X449000Y-182565D01*
X450958Y-182307D01*
X452782Y-181551D01*
X454349Y-180349D01*
X455551Y-178782D01*
X456307Y-176958D01*
X456565Y-175000D01*
X456307Y-173042D01*
X455551Y-171218D01*
X454349Y-169651D01*
X452782Y-168449D01*
X450958Y-167693D01*
X449000Y-167435D01*
D02*
G37*
G36*
X377000D02*
X375042Y-167693D01*
X373218Y-168449D01*
X371651Y-169651D01*
X370449Y-171218D01*
X369693Y-173042D01*
X369435Y-175000D01*
X369693Y-176958D01*
X370449Y-178782D01*
X371651Y-180349D01*
X373218Y-181551D01*
X375042Y-182307D01*
X377000Y-182565D01*
X378958Y-182307D01*
X380782Y-181551D01*
X382349Y-180349D01*
X383551Y-178782D01*
X384307Y-176958D01*
X384565Y-175000D01*
X384307Y-173042D01*
X383551Y-171218D01*
X382349Y-169651D01*
X380782Y-168449D01*
X378958Y-167693D01*
X377000Y-167435D01*
D02*
G37*
G36*
X358000Y-171435D02*
X356042Y-171693D01*
X354218Y-172449D01*
X352651Y-173651D01*
X351449Y-175218D01*
X350693Y-177042D01*
X350435Y-179000D01*
X350693Y-180958D01*
X351449Y-182782D01*
X352651Y-184349D01*
X354218Y-185551D01*
X356042Y-186307D01*
X358000Y-186565D01*
X359958Y-186307D01*
X361782Y-185551D01*
X363349Y-184349D01*
X364551Y-182782D01*
X365307Y-180958D01*
X365565Y-179000D01*
X365307Y-177042D01*
X364551Y-175218D01*
X363349Y-173651D01*
X361782Y-172449D01*
X359958Y-171693D01*
X358000Y-171435D01*
D02*
G37*
G36*
X397000Y-219300D02*
X379000D01*
Y-237300D01*
X397000D01*
Y-219300D01*
D02*
G37*
G36*
X425000Y-196435D02*
X423042Y-196693D01*
X421218Y-197449D01*
X419651Y-198651D01*
X418449Y-200218D01*
X417693Y-202042D01*
X417435Y-204000D01*
X417693Y-205958D01*
X418449Y-207782D01*
X419392Y-209012D01*
Y-220677D01*
X406579Y-233491D01*
X405042Y-233693D01*
X403218Y-234449D01*
X401651Y-235651D01*
X400449Y-237218D01*
X399693Y-239042D01*
X399435Y-241000D01*
X399693Y-242958D01*
X400449Y-244782D01*
X401651Y-246349D01*
X403218Y-247551D01*
X405042Y-248307D01*
X407000Y-248565D01*
X408958Y-248307D01*
X410782Y-247551D01*
X412349Y-246349D01*
X413551Y-244782D01*
X414307Y-242958D01*
X414509Y-241421D01*
X428965Y-226965D01*
X430181Y-225146D01*
X430608Y-223000D01*
Y-209012D01*
X431551Y-207782D01*
X432307Y-205958D01*
X432565Y-204000D01*
X432307Y-202042D01*
X431551Y-200218D01*
X430349Y-198651D01*
X428782Y-197449D01*
X426958Y-196693D01*
X425000Y-196435D01*
D02*
G37*
G36*
X388000Y-244622D02*
X385650Y-244932D01*
X383461Y-245839D01*
X381581Y-247281D01*
X380139Y-249161D01*
X379232Y-251350D01*
X378922Y-253700D01*
X379232Y-256049D01*
X380139Y-258239D01*
X381581Y-260119D01*
X383461Y-261562D01*
X385650Y-262468D01*
X388000Y-262778D01*
X390350Y-262468D01*
X392539Y-261562D01*
X394419Y-260119D01*
X395862Y-258239D01*
X396768Y-256049D01*
X397078Y-253700D01*
X396768Y-251350D01*
X395862Y-249161D01*
X394419Y-247281D01*
X392539Y-245839D01*
X390350Y-244932D01*
X388000Y-244622D01*
D02*
G37*
%LPD*%
D10*
X377000Y-378500D02*
D03*
Y-395500D02*
D03*
X374000Y-439000D02*
D03*
Y-456000D02*
D03*
X390000Y-456000D02*
D03*
Y-439000D02*
D03*
X392000Y-394500D02*
D03*
Y-411501D02*
D03*
X416000Y-456000D02*
D03*
Y-439000D02*
D03*
X185000Y-450500D02*
D03*
Y-433500D02*
D03*
X177000Y-406500D02*
D03*
Y-389500D02*
D03*
X171000Y-69000D02*
D03*
Y-52000D02*
D03*
X108000Y-56500D02*
D03*
Y-39500D02*
D03*
X187000Y-296000D02*
D03*
Y-279000D02*
D03*
X145000Y-279500D02*
D03*
Y-296500D02*
D03*
X181000Y-247500D02*
D03*
Y-230500D02*
D03*
D11*
X309000Y-417000D02*
D03*
X326000D02*
D03*
X171500Y-433000D02*
D03*
X154500D02*
D03*
X139500Y-433000D02*
D03*
X122500D02*
D03*
X183000Y-370000D02*
D03*
X166000D02*
D03*
X206000Y-339000D02*
D03*
X189000D02*
D03*
X223000D02*
D03*
X240000D02*
D03*
X136000Y-23000D02*
D03*
X153000D02*
D03*
X116000Y-101000D02*
D03*
X133000D02*
D03*
Y-117000D02*
D03*
X116000D02*
D03*
D15*
X158000Y-136000D02*
D03*
X140000D02*
D03*
D16*
X91000Y-98000D02*
D03*
Y-80000D02*
D03*
X165000Y-296000D02*
D03*
Y-278000D02*
D03*
D17*
X152000Y-77000D02*
D03*
Y-95000D02*
D03*
D34*
X149000Y-117000D02*
D03*
X169000D02*
D03*
D38*
X302000Y-271000D02*
D03*
X314000D02*
D03*
D39*
X195000Y-371000D02*
Y-370000D01*
X73000Y-350999D02*
X73999D01*
D40*
X119000Y-386000D02*
X180000D01*
X112001D02*
X119000D01*
Y-368000D01*
X109000Y-358000D02*
X119000Y-368000D01*
X326000Y-373999D02*
X340999Y-358999D01*
X326000Y-417000D02*
Y-373999D01*
X339999Y-358999D02*
X340999D01*
X278000Y-343000D02*
X292000D01*
X258000Y-323000D02*
X278000Y-343000D01*
X258000Y-323000D02*
Y-304000D01*
X289000Y-334000D02*
X302000D01*
X269000Y-314000D02*
X289000Y-334000D01*
X269000Y-314000D02*
Y-286000D01*
X266000Y-283000D02*
X269000Y-286000D01*
X302000Y-334000D02*
X311000Y-343000D01*
X338000Y-446000D02*
X345000Y-439000D01*
X374000D01*
X286999Y-461999D02*
X294000D01*
X374999Y-456999D02*
X389001D01*
X171500Y-433000D02*
X184500D01*
X171500Y-412000D02*
X177000Y-406500D01*
X171500Y-433000D02*
Y-412000D01*
X141500Y-433000D02*
X154500D01*
X141000Y-432500D02*
Y-420000D01*
X183000Y-370000D02*
X195000D01*
X180000Y-386000D02*
X195000Y-371000D01*
X223000Y-344000D02*
Y-339000D01*
Y-344000D02*
X229000Y-350000D01*
X206000Y-346000D02*
Y-339000D01*
X202000Y-350000D02*
X206000Y-346000D01*
X199000Y-350000D02*
X202000D01*
X109000Y-382999D02*
X112001Y-386000D01*
X187000Y-267000D02*
Y-267000D01*
X186000Y-266000D02*
X187000Y-267000D01*
X135500Y-47500D02*
Y-38500D01*
Y-47500D02*
X137000Y-49000D01*
X161000D01*
X164000Y-52000D01*
X171000D01*
X135500Y-38500D02*
Y-23500D01*
X154500Y-38500D02*
Y-24500D01*
X165000Y-296000D02*
X187000D01*
X145000Y-296500D02*
X162500D01*
X145000Y-279500D02*
Y-252700D01*
D42*
X295500Y-417000D02*
X309000D01*
X181000Y-230500D02*
X197500Y-214000D01*
X205000D01*
X131000Y-135000D02*
X135000D01*
X116000Y-120000D02*
X131000Y-135000D01*
X116000Y-120000D02*
Y-117000D01*
X187000Y-279000D02*
Y-267000D01*
X165000Y-39500D02*
Y-38000D01*
X164500Y-40000D02*
X165000Y-39500D01*
X163000Y-38500D02*
X164500Y-40000D01*
X154500Y-38500D02*
X163000D01*
X145000Y-77000D02*
X152000D01*
X139500D02*
X145000D01*
Y-61500D01*
X116000Y-117000D02*
Y-101000D01*
X91000Y-98000D02*
X94000Y-101000D01*
X116000D01*
X91000Y-80000D02*
X109500D01*
Y-59000D01*
X169000Y-113000D02*
X170000Y-137000D01*
X152000Y-96000D02*
X169000Y-113000D01*
X140000Y-117000D02*
X148000D01*
X133000D02*
X140000D01*
X133000D02*
Y-101000D01*
X160000Y-137000D02*
X170000D01*
X425000Y-223000D02*
Y-204000D01*
X407000Y-241000D02*
X425000Y-223000D01*
D43*
X301000Y-282347D02*
Y-257347D01*
X315000Y-282000D02*
Y-259000D01*
X181000Y-257000D02*
Y-247500D01*
X175000Y-257000D02*
X181000D01*
X165000Y-267000D02*
X175000Y-257000D01*
X165000Y-278000D02*
Y-267000D01*
X108000Y-23000D02*
X120000D01*
X108000Y-39500D02*
Y-23000D01*
D44*
X302000Y-271000D02*
X314000D01*
D45*
X199000Y-350000D02*
D03*
X229000D02*
D03*
X191000Y-421000D02*
D03*
X391000Y-412000D02*
D03*
X82000Y-217000D02*
D03*
Y-230000D02*
D03*
X95000Y-403000D02*
D03*
X244500Y-398893D02*
D03*
X152500Y-420500D02*
D03*
X109000Y-397000D02*
D03*
X57000Y-277000D02*
D03*
X40000Y-278000D02*
D03*
X79000Y-340000D02*
D03*
X73000Y-377000D02*
D03*
X234000Y-402000D02*
D03*
X241000Y-376000D02*
D03*
X222000Y-462000D02*
D03*
X248000D02*
D03*
X286999Y-461999D02*
D03*
X273000Y-462000D02*
D03*
X262500Y-439000D02*
D03*
X377000Y-409000D02*
D03*
Y-395500D02*
D03*
X109000Y-382999D02*
D03*
X109000Y-371000D02*
D03*
X142500Y-345500D02*
D03*
X141000Y-420000D02*
D03*
X73000Y-350999D02*
D03*
D46*
X157700Y-240000D02*
D03*
X145000Y-227300D02*
D03*
Y-252700D02*
D03*
X110000Y-101000D02*
D03*
X113000Y-117000D02*
D03*
X135000Y-135000D02*
D03*
X91000Y-98000D02*
D03*
X140000Y-117000D02*
D03*
X170000Y-137000D02*
D03*
X109000Y-224000D02*
D03*
X335000Y-234000D02*
D03*
X335000Y-283500D02*
D03*
Y-266000D02*
D03*
X449000Y-261000D02*
D03*
X393000Y-284500D02*
D03*
X460000Y-132000D02*
D03*
D47*
X388000Y-228300D02*
D03*
D48*
Y-253700D02*
D03*
D49*
X45000Y-240000D02*
D03*
X245000D02*
D03*
X388000Y-340000D02*
D03*
Y-140000D02*
D03*
X450000Y-30000D02*
D03*
Y-445000D02*
D03*
X30000Y-450000D02*
D03*
Y-30000D02*
D03*
D50*
X114000Y-416000D02*
D03*
X109000Y-358000D02*
D03*
X110000Y-340000D02*
D03*
X90000Y-140000D02*
D03*
X60000D02*
D03*
X90000Y-180000D02*
D03*
X170000Y-200000D02*
D03*
X30000Y-140000D02*
D03*
Y-120000D02*
D03*
Y-100000D02*
D03*
Y-80000D02*
D03*
Y-60000D02*
D03*
X260000Y-170000D02*
D03*
Y-270000D02*
D03*
Y-210000D02*
D03*
Y-150000D02*
D03*
Y-130000D02*
D03*
X220000Y-110000D02*
D03*
X240000D02*
D03*
X260000D02*
D03*
X80000Y-407000D02*
D03*
X347000Y-115000D02*
D03*
X387000Y-97000D02*
D03*
X339999Y-358999D02*
D03*
X338000Y-446000D02*
D03*
X359000Y-439000D02*
D03*
X239000Y-363000D02*
D03*
X250000Y-355000D02*
D03*
X31000Y-384000D02*
D03*
X426000Y-381000D02*
D03*
X437000Y-419000D02*
D03*
X93000Y-284000D02*
D03*
X178500Y-180500D02*
D03*
X266000Y-283000D02*
D03*
X242000Y-312000D02*
D03*
X356000Y-80000D02*
D03*
X369000Y-114000D02*
D03*
X366000Y-80000D02*
D03*
X411000Y-115000D02*
D03*
X431000Y-163000D02*
D03*
X376000Y-205000D02*
D03*
X340000Y-211000D02*
D03*
X358000Y-208000D02*
D03*
X346000Y-80000D02*
D03*
X420000Y-41000D02*
D03*
X238000Y-421000D02*
D03*
X286000Y-300000D02*
D03*
X63000Y-395000D02*
D03*
X358000Y-179000D02*
D03*
X321000Y-335000D02*
D03*
X311000Y-343000D02*
D03*
X292000D02*
D03*
X258000Y-304000D02*
D03*
X240000Y-325000D02*
D03*
X205000Y-214000D02*
D03*
X266000Y-183000D02*
D03*
X246000Y-436000D02*
D03*
X191000Y-451000D02*
D03*
X316999Y-461999D02*
D03*
X82000Y-460000D02*
D03*
X346000Y-347000D02*
D03*
X304000Y-403000D02*
D03*
X260000Y-343000D02*
D03*
X455000Y-355000D02*
D03*
X358000Y-363000D02*
D03*
X377000Y-378000D02*
D03*
X457000Y-377000D02*
D03*
X458000Y-397000D02*
D03*
X374999Y-456999D02*
D03*
X416000Y-438000D02*
D03*
X263000Y-51000D02*
D03*
X228000D02*
D03*
X117000Y-433000D02*
D03*
X295000Y-325000D02*
D03*
X195000Y-370000D02*
D03*
X87000Y-23000D02*
D03*
X64000D02*
D03*
X162000Y-370000D02*
D03*
Y-394000D02*
D03*
X138000D02*
D03*
Y-371000D02*
D03*
X426000Y-148500D02*
D03*
X20000Y-410000D02*
D03*
Y-350000D02*
D03*
X187000Y-267000D02*
D03*
X171000Y-69000D02*
D03*
X321000Y-28000D02*
D03*
X120000Y-23000D02*
D03*
X309000Y-28000D02*
D03*
X108000Y-23000D02*
D03*
X165000Y-38000D02*
D03*
X460000Y-67000D02*
D03*
X449000Y-175000D02*
D03*
X377000D02*
D03*
X425000Y-204000D02*
D03*
X407000Y-241000D02*
D03*
D51*
X278500Y-417000D02*
D03*
X295500D02*
D03*
D52*
X298000Y-456000D02*
D03*
X323000D02*
D03*
X272000D02*
D03*
X248000Y-456200D02*
D03*
X222600D02*
D03*
D53*
X454000Y-399000D02*
D03*
Y-376000D02*
D03*
Y-353000D02*
D03*
D54*
X145000Y-61500D02*
D03*
X154500Y-38500D02*
D03*
X135500D02*
D03*
D55*
X109500Y-80000D02*
D03*
X136500D02*
D03*
M02*
