G04 Layer_Color=65535*
%FSLAX44Y44*%
%MOMM*%
G71*
G01*
G75*
%ADD39C,0.2000*%
%ADD40C,0.3000*%
%ADD56C,0.2500*%
%ADD57C,0.3810*%
%ADD58C,0.1270*%
%ADD59C,0.1524*%
%ADD60C,0.2032*%
%ADD61C,0.1016*%
%ADD62C,0.2540*%
%ADD63C,0.3500*%
G36*
X331940Y-431940D02*
X321940D01*
X331940Y-421940D01*
Y-431940D01*
D02*
G37*
G36*
X127250Y-408510D02*
Y-410000D01*
X123000D01*
Y-405750D01*
X124490D01*
X127250Y-408510D01*
D02*
G37*
G36*
X260500Y-84500D02*
X250500D01*
X260500Y-74500D01*
Y-84500D01*
D02*
G37*
D39*
X127250Y-410000D02*
X126681Y-407875D01*
X125125Y-406319D01*
X123000Y-405750D01*
X177000Y-410000D02*
Y-405750D01*
X172750Y-410000D02*
X177000D01*
Y-360250D02*
Y-356000D01*
X172750D02*
X177000D01*
X123000D02*
X127250D01*
X123000Y-360250D02*
Y-356000D01*
Y-410000D02*
Y-405750D01*
Y-410000D02*
X127250D01*
X434920Y-97540D02*
X445080D01*
X409500Y-83000D02*
Y-52000D01*
X414500Y-83000D02*
Y-52000D01*
X409500D02*
X414500D01*
X409500Y-83000D02*
X414500D01*
X260500Y-84500D02*
Y-17500D01*
X223500D02*
X260500D01*
X223500Y-84500D02*
Y-17500D01*
Y-84500D02*
X260500D01*
X46500Y-355500D02*
Y-324500D01*
X51500Y-355500D02*
Y-324500D01*
X46500D02*
X51500D01*
X46500Y-355500D02*
X51500D01*
X361500Y-299000D02*
Y-268000D01*
X366500Y-299000D02*
Y-268000D01*
X361500D02*
X366500D01*
X361500Y-299000D02*
X366500D01*
X21000Y-181250D02*
X25000Y-177250D01*
X21000Y-197250D02*
Y-171250D01*
X47000Y-197250D02*
Y-191250D01*
Y-177250D02*
Y-171250D01*
X453000Y-304000D02*
X457000Y-300000D01*
Y-310000D02*
Y-284000D01*
X431000Y-290000D02*
Y-284000D01*
Y-310000D02*
Y-304000D01*
X412000Y-103000D02*
Y-91000D01*
X404500Y-182500D02*
Y-179500D01*
X435500Y-182500D02*
Y-179500D01*
X404500Y-182500D02*
X435500D01*
X404500Y-179500D02*
X435500D01*
X368920Y-237460D02*
X379080D01*
D40*
X127000Y-238000D02*
X129000Y-240000D01*
D56*
X133370Y-416500D02*
X131495Y-415417D01*
Y-417583D01*
X133370Y-416500D01*
X425250Y-85750D02*
X423375Y-84667D01*
Y-86833D01*
X425250Y-85750D01*
X62250Y-358250D02*
X60375Y-357168D01*
Y-359333D01*
X62250Y-358250D01*
X377250Y-301750D02*
X375375Y-300667D01*
Y-302833D01*
X377250Y-301750D01*
X398745Y-216500D02*
X396870Y-215417D01*
Y-217582D01*
X398745Y-216500D01*
X402750Y-193000D02*
X400875Y-191917D01*
Y-194083D01*
X402750Y-193000D01*
D57*
X346545Y-439560D02*
X345229Y-437748D01*
X343099Y-438440D01*
Y-440680D01*
X345229Y-441372D01*
X346545Y-439560D01*
D58*
X90936Y-391024D02*
Y-387976D01*
X99064Y-391024D02*
Y-387976D01*
X272278Y-347762D02*
Y-338238D01*
X268722Y-347762D02*
Y-338238D01*
X336222Y-465762D02*
Y-456238D01*
X339778Y-465762D02*
Y-456238D01*
X252722Y-446762D02*
Y-437238D01*
X256278Y-446762D02*
Y-437238D01*
X214976Y-363936D02*
X218024D01*
X214976Y-372064D02*
X218024D01*
X218278Y-387762D02*
Y-378238D01*
X214722Y-387762D02*
Y-378238D01*
X242476Y-187064D02*
X245524D01*
X242476Y-178936D02*
X245524D01*
X119496Y-273512D02*
Y-260488D01*
X116504Y-273512D02*
Y-260488D01*
X406278Y-45762D02*
Y-36238D01*
X402722Y-45762D02*
Y-36238D01*
X312238Y-37278D02*
X321762D01*
X312238Y-33722D02*
X321762D01*
X115722Y-254762D02*
Y-245238D01*
X119278Y-254762D02*
Y-245238D01*
X134238Y-202722D02*
X143762D01*
X134238Y-206278D02*
X143762D01*
X292488Y-61504D02*
X305512D01*
X292488Y-64496D02*
X305512D01*
X453278Y-120762D02*
Y-111238D01*
X449722Y-120762D02*
Y-111238D01*
X35238Y-295278D02*
X44762D01*
X35238Y-291722D02*
X44762D01*
X52238Y-294278D02*
X61762D01*
X52238Y-290722D02*
X61762D01*
X14488Y-361496D02*
X27512D01*
X14488Y-358504D02*
X27512D01*
X47722Y-373762D02*
Y-364238D01*
X51278Y-373762D02*
Y-364238D01*
X388238Y-182722D02*
X397762D01*
X388238Y-186278D02*
X397762D01*
X444238Y-246778D02*
X453762D01*
X444238Y-243222D02*
X453762D01*
X324504Y-272512D02*
Y-259488D01*
X327496Y-272512D02*
Y-259488D01*
X341722Y-253762D02*
Y-244238D01*
X345278Y-253762D02*
Y-244238D01*
X330238Y-290222D02*
X339762D01*
X330238Y-293778D02*
X339762D01*
X445080Y-97540D02*
Y-90500D01*
X434920Y-97540D02*
Y-90500D01*
X371976Y-92936D02*
X375024D01*
X371976Y-101064D02*
X375024D01*
X449976Y-136064D02*
X453024D01*
X449976Y-127936D02*
X453024D01*
X454936Y-77024D02*
Y-73976D01*
X463064Y-77024D02*
Y-73976D01*
X73064Y-190024D02*
Y-186976D01*
X64936Y-190024D02*
Y-186976D01*
X47476Y-276064D02*
X50524D01*
X47476Y-267936D02*
X50524D01*
X27476Y-405936D02*
X30524D01*
X27476Y-414064D02*
X30524D01*
X24064Y-328024D02*
Y-324976D01*
X15936Y-328024D02*
Y-324976D01*
X72650Y-333810D02*
Y-326190D01*
X85350Y-333810D02*
Y-326190D01*
X46976Y-318064D02*
X50024D01*
X46976Y-309936D02*
X50024D01*
X430064Y-141524D02*
Y-138476D01*
X421936Y-141524D02*
Y-138476D01*
X68936Y-370024D02*
Y-366976D01*
X77064Y-370024D02*
Y-366976D01*
X444936Y-200024D02*
Y-196976D01*
X453064Y-200024D02*
Y-196976D01*
X410190Y-260350D02*
X417810D01*
X410190Y-247650D02*
X417810D01*
X405936Y-284024D02*
Y-280976D01*
X414064Y-284024D02*
Y-280976D01*
X314936Y-242024D02*
Y-238976D01*
X323064Y-242024D02*
Y-238976D01*
X341976Y-238064D02*
X345024D01*
X341976Y-229936D02*
X345024D01*
X212976Y-334936D02*
X216024D01*
X212976Y-343064D02*
X216024D01*
X397064Y-294524D02*
Y-291476D01*
X388936Y-294524D02*
Y-291476D01*
X330976Y-323064D02*
X334024D01*
X330976Y-314936D02*
X334024D01*
X368920Y-244500D02*
Y-237460D01*
X379080Y-244500D02*
Y-237460D01*
D59*
X276060Y-376060D02*
X331940D01*
X276060Y-431940D02*
X331940D01*
X276060D02*
Y-376060D01*
X331940Y-431940D02*
Y-376060D01*
D60*
X87410Y-207000D02*
X130590D01*
X87410Y-241510D02*
Y-207000D01*
X130590Y-241510D02*
Y-207000D01*
X87410Y-241510D02*
X130590D01*
D61*
X115476Y-288064D02*
X118524D01*
X115476Y-279936D02*
X118524D01*
X384064Y-69024D02*
Y-65976D01*
X375936Y-69024D02*
Y-65976D01*
X72064Y-446524D02*
Y-443476D01*
X63936Y-446524D02*
Y-443476D01*
X47976Y-390936D02*
X51024D01*
X47976Y-399064D02*
X51024D01*
X372936Y-185524D02*
Y-182476D01*
X381064Y-185524D02*
Y-182476D01*
X323064Y-293524D02*
Y-290476D01*
X314936Y-293524D02*
Y-290476D01*
D62*
X387000Y-429000D02*
Y-419000D01*
X419500Y-429000D02*
Y-419000D01*
X233000Y-202000D02*
Y-194003D01*
X236999D01*
X238332Y-195336D01*
Y-198001D01*
X236999Y-199334D01*
X233000D01*
X235666D02*
X238332Y-202000D01*
X246329D02*
X240997D01*
X246329Y-196668D01*
Y-195336D01*
X244996Y-194003D01*
X242330D01*
X240997Y-195336D01*
X248995D02*
X250328Y-194003D01*
X252994D01*
X254326Y-195336D01*
Y-196668D01*
X252994Y-198001D01*
X254326Y-199334D01*
Y-200667D01*
X252994Y-202000D01*
X250328D01*
X248995Y-200667D01*
Y-199334D01*
X250328Y-198001D01*
X248995Y-196668D01*
Y-195336D01*
X250328Y-198001D02*
X252994D01*
X352000Y-326000D02*
Y-318003D01*
X355999D01*
X357332Y-319335D01*
Y-322001D01*
X355999Y-323334D01*
X352000D01*
X354666D02*
X357332Y-326000D01*
X365329D02*
X359997D01*
X365329Y-320668D01*
Y-319335D01*
X363996Y-318003D01*
X361330D01*
X359997Y-319335D01*
X367995Y-318003D02*
X373326D01*
Y-319335D01*
X367995Y-324667D01*
Y-326000D01*
X204500Y-329000D02*
Y-321003D01*
X208499D01*
X209832Y-322336D01*
Y-325001D01*
X208499Y-326334D01*
X204500D01*
X207166D02*
X209832Y-329000D01*
X217829D02*
X212497D01*
X217829Y-323668D01*
Y-322336D01*
X216496Y-321003D01*
X213830D01*
X212497Y-322336D01*
X224494Y-329000D02*
Y-321003D01*
X220495Y-325001D01*
X225826D01*
X309000Y-245000D02*
X301003D01*
Y-241001D01*
X302335Y-239668D01*
X305001D01*
X306334Y-241001D01*
Y-245000D01*
Y-242334D02*
X309000Y-239668D01*
Y-231671D02*
Y-237003D01*
X303668Y-231671D01*
X302335D01*
X301003Y-233004D01*
Y-235670D01*
X302335Y-237003D01*
X309000Y-223673D02*
Y-229005D01*
X303668Y-223673D01*
X302335D01*
X301003Y-225006D01*
Y-227672D01*
X302335Y-229005D01*
X90000Y-374000D02*
X82003D01*
Y-370001D01*
X83336Y-368668D01*
X86001D01*
X87334Y-370001D01*
Y-374000D01*
Y-371334D02*
X90000Y-368668D01*
Y-366003D02*
Y-363337D01*
Y-364670D01*
X82003D01*
X83336Y-366003D01*
X82003Y-359338D02*
Y-354006D01*
X83336D01*
X88667Y-359338D01*
X90000D01*
X99000Y-340000D02*
X91003D01*
Y-336001D01*
X92336Y-334668D01*
X95001D01*
X96334Y-336001D01*
Y-340000D01*
Y-337334D02*
X99000Y-334668D01*
Y-332003D02*
Y-329337D01*
Y-330670D01*
X91003D01*
X92336Y-332003D01*
X99000Y-321339D02*
X91003D01*
X95001Y-325338D01*
Y-320006D01*
X24000Y-307000D02*
X16003D01*
Y-303001D01*
X17335Y-301668D01*
X20001D01*
X21334Y-303001D01*
Y-307000D01*
Y-304334D02*
X24000Y-301668D01*
Y-299003D02*
Y-296337D01*
Y-297670D01*
X16003D01*
X17335Y-299003D01*
Y-292338D02*
X16003Y-291005D01*
Y-288339D01*
X17335Y-287006D01*
X18668D01*
X20001Y-288339D01*
Y-289672D01*
Y-288339D01*
X21334Y-287006D01*
X22667D01*
X24000Y-288339D01*
Y-291005D01*
X22667Y-292338D01*
X48000Y-414000D02*
Y-406003D01*
X51999D01*
X53332Y-407336D01*
Y-410001D01*
X51999Y-411334D01*
X48000D01*
X50666D02*
X53332Y-414000D01*
X55997D02*
X58663D01*
X57330D01*
Y-406003D01*
X55997Y-407336D01*
X67994Y-414000D02*
X62662D01*
X67994Y-408668D01*
Y-407336D01*
X66661Y-406003D01*
X63995D01*
X62662Y-407336D01*
X90000Y-200000D02*
X82003D01*
Y-196001D01*
X83336Y-194668D01*
X86001D01*
X87334Y-196001D01*
Y-200000D01*
Y-197334D02*
X90000Y-194668D01*
X82003Y-192003D02*
Y-186671D01*
X83336D01*
X88667Y-192003D01*
X90000D01*
X449000Y-80000D02*
X441003D01*
Y-76001D01*
X442336Y-74668D01*
X445001D01*
X446334Y-76001D01*
Y-80000D01*
Y-77334D02*
X449000Y-74668D01*
X441003Y-66671D02*
X442336Y-69337D01*
X445001Y-72003D01*
X447667D01*
X449000Y-70670D01*
Y-68004D01*
X447667Y-66671D01*
X446334D01*
X445001Y-68004D01*
Y-72003D01*
X447500Y-149000D02*
Y-141003D01*
X451499D01*
X452832Y-142336D01*
Y-145001D01*
X451499Y-146334D01*
X447500D01*
X450166D02*
X452832Y-149000D01*
X460829Y-141003D02*
X455497D01*
Y-145001D01*
X458163Y-143668D01*
X459496D01*
X460829Y-145001D01*
Y-147667D01*
X459496Y-149000D01*
X456830D01*
X455497Y-147667D01*
X342000Y-101000D02*
Y-93003D01*
X345999D01*
X347332Y-94335D01*
Y-97001D01*
X345999Y-98334D01*
X342000D01*
X344666D02*
X347332Y-101000D01*
X353996D02*
Y-93003D01*
X349997Y-97001D01*
X355329D01*
X58000Y-57000D02*
Y-49003D01*
X61999D01*
X63332Y-50335D01*
Y-53001D01*
X61999Y-54334D01*
X58000D01*
X71329Y-57000D02*
X65997D01*
X71329Y-51668D01*
Y-50335D01*
X69996Y-49003D01*
X67330D01*
X65997Y-50335D01*
X380000Y-31000D02*
X372003D01*
Y-27001D01*
X373335Y-25668D01*
X376001D01*
X377334Y-27001D01*
Y-31000D01*
X380000Y-23003D02*
Y-20337D01*
Y-21670D01*
X372003D01*
X373335Y-23003D01*
X301003Y-302000D02*
X309000D01*
Y-296668D01*
Y-294003D02*
Y-291337D01*
Y-292670D01*
X301003D01*
X302335Y-294003D01*
Y-287338D02*
X301003Y-286005D01*
Y-283339D01*
X302335Y-282006D01*
X307667D01*
X309000Y-283339D01*
Y-286005D01*
X307667Y-287338D01*
X302335D01*
X72000Y-389003D02*
Y-397000D01*
X77332D01*
X79997Y-389003D02*
X85329D01*
Y-390336D01*
X79997Y-395667D01*
Y-397000D01*
X78003Y-452500D02*
X86000D01*
Y-447168D01*
X78003Y-439171D02*
X79335Y-441837D01*
X82001Y-444503D01*
X84667D01*
X86000Y-443170D01*
Y-440504D01*
X84667Y-439171D01*
X83334D01*
X82001Y-440504D01*
Y-444503D01*
X392000Y-109003D02*
Y-117000D01*
X397332D01*
X399997Y-110336D02*
X401330Y-109003D01*
X403996D01*
X405329Y-110336D01*
Y-111668D01*
X403996Y-113001D01*
X402663D01*
X403996D01*
X405329Y-114334D01*
Y-115667D01*
X403996Y-117000D01*
X401330D01*
X399997Y-115667D01*
X362003Y-75000D02*
X370000D01*
Y-69668D01*
Y-61671D02*
Y-67003D01*
X364668Y-61671D01*
X363335D01*
X362003Y-63004D01*
Y-65670D01*
X363335Y-67003D01*
X110000Y-294003D02*
Y-302000D01*
X115332D01*
X117997D02*
X120663D01*
X119330D01*
Y-294003D01*
X117997Y-295336D01*
X348000Y-303003D02*
Y-311000D01*
X351999D01*
X353332Y-309667D01*
Y-304335D01*
X351999Y-303003D01*
X348000D01*
X355997Y-311000D02*
Y-305668D01*
X358663Y-303003D01*
X361329Y-305668D01*
Y-311000D01*
Y-307001D01*
X355997D01*
X369326Y-303003D02*
X363995D01*
Y-307001D01*
X366661Y-305668D01*
X367994D01*
X369326Y-307001D01*
Y-309667D01*
X367994Y-311000D01*
X365328D01*
X363995Y-309667D01*
X418000Y-110003D02*
Y-118000D01*
X421999D01*
X423332Y-116667D01*
Y-111335D01*
X421999Y-110003D01*
X418000D01*
X431329Y-118000D02*
X425997D01*
X431329Y-112668D01*
Y-111335D01*
X429996Y-110003D01*
X427330D01*
X425997Y-111335D01*
X300336Y-270668D02*
X299003Y-272001D01*
Y-274667D01*
X300336Y-276000D01*
X305667D01*
X307000Y-274667D01*
Y-272001D01*
X305667Y-270668D01*
X307000Y-268003D02*
Y-265337D01*
Y-266670D01*
X299003D01*
X300336Y-268003D01*
X305667Y-261338D02*
X307000Y-260005D01*
Y-257339D01*
X305667Y-256006D01*
X300336D01*
X299003Y-257339D01*
Y-260005D01*
X300336Y-261338D01*
X301668D01*
X303001Y-260005D01*
Y-256006D01*
X44332Y-378335D02*
X42999Y-377003D01*
X40333D01*
X39000Y-378335D01*
Y-383667D01*
X40333Y-385000D01*
X42999D01*
X44332Y-383667D01*
X46997Y-385000D02*
X49663D01*
X48330D01*
Y-377003D01*
X46997Y-378335D01*
X58994Y-377003D02*
X53662D01*
Y-381001D01*
X56328Y-379668D01*
X57661D01*
X58994Y-381001D01*
Y-383667D01*
X57661Y-385000D01*
X54995D01*
X53662Y-383667D01*
X18335Y-392668D02*
X17003Y-394001D01*
Y-396667D01*
X18335Y-398000D01*
X23667D01*
X25000Y-396667D01*
Y-394001D01*
X23667Y-392668D01*
X25000Y-390003D02*
Y-387337D01*
Y-388670D01*
X17003D01*
X18335Y-390003D01*
X25000Y-379339D02*
X17003D01*
X21001Y-383338D01*
Y-378006D01*
X457332Y-98336D02*
X455999Y-97003D01*
X453333D01*
X452000Y-98336D01*
Y-103667D01*
X453333Y-105000D01*
X455999D01*
X457332Y-103667D01*
X459997D02*
X461330Y-105000D01*
X463996D01*
X465329Y-103667D01*
Y-98336D01*
X463996Y-97003D01*
X461330D01*
X459997Y-98336D01*
Y-99668D01*
X461330Y-101001D01*
X465329D01*
X314335Y-67668D02*
X313003Y-69001D01*
Y-71667D01*
X314335Y-73000D01*
X319667D01*
X321000Y-71667D01*
Y-69001D01*
X319667Y-67668D01*
X313003Y-65003D02*
Y-59671D01*
X314335D01*
X319667Y-65003D01*
X321000D01*
X150336Y-205668D02*
X149003Y-207001D01*
Y-209667D01*
X150336Y-211000D01*
X155667D01*
X157000Y-209667D01*
Y-207001D01*
X155667Y-205668D01*
X149003Y-197671D02*
Y-203003D01*
X153001D01*
X151668Y-200337D01*
Y-199004D01*
X153001Y-197671D01*
X155667D01*
X157000Y-199004D01*
Y-201670D01*
X155667Y-203003D01*
X297332Y-37336D02*
X295999Y-36003D01*
X293333D01*
X292000Y-37336D01*
Y-42667D01*
X293333Y-44000D01*
X295999D01*
X297332Y-42667D01*
X299997Y-37336D02*
X301330Y-36003D01*
X303996D01*
X305329Y-37336D01*
Y-38668D01*
X303996Y-40001D01*
X302663D01*
X303996D01*
X305329Y-41334D01*
Y-42667D01*
X303996Y-44000D01*
X301330D01*
X299997Y-42667D01*
X403332Y-23335D02*
X401999Y-22003D01*
X399333D01*
X398000Y-23335D01*
Y-28667D01*
X399333Y-30000D01*
X401999D01*
X403332Y-28667D01*
X411329Y-30000D02*
X405997D01*
X411329Y-24668D01*
Y-23335D01*
X409996Y-22003D01*
X407330D01*
X405997Y-23335D01*
X142332Y-264335D02*
X140999Y-263003D01*
X138333D01*
X137000Y-264335D01*
Y-269667D01*
X138333Y-271000D01*
X140999D01*
X142332Y-269667D01*
X144997Y-271000D02*
X147663D01*
X146330D01*
Y-263003D01*
X144997Y-264335D01*
D63*
X445488Y-103619D02*
X445869Y-104000D01*
X446250Y-103619D01*
X445869Y-103238D01*
X445488Y-103619D01*
X368512Y-231381D02*
X368131Y-231000D01*
X367750Y-231381D01*
X368131Y-231762D01*
X368512Y-231381D01*
M02*
